<?xml version="1.0" standalone="no"?>
<!DOCTYPE svg PUBLIC "-//W3C//DTD SVG 1.1//EN" "http://www.w3.org/Graphics/SVG/1.1/DTD/svg11.dtd" >
<svg xmlns="http://www.w3.org/2000/svg" xmlns:xlink="http://www.w3.org/1999/xlink" version="1.1">
<metadata>
Created by FontForge 20170731 at Sat Apr 15 09:49:02 2017
 By Aleksey,,,
Copyright (c) 2017 by Creativetacos. All rights reserved.
</metadata>
<defs>
<font id="Zimra-Regular" horiz-adv-x="594" >
  <font-face 
    font-family="Zimra"
    font-weight="400"
    font-stretch="normal"
    units-per-em="1024"
    panose-1="0 0 0 0 0 0 0 0 0 0"
    ascent="819"
    descent="-205"
    x-height="500"
    cap-height="660"
    bbox="-60 -261 1108 928"
    underline-thickness="0"
    underline-position="0"
    unicode-range="U+000D-F078"
  />
<missing-glyph horiz-adv-x="472" 
d="M0 700h432v-700h-432v700zM50 50h332v600h-332v-600z" />
    <glyph glyph-name=".notdef" horiz-adv-x="472" 
d="M0 700h432v-700h-432v700zM50 50h332v600h-332v-600z" />
    <glyph glyph-name=".null" horiz-adv-x="0" 
 />
    <glyph glyph-name=".null" horiz-adv-x="0" 
 />
    <glyph glyph-name="nonmarkingreturn" unicode="&#xd;" horiz-adv-x="256" 
 />
    <glyph glyph-name="space" unicode=" " horiz-adv-x="250" 
 />
    <glyph glyph-name="exclam" unicode="!" horiz-adv-x="234" 
d="M125 -5q-26 0 -45.5 19.5t-19.5 45.5t19.5 45.5t45.5 19.5t45.5 -19.5t19.5 -45.5t-19.5 -45.5t-45.5 -19.5zM174 600l-43 -400h-12l-55 400q-4 26 12.5 45.5t42.5 19.5q25 0 41.5 -19.5t13.5 -45.5z" />
    <glyph glyph-name="quotedbl" unicode="&#x22;" horiz-adv-x="339" 
d="M185 660h115l-50 -260h-15zM40 660h115l-50 -260h-15z" />
    <glyph glyph-name="numbersign" unicode="#" horiz-adv-x="546" 
d="M390 665h35l-25 -170h126l-9 -70h-128l-28 -190h118l-9 -70h-119l-25 -165h-35l25 165h-136l-25 -165h-35l25 165h-128l10 70h128l28 190h-124l9 70h126l25 170h35l-25 -170h136zM218 425l-28 -190h136l28 190h-136z" />
    <glyph glyph-name="dollar" unicode="$" horiz-adv-x="509" 
d="M273 735h30v-75q32 -6 65 -17t56 -24v-131h-11q-3 8 -7.5 20.5t-7.5 20.5q-11 31 -38 59t-57 42v-267q33 -12 62.5 -33t51.5 -45.5t34.5 -51.5t12.5 -53q0 -32 -12.5 -61t-34 -53t-51 -41t-63.5 -25v-75h-30v71q-5 -1 -9.5 -1h-9.5h-15.5t-15.5 1v-71h-30v75
q-45 7 -87.5 20.5t-65.5 30.5l10 14v0l-10 -14v128h11q2 -6 5.5 -15t5.5 -15q14 -39 51 -72.5t80 -48.5v271q-31 13 -58 32.5t-47 42t-32 47.5t-12 48q0 33 11.5 63t31.5 54.5t47 43t59 27.5v78h30v-72q8 1 14.5 1.5t14.5 0.5h10.5t10.5 -1v71zM223 395q12 -6 24.5 -11.5
t25.5 -10.5v265q-15 3 -25 3q-7 0 -13 -0.5t-12 -1.5v-244zM193 412v217q-36 -16 -59 -48.5t-23 -72.5q0 -22 22.5 -47.5t59.5 -48.5zM223 289v-268q8 -1 15.5 -1.5t15.5 -0.5h9.5t9.5 1v248q-23 11 -50 21zM303 251v-224q40 14 66 44.5t26 68.5q0 26 -25 55.5t-67 55.5z
" />
    <glyph glyph-name="ampersand" unicode="&#x26;" horiz-adv-x="720" 
d="M636 380v-13h-12q-28 0 -48.5 -21t-20.5 -76v-30q0 -65 -40 -119q37 -35 67.5 -57t55.5 -34t45.5 -15t36.5 0v-15q-56 -10 -119.5 2.5t-136.5 64.5q-41 -33 -94.5 -52.5t-113.5 -19.5q-42 0 -79 13t-65.5 35.5t-45 52t-16.5 62.5q0 29 12.5 58.5t34.5 57.5t51.5 51.5
t63.5 39.5q-24 42 -38 76.5t-14 58.5q0 33 12 63t32.5 52.5t48 36t57.5 13.5t57.5 -9t48 -25t32.5 -37t12 -44q0 -25 -12.5 -49.5t-34.5 -46.5t-51.5 -40t-63.5 -29q23 -35 50 -72t57 -72q26 -32 50 -58.5t46 -47.5q34 48 34 105v30q0 55 -18 76t-43 21h-12v13h174zM289 399
q44 21 73 61t29 85q0 20 -7 38.5t-19 32.5t-27.5 22t-33.5 8q-15 0 -28.5 -8.5t-24 -23t-16.5 -34t-6 -40.5q0 -23 16 -59.5t44 -81.5zM447 80v0q-26 20 -52.5 46.5t-54.5 59.5q-33 40 -63.5 81.5t-54.5 80.5q-38 -24 -62.5 -67t-24.5 -88q0 -32 13.5 -61t37 -50.5t54.5 -34
t66 -12.5q40 0 76 12t65 33z" />
    <glyph glyph-name="quotesingle" unicode="'" horiz-adv-x="194" 
d="M40 660h115l-50 -260h-15z" />
    <glyph glyph-name="parenleft" unicode="(" horiz-adv-x="250" 
d="M230 690l11 -10q-45 -54 -78 -158.5t-33 -251.5t33 -251.5t78 -158.5l-11 -10q-34 41 -65 90.5t-54.5 103.5t-37 111.5t-13.5 114.5t13.5 114.5t37 111.5t54.5 103.5t65 90.5z" />
    <glyph glyph-name="parenright" unicode=")" horiz-adv-x="250" 
d="M10 -150l-11 10q22 27 42 67t35.5 92t24.5 115t9 136t-9 136t-24.5 115t-35.5 92t-42 67l11 10q35 -41 65.5 -90.5t54 -103.5t37 -111.5t13.5 -114.5t-13.5 -114.5t-37 -111.5t-54 -103.5t-65.5 -90.5z" />
    <glyph glyph-name="asterisk" unicode="*" horiz-adv-x="300" 
d="M143 540l-111 36q-14 5 -19 17t3 24q7 13 20 15t24 -8l87 -78l-24 114q-4 14 4.5 24.5t22.5 10.5t22.5 -10.5t5.5 -24.5l-24 -113l86 77q11 10 24 8t20 -15q8 -12 3 -24t-19 -17l-111 -36l111 -36q14 -5 19 -17t-3 -25q-7 -12 -20 -14t-24 8l-86 77l24 -113
q3 -14 -5.5 -24.5t-22.5 -10.5t-22.5 10.5t-4.5 24.5l24 114l-87 -78q-11 -10 -24 -8t-20 14q-8 13 -3 25t19 17z" />
    <glyph glyph-name="plus" unicode="+" horiz-adv-x="555" 
d="M253 450h44v-180h178v-40h-178v-180h-44v180h-178v40h178v180z" />
    <glyph glyph-name="comma" unicode="," horiz-adv-x="251" 
d="M125 -5q-26 0 -45.5 19.5t-19.5 45.5t19.5 45.5t45.5 19.5q19 0 34.5 -10.5t23.5 -26.5q8 -14 13 -29.5t5 -28.5q0 -24 -9.5 -50.5t-25.5 -51t-37 -44.5t-45 -32l-6 13q14 7 27 20t22.5 29.5t15 35t5.5 35.5v6.5t-1 7.5q-9 -4 -22 -4z" />
    <glyph glyph-name="hyphen" unicode="-" horiz-adv-x="280" 
d="M20 194v70h240v-70h-240z" />
    <glyph glyph-name="period" unicode="." horiz-adv-x="250" 
d="M125 -5q-26 0 -45.5 19.5t-19.5 45.5t19.5 45.5t45.5 19.5t45.5 -19.5t19.5 -45.5t-19.5 -45.5t-45.5 -19.5z" />
    <glyph glyph-name="slash" unicode="/" horiz-adv-x="350" 
d="M0 -145l310 855h40l-310 -855h-40z" />
    <glyph glyph-name="zero" unicode="0" horiz-adv-x="610" 
d="M305 15q32 0 60 19t49 51t33.5 74.5t12.5 90.5t-12.5 90.5t-33.5 74.5t-49 51t-60 19q-31 0 -59.5 -19t-49.5 -51t-33.5 -74.5t-12.5 -90.5t12.5 -90.5t33.5 -74.5t49.5 -51t59.5 -19zM50 250q0 52 20.5 98t55.5 81t81 55.5t98 20.5t98 -20.5t81 -55.5t55.5 -81t20.5 -98
t-20.5 -98t-55.5 -81t-81 -55.5t-98 -20.5t-98 20.5t-81 55.5t-55.5 81t-20.5 98z" />
    <glyph glyph-name="one" unicode="1" horiz-adv-x="321" 
d="M266 500v-13h-9q-20 0 -35 -23t-16 -55v-5v-308v-5q1 -32 16 -55t35 -23h9v-13h-60h-45h-45h-61v13h9q21 0 36.5 24.5t15.5 58.5v308q0 34 -15.5 58.5t-36.5 24.5h-9v13h61h45h45h60z" />
    <glyph glyph-name="two" unicode="2" horiz-adv-x="484" 
d="M446 151h12q-2 -22 -4.5 -53t-4.5 -53l-4 -45h-420v20q63 41 119 76.5t98.5 70.5t67.5 72.5t25 82.5q0 24 -8.5 45t-23.5 37t-35 25.5t-42 9.5t-45 -7t-42.5 -19t-35 -27.5t-22.5 -33.5l-11 7q12 30 34 56.5t49.5 46.5t58 31.5t59.5 11.5q33 0 63 -12t52.5 -33
t35.5 -48.5t13 -58.5q0 -30 -20.5 -60.5t-56.5 -63t-85.5 -67t-107.5 -72.5h192q34 0 60 15.5t28 36.5z" />
    <glyph glyph-name="three" unicode="3" horiz-adv-x="465" 
d="M24 -215v15q60 3 114 23.5t94.5 53t64 73.5t23.5 86q0 26 -12 48.5t-32 40t-46.5 27.5t-56.5 10q-13 0 -29.5 -2.5t-30.5 -6.5l-9 -3v15q20 7 40 15q14 7 27 14.5t25 15.5h-2h2q42 29 67.5 64t25.5 67q0 20 -8 37.5t-22.5 31t-33 21.5t-39.5 8q-24 0 -49.5 -5.5t-48 -15
t-41 -22t-27.5 -26.5l-11 7q18 26 44.5 49t57 40.5t62 28t59.5 10.5q30 0 57 -11t47 -29.5t32 -43t12 -51.5q0 -19 -10.5 -40t-30 -42t-46 -42t-58.5 -39q38 -6 71 -21.5t57 -37.5t38 -49.5t14 -57.5q0 -48 -31.5 -92t-85 -79.5t-124.5 -58t-150 -26.5z" />
    <glyph glyph-name="four" unicode="4" horiz-adv-x="490" 
d="M60 40h220v311zM280 0h-248h-3h-19v15l345 490h15v-27v-438h110v-40h-110v-150h-90v150z" />
    <glyph glyph-name="five" unicode="5" horiz-adv-x="450" 
d="M391 500l-31 -95h-255l7 95l-24 -309l7 89h67q48 0 91.5 -16t76.5 -43.5t52 -63.5t19 -77q0 -51 -29.5 -97t-80.5 -82t-118 -58t-142 -25l-1 17q57 2 107.5 20t89 47.5t61 67.5t22.5 80q0 29 -15.5 54.5t-42 44.5t-61.5 30.5t-74 11.5h-29h-23l20 309h27h182
q35 0 64.5 15.5t36.5 36.5l3 9h12q-4 -12 -9 -28t-10 -33v0z" />
    <glyph glyph-name="six" unicode="6" horiz-adv-x="569" 
d="M496 715v-15q-67 -2 -127 -33.5t-105.5 -82.5t-72 -118t-26.5 -140v-14q23 52 64.5 85t89.5 33q41 0 77.5 -17t64 -46.5t43.5 -68t16 -82.5q2 -45 -15 -85t-48.5 -70t-74.5 -48t-91 -18q-47 0 -89 24t-73.5 65t-50 95.5t-18.5 115.5q0 82 35 157t94.5 132.5t139 92.5
t167.5 38zM162 210q0 -39 11 -73.5t30 -60.5t44.5 -41t53.5 -15q27 0 50.5 15.5t40.5 41.5t26 60.5t7 73.5q0 39 -10 74.5t-26.5 62t-38.5 42t-46 15.5q-28 0 -53 -15.5t-44.5 -42.5t-31.5 -62.5t-13 -74.5z" />
    <glyph glyph-name="seven" unicode="7" horiz-adv-x="441" 
d="M29 347h-12q2 22 4.5 53.5t4.5 53.5l4 46h395l7 -9q-54 -158 -106 -315.5t-106 -315.5h-100l269 548h-271q-34 0 -60 -15.5t-28 -36.5z" />
    <glyph glyph-name="eight" unicode="8" horiz-adv-x="539" 
d="M324 360v0q26 19 42.5 58.5t16.5 85.5q0 29 -9.5 54.5t-25.5 45t-37.5 31t-45.5 11.5q-22 0 -41.5 -9.5t-34.5 -26t-23.5 -38.5t-8.5 -46q0 -21 10 -43t27 -42.5t40 -37t48 -25.5q21 -7 42 -18zM336 354v0q33 -18 61 -39.5t48.5 -45t32.5 -47t12 -44.5q0 -37 -17.5 -70.5
t-47.5 -58.5t-69.5 -39.5t-83.5 -14.5t-83.5 13.5t-69 36t-47 52.5t-17.5 64q0 29 10.5 56t28.5 48.5t42.5 36.5t52.5 21q-47 33 -77 79t-30 89q0 35 15 66.5t41 55.5t60 38t72 14t72 -11.5t59.5 -31.5t40.5 -46.5t15 -56.5q0 -25 -9 -50t-25.5 -47t-38.5 -39.5t-48 -28.5z
M199 316v0q-26 -15 -42.5 -53.5t-16.5 -86.5q0 -33 11 -62t30 -51.5t43.5 -35.5t52.5 -13q26 0 49 10.5t40.5 29t28 42.5t10.5 51q0 18 -12.5 38t-33.5 40t-49 37t-60 29q-14 5 -26 11t-25 14z" />
    <glyph glyph-name="nine" unicode="9" horiz-adv-x="569" 
d="M74 -215l-1 15q67 2 127.5 33.5t106 82.5t72 118t26.5 140v14q-23 -52 -64.5 -85t-89.5 -33q-41 0 -77.5 17t-64 46.5t-43.5 68.5t-16 82q-2 45 15 85t48.5 70t74 48t91.5 18q47 0 89 -24t73.5 -65t50 -95.5t18.5 -115.5q0 -82 -35 -157t-95 -132.5t-139 -92.5t-167 -38z
M408 290q0 39 -11 73.5t-30 60.5t-44.5 41t-53.5 15q-27 0 -51 -15.5t-41 -41.5t-25.5 -60.5t-6.5 -73.5q0 -39 9.5 -74.5t26 -62t38.5 -42t47 -15.5q28 0 53 15.5t44.5 42.5t31.5 62.5t13 74.5z" />
    <glyph glyph-name="colon" unicode=":" horiz-adv-x="250" 
d="M125 395q-26 0 -45.5 19.5t-19.5 45.5t19.5 45.5t45.5 19.5t45.5 -19.5t19.5 -45.5t-19.5 -45.5t-45.5 -19.5zM125 -5q-26 0 -45.5 19.5t-19.5 45.5t19.5 45.5t45.5 19.5t45.5 -19.5t19.5 -45.5t-19.5 -45.5t-45.5 -19.5z" />
    <glyph glyph-name="semicolon" unicode=";" horiz-adv-x="251" 
d="M125 395q-26 0 -45.5 19.5t-19.5 45.5t19.5 45.5t45.5 19.5t45.5 -19.5t19.5 -45.5t-19.5 -45.5t-45.5 -19.5zM125 -5q-26 0 -45.5 19.5t-19.5 45.5t19.5 45.5t45.5 19.5q19 0 34.5 -10.5t23.5 -26.5q8 -14 13 -29.5t5 -28.5q0 -24 -9.5 -50.5t-25.5 -51t-37 -44.5
t-45 -32l-6 13q14 7 27 20t22.5 29.5t15 35t5.5 35.5v6.5t-1 7.5q-9 -4 -22 -4z" />
    <glyph glyph-name="less" unicode="&#x3c;" horiz-adv-x="540" 
d="M465 500v-45l-385 -180l385 -180v-45l-415 199l-10 4v44l10 4z" />
    <glyph glyph-name="equal" unicode="=" horiz-adv-x="534" 
d="M84 220h380v-40h-380v40zM84 320h380v-40h-380v40z" />
    <glyph glyph-name="greater" unicode="&#x3e;" horiz-adv-x="530" 
d="M451 275l-376 180v45l405 -199l10 -5v-42l-10 -5l-405 -199v45z" />
    <glyph glyph-name="question" unicode="?" horiz-adv-x="370" 
d="M140 -5q-26 0 -45.5 19.5t-19.5 45.5t19.5 45.5t45.5 19.5t45.5 -19.5t19.5 -45.5t-19.5 -45.5t-45.5 -19.5zM128 374h35q43 0 72 7t47 17t25.5 21t7.5 18q0 32 -13.5 60.5t-36 50.5t-52.5 34.5t-63 12.5q-9 0 -18 -4.5t-18.5 -10t-18.5 -10t-18 -4.5q-16 0 -27.5 11.5
t-11.5 27.5q0 24 24.5 42t58.5 18q44 0 83 -19t68 -51.5t46.5 -76t17.5 -91.5q0 -15 -7 -36t-23.5 -40t-44 -32.5t-67.5 -13.5h-35l-13 -100h-12l-20 155q-2 14 14 14z" />
    <glyph glyph-name="at" unicode="@" horiz-adv-x="1163" 
d="M1041 0h30q-25 -53 -75 -100.5t-115 -83t-138.5 -56.5t-144.5 -21q-110 0 -208.5 41.5t-172.5 113t-117.5 166t-43.5 199.5t42.5 199.5t114.5 166t167.5 113t201.5 41.5q107 0 202.5 -35t167.5 -94.5t114 -138.5t42 -168q0 -74 -21.5 -140.5t-58 -116.5t-85.5 -79.5
t-103 -29.5q-36 0 -66.5 11t-53.5 30.5t-37.5 46.5t-19.5 58q-15 -25 -37 -46t-48 -36.5t-54.5 -24t-57.5 -8.5q-36 0 -68.5 14.5t-56.5 39.5t-38.5 58.5t-14.5 70.5q0 61 24 115t65 95t95 65t115 24q45 0 80.5 -25.5t49.5 -63.5l20 79h85l-70 -280q-10 -39 -6.5 -74
t17.5 -61t38 -41.5t55 -15.5q37 0 70 27t58 72.5t39.5 106.5t14.5 129q0 83 -36.5 158t-99 131t-145.5 89t-175 33t-175 -40t-145.5 -107.5t-99 -157.5t-36.5 -190t38 -190t102.5 -157.5t150 -107.5t181.5 -40q68 0 137 19t130 51.5t107.5 75t68.5 90.5zM706 355h-1
q0 22 -9.5 42t-26 35t-38.5 24t-46 9q-40 0 -76.5 -20.5t-63.5 -55.5t-43 -81.5t-16 -98.5q0 -31 10 -58.5t27.5 -48.5t40.5 -33t48 -12q24 0 48.5 11.5t45.5 31t37.5 45.5t23.5 55z" />
    <glyph glyph-name="A" unicode="A" horiz-adv-x="703" 
d="M667 13v-13h-49h-53h-53h-84v13h12q27 0 37.5 24.5t-3.5 58.5v0l-51 131h-236l-42 -122q-11 -38 0 -65t40 -27h13v-13h-89h-16h-16h-56v13h9q20 0 44.5 24.5t36.5 58.5v0l206 579h24l238 -579v0q14 -34 37.5 -58.5t42.5 -24.5h8zM413 252l-116 295l-101 -295h217z" />
    <glyph glyph-name="B" unicode="B" horiz-adv-x="613" 
d="M20 647v13h60h49h49h131q47 0 88.5 -12.5t73 -34.5t50 -51t18.5 -61q0 -27 -13.5 -51.5t-36.5 -44.5t-55 -35.5t-70 -23.5q48 -7 90 -22.5t73 -38t48.5 -50t17.5 -57.5q0 -36 -21 -68.5t-56 -56.5t-82 -38.5t-100 -14.5h-156h-49h-49h-60v13h9q20 0 35.5 24.5t15.5 58.5
v468q0 34 -15.5 58.5t-35.5 24.5h-9zM178 352h105q32 0 60.5 12t50.5 32.5t34.5 47.5t12.5 57q0 27 -10.5 51.5t-28.5 42.5t-42 29t-51 11h-131v-283zM178 330v-305h146q34 0 64 12t53 33t36.5 49t13.5 59t-17.5 58.5t-47.5 48.5t-70 33t-84 12h-94z" />
    <glyph glyph-name="C" unicode="C" horiz-adv-x="708" 
d="M648 484h-11q-2 6 -5.5 15t-5.5 15q-7 20 -23 39.5t-37.5 36t-46.5 28.5t-50 17q-39 6 -72 6q-49 0 -92.5 -25t-76.5 -67.5t-52 -99t-19 -119.5t19 -119.5t52 -99t76.5 -67.5t92.5 -25h11t12 1v0q33 2 66 13.5t61.5 30t49.5 41.5t30 48q2 7 5.5 16t5.5 15h11v-121l-7 10
v0l7 -10q-18 -14 -47.5 -26.5t-64 -21.5t-71 -14.5t-69.5 -5.5q-70 0 -133.5 27t-110.5 72.5t-75 106.5t-28 129t28 129t75 106.5t110.5 72.5t133.5 27q29 0 64 -4.5t69.5 -12.5t65.5 -18.5t52 -22.5v-123z" />
    <glyph glyph-name="D" unicode="D" horiz-adv-x="708" 
d="M41 647v13h60h49h49h108q71 0 135 -26.5t112 -71.5t76.5 -105t28.5 -127t-25.5 -127t-68.5 -105t-100 -71.5t-121 -26.5h-145h-49h-49h-60v13h9q20 0 35.5 24.5t15.5 58.5v468q0 34 -15.5 58.5t-35.5 24.5h-9zM199 25h145q44 0 83.5 24.5t69 66t47 97t17.5 117.5
t-20.5 117.5t-55 97t-81 66t-97.5 24.5h-108v-610z" />
    <glyph glyph-name="E" unicode="E" horiz-adv-x="584" 
d="M419 261h-11l-3 11q-3 12 -14.5 22.5t-29 18.5t-38.5 12.5t-43 4.5h-91v-306h138q24 0 49.5 7.5t48 20.5t40.5 29.5t28 35.5l8 16q0 2 9 0q1 1 1 0q-2 -12 -5 -28t-6 -32.5t-6 -32.5t-5 -28q0 -6 -2 -12h-3h-93h-202h-49h-49h-60v13h9q20 0 35.5 24.5t15.5 58.5v468
q0 34 -15.5 58.5t-35.5 24.5h-9v13h60h49h49h200h85h12v-12v-121h-10l-5 16q-6 19 -21.5 36t-36 29.5t-44.5 20t-48 7.5h-132v-282h91q22 0 43 4.5t38.5 11.5t29 16.5t14.5 19.5l3 9h11v-61v-12v-12v-69z" />
    <glyph glyph-name="F" unicode="F" horiz-adv-x="523" 
d="M419 257h-11l-3 10q-3 12 -14.5 22.5t-29 18.5t-38.5 12.5t-43 4.5h-81v-229v-5q1 -32 18.5 -55t41.5 -23h10v-13h-70h-49h-49h-60v13h9q20 0 35.5 24.5t15.5 58.5v468q0 34 -15.5 58.5t-35.5 24.5h-9v13h60h49h49h230h85h12v-12v-121h-10l-5 16q-6 19 -21.5 36t-36 29.5
t-44.5 20t-48 7.5h-162v-286h81h7q43 1 77.5 16t40.5 35l3 9h11v-60v-13v-12v-68z" />
    <glyph glyph-name="G" unicode="G" horiz-adv-x="708" 
d="M695 310v-13h-10q-20 0 -35.5 -24.5t-15.5 -58.5v-159q-21 -12 -51.5 -23t-64 -19t-68 -13t-63.5 -5q-68 0 -129.5 27t-107.5 72.5t-73 106.5t-27 129t27 129t73 106.5t107.5 72.5t129.5 27q27 0 60.5 -4.5t66.5 -12.5t63 -18.5t51 -22.5v-123h-11q-2 6 -5.5 15t-5.5 15
q-8 22 -25.5 42.5t-41 37.5t-50.5 28.5t-54 14.5v1q-25 3 -48 3q-46 0 -88 -25t-73.5 -67.5t-50 -99t-18.5 -119.5t18.5 -119.5t50 -99t73.5 -67.5t88 -25q35 0 78 7.5t81 19.5v168q0 34 -15 58.5t-36 24.5h-9v13h60h44h44h61z" />
    <glyph glyph-name="H" unicode="H" horiz-adv-x="750" 
d="M692 660v-13h-9q-20 0 -35 -23t-16 -55v-5v-468v-5q1 -32 16 -55t35 -23h9v-13h-60h-49h-49h-60v13h9q21 0 36 24.5t15 58.5v204h-354v-204v-5q1 -32 16 -55t35 -23h9v-13h-60h-49h-49h-60v13h9q20 0 35.5 24.5t15.5 58.5v468q0 34 -15.5 58.5t-35.5 24.5h-9v13h60h49h49
h60v-13h-9q-20 0 -35 -23t-16 -55v-5v-240h354v240q0 34 -15 58.5t-36 24.5h-9v13h60h49h49h60z" />
    <glyph glyph-name="I" unicode="I" horiz-adv-x="288" 
d="M249 660v-13h-9q-21 0 -36.5 -24.5t-15.5 -58.5v-468q0 -34 15.5 -58.5t36.5 -24.5h9v-13h-61h-48h-49h-61v13h10q20 0 35.5 24.5t15.5 58.5v468q0 34 -15.5 58.5t-35.5 24.5h-10v13h61h49h48h61z" />
    <glyph glyph-name="J" unicode="J" horiz-adv-x="373" 
d="M344 660v-13h-10q-20 0 -35.5 -24.5t-15.5 -58.5v-282q0 -143 -44.5 -217.5t-129.5 -74.5q-19 0 -37.5 5t-33.5 13t-25 19t-13 23q-5 17 7.5 28.5t32.5 11.5q14 0 27 -11.5t18 -28.5q4 -17 18.5 -28.5t30.5 -11.5q26 0 39 48.5t13 141.5v364q0 34 -15.5 58.5t-36.5 24.5
h-9v13h61h48h49h61z" />
    <glyph glyph-name="K" unicode="K" horiz-adv-x="655" 
d="M434 647v13h61h17h18h47v-13h-9q-10 0 -26 -6.5t-34 -17t-37.5 -25t-37.5 -30.5l-175 -164l161 -194q80 -95 136 -145t85 -50h5v-20h-35q-69 0 -136.5 37.5t-126.5 108.5l-161 195l-1 -1l-15 20v-259v-5q1 -32 16 -55t35 -23h9v-13h-60h-49h-49h-60v13h9q20 0 35.5 24.5
t15.5 58.5v468q0 34 -15.5 58.5t-35.5 24.5h-9v13h60h49h49h60v-13h-9q-20 0 -35 -23t-16 -55v-5v-209l72 69l1 -1l150 141h-1q37 34 51.5 58.5t-2.5 24.5h-7z" />
    <glyph glyph-name="L" unicode="L" horiz-adv-x="574" 
d="M487 146q4 -1 8 -3q7 -3 7 -4q-2 -13 -5 -29.5t-6 -34t-6 -34t-6 -29.5q0 -6 -2 -12h-3h-93h-202h-49h-49h-60v13h9q20 0 35.5 24.5t15.5 58.5v468q0 34 -15.5 58.5t-35.5 24.5h-9v13h60h49h49h60v-13h-9q-20 0 -35 -23t-16 -55v-5v-540h148q22 0 45 8.5t44 22.5
t37.5 32.5t25.5 39.5z" />
    <glyph glyph-name="M" unicode="M" horiz-adv-x="835" 
d="M826 13v-13h-60h-48h-49h-60v13h9q20 0 35 24.5t13 58.5v0l-15 484l-239 -585h-24l261 665h35h9h43h60q2 0 0 -6q2 -7 0 -7h-8q-21 0 -35 -24.5t-12 -58.5h-1l22 -468v0q2 -34 18.5 -58.5t36.5 -24.5h9zM59 647v13h60h15h15h42l242 -547v-1l-45 -117l-21 47l-223 495
l-16 -433q1 -38 21.5 -64.5t49.5 -26.5h13v-13h-88h-15h-15h-60v13h9q20 0 35.5 21.5t18.5 52.5l19 488q-2 30 -15.5 51t-32.5 21h-9z" />
    <glyph glyph-name="N" unicode="N" horiz-adv-x="663" 
d="M645 660v-13h-9q-21 0 -36 -24.5t-15 -58.5v-487v-97h-29l-45 62l-382 532v-478q0 -34 15.5 -58.5t36.5 -24.5h9v-13h-61h-14h-15h-60v13h9q20 0 35.5 24.5t15.5 58.5v468q0 34 -15.5 58.5t-35.5 24.5h-9v13h60h15h14h57l-57 -41v-1l57 42l370 -518v422q0 34 -15.5 58.5
t-36.5 24.5h-9v13h61h14h15h60z" />
    <glyph glyph-name="O" unicode="O" horiz-adv-x="759" 
d="M380 19q50 0 90.5 27.5t70 71.5t45.5 99.5t16 112.5t-16 112.5t-45.5 99.5t-70 71.5t-90.5 27.5t-91 -27.5t-70.5 -71.5t-45.5 -99.5t-16 -112.5t16 -112.5t45.5 -99.5t70.5 -71.5t91 -27.5zM50 330q0 61 24 121t67.5 107.5t104.5 77t134 29.5t133.5 -29.5t104 -77
t67.5 -107.5t24 -121t-24 -121t-67.5 -107.5t-104 -77t-133.5 -29.5t-134 29.5t-104.5 77t-67.5 107.5t-24 121z" />
    <glyph glyph-name="P" unicode="P" horiz-adv-x="547" 
d="M11 647v13h60h49h49h128q47 0 89 -15t73.5 -40.5t50 -59.5t18.5 -72q0 -37 -20.5 -71t-56 -59.5t-82 -40.5t-98.5 -15h-102v-191v-5q1 -32 16 -55t35 -23h9v-13h-60h-49h-49h-60v13h9q20 0 35.5 24.5t15.5 58.5v468q0 34 -15.5 58.5t-35.5 24.5h-9zM169 312h102
q32 0 60 13t49 35t33.5 51t12.5 62t-10.5 62.5t-28 51.5t-41 35t-49.5 13h-128v-323z" />
    <glyph glyph-name="Q" unicode="Q" horiz-adv-x="759" 
d="M802 -52q-14 -17 -35.5 -32t-45.5 -26.5t-49 -18t-47 -6.5q-32 0 -67.5 10.5t-71 28t-69.5 41.5t-63 51q-68 5 -124 36t-96 77.5t-62 104.5t-22 116q0 61 24 121t67.5 107.5t104.5 77t134 29.5t133.5 -29.5t104 -77t67.5 -107.5t24 -121q0 -60 -23 -119t-65 -106
t-100 -77t-129 -33q35 -27 99.5 -46t144.5 -19q27 0 53.5 2t48 5.5t36.5 8.5t19 10zM380 19q50 0 90.5 27.5t70 71.5t45.5 99.5t16 112.5t-16 112.5t-45.5 99.5t-70 71.5t-90.5 27.5t-91 -27.5t-70.5 -71.5t-45.5 -99.5t-16 -112.5t16 -112.5t45.5 -99.5t70.5 -71.5
t91 -27.5z" />
    <glyph glyph-name="R" unicode="R" horiz-adv-x="673" 
d="M41 647v13h60h49h49h121q45 0 85.5 -14t71 -38t48.5 -55.5t18 -67.5q0 -28 -12 -53.5t-33 -47.5t-50 -39t-63 -27l178 -231q17 -22 28.5 -35t20.5 -20t18 -9.5t20 -2.5h5v-20h-35q-37 0 -62 3.5t-45.5 15t-40.5 32.5t-46 55l-151 199h-76v-209v-5q1 -32 16 -55t35 -23h9
v-13h-60h-49h-49h-60v13h9q20 0 35.5 24.5t15.5 58.5v468q0 34 -15.5 58.5t-35.5 24.5h-9zM296 330q29 0 55.5 12.5t46.5 33.5t31.5 49.5t11.5 59.5q0 30 -10 57.5t-26.5 48t-38.5 32.5t-46 12h-121v-305h57h40z" />
    <glyph glyph-name="S" unicode="S" horiz-adv-x="490" 
d="M21 179h11q2 -6 5.5 -15t5.5 -15q8 -22 25 -43.5t38.5 -39t46.5 -29.5t49 -16q9 -1 17 -1.5t16 -0.5q29 0 54.5 10t44.5 26.5t30.5 38.5t11.5 46q0 19 -14.5 41t-39.5 42.5t-58 38.5t-70 30q-34 11 -64.5 30.5t-54 43.5t-37 51t-13.5 52q0 40 17 75.5t45.5 62.5t66 42.5
t79.5 15.5q18 0 41 -3.5t46.5 -10t45.5 -15t39 -17.5v-131h-11q-3 8 -7.5 20.5t-7.5 20.5q-6 17 -17.5 33.5t-25.5 30.5t-30.5 25t-32.5 16q-13 3 -24.5 5t-19.5 2q-28 0 -52.5 -10.5t-43.5 -29t-30 -42.5t-11 -51q0 -17 14.5 -37t38.5 -39t56.5 -36t68.5 -28t67.5 -32
t55.5 -46.5t38 -54t14 -55.5q0 -37 -17 -71t-45.5 -59t-66.5 -40t-81 -15q-28 0 -59 4.5t-60.5 12t-54.5 18t-40 21.5l10 14v0l-10 -14v128z" />
    <glyph glyph-name="T" unicode="T" horiz-adv-x="620" 
d="M617 514h-10l-10 23q-8 20 -23.5 38t-34.5 31.5t-40.5 21.5t-41.5 8h-98v-540v-5q1 -32 16 -55t35 -23h9v-13h-60h-49h-49h-60v13h9q20 0 35.5 24.5t15.5 58.5v540h-98q-20 0 -41.5 -8t-40.5 -21.5t-34.5 -31.5t-23.5 -38l-10 -23h-10q1 14 2.5 31.5t3.5 35.5t3.5 36
t2.5 31q0 2 0.5 6t0.5 6h24h72h396h72h24q0 -2 0.5 -6t0.5 -6q1 -13 2.5 -31t3.5 -36t3.5 -35.5t2.5 -31.5z" />
    <glyph glyph-name="U" unicode="U" horiz-adv-x="678" 
d="M630 660v-13h-11q-23 0 -40.5 -27.5t-17.5 -65.5v-369q0 -39 -15 -73.5t-44 -60.5t-72 -41t-99 -15q-58 0 -103 17.5t-75.5 47.5t-46 70t-15.5 85v349q0 34 -15.5 58.5t-35.5 24.5h-9v13h60h49h49h60v-13h-9q-20 0 -35 -23t-16 -55v-5v-368q0 -34 10 -64t30 -53t49 -36.5
t67 -13.5q45 0 79.5 13.5t58 36t35.5 52.5t12 64l1 366q-2 35 -20.5 60.5t-41.5 25.5h-11v13h73h15h15h69z" />
    <glyph glyph-name="V" unicode="V" horiz-adv-x="694" 
d="M664 660v-13h-9q-20 0 -44 -24.5t-36 -58.5l-199 -579h-25l-250 589q-14 31 -35.5 52t-36.5 21h-7q-2 0 0 7q-2 6 0 6h43h53h54h80v-13h-11q-26 0 -34.5 -24.5t5.5 -58.5v0l184 -445l143 425q11 42 -1 72.5t-43 30.5h-14v13h97h15h15h56z" />
    <glyph glyph-name="W" unicode="W" horiz-adv-x="1001" 
d="M968 660v-13h-9q-20 0 -41.5 -22t-33.5 -54l-175 -586h-25l-197 522l49 163l-206 -685h-25l206 685h25l193 -531l124 427q10 33 -3 57t-41 24h-13q2 0 0 7q2 6 0 6h85h15h15h57zM244 660v-13h-10q-23 0 -32 -24.5t2 -58.5v0l144 -435l-43 -144l-206 579v0
q-12 34 -33 58.5t-38 24.5h-7v13h44h53h54h72z" />
    <glyph glyph-name="X" unicode="X" horiz-adv-x="663" 
d="M412 647v13h89h19h19h52q2 0 0 -6q2 -7 0 -7h-9q-20 0 -50 -23t-51 -55l-123 -194l176 -279h1q11 -17 23.5 -32t24.5 -26.5t23.5 -18t18.5 -6.5h7v-13h-37h-55h-55h-81v13h11q25 0 28 24.5t-19 58.5v0l-123 196l-118 -194q-18 -35 -14 -60t30 -25h13v-13h-89h-18h-18h-53
v13h9q11 0 24.5 6.5t27.5 18t28 26.5t24 32h1l138 219l-157 249h-1q-10 17 -23 32t-25 26.5t-23 18t-19 6.5h-7v13h37h55h55h81v-13h-11q-25 0 -27.5 -24.5t18.5 -58.5v0l104 -165l100 165v0q20 34 15 58.5t-34 24.5h-12z" />
    <glyph glyph-name="Y" unicode="Y" horiz-adv-x="633" 
d="M432 13v-13h-61h-48h-49h-60v13h9q20 0 35.5 24.5t15.5 58.5v181l-170 299q-19 30 -41 50.5t-36 20.5h-7v13h37h59h58h73v-13h-10q-22 0 -25.5 -22t12.5 -53l134 -238l129 210v0q26 42 24.5 72.5t-29.5 30.5h-13q2 0 0 7q2 6 0 6h89h15h15h45v-13h-8q-17 0 -44.5 -23.5
t-49.5 -55.5l-160 -256v-216q1 -34 16 -58.5t36 -24.5h9z" />
    <glyph glyph-name="Z" unicode="Z" horiz-adv-x="588" 
d="M515 147q3 -2 6 -3q7 -3 9 -4q-2 -13 -5 -29.5t-6 -34t-6 -34t-5 -29.5q-1 -3 -1.5 -7t-1.5 -6h-3h-93h-259h-55h-54l364 636h-166q-20 0 -42.5 -6.5t-43.5 -18t-39 -26.5t-30 -32l-10 -14h-10q6 22 14.5 54t14.5 55l4 12h24h72h226h55h55l-365 -635h191q22 0 45.5 8.5
t44 22.5t37 32.5t25.5 39.5z" />
    <glyph glyph-name="bracketleft" unicode="[" horiz-adv-x="254" 
d="M140 640v-740h105v-20h-105h-70v780h70h105v-20h-105z" />
    <glyph glyph-name="backslash" unicode="\" horiz-adv-x="252" 
d="M221 -145l-281 855h31l282 -855h-32z" />
    <glyph glyph-name="bracketright" unicode="]" horiz-adv-x="249" 
d="M110 640h-105v20h105h70v-780h-70h-105v20h105v740z" />
    <glyph glyph-name="underscore" unicode="_" horiz-adv-x="455" 
d="M5 -50h445v-50h-445v50z" />
    <glyph glyph-name="a" unicode="a" horiz-adv-x="500" 
d="M479 49l10 -12q-19 -19 -50.5 -33t-69.5 -14q-29 0 -46 18t-23 44q-34 -25 -74 -41t-73 -16q-24 0 -45 8.5t-37 23.5t-25.5 35t-9.5 42q0 25 14 49t38 43.5t55.5 32.5t67.5 16l85 8v122q0 43 -17.5 74t-41.5 31q-29 0 -56.5 -24.5t-35.5 -57.5h-90q5 22 24 41.5t46.5 34
t61.5 23t70 8.5q27 0 51.5 -12t42.5 -32.5t29 -48t11 -57.5v-258q0 -26 9.5 -45t30.5 -19q17 0 29 4.5t19 11.5zM296 230l-85 -13q-35 -5 -60.5 -31t-25.5 -57q0 -30 22 -52t51 -22q25 0 50.5 6t47.5 16v10v143z" />
    <glyph glyph-name="b" unicode="b" horiz-adv-x="569" 
d="M170 450v-290q0 -28 9.5 -53.5t26 -45t38.5 -30.5t46 -11q30 0 56.5 15t46.5 41t31.5 60.5t11.5 73.5q0 52 -14 98t-37.5 81t-55 55.5t-66.5 20.5q-27 0 -54.5 -4.5t-38.5 -10.5zM170 465q15 8 35 15.5t42.5 13t44.5 8.5t40 3q41 0 77 -20.5t63 -55.5t43 -81t16 -98
t-19.5 -98t-52.5 -81t-76.5 -55.5t-92.5 -20.5q-20 0 -39 5.5t-36.5 11.5t-33.5 11.5t-31 5.5q-18 0 -36 -8.5t-24 -20.5h-10v574q0 52 -13 71.5t-48 26.5q2 0 0 7q1 0 1 0.5t-1 0.5l133 40h18v-23v-98v-134z" />
    <glyph glyph-name="c" unicode="c" horiz-adv-x="503" 
d="M453 84q-18 -18 -43.5 -34t-53 -28.5t-54.5 -19.5t-50 -7q-41 0 -77.5 19t-64.5 51.5t-44 75t-16 90.5q0 56 20.5 105.5t55 87t80 59.5t96.5 22q29 0 55.5 -8.5t47.5 -22.5t34 -33.5t15 -40.5q0 -17 -11.5 -28.5t-28.5 -11.5t-30 13t-15 31q-3 31 -25.5 53.5t-51.5 22.5
q-30 0 -56.5 -17t-47 -46.5t-32 -68t-11.5 -82.5t14.5 -83t39.5 -68.5t58 -47t70 -17.5q15 0 31.5 3.5t32.5 9.5t30 13.5t23 16.5z" />
    <glyph glyph-name="d" unicode="d" horiz-adv-x="589" 
d="M540 48v-8l-133 -40h-18v23v35q-14 -13 -33.5 -24.5t-40.5 -20t-42.5 -13.5t-40.5 -5q-39 0 -74 18t-61.5 49t-42 72t-15.5 87q0 58 18.5 109.5t49.5 90.5t72.5 61.5t87.5 22.5q32 0 64.5 -14.5t57.5 -37.5v121q0 52 -13 71.5t-48 26.5v8l133 40h18v-23v-98v-453
q0 -26 3 -43.5t10 -28t19 -16.5t29 -10zM389 121v297q-20 25 -55.5 43.5t-70.5 18.5q-27 0 -50.5 -18t-41.5 -48.5t-28.5 -71.5t-10.5 -86q0 -42 12 -79t32.5 -65.5t47.5 -45t57 -16.5q33 0 63.5 6.5t44.5 16.5v48z" />
    <glyph glyph-name="e" unicode="e" horiz-adv-x="510" 
d="M460 84q-18 -18 -44 -34t-54 -28.5t-56 -19.5t-51 -7q-42 0 -79 19t-65 51.5t-44.5 75t-16.5 90.5q0 56 18 105.5t49 87t72.5 59.5t87.5 22q37 0 70.5 -15.5t58.5 -42.5t39.5 -63t14.5 -76h-85h-227q-3 -21 -3 -42q0 -44 15 -83t40 -68.5t59 -47t71 -17.5q15 0 32.5 3.5
t34 9.5t30.5 13.5t23 16.5zM150 325l184 13q17 2 29 15t13 30v1q0 20 -8.5 37t-22.5 30.5t-33 21t-40 7.5t-40.5 -11.5t-35.5 -32.5t-28 -49.5t-18 -61.5z" />
    <glyph glyph-name="f" unicode="f" horiz-adv-x="425" 
d="M150 0h-45h-61q2 0 0 6q2 7 0 7h10q20 0 35.5 24.5t15.5 58.5v369h-74v35h74l5 53q3 34 22 64t47.5 53t65.5 36.5t76 13.5q22 0 42 -4.5t36 -13t25.5 -19.5t10.5 -23q0 -16 -11.5 -28t-28.5 -12t-30 12t-15 28q-2 17 -18 28.5t-36 11.5t-38.5 -13.5t-32.5 -36.5t-22 -53
t-8 -64v-33h135v-35h-135v-369q0 -34 15.5 -58.5t36.5 -24.5h9q-2 0 0 -7q-2 -6 0 -6h-61h-45z" />
    <glyph glyph-name="g" unicode="g" horiz-adv-x="474" 
d="M474 500v-50l-101 -6q18 -20 28 -45t10 -52q0 -32 -14 -60.5t-38 -50t-56 -34t-68 -12.5h-55q-30 0 -52.5 -17t-22.5 -40t25 -38.5t60 -13.5l85 4q36 0 68.5 -10t57 -26.5t39 -38.5t14.5 -46q0 -42 -22.5 -79t-61 -65t-89 -44.5t-107.5 -16.5q-31 0 -59 9.5t-49 25
t-33.5 36.5t-12.5 45q0 17 9.5 35.5t26.5 35t39.5 31t47.5 23.5q-42 10 -70 36.5t-28 61.5q0 20 9.5 38.5t25.5 32.5t37.5 23.5t46.5 11.5q-45 19 -74.5 57.5t-29.5 85.5q0 32 14 61t38 50.5t56 34t67 12.5q28 0 53 -7.5t47 -21.5zM145 347q0 -28 7 -52.5t19.5 -43.5t29 -30
t34.5 -11t34.5 11t29 30t20 43.5t7.5 52.5t-7.5 53t-20 44t-29 30t-34.5 11t-34.5 -11t-29 -30t-19.5 -44t-7 -53zM168 -3q-18 -6 -34 -18t-28 -27t-19 -32.5t-7 -33.5q0 -21 8.5 -39.5t22.5 -32.5t33 -22t40 -8q42 0 79 11t65 29t44.5 42.5t16.5 51.5q0 16 -11 31t-30 26
t-44.5 17.5t-53.5 6.5l-55 -3h-13.5t-13.5 1z" />
    <glyph glyph-name="h" unicode="h" horiz-adv-x="601" 
d="M561 13v-13h-60h-45h-45h-61v13h9q21 0 36.5 24.5t15.5 58.5v232q0 24 -6.5 45t-18.5 37t-30 25.5t-42 9.5q-33 0 -67 -4t-52 -10v-335q0 -34 15.5 -58.5t36.5 -24.5h9q-2 0 0 -7q-2 -6 0 -6h-61h-45h-45h-61q2 0 0 6q2 7 0 7h10q20 0 35.5 24.5t15.5 58.5v478
q0 52 -13 71.5t-48 26.5q2 0 0 7q1 0 1 0.5t-1 0.5l133 40h18v-23v-98v-157q25 13 52.5 24.5t53 20t47.5 13.5t36 5q29 0 50.5 -13.5t36.5 -36.5t22.5 -53.5t7.5 -64.5v-241v-5q1 -32 16 -55t35 -23h9z" />
    <glyph glyph-name="i" unicode="i" horiz-adv-x="301" 
d="M45 452v8l133 40h18v-23v-98v-283v-5q1 -32 16 -55t35 -23h9v-13h-60h-45h-45h-61v13h9q21 0 36.5 24.5t15.5 58.5v258q0 52 -13 71.5t-48 26.5zM146 570q-25 0 -42.5 18t-17.5 42t17.5 42t42.5 18q24 0 42 -18t18 -42t-18 -42t-42 -18z" />
    <glyph glyph-name="j" unicode="j" horiz-adv-x="301" 
d="M45 452v8l133 40h18v-23v-98v-352q0 -81 -47 -141.5t-145 -121.5l-9 12q28 18 48.5 38.5t34 47.5t20.5 61.5t7 79.5l1 365q-2 44 -15.5 60.5t-45.5 23.5zM146 570q-25 0 -42.5 18t-17.5 42t17.5 42t42.5 18q24 0 42 -18t18 -42t-18 -42t-42 -18z" />
    <glyph glyph-name="k" unicode="k" horiz-adv-x="539" 
d="M570 13v-13h-51h-56h-56h-61v13h8q17 0 10.5 24.5t-32.5 58.5h1l-130 167v0l-9 12v-179q0 -34 15.5 -58.5t36.5 -24.5h9q-2 0 0 -7q-2 -6 0 -6h-61h-45h-45h-61q2 0 0 6q2 7 0 7h10q20 0 35.5 24.5t15.5 58.5v478q0 52 -13 71.5t-48 26.5q2 0 0 7q1 0 1 0.5t-1 0.5
l133 40h18v-23v-98v-324l130 129h-1q35 34 47.5 58.5t-4.5 24.5h-7v13h61h20h20h47q-2 0 0 -6q-2 -7 0 -7h-9q-19 0 -56 -20.5t-73 -50.5l-100 -92l176 -228l3 -4q13 -16 28.5 -30.5t30.5 -25t29 -17t24 -6.5h10z" />
    <glyph glyph-name="l" unicode="l" horiz-adv-x="301" 
d="M45 672v8l133 40h18v-23v-98v-503v-5q1 -32 16 -55t35 -23h9v-13h-60h-45h-45h-61v13h9q21 0 36.5 24.5t15.5 58.5v478q0 52 -13 71.5t-48 26.5z" />
    <glyph glyph-name="m" unicode="m" horiz-adv-x="926" 
d="M887 13v-13h-61h-45h-45h-61v13h10q20 0 35.5 24.5t15.5 58.5v232q0 24 -9 45t-23.5 37t-33 25.5t-38.5 9.5q-28 0 -66.5 -10.5t-67.5 -25.5q6 -17 9.5 -35t3.5 -37v-241v-5q1 -32 16 -55t35 -23h9v-13h-60h-45h-45h-61v13h9q21 0 36.5 24.5t15.5 58.5v232q0 25 -8.5 47
t-22.5 38.5t-32 26.5t-38 10q-36 0 -70.5 -5t-54.5 -13v-52v-1v-283q0 -34 15.5 -58.5t36.5 -24.5h9q-2 0 0 -7q-2 -6 0 -6h-61h-45h-45h-61q2 0 0 6q2 7 0 7h10q20 0 35.5 24.5t15.5 58.5v258q0 53 -13 72t-48 26q2 0 0 7q1 1 0 1l133 40h18v-58q25 13 52.5 24.5t53.5 20
t49 13.5t40 5q31 0 58.5 -23t44.5 -60q32 17 64.5 32t60.5 26.5t50 18t33 6.5q24 0 46.5 -13.5t40 -36.5t28 -53.5t10.5 -64.5v-241q0 -34 15.5 -58.5t36.5 -24.5h9z" />
    <glyph glyph-name="n" unicode="n" horiz-adv-x="601" 
d="M561 13v-13h-60h-45h-45h-61v13h9q21 0 36.5 24.5t15.5 58.5v232q0 24 -6.5 45t-18.5 37t-30 25.5t-42 9.5q-33 0 -67 -4t-52 -10v-51v-1v-283q0 -34 15.5 -58.5t36.5 -24.5h9q-2 0 0 -7q-2 -6 0 -6h-61h-45h-45h-61q2 0 0 6q2 7 0 7h10q20 0 35.5 24.5t15.5 58.5v258
q0 53 -13 72t-48 26q2 0 0 7q1 1 0 1l133 40h18v-58q25 13 52.5 24.5t53 20t47.5 13.5t36 5q29 0 50.5 -13.5t36.5 -36.5t22.5 -53.5t7.5 -64.5v-241v-5q1 -32 16 -55t35 -23h9z" />
    <glyph glyph-name="o" unicode="o" horiz-adv-x="600" 
d="M300 15q30 0 57.5 19t48 51t32.5 74.5t12 90.5t-12 90.5t-32.5 74.5t-48 51t-57.5 19t-57.5 -19t-48 -51t-32.5 -74.5t-12 -90.5t12 -90.5t32.5 -74.5t48 -51t57.5 -19zM50 250q0 52 20 98t54.5 81t79.5 55.5t96 20.5t96 -20.5t79.5 -55.5t54.5 -81t20 -98t-20 -98
t-54.5 -81t-79.5 -55.5t-96 -20.5t-96 20.5t-79.5 55.5t-54.5 81t-20 98z" />
    <glyph glyph-name="p" unicode="p" horiz-adv-x="628" 
d="M192 410l3 -30v0v-1v-239q0 -24 10 -46t27 -38.5t40 -26t48 -9.5q33 0 63 14t52.5 38t35.5 56t13 68q0 50 -14 95.5t-38 79.5t-55.5 54t-66.5 20q-32 0 -66 -10t-52 -25zM190 425v0q16 16 39 30.5t48.5 25.5t52 17.5t49.5 6.5q39 0 74.5 -19t62 -52t42 -76.5t15.5 -92.5
q0 -55 -20.5 -104t-55 -86t-80.5 -58.5t-97 -21.5q-35 0 -67.5 10.5t-57.5 28.5v-168q0 -34 15.5 -58.5t36.5 -24.5h9q-2 0 0 -7q-2 -6 0 -6h-61h-45h-45h-61q2 0 0 6q2 7 0 7h10q20 0 35.5 24.5t15.5 58.5v488q0 53 -13 72t-48 26q2 0 0 7q1 1 0 1l121 40h18z" />
    <glyph glyph-name="q" unicode="q" horiz-adv-x="599" 
d="M555 -217v-13h-61h-45h-45h-61v13h9q21 0 36.5 24.5t15.5 58.5v197q-15 -14 -35 -26.5t-42.5 -21.5t-45.5 -14.5t-44 -5.5q-37 0 -70 18t-58 49t-39.5 72t-14.5 87q0 58 18.5 109.5t49.5 90.5t73 61.5t88 22.5q21 0 40 -5.5t37 -11.5t35 -11.5t32 -5.5q17 0 33.5 8.5
t22.5 20.5h10v-634q0 -34 15.5 -58.5t36.5 -24.5h9zM404 81v260q0 28 -9.5 53.5t-26 44.5t-38.5 30t-46 11q-28 0 -52.5 -18t-43 -48.5t-29.5 -71.5t-11 -86q0 -42 11 -79t30 -65.5t44 -45t53 -16.5q36 0 70 8.5t48 22.5z" />
    <glyph glyph-name="r" unicode="r" horiz-adv-x="414" 
d="M192 414l3 -34v0v-1v-283q0 -34 15.5 -58.5t36.5 -24.5h9q-2 0 0 -7q-2 -6 0 -6h-61h-45h-45h-61q2 0 0 6q2 7 0 7h10q20 0 35.5 24.5t15.5 58.5v258q0 53 -13 72t-48 26q2 0 0 7q1 1 0 1l121 40h18l7 -74q15 16 33 30.5t36.5 25t36 17t31.5 6.5q38 0 57.5 -17.5
t19.5 -41.5q0 -17 -13 -30t-30 -13q-12 0 -25.5 5.5t-27.5 12t-27.5 12t-25.5 5.5q-16 0 -34 -7t-29 -17z" />
    <glyph glyph-name="s" unicode="s" horiz-adv-x="420" 
d="M45 133h9q2 -5 5 -11t5 -11q8 -18 22.5 -35t32.5 -30t38 -21t39 -9v-1h7q19 0 36 8t29.5 21.5t20 31t7.5 37.5q0 12 -8 27t-22 29t-32.5 27t-38.5 22q-28 13 -53.5 31.5t-45 39t-30.5 41t-11 38.5q0 28 13.5 53t36.5 43.5t53.5 29.5t64.5 11q11 0 26 -3t32.5 -8.5
t34.5 -12.5t32 -15v-89h-10q-2 4 -3 9t-3 8q-8 23 -31 46.5t-51 36.5q-21 8 -27 8q-20 0 -38 -7t-31.5 -18.5t-21.5 -27t-8 -33.5q0 -12 11 -27t29 -31t42.5 -31.5t51.5 -27.5q23 -10 43.5 -26t36 -34.5t24.5 -38t9 -36.5q0 -31 -14 -58.5t-38 -48.5t-55.5 -33t-66.5 -12
q-19 0 -41 3.5t-42.5 9.5t-38.5 13.5t-30 16.5v95z" />
    <glyph glyph-name="t" unicode="t" horiz-adv-x="351" 
d="M320 500v-35h-135l-1 -368q0 -32 12 -47t39 -15q25 0 49 11t41 25l7 -7q-33 -28 -71.5 -48.5t-70.5 -20.5q-51 0 -73 27.5t-22 90.5v352h-70v10h1q16 3 35.5 17.5t38.5 36t36.5 49t30.5 56.5l-62 -147v0l65 153h15v-140h135z" />
    <glyph glyph-name="u" unicode="u" horiz-adv-x="566" 
d="M531 48v-8l-132 -40h-18v23v40q-29 -29 -73 -48.5t-94 -19.5q-31 0 -56.5 13t-44 34.5t-28.5 50.5t-10 62v249q0 34 -15.5 58.5t-35.5 24.5h-10q2 0 0 7q2 6 0 6h61h45h45v-336q0 -22 9 -42t24.5 -35t37.5 -24t49 -9q35 0 59.5 7t36.5 18v42v283q0 34 -15.5 58.5
t-36.5 24.5h-9v13h61h45h45v-354v-13q1 -45 14.5 -61.5t45.5 -23.5z" />
    <glyph glyph-name="v" unicode="v" horiz-adv-x="588" 
d="M541 500v-13h-9q-10 0 -22.5 -6.5t-24.5 -18t-22 -26.5t-17 -32v0l-170 -414h-15l-175 414v0q-7 17 -17.5 32t-22.5 26.5t-24 18t-22 6.5h-9v13h55h51h52h61v-13h-9q-19 0 -23.5 -24.5t9.5 -58.5v0l118 -299l118 311q9 29 3.5 50t-23.5 21h-8v13h60h15h15h56z" />
    <glyph glyph-name="w" unicode="w" horiz-adv-x="889" 
d="M838 500v-13h-12q-15 0 -32 -17t-37 -60l-172 -420h-15l-146 346l-138 -346h-15l-169 400v0q-23 55 -43 76t-35 21h-11v13h43h103h70v-13h-12q-22 0 -30 -20.5t14 -73.5v0l113 -291l100 258v0l-13 30v0q-23 55 -41.5 76t-32.5 21h-11v13h39h103h77v-13h-13
q-23 0 -33.5 -16.5t4.5 -60.5l121 -305l108 286q19 54 8 75t-37 21h-14v13h85h30h44z" />
    <glyph glyph-name="x" unicode="x" horiz-adv-x="556" 
d="M335 487v13h81h15h15h51q-2 0 0 -6q-2 -7 0 -7h-10q-19 0 -50.5 -21t-57.5 -52l-87 -112l136 -206v0q11 -17 24 -32t25 -26.5t22.5 -18t17.5 -6.5h6v-13h-32h-55h-55h-60v13h7q17 0 15.5 21t-18.5 51l-90 136l-82 -125v0q-23 -34 -17 -58.5t36 -24.5h14v-13h-97h-15h-15
h-60v13h10q11 0 25 6t29 16.5t30 24t27 29.5l103 151l-117 177q-23 29 -48 49.5t-40 20.5h-7v13h40h55h55h73v-13h-10q-22 0 -22 -24.5t23 -58.5h-1l58 -88l64 88v0q24 34 24 58.5t-24 24.5h-11z" />
    <glyph glyph-name="y" unicode="y" horiz-adv-x="598" 
d="M572 500v-13h-9q-10 0 -22.5 -6.5t-24.5 -18t-22 -26.5t-17 -32v0l-170 -414l-26 -62q-32 -77 -75.5 -117.5t-94.5 -40.5q-29 0 -49.5 13.5t-20.5 32.5q0 16 13.5 27t31.5 11q9 0 19.5 -4t21 -8.5t20.5 -8.5t19 -4q23 0 46.5 27.5t44.5 79.5l30 67l-170 401v0
q-7 17 -17.5 32t-22.5 26.5t-24 18t-22 6.5h-9v13h55h51h52h61v-13h-9q-19 0 -23.5 -24.5t9.5 -58.5v0l118 -299l118 311q9 29 3.5 50t-23.5 21h-8v13h60h15h15h56z" />
    <glyph glyph-name="z" unicode="z" horiz-adv-x="483" 
d="M421 142v0q3 -1 5 -2q6 -3 10 -4q-2 -13 -5 -29.5t-6 -33.5t-6 -33.5t-5 -29.5q-1 -2 -1 -5t-1 -5h-4h-92h-165h-53h-53l273 480l-104 -1v0q-20 0 -42 -5t-42.5 -13.5t-37.5 -19.5t-28 -24l-9 -11h-10q5 17 11.5 42t11.5 42q0 4 2 10h25h72h163h52h52l-272 -480h99
q22 0 45 8.5t44 22.5t37.5 32.5t25.5 39.5z" />
    <glyph glyph-name="braceleft" unicode="{" horiz-adv-x="249" 
d="M234 -120h-40q-27 0 -51.5 10.5t-42.5 28.5t-29 42t-11 51v191q0 24 -15 41.5t-35 18.5h-5v15h5q20 -1 35 17t15 43v190q0 27 11 51t29.5 42t43 28.5t51.5 10.5h40v-15h-20q-17 0 -32.5 -9.5t-27 -25.5t-18.5 -37t-7 -45v-140q0 -44 -23.5 -77t-58.5 -41q35 -8 58.5 -41
t23.5 -76v-141q0 -24 7 -45t18.5 -37t26.5 -25.5t32 -9.5h20v-15z" />
    <glyph glyph-name="bar" unicode="|" horiz-adv-x="190" 
d="M60 770h70v-1004h-70v1004z" />
    <glyph glyph-name="braceright" unicode="}" horiz-adv-x="249" 
d="M5 660h40q27 0 51.5 -10.5t43 -28.5t29.5 -42t11 -51v-191q0 -24 15 -41.5t35 -17.5h5v-15h-5q-20 0 -35 -18t-15 -43v-190q0 -27 -11 -51t-29.5 -42t-43 -28.5t-51.5 -10.5h-40v15h20q17 0 32.5 9.5t27 25.5t18.5 37t7 45l-1 140q1 44 24.5 77t58.5 41q-35 8 -58.5 41
t-23.5 76v141q0 24 -7 45t-18.5 37t-27 25.5t-32.5 9.5h-20v15z" />
    <glyph glyph-name="[namenotfound]" unicode="&#xa0;" horiz-adv-x="220" 
 />
    <glyph glyph-name="exclamdown" unicode="&#xa1;" horiz-adv-x="234" 
d="M109 505q26 0 45.5 -19.5t19.5 -45.5t-19.5 -45.5t-45.5 -19.5t-45.5 19.5t-19.5 45.5t19.5 45.5t45.5 19.5zM60 -100l43 400h12l55 -400q4 -26 -12.5 -45.5t-42.5 -19.5q-25 0 -41.5 19.5t-13.5 45.5z" />
    <glyph glyph-name="cent" unicode="&#xa2;" horiz-adv-x="503" 
d="M272 575h30v-70q29 0 55.5 -8.5t47.5 -22.5t34 -33.5t15 -40.5q0 -17 -11.5 -28.5t-28.5 -11.5t-30 13t-15 31q-3 28 -22 49.5t-45 25.5v-427q6 -1 12.5 -1.5t12.5 -0.5q15 0 31.5 3.5t32.5 9.5t30 13.5t23 16.5l9 -9q-28 -27 -69.5 -49t-81.5 -33v-77h-30v71
q-5 -1 -10 -1h-10q-41 0 -77.5 19t-64.5 51.5t-44 75t-16 90.5q0 51 17.5 97.5t47.5 83.5t70.5 61t86.5 30v72zM272 61v417q-27 -6 -50 -24.5t-40 -47t-27 -64.5t-10 -76q0 -35 9.5 -67.5t27 -59.5t40.5 -47t50 -31z" />
    <glyph glyph-name="guillemotleft" unicode="&#xab;" horiz-adv-x="459" 
d="M276 250l139 -206l-10 -9l-220 210v10l217 210l10 -9zM111 250l138 -206l-9 -9l-220 210v10l217 210l10 -9z" />
    <glyph glyph-name="guillemotright" unicode="&#xbb;" horiz-adv-x="459" 
d="M183 250l-136 206l10 9l217 -210v-10l-219 -210l-10 9zM348 250l-135 206l10 9l217 -210v-10l-220 -210l-10 9z" />
    <glyph glyph-name="questiondown" unicode="&#xbf;" horiz-adv-x="370" 
d="M231 505q26 0 45.5 -19.5t19.5 -45.5t-19.5 -45.5t-45.5 -19.5t-45.5 19.5t-19.5 45.5t19.5 45.5t45.5 19.5zM243 126h-35q-43 0 -72 -7t-47 -17t-25.5 -20.5t-7.5 -18.5q0 -32 13.5 -60.5t36 -50.5t52.5 -34.5t63 -12.5q9 0 18 4.5t18.5 10t18.5 10t18 4.5
q16 0 27.5 -11.5t11.5 -27.5q0 -24 -25 -42t-59 -18q-43 0 -82 19t-68.5 51.5t-46.5 76t-17 91.5q0 15 7 36t23.5 40t44 32.5t67.5 13.5h35l13 100h12l20 -155q1 -6 -3.5 -10t-10.5 -4z" />
    <glyph glyph-name="Agrave" unicode="&#xc0;" horiz-adv-x="653" 
d="M647 13v-13h-49h-53h-53h-84v13h12q27 0 37.5 24.5t-3.5 58.5v0l-51 131h-236l-42 -122q-11 -38 0 -65t40 -27h13v-13h-89h-16h-16h-56v13h9q20 0 44.5 24.5t36.5 58.5v0l206 579h24l238 -579v0q14 -34 37.5 -58.5t42.5 -24.5h8zM311 852l81 -154l-10 -8l-117 126
q-16 17 -27.5 31t-11.5 19q0 4 6 10.5t14.5 12.5t17 10.5t13.5 4.5q4 0 13.5 -15.5t20.5 -36.5zM393 252l-116 295l-101 -295h217z" />
    <glyph glyph-name="Aacute" unicode="&#xc1;" horiz-adv-x="653" 
d="M248 690l-10 8l78 154q11 21 20.5 36.5t11.5 15.5q5 0 14 -4.5t17.5 -10.5t14.5 -12.5t6 -10.5q-1 -3 -12 -18t-26 -32zM647 13v-13h-49h-53h-53h-84v13h12q27 0 37.5 24.5t-3.5 58.5v0l-51 131h-236l-42 -122q-11 -38 0 -65t40 -27h13v-13h-89h-16h-16h-56v13h9
q20 0 44.5 24.5t36.5 58.5v0l206 579h24l238 -579v0q14 -34 37.5 -58.5t42.5 -24.5h8zM393 252l-116 295l-101 -295h217z" />
    <glyph glyph-name="Acircumflex" unicode="&#xc2;" horiz-adv-x="653" 
d="M647 13v-13h-49h-53h-53h-84v13h12q27 0 37.5 24.5t-3.5 58.5v0l-51 131h-236l-42 -122q-11 -38 0 -65t40 -27h13v-13h-89h-16h-16h-56v13h9q20 0 44.5 24.5t36.5 58.5v0l206 579h24l238 -579v0q14 -34 37.5 -58.5t42.5 -24.5h8zM309 818l-111 -126l-9 8l92 180
q2 5 10.5 15t17.5 10q10 0 18 -10.5t11 -15.5l92 -179l-9 -8zM393 252l-116 295l-101 -295h217z" />
    <glyph glyph-name="Atilde" unicode="&#xc3;" horiz-adv-x="653" 
d="M169 755h-15q0 24 6 46t16.5 38.5t24.5 26t29 9.5q20 0 42 -10t44.5 -21.5t44.5 -21.5t42 -10t33.5 18t13.5 42h15q0 -24 -6.5 -45.5t-17.5 -38t-25.5 -26t-31.5 -9.5q-20 0 -42 9.5t-45 21.5t-45 21.5t-42 9.5q-17 0 -29 -18t-12 -42zM647 13v-13h-49h-53h-53h-84v13h12
q27 0 37.5 24.5t-3.5 58.5v0l-51 131h-236l-42 -122q-11 -38 0 -65t40 -27h13v-13h-89h-16h-16h-56v13h9q20 0 44.5 24.5t36.5 58.5v0l206 579h24l238 -579v0q14 -34 37.5 -58.5t42.5 -24.5h8zM393 252l-116 295l-101 -295h217z" />
    <glyph glyph-name="Adieresis" unicode="&#xc4;" horiz-adv-x="653" 
d="M405 730q-23 0 -39 16t-16 39t16 39t39 16t39 -16t16 -39t-16 -39t-39 -16zM213 730q-23 0 -39 16t-16 39t16 39t39 16t39 -16t16 -39t-16 -39t-39 -16zM647 13v-13h-49h-53h-53h-84v13h12q27 0 37.5 24.5t-3.5 58.5v0l-51 131h-236l-42 -122q-11 -38 0 -65t40 -27h13
v-13h-89h-16h-16h-56v13h9q20 0 44.5 24.5t36.5 58.5v0l206 579h24l238 -579v0q14 -34 37.5 -58.5t42.5 -24.5h8zM393 252l-116 295l-101 -295h217z" />
    <glyph glyph-name="Aring" unicode="&#xc5;" horiz-adv-x="653" 
d="M309 715q13 0 25.5 6.5t22.5 16.5t16 23.5t6 26.5q0 29 -20.5 50.5t-49.5 21.5t-49.5 -21.5t-20.5 -50.5q0 -13 6 -26.5t16 -23.5t22.5 -16.5t25.5 -6.5zM214 788q0 18 7.5 35t20.5 29.5t30.5 20t36.5 7.5t36.5 -7.5t30.5 -20t20.5 -29.5t7.5 -35q0 -17 -8.5 -33.5
t-22 -30t-30.5 -21.5t-34 -8t-34 8t-30.5 21.5t-22 30t-8.5 33.5zM647 13v-13h-49h-53h-53h-84v13h12q27 0 37.5 24.5t-3.5 58.5v0l-51 131h-236l-42 -122q-11 -38 0 -65t40 -27h13v-13h-89h-16h-16h-56v13h9q20 0 44.5 24.5t36.5 58.5v0l206 579h24l238 -579v0
q14 -34 37.5 -58.5t42.5 -24.5h8zM393 252l-116 295l-101 -295h217z" />
    <glyph glyph-name="Ccedilla" unicode="&#xc7;" horiz-adv-x="708" 
d="M648 484h-11q-2 6 -5.5 15t-5.5 15q-7 20 -23 39.5t-37.5 36t-46.5 28.5t-50 17q-39 6 -72 6q-49 0 -92.5 -25t-76.5 -67.5t-52 -99t-19 -119.5t19 -119.5t52 -99t76.5 -67.5t92.5 -25h11t12 1v0q33 2 66 13.5t61.5 30t49.5 41.5t30 48q2 7 5.5 16t5.5 15h11v-121l-7 10
v0l7 -10q-18 -14 -47.5 -26.5t-64 -21.5t-71 -14.5t-69.5 -5.5q-70 0 -133.5 27t-110.5 72.5t-75 106.5t-28 129t28 129t75 106.5t110.5 72.5t133.5 27q29 0 64 -4.5t69.5 -12.5t65.5 -18.5t52 -22.5v-123z" />
    <glyph glyph-name="Egrave" unicode="&#xc8;" 
d="M429 261h-11l-3 11q-3 12 -14.5 22.5t-29 18.5t-38.5 12.5t-43 4.5h-91v-306h138q24 0 49.5 7.5t48 20.5t40.5 29.5t28 35.5l8 16q0 2 9 0q1 1 1 0q-2 -12 -5 -28t-6 -32.5t-6 -32.5t-5 -28q0 -6 -2 -12h-3h-93h-202h-49h-49h-60v13h9q20 0 35.5 24.5t15.5 58.5v468
q0 34 -15.5 58.5t-35.5 24.5h-9v13h60h49h49h200h85h12v-12v-121h-10l-5 16q-6 19 -21.5 36t-36 29.5t-44.5 20t-48 7.5h-132v-282h91q22 0 43 4.5t38.5 11.5t29 16.5t14.5 19.5l3 9h11v-61v-12v-12v-69zM278 852l81 -154l-10 -8l-117 126q-16 17 -27.5 31t-11.5 19
q0 4 6 10.5t14.5 12.5t17.5 10.5t14 4.5q3 0 12.5 -15.5t20.5 -36.5z" />
    <glyph glyph-name="Eacute" unicode="&#xc9;" 
d="M262 690l-10 8l78 154q11 21 20.5 36.5t11.5 15.5q5 0 14 -4.5t17 -10.5t14 -12.5t6 -10.5q1 -3 -10.5 -18t-26.5 -32zM429 261h-11l-3 11q-3 12 -14.5 22.5t-29 18.5t-38.5 12.5t-43 4.5h-91v-306h138q24 0 49.5 7.5t48 20.5t40.5 29.5t28 35.5l8 16q0 2 9 0q1 1 1 0
q-2 -12 -5 -28t-6 -32.5t-6 -32.5t-5 -28q0 -6 -2 -12h-3h-93h-202h-49h-49h-60v13h9q20 0 35.5 24.5t15.5 58.5v468q0 34 -15.5 58.5t-35.5 24.5h-9v13h60h49h49h200h85h12v-12v-121h-10l-5 16q-6 19 -21.5 36t-36 29.5t-44.5 20t-48 7.5h-132v-282h91q22 0 43 4.5
t38.5 11.5t29 16.5t14.5 19.5l3 9h11v-61v-12v-12v-69z" />
    <glyph glyph-name="Ecircumflex" unicode="&#xca;" 
d="M429 261h-11l-3 11q-3 12 -14.5 22.5t-29 18.5t-38.5 12.5t-43 4.5h-91v-306h138q24 0 49.5 7.5t48 20.5t40.5 29.5t28 35.5l8 16q0 2 9 0q1 1 1 0q-2 -12 -5 -28t-6 -32.5t-6 -32.5t-5 -28q0 -6 -2 -12h-3h-93h-202h-49h-49h-60v13h9q20 0 35.5 24.5t15.5 58.5v468
q0 34 -15.5 58.5t-35.5 24.5h-9v13h60h49h49h200h85h12v-12v-121h-10l-5 16q-6 19 -21.5 36t-36 29.5t-44.5 20t-48 7.5h-132v-282h91q22 0 43 4.5t38.5 11.5t29 16.5t14.5 19.5l3 9h11v-61v-12v-12v-69zM293 818l-112 -126l-9 8l92 180q2 5 10.5 15t17.5 10
q10 0 18.5 -10.5t10.5 -15.5l92 -179l-9 -8z" />
    <glyph glyph-name="Edieresis" unicode="&#xcb;" 
d="M388 730q-23 0 -39 16t-16 39t16 39t39 16t39 -16t16 -39t-16 -39t-39 -16zM197 730q-23 0 -39 16t-16 39t16 39t39 16q22 0 38.5 -16t16.5 -39t-16.5 -39t-38.5 -16zM429 261h-11l-3 11q-3 12 -14.5 22.5t-29 18.5t-38.5 12.5t-43 4.5h-91v-306h138q24 0 49.5 7.5
t48 20.5t40.5 29.5t28 35.5l8 16q0 2 9 0q1 1 1 0q-2 -12 -5 -28t-6 -32.5t-6 -32.5t-5 -28q0 -6 -2 -12h-3h-93h-202h-49h-49h-60v13h9q20 0 35.5 24.5t15.5 58.5v468q0 34 -15.5 58.5t-35.5 24.5h-9v13h60h49h49h200h85h12v-12v-121h-10l-5 16q-6 19 -21.5 36t-36 29.5
t-44.5 20t-48 7.5h-132v-282h91q22 0 43 4.5t38.5 11.5t29 16.5t14.5 19.5l3 9h11v-61v-12v-12v-69z" />
    <glyph glyph-name="Igrave" unicode="&#xcc;" horiz-adv-x="299" 
d="M260 660v-13h-9q-21 0 -36.5 -24.5t-15.5 -58.5v-468q0 -34 15.5 -58.5t36.5 -24.5h9v-13h-61h-48h-49h-61v13h10q20 0 35.5 24.5t15.5 58.5v468q0 34 -15.5 58.5t-35.5 24.5h-10v13h61h49h48h61zM152 852l81 -154l-10 -8l-117 126q-16 17 -27.5 31t-11.5 19q0 4 6 10.5
t14.5 12.5t17.5 10.5t14 4.5q3 0 12.5 -15.5t20.5 -36.5z" />
    <glyph glyph-name="Iacute" unicode="&#xcd;" horiz-adv-x="299" 
d="M89 690l-10 8l79 154q11 21 20 36.5t12 15.5q5 0 14 -4.5t17 -10.5t14 -12.5t6 -10.5q0 -3 -11 -18t-27 -32zM260 660v-13h-9q-21 0 -36.5 -24.5t-15.5 -58.5v-468q0 -34 15.5 -58.5t36.5 -24.5h9v-13h-61h-48h-49h-61v13h10q20 0 35.5 24.5t15.5 58.5v468
q0 34 -15.5 58.5t-35.5 24.5h-10v13h61h49h48h61z" />
    <glyph glyph-name="Icircumflex" unicode="&#xce;" horiz-adv-x="299" 
d="M260 660v-13h-9q-21 0 -36.5 -24.5t-15.5 -58.5v-468q0 -34 15.5 -58.5t36.5 -24.5h9v-13h-61h-48h-49h-61v13h10q20 0 35.5 24.5t15.5 58.5v468q0 34 -15.5 58.5t-35.5 24.5h-10v13h61h49h48h61zM151 818l-112 -126l-9 8l92 180q3 5 11 15t18 10q9 0 17.5 -10.5
t10.5 -15.5l92 -179l-9 -8z" />
    <glyph glyph-name="Idieresis" unicode="&#xcf;" horiz-adv-x="299" 
d="M247 730q-23 0 -39 16t-16 39t16 39t39 16q22 0 38.5 -16t16.5 -39t-16.5 -39t-38.5 -16zM55 730q-23 0 -39 16t-16 39t16 39t39 16t39 -16t16 -39t-16 -39t-39 -16zM260 660v-13h-9q-21 0 -36.5 -24.5t-15.5 -58.5v-468q0 -34 15.5 -58.5t36.5 -24.5h9v-13h-61h-48h-49
h-61v13h10q20 0 35.5 24.5t15.5 58.5v468q0 34 -15.5 58.5t-35.5 24.5h-10v13h61h49h48h61z" />
    <glyph glyph-name="Ntilde" unicode="&#xd1;" horiz-adv-x="683" 
d="M202 755h-15q0 24 6 46t16.5 38.5t24.5 26t29 9.5q20 0 42 -10t45 -21.5t45 -21.5t42 -10q19 0 32.5 18t13.5 42h15q0 -24 -6.5 -45.5t-17.5 -38t-25.5 -26t-31.5 -9.5q-20 0 -42 9.5t-44.5 21.5t-44.5 21.5t-42 9.5q-17 0 -29.5 -18t-12.5 -42zM645 660v-13h-9
q-21 0 -36 -24.5t-15 -58.5v-487v-97h-29l-45 62l-382 532v-478q0 -34 15.5 -58.5t36.5 -24.5h9v-13h-61h-14h-15h-60v13h9q20 0 35.5 24.5t15.5 58.5v468q0 34 -15.5 58.5t-35.5 24.5h-9v13h60h15h14h57l-57 -41v-1l57 42l370 -518v422q0 34 -15.5 58.5t-36.5 24.5h-9v13
h61h14h15h60z" />
    <glyph glyph-name="Ograve" unicode="&#xd2;" horiz-adv-x="759" 
d="M380 19q50 0 90.5 27.5t70 71.5t45.5 99.5t16 112.5t-16 112.5t-45.5 99.5t-70 71.5t-90.5 27.5t-91 -27.5t-70.5 -71.5t-45.5 -99.5t-16 -112.5t16 -112.5t45.5 -99.5t70.5 -71.5t91 -27.5zM50 330q0 61 24 121t67.5 107.5t104.5 77t134 29.5t133.5 -29.5t104 -77
t67.5 -107.5t24 -121t-24 -121t-67.5 -107.5t-104 -77t-133.5 -29.5t-134 29.5t-104.5 77t-67.5 107.5t-24 121zM381 852l81 -154l-10 -8l-117 126q-16 17 -27.5 31t-11.5 19q0 4 6 10.5t14.5 12.5t17.5 10.5t14 4.5q3 0 12.5 -15.5t20.5 -36.5z" />
    <glyph glyph-name="Oacute" unicode="&#xd3;" horiz-adv-x="759" 
d="M356 690l-10 8l78 154q11 21 20.5 36.5t12.5 15.5q5 0 14 -4.5t17 -10.5t14 -12.5t6 -10.5q0 -3 -11 -18t-27 -32zM380 19q50 0 90.5 27.5t70 71.5t45.5 99.5t16 112.5t-16 112.5t-45.5 99.5t-70 71.5t-90.5 27.5t-91 -27.5t-70.5 -71.5t-45.5 -99.5t-16 -112.5
t16 -112.5t45.5 -99.5t70.5 -71.5t91 -27.5zM50 330q0 61 24 121t67.5 107.5t104.5 77t134 29.5t133.5 -29.5t104 -77t67.5 -107.5t24 -121t-24 -121t-67.5 -107.5t-104 -77t-133.5 -29.5t-134 29.5t-104.5 77t-67.5 107.5t-24 121z" />
    <glyph glyph-name="Ocircumflex" unicode="&#xd4;" horiz-adv-x="759" 
d="M380 19q50 0 90.5 27.5t70 71.5t45.5 99.5t16 112.5t-16 112.5t-45.5 99.5t-70 71.5t-90.5 27.5t-91 -27.5t-70.5 -71.5t-45.5 -99.5t-16 -112.5t16 -112.5t45.5 -99.5t70.5 -71.5t91 -27.5zM50 330q0 61 24 121t67.5 107.5t104.5 77t134 29.5t133.5 -29.5t104 -77
t67.5 -107.5t24 -121t-24 -121t-67.5 -107.5t-104 -77t-133.5 -29.5t-134 29.5t-104.5 77t-67.5 107.5t-24 121zM380 818l-112 -126l-9 8l92 180q3 5 11 15t18 10q9 0 17.5 -10.5t10.5 -15.5l92 -179l-9 -8z" />
    <glyph glyph-name="Otilde" unicode="&#xd5;" horiz-adv-x="759" 
d="M239 755h-15q0 24 6 46t16.5 38.5t24.5 26t29 9.5q20 0 42 -10t45 -21.5t45 -21.5t42 -10q19 0 32.5 18t13.5 42h15q0 -24 -6.5 -45.5t-17.5 -38t-25.5 -26t-31.5 -9.5q-20 0 -42 9.5t-44.5 21.5t-44.5 21.5t-42 9.5q-17 0 -29.5 -18t-12.5 -42zM380 19q50 0 90.5 27.5
t70 71.5t45.5 99.5t16 112.5t-16 112.5t-45.5 99.5t-70 71.5t-90.5 27.5t-91 -27.5t-70.5 -71.5t-45.5 -99.5t-16 -112.5t16 -112.5t45.5 -99.5t70.5 -71.5t91 -27.5zM50 330q0 61 24 121t67.5 107.5t104.5 77t134 29.5t133.5 -29.5t104 -77t67.5 -107.5t24 -121t-24 -121
t-67.5 -107.5t-104 -77t-133.5 -29.5t-134 29.5t-104.5 77t-67.5 107.5t-24 121z" />
    <glyph glyph-name="Odieresis" unicode="&#xd6;" horiz-adv-x="759" 
d="M476 730q-23 0 -39 16t-16 39t16 39t39 16q22 0 38.5 -16t16.5 -39t-16.5 -39t-38.5 -16zM284 730q-23 0 -39 16t-16 39t16 39t39 16t39 -16t16 -39t-16 -39t-39 -16zM380 19q50 0 90.5 27.5t70 71.5t45.5 99.5t16 112.5t-16 112.5t-45.5 99.5t-70 71.5t-90.5 27.5
t-91 -27.5t-70.5 -71.5t-45.5 -99.5t-16 -112.5t16 -112.5t45.5 -99.5t70.5 -71.5t91 -27.5zM50 330q0 61 24 121t67.5 107.5t104.5 77t134 29.5t133.5 -29.5t104 -77t67.5 -107.5t24 -121t-24 -121t-67.5 -107.5t-104 -77t-133.5 -29.5t-134 29.5t-104.5 77t-67.5 107.5
t-24 121z" />
    <glyph glyph-name="Oslash" unicode="&#xd8;" horiz-adv-x="759" 
d="M66 -20l-31 30l99 100q-41 48 -62.5 104.5t-21.5 115.5q0 61 24 121t67.5 107.5t104.5 77t134 29.5q65 0 119.5 -23t96.5 -61l97 99l32 -30l-99 -101q40 -47 61.5 -103.5t21.5 -115.5q0 -61 -24 -121t-67.5 -107.5t-104 -77t-133.5 -29.5q-65 0 -119.5 23t-96.5 61z
M380 19v0q50 0 90.5 27.5t70 71.5t45.5 99.5t16 112.5q0 84 -34 161l-356 -363q29 -48 72 -78.5t96 -30.5zM191 169l356 363q-29 48 -71.5 78.5t-95.5 30.5q-50 0 -91 -27.5t-70.5 -71.5t-45.5 -99.5t-16 -112.5q0 -85 34 -161z" />
    <glyph glyph-name="Ugrave" unicode="&#xd9;" horiz-adv-x="649" 
d="M630 660v-13h-11q-23 0 -40.5 -27.5t-17.5 -65.5v-369q0 -39 -15 -73.5t-44 -60.5t-72 -41t-99 -15q-58 0 -103 17.5t-75.5 47.5t-46 70t-15.5 85v349q0 34 -15.5 58.5t-35.5 24.5h-9v13h60h49h49h60v-13h-9q-20 0 -35 -23t-16 -55v-5v-368q0 -34 10 -64t30 -53t49 -36.5
t67 -13.5q45 0 79.5 13.5t58 36t35.5 52.5t12 64l1 366q-2 35 -20.5 60.5t-41.5 25.5h-11v13h73h15h15h69zM327 852l82 -154l-11 -8l-116 126q-16 17 -27.5 31t-11.5 19q0 4 6 10.5t14.5 12.5t17 10.5t13.5 4.5q4 0 13 -15.5t20 -36.5z" />
    <glyph glyph-name="Uacute" unicode="&#xda;" horiz-adv-x="649" 
d="M326 690l-10 8l78 154q11 21 20.5 36.5t11.5 15.5q5 0 14 -4.5t17 -10.5t14 -12.5t6 -10.5q0 -3 -11 -18t-26 -32zM630 660v-13h-11q-23 0 -40.5 -27.5t-17.5 -65.5v-369q0 -39 -15 -73.5t-44 -60.5t-72 -41t-99 -15q-58 0 -103 17.5t-75.5 47.5t-46 70t-15.5 85v349
q0 34 -15.5 58.5t-35.5 24.5h-9v13h60h49h49h60v-13h-9q-20 0 -35 -23t-16 -55v-5v-368q0 -34 10 -64t30 -53t49 -36.5t67 -13.5q45 0 79.5 13.5t58 36t35.5 52.5t12 64l1 366q-2 35 -20.5 60.5t-41.5 25.5h-11v13h73h15h15h69z" />
    <glyph glyph-name="Ucircumflex" unicode="&#xdb;" horiz-adv-x="649" 
d="M630 660v-13h-11q-23 0 -40.5 -27.5t-17.5 -65.5v-369q0 -39 -15 -73.5t-44 -60.5t-72 -41t-99 -15q-58 0 -103 17.5t-75.5 47.5t-46 70t-15.5 85v349q0 34 -15.5 58.5t-35.5 24.5h-9v13h60h49h49h60v-13h-9q-20 0 -35 -23t-16 -55v-5v-368q0 -34 10 -64t30 -53t49 -36.5
t67 -13.5q45 0 79.5 13.5t58 36t35.5 52.5t12 64l1 366q-2 35 -20.5 60.5t-41.5 25.5h-11v13h73h15h15h69zM326 818l-111 -126l-9 8l92 180q2 5 10 15t18 10t18 -10.5t11 -15.5l92 -179l-10 -8z" />
    <glyph glyph-name="Udieresis" unicode="&#xdc;" horiz-adv-x="649" 
d="M422 730q-23 0 -39 16t-16 39t16 39t39 16t39 -16t16 -39t-16 -39t-39 -16zM230 730q-23 0 -39 16t-16 39t16 39t39 16t39 -16t16 -39t-16 -39t-39 -16zM630 660v-13h-11q-23 0 -40.5 -27.5t-17.5 -65.5v-369q0 -39 -15 -73.5t-44 -60.5t-72 -41t-99 -15q-58 0 -103 17.5
t-75.5 47.5t-46 70t-15.5 85v349q0 34 -15.5 58.5t-35.5 24.5h-9v13h60h49h49h60v-13h-9q-20 0 -35 -23t-16 -55v-5v-368q0 -34 10 -64t30 -53t49 -36.5t67 -13.5q45 0 79.5 13.5t58 36t35.5 52.5t12 64l1 366q-2 35 -20.5 60.5t-41.5 25.5h-11v13h73h15h15h69z" />
    <glyph glyph-name="Yacute" unicode="&#xdd;" horiz-adv-x="623" 
d="M312 690l-10 8l78 154q11 21 20.5 36.5t12.5 15.5q5 0 13.5 -4.5t17 -10.5t14.5 -12.5t6 -10.5q0 -3 -11 -18t-27 -32zM422 13v-13h-61h-48h-49h-60v13h9q20 0 35.5 24.5t15.5 58.5v181l-170 299q-19 30 -41 50.5t-36 20.5h-7v13h37h59h58h73v-13h-10q-22 0 -25.5 -22
t12.5 -53l134 -238l129 210v0q26 42 24.5 72.5t-29.5 30.5h-13q2 0 0 7q2 6 0 6h89h15h15h45v-13h-8q-17 0 -44.5 -23.5t-49.5 -55.5l-160 -256v-216q1 -34 16 -58.5t36 -24.5h9z" />
    <glyph glyph-name="agrave" unicode="&#xe0;" horiz-adv-x="583" 
d="M534 48v-8l-80 -24l-56 -21h-15v5v110q-14 -24 -32.5 -45t-38.5 -36.5t-41 -24.5t-41 -9q-35 0 -67 18t-56 49t-38 72t-14 87q0 58 17 109.5t46 90.5t67 61.5t81 22.5q19 0 38.5 -6.5t37.5 -17.5t33 -25t24 -29l49 73h25v-354q0 -26 3 -43.5t10 -28t19 -16.5t29 -10z
M232 692l81 -154l-10 -8l-117 126q-16 17 -27.5 31t-11.5 19q0 4 6 10.5t14.5 12.5t17 10.5t13.5 4.5q4 0 13.5 -15.5t20.5 -36.5zM383 132v271q-6 14 -18.5 27.5t-29.5 24.5t-36 18t-38 7q-23 0 -43.5 -18t-36 -48.5t-24.5 -71.5t-9 -86q0 -42 10.5 -79t28.5 -65.5t42 -45
t51 -16.5q26 0 56 24t47 58z" />
    <glyph glyph-name="aacute" unicode="&#xe1;" horiz-adv-x="500" 
d="M192 530l-10 8l78 154q11 21 20.5 36.5t12.5 15.5q5 0 13.5 -4.5t17 -10.5t14.5 -12.5t6 -10.5q0 -3 -11.5 -18t-26.5 -32zM479 49l10 -12q-19 -19 -50.5 -33t-69.5 -14q-29 0 -46 18t-23 44q-34 -25 -74 -41t-73 -16q-24 0 -45 8.5t-37 23.5t-25.5 35t-9.5 42
q0 25 14 49t38 43.5t55.5 32.5t67.5 16l85 8v122q0 43 -17.5 74t-41.5 31q-29 0 -56.5 -24.5t-35.5 -57.5h-90q5 22 24 41.5t46.5 34t61.5 23t70 8.5q27 0 51.5 -12t42.5 -32.5t29 -48t11 -57.5v-258q0 -26 9.5 -45t30.5 -19q17 0 29 4.5t19 11.5zM296 230l-85 -13
q-35 -5 -60.5 -31t-25.5 -57q0 -30 22 -52t51 -22q25 0 50.5 6t47.5 16v10v143z" />
    <glyph glyph-name="acircumflex" unicode="&#xe2;" horiz-adv-x="583" 
d="M534 48v-8l-80 -24l-56 -21h-15v5v110q-14 -24 -32.5 -45t-38.5 -36.5t-41 -24.5t-41 -9q-35 0 -67 18t-56 49t-38 72t-14 87q0 58 17 109.5t46 90.5t67 61.5t81 22.5q19 0 38.5 -6.5t37.5 -17.5t33 -25t24 -29l49 73h25v-354q0 -26 3 -43.5t10 -28t19 -16.5t29 -10z
M231 658l-112 -126l-9 8l92 180q2 5 10.5 15t17.5 10q10 0 18.5 -10.5t10.5 -15.5l92 -179l-9 -8zM383 132v271q-6 14 -18.5 27.5t-29.5 24.5t-36 18t-38 7q-23 0 -43.5 -18t-36 -48.5t-24.5 -71.5t-9 -86q0 -42 10.5 -79t28.5 -65.5t42 -45t51 -16.5q26 0 56 24t47 58z" />
    <glyph glyph-name="atilde" unicode="&#xe3;" horiz-adv-x="583" 
d="M90 595h-15q0 24 6 46t16.5 38.5t24.5 26t29 9.5q20 0 42 -10t44.5 -21.5t44.5 -21.5t42 -10t33.5 18t13.5 42h15q0 -24 -6.5 -45.5t-17.5 -38t-25.5 -26t-31.5 -9.5q-20 0 -42 9.5t-44.5 21.5t-44.5 21.5t-42 9.5q-17 0 -29.5 -18t-12.5 -42zM534 48v-8l-80 -24l-56 -21
h-15v5v110q-14 -24 -32.5 -45t-38.5 -36.5t-41 -24.5t-41 -9q-35 0 -67 18t-56 49t-38 72t-14 87q0 58 17 109.5t46 90.5t67 61.5t81 22.5q19 0 38.5 -6.5t37.5 -17.5t33 -25t24 -29l49 73h25v-354q0 -26 3 -43.5t10 -28t19 -16.5t29 -10zM383 132v271q-6 14 -18.5 27.5
t-29.5 24.5t-36 18t-38 7q-23 0 -43.5 -18t-36 -48.5t-24.5 -71.5t-9 -86q0 -42 10.5 -79t28.5 -65.5t42 -45t51 -16.5q26 0 56 24t47 58z" />
    <glyph glyph-name="adieresis" unicode="&#xe4;" horiz-adv-x="583" 
d="M326 570q-23 0 -39 16t-16 39t16 39t39 16t39 -16t16 -39t-16 -39t-39 -16zM135 570q-23 0 -39 16t-16 39t16 39t39 16q22 0 38.5 -16t16.5 -39t-16.5 -39t-38.5 -16zM534 48v-8l-80 -24l-56 -21h-15v5v110q-14 -24 -32.5 -45t-38.5 -36.5t-41 -24.5t-41 -9q-35 0 -67 18
t-56 49t-38 72t-14 87q0 58 17 109.5t46 90.5t67 61.5t81 22.5q19 0 38.5 -6.5t37.5 -17.5t33 -25t24 -29l49 73h25v-354q0 -26 3 -43.5t10 -28t19 -16.5t29 -10zM383 132v271q-6 14 -18.5 27.5t-29.5 24.5t-36 18t-38 7q-23 0 -43.5 -18t-36 -48.5t-24.5 -71.5t-9 -86
q0 -42 10.5 -79t28.5 -65.5t42 -45t51 -16.5q26 0 56 24t47 58z" />
    <glyph glyph-name="aring" unicode="&#xe5;" horiz-adv-x="583" 
d="M230 555q13 0 26 6.5t23 16.5t16 23.5t6 26.5q0 29 -21 50.5t-50 21.5t-49.5 -21.5t-20.5 -50.5q0 -13 6 -26.5t16 -23.5t22.5 -16.5t25.5 -6.5zM135 628q0 18 7.5 35t20.5 29.5t30.5 20t36.5 7.5q20 0 37 -7.5t30.5 -20t21 -29.5t7.5 -35q0 -17 -8.5 -33.5t-22 -30
t-30.5 -21.5t-35 -8q-17 0 -34 8t-30.5 21.5t-22 30t-8.5 33.5zM534 48v-8l-80 -24l-56 -21h-15v5v110q-14 -24 -32.5 -45t-38.5 -36.5t-41 -24.5t-41 -9q-35 0 -67 18t-56 49t-38 72t-14 87q0 58 17 109.5t46 90.5t67 61.5t81 22.5q19 0 38.5 -6.5t37.5 -17.5t33 -25
t24 -29l49 73h25v-354q0 -26 3 -43.5t10 -28t19 -16.5t29 -10zM383 132v271q-6 14 -18.5 27.5t-29.5 24.5t-36 18t-38 7q-23 0 -43.5 -18t-36 -48.5t-24.5 -71.5t-9 -86q0 -42 10.5 -79t28.5 -65.5t42 -45t51 -16.5q26 0 56 24t47 58z" />
    <glyph glyph-name="ccedilla" unicode="&#xe7;" horiz-adv-x="503" 
d="M453 84q-18 -18 -43.5 -34t-53 -28.5t-54.5 -19.5t-50 -7q-41 0 -77.5 19t-64.5 51.5t-44 75t-16 90.5q0 56 20.5 105.5t55 87t80 59.5t96.5 22q29 0 55.5 -8.5t47.5 -22.5t34 -33.5t15 -40.5q0 -17 -11.5 -28.5t-28.5 -11.5t-30 13t-15 31q-3 31 -25.5 53.5t-51.5 22.5
q-30 0 -56.5 -17t-47 -46.5t-32 -68t-11.5 -82.5t14.5 -83t39.5 -68.5t58 -47t70 -17.5q15 0 31.5 3.5t32.5 9.5t30 13.5t23 16.5z" />
    <glyph glyph-name="egrave" unicode="&#xe8;" horiz-adv-x="510" 
d="M460 84q-18 -18 -44 -34t-54 -28.5t-56 -19.5t-51 -7q-42 0 -79 19t-65 51.5t-44.5 75t-16.5 90.5q0 56 18 105.5t49 87t72.5 59.5t87.5 22q37 0 70.5 -15.5t58.5 -42.5t39.5 -63t14.5 -76h-85h-227q-3 -21 -3 -42q0 -44 15 -83t40 -68.5t59 -47t71 -17.5q15 0 32.5 3.5
t34 9.5t30.5 13.5t23 16.5zM278 692l81 -154l-10 -8l-117 126q-15 17 -26.5 31t-12.5 19q0 4 6.5 10.5t14.5 12.5t17 10.5t14 4.5q3 0 12.5 -15.5t20.5 -36.5zM150 325l184 13q17 2 29 15t13 30v1q0 20 -8.5 37t-22.5 30.5t-33 21t-40 7.5t-40.5 -11.5t-35.5 -32.5
t-28 -49.5t-18 -61.5z" />
    <glyph glyph-name="eacute" unicode="&#xe9;" horiz-adv-x="510" 
d="M246 530l-10 8l78 154q11 21 20.5 36.5t11.5 15.5q5 0 14 -4.5t17.5 -10.5t14.5 -12.5t6 -10.5q0 -3 -11.5 -18t-26.5 -32zM460 84q-18 -18 -44 -34t-54 -28.5t-56 -19.5t-51 -7q-42 0 -79 19t-65 51.5t-44.5 75t-16.5 90.5q0 56 18 105.5t49 87t72.5 59.5t87.5 22
q37 0 70.5 -15.5t58.5 -42.5t39.5 -63t14.5 -76h-85h-227q-3 -21 -3 -42q0 -44 15 -83t40 -68.5t59 -47t71 -17.5q15 0 32.5 3.5t34 9.5t30.5 13.5t23 16.5zM150 325l184 13q17 2 29 15t13 30v1q0 20 -8.5 37t-22.5 30.5t-33 21t-40 7.5t-40.5 -11.5t-35.5 -32.5t-28 -49.5
t-18 -61.5z" />
    <glyph glyph-name="ecircumflex" unicode="&#xea;" horiz-adv-x="510" 
d="M460 84q-18 -18 -44 -34t-54 -28.5t-56 -19.5t-51 -7q-42 0 -79 19t-65 51.5t-44.5 75t-16.5 90.5q0 56 18 105.5t49 87t72.5 59.5t87.5 22q37 0 70.5 -15.5t58.5 -42.5t39.5 -63t14.5 -76h-85h-227q-3 -21 -3 -42q0 -44 15 -83t40 -68.5t59 -47t71 -17.5q15 0 32.5 3.5
t34 9.5t30.5 13.5t23 16.5zM277 658l-111 -126l-10 8l92 180q3 5 11 15t18 10t18 -10.5t11 -15.5l91 -179l-9 -8zM150 325l184 13q17 2 29 15t13 30v1q0 20 -8.5 37t-22.5 30.5t-33 21t-40 7.5t-40.5 -11.5t-35.5 -32.5t-28 -49.5t-18 -61.5z" />
    <glyph glyph-name="edieresis" unicode="&#xeb;" horiz-adv-x="510" 
d="M373 570q-23 0 -39 16t-16 39t16 39t39 16t39 -16t16 -39t-16 -39t-39 -16zM181 570q-23 0 -39 16t-16 39t16 39t39 16t39 -16t16 -39t-16 -39t-39 -16zM460 84q-18 -18 -44 -34t-54 -28.5t-56 -19.5t-51 -7q-42 0 -79 19t-65 51.5t-44.5 75t-16.5 90.5q0 56 18 105.5
t49 87t72.5 59.5t87.5 22q37 0 70.5 -15.5t58.5 -42.5t39.5 -63t14.5 -76h-85h-227q-3 -21 -3 -42q0 -44 15 -83t40 -68.5t59 -47t71 -17.5q15 0 32.5 3.5t34 9.5t30.5 13.5t23 16.5zM150 325l184 13q17 2 29 15t13 30v1q0 20 -8.5 37t-22.5 30.5t-33 21t-40 7.5
t-40.5 -11.5t-35.5 -32.5t-28 -49.5t-18 -61.5z" />
    <glyph glyph-name="igrave" unicode="&#xec;" horiz-adv-x="301" 
d="M196 0h-90q0 8 -14.5 10.5t-34.5 2.5h-12v-13h61v378q0 32 -4.5 46.5t-10.5 16.5l-36 13v9l136 42h5v-101v-404q0 8 14 10.5t34 2.5h12v-13h-60zM152 692l81 -154l-10 -8l-117 126q-16 17 -27.5 31t-11.5 19q0 4 6 10.5t14.5 12.5t17.5 10.5t14 4.5q3 0 12.5 -15.5
t20.5 -36.5z" />
    <glyph glyph-name="iacute" unicode="&#xed;" horiz-adv-x="301" 
d="M74 530l-10 8l78 154q11 21 20.5 36.5t12.5 15.5q5 0 14 -4.5t17 -10.5t14 -12.5t6 -10.5q0 -3 -11 -18t-27 -32zM196 0h-90q0 8 -14.5 10.5t-34.5 2.5h-12v-13h61v378q0 32 -4.5 46.5t-10.5 16.5l-36 13v9l136 42h5v-101v-404q0 8 14 10.5t34 2.5h12v-13h-60z" />
    <glyph glyph-name="icircumflex" unicode="&#xee;" horiz-adv-x="301" 
d="M196 0h-90q0 8 -14.5 10.5t-34.5 2.5h-12v-13h61v378q0 32 -4.5 46.5t-10.5 16.5l-36 13v9l136 42h5v-101v-404q0 8 14 10.5t34 2.5h12v-13h-60zM151 705l28 14l92 -179l-9 -8l-111 126l-112 -126l-9 8l92 180zM122 691l29 -33zM179 719l-57 1q3 5 11 15t18 10
q9 0 17.5 -10.5t10.5 -15.5z" />
    <glyph glyph-name="idieresis" unicode="&#xef;" horiz-adv-x="301" 
d="M247 570q-23 0 -39 16t-16 39t16 39t39 16q22 0 38.5 -16t16.5 -39t-16.5 -39t-38.5 -16zM55 570q-23 0 -39 16t-16 39t16 39t39 16t39 -16t16 -39t-16 -39t-39 -16zM196 0h-90q0 8 -14.5 10.5t-34.5 2.5h-12v-13h61v378q0 32 -4.5 46.5t-10.5 16.5l-36 13v9l136 42h5
v-101v-404q0 8 14 10.5t34 2.5h12v-13h-60z" />
    <glyph glyph-name="ntilde" unicode="&#xf1;" horiz-adv-x="601" 
d="M163 595h-15q0 24 6 46t16.5 38.5t24 26t28.5 9.5q20 0 42 -10t45 -21.5t45 -21.5t42 -10q19 0 32.5 18t13.5 42h15q0 -24 -6.5 -45.5t-17.5 -38t-25.5 -26t-31.5 -9.5q-20 0 -42 9.5t-44.5 21.5t-44.5 21.5t-42 9.5q-17 0 -29 -18t-12 -42zM561 13v-13h-60h-45h-45h-61
v13h9q21 0 36.5 24.5t15.5 58.5v232q0 24 -6.5 45t-18.5 37t-30 25.5t-42 9.5q-33 0 -67 -4t-52 -10v-51v-1v-283q0 -34 15.5 -58.5t36.5 -24.5h9q-2 0 0 -7q-2 -6 0 -6h-61h-45h-45h-61q2 0 0 6q2 7 0 7h10q20 0 35.5 24.5t15.5 58.5v258q0 53 -13 72t-48 26q2 0 0 7
q1 1 0 1l133 40h18v-58q25 13 52.5 24.5t53 20t47.5 13.5t36 5q29 0 50.5 -13.5t36.5 -36.5t22.5 -53.5t7.5 -64.5v-241v-5q1 -32 16 -55t35 -23h9z" />
    <glyph glyph-name="ograve" unicode="&#xf2;" horiz-adv-x="600" 
d="M300 15q30 0 57.5 19t48 51t32.5 74.5t12 90.5t-12 90.5t-32.5 74.5t-48 51t-57.5 19t-57.5 -19t-48 -51t-32.5 -74.5t-12 -90.5t12 -90.5t32.5 -74.5t48 -51t57.5 -19zM50 250q0 52 20 98t54.5 81t79.5 55.5t96 20.5t96 -20.5t79.5 -55.5t54.5 -81t20 -98t-20 -98
t-54.5 -81t-79.5 -55.5t-96 -20.5t-96 20.5t-79.5 55.5t-54.5 81t-20 98zM301 692l81 -154l-10 -8l-117 126q-15 17 -26.5 31t-11.5 19q0 4 6 10.5t14.5 12.5t17 10.5t13.5 4.5q3 0 12.5 -15.5t20.5 -36.5z" />
    <glyph glyph-name="oacute" unicode="&#xf3;" horiz-adv-x="600" 
d="M269 530l-10 8l78 154q11 21 20.5 36.5t11.5 15.5q5 0 14 -4.5t17.5 -10.5t14.5 -12.5t6 -10.5q0 -3 -11.5 -18t-26.5 -32zM300 15q30 0 57.5 19t48 51t32.5 74.5t12 90.5t-12 90.5t-32.5 74.5t-48 51t-57.5 19t-57.5 -19t-48 -51t-32.5 -74.5t-12 -90.5t12 -90.5
t32.5 -74.5t48 -51t57.5 -19zM50 250q0 52 20 98t54.5 81t79.5 55.5t96 20.5t96 -20.5t79.5 -55.5t54.5 -81t20 -98t-20 -98t-54.5 -81t-79.5 -55.5t-96 -20.5t-96 20.5t-79.5 55.5t-54.5 81t-20 98z" />
    <glyph glyph-name="ocircumflex" unicode="&#xf4;" horiz-adv-x="600" 
d="M300 15q30 0 57.5 19t48 51t32.5 74.5t12 90.5t-12 90.5t-32.5 74.5t-48 51t-57.5 19t-57.5 -19t-48 -51t-32.5 -74.5t-12 -90.5t12 -90.5t32.5 -74.5t48 -51t57.5 -19zM50 250q0 52 20 98t54.5 81t79.5 55.5t96 20.5t96 -20.5t79.5 -55.5t54.5 -81t20 -98t-20 -98
t-54.5 -81t-79.5 -55.5t-96 -20.5t-96 20.5t-79.5 55.5t-54.5 81t-20 98zM300 658l-111 -126l-10 8l92 180q3 5 11 15t18 10t18 -10.5t11 -15.5l92 -179l-10 -8z" />
    <glyph glyph-name="otilde" unicode="&#xf5;" horiz-adv-x="600" 
d="M160 595h-15q0 24 6 46t16.5 38.5t24.5 26t29 9.5q20 0 42 -10t44.5 -21.5t44.5 -21.5t42 -10q19 0 32.5 18t13.5 42h15q0 -24 -6.5 -45.5t-17.5 -38t-25.5 -26t-30.5 -9.5q-20 0 -42 9.5t-45 21.5t-45 21.5t-42 9.5q-17 0 -29 -18t-12 -42zM300 15q30 0 57.5 19t48 51
t32.5 74.5t12 90.5t-12 90.5t-32.5 74.5t-48 51t-57.5 19t-57.5 -19t-48 -51t-32.5 -74.5t-12 -90.5t12 -90.5t32.5 -74.5t48 -51t57.5 -19zM50 250q0 52 20 98t54.5 81t79.5 55.5t96 20.5t96 -20.5t79.5 -55.5t54.5 -81t20 -98t-20 -98t-54.5 -81t-79.5 -55.5t-96 -20.5
t-96 20.5t-79.5 55.5t-54.5 81t-20 98z" />
    <glyph glyph-name="odieresis" unicode="&#xf6;" horiz-adv-x="600" 
d="M396 570q-23 0 -39 16t-16 39t16 39t39 16t39 -16t16 -39t-16 -39t-39 -16zM204 570q-23 0 -39 16t-16 39t16 39t39 16t39 -16t16 -39t-16 -39t-39 -16zM300 15q30 0 57.5 19t48 51t32.5 74.5t12 90.5t-12 90.5t-32.5 74.5t-48 51t-57.5 19t-57.5 -19t-48 -51
t-32.5 -74.5t-12 -90.5t12 -90.5t32.5 -74.5t48 -51t57.5 -19zM50 250q0 52 20 98t54.5 81t79.5 55.5t96 20.5t96 -20.5t79.5 -55.5t54.5 -81t20 -98t-20 -98t-54.5 -81t-79.5 -55.5t-96 -20.5t-96 20.5t-79.5 55.5t-54.5 81t-20 98z" />
    <glyph glyph-name="oslash" unicode="&#xf8;" horiz-adv-x="600" 
d="M61 -16l-22 22l75 76q-30 34 -47 77t-17 91q0 52 20 98t54.5 81t79.5 55.5t96 20.5q47 0 89 -17.5t75 -47.5l75 76l22 -22l-75 -76q30 -34 47 -77t17 -91q0 -52 -20 -98t-54.5 -81t-79.5 -55.5t-96 -20.5q-47 0 -89 17.5t-75 47.5zM300 15v0q30 0 57.5 19t48 51
t32.5 74.5t12 90.5q0 30 -5 58t-14 54l-249 -255q21 -42 52 -67t66 -25zM169 138l249 255q-21 42 -52 67t-66 25q-30 0 -57.5 -19t-48 -51t-32.5 -74.5t-12 -90.5q0 -30 5 -58t14 -54z" />
    <glyph glyph-name="ugrave" unicode="&#xf9;" horiz-adv-x="566" 
d="M531 48v-8l-132 -40h-18v23v40q-29 -29 -73 -48.5t-94 -19.5q-31 0 -56.5 13t-44 34.5t-28.5 50.5t-10 62v249q0 34 -15.5 58.5t-35.5 24.5h-10q2 0 0 7q2 6 0 6h61h45h45v-336q0 -22 9 -42t24.5 -35t37.5 -24t49 -9q35 0 59.5 7t36.5 18v42v283q0 34 -15.5 58.5
t-36.5 24.5h-9v13h61h45h45v-354v-13q1 -45 14.5 -61.5t45.5 -23.5zM274 692l81 -154l-10 -8l-117 126q-15 17 -26.5 31t-12.5 19q0 4 6.5 10.5t14.5 12.5t17 10.5t14 4.5q3 0 12.5 -15.5t20.5 -36.5z" />
    <glyph glyph-name="uacute" unicode="&#xfa;" horiz-adv-x="566" 
d="M242 530l-10 8l78 154q11 21 20.5 36.5t11.5 15.5q5 0 14 -4.5t17.5 -10.5t14.5 -12.5t6 -10.5q0 -3 -11.5 -18t-26.5 -32zM531 48v-8l-132 -40h-18v23v40q-29 -29 -73 -48.5t-94 -19.5q-31 0 -56.5 13t-44 34.5t-28.5 50.5t-10 62v249q0 34 -15.5 58.5t-35.5 24.5h-10
q2 0 0 7q2 6 0 6h61h45h45v-336q0 -22 9 -42t24.5 -35t37.5 -24t49 -9q35 0 59.5 7t36.5 18v42v283q0 34 -15.5 58.5t-36.5 24.5h-9v13h61h45h45v-354v-13q1 -45 14.5 -61.5t45.5 -23.5z" />
    <glyph glyph-name="ucircumflex" unicode="&#xfb;" horiz-adv-x="566" 
d="M531 48v-8l-132 -40h-18v23v40q-29 -29 -73 -48.5t-94 -19.5q-31 0 -56.5 13t-44 34.5t-28.5 50.5t-10 62v249q0 34 -15.5 58.5t-35.5 24.5h-10q2 0 0 7q2 6 0 6h61h45h45v-336q0 -22 9 -42t24.5 -35t37.5 -24t49 -9q35 0 59.5 7t36.5 18v42v283q0 34 -15.5 58.5
t-36.5 24.5h-9v13h61h45h45v-354v-13q1 -45 14.5 -61.5t45.5 -23.5zM273 658l-111 -126l-10 8l92 180q3 5 11 15t18 10t18 -10.5t11 -15.5l91 -179l-9 -8z" />
    <glyph glyph-name="udieresis" unicode="&#xfc;" horiz-adv-x="566" 
d="M369 570q-23 0 -39 16t-16 39t16 39t39 16t39 -16t16 -39t-16 -39t-39 -16zM177 570q-23 0 -39 16t-16 39t16 39t39 16t39 -16t16 -39t-16 -39t-39 -16zM531 48v-8l-132 -40h-18v23v40q-29 -29 -73 -48.5t-94 -19.5q-31 0 -56.5 13t-44 34.5t-28.5 50.5t-10 62v249
q0 34 -15.5 58.5t-35.5 24.5h-10q2 0 0 7q2 6 0 6h61h45h45v-336q0 -22 9 -42t24.5 -35t37.5 -24t49 -9q35 0 59.5 7t36.5 18v42v283q0 34 -15.5 58.5t-36.5 24.5h-9v13h61h45h45v-354v-13q1 -45 14.5 -61.5t45.5 -23.5z" />
    <glyph glyph-name="ydieresis" unicode="&#xff;" horiz-adv-x="484" 
d="M362 570q-23 0 -39 16t-16 39t16 39t39 16q22 0 38.5 -16t16.5 -39t-16.5 -39t-38.5 -16zM170 570q-23 0 -39 16t-16 39t16 39t39 16t39 -16t16 -39t-16 -39t-39 -16zM541 500v-13h-9q-10 0 -22.5 -6.5t-24.5 -18t-22 -26.5t-17 -32v0l-170 -414l-26 -62
q-32 -77 -75.5 -117.5t-94.5 -40.5q-29 0 -49.5 13.5t-20.5 32.5q0 16 13.5 27t31.5 11q9 0 19.5 -4t21 -8.5t20.5 -8.5t19 -4q23 0 46.5 27.5t44.5 79.5l30 67l-170 401v0q-7 17 -17.5 32t-22.5 26.5t-24 18t-22 6.5h-9v13h55h51h52h61v-13h-9q-19 0 -23.5 -24.5t9.5 -58.5
v0l118 -299l118 311q9 29 3.5 50t-23.5 21h-8v13h60h15h15h56z" />
    <glyph glyph-name="Amacron" unicode="&#x100;" horiz-adv-x="653" 
d="M159 765v50h300v-50h-300zM647 13v-13h-49h-53h-53h-84v13h12q27 0 37.5 24.5t-3.5 58.5v0l-51 131h-236l-42 -122q-11 -38 0 -65t40 -27h13v-13h-89h-16h-16h-56v13h9q20 0 44.5 24.5t36.5 58.5v0l206 579h24l238 -579v0q14 -34 37.5 -58.5t42.5 -24.5h8zM393 252
l-116 295l-101 -295h217z" />
    <glyph glyph-name="amacron" unicode="&#x101;" horiz-adv-x="583" 
d="M80 605v50h300v-50h-300zM534 48v-8l-80 -24l-56 -21h-15v5v110q-14 -24 -32.5 -45t-38.5 -36.5t-41 -24.5t-41 -9q-35 0 -67 18t-56 49t-38 72t-14 87q0 58 17 109.5t46 90.5t67 61.5t81 22.5q19 0 38.5 -6.5t37.5 -17.5t33 -25t24 -29l49 73h25v-354q0 -26 3 -43.5
t10 -28t19 -16.5t29 -10zM383 132v271q-6 14 -18.5 27.5t-29.5 24.5t-36 18t-38 7q-23 0 -43.5 -18t-36 -48.5t-24.5 -71.5t-9 -86q0 -42 10.5 -79t28.5 -65.5t42 -45t51 -16.5q26 0 56 24t47 58z" />
    <glyph glyph-name="Abreve" unicode="&#x102;" horiz-adv-x="653" 
d="M183 871l16 5q5 -14 16 -26.5t26 -21.5t32.5 -14.5t35.5 -5.5t36 5.5t33 14.5t26.5 21.5t15.5 26.5l15 -5q-8 -25 -22 -47.5t-31.5 -39t-36 -26.5t-36.5 -10q-17 0 -36 10t-36 26.5t-31.5 39t-22.5 47.5zM647 13v-13h-49h-53h-53h-84v13h12q27 0 37.5 24.5t-3.5 58.5v0
l-51 131h-236l-42 -122q-11 -38 0 -65t40 -27h13v-13h-89h-16h-16h-56v13h9q20 0 44.5 24.5t36.5 58.5v0l206 579h24l238 -579v0q14 -34 37.5 -58.5t42.5 -24.5h8zM393 252l-116 295l-101 -295h217z" />
    <glyph glyph-name="abreve" unicode="&#x103;" horiz-adv-x="583" 
d="M105 681l15 5q5 -14 16 -26.5t26 -21.5t32.5 -14.5t35.5 -5.5t36 5.5t33 14.5t26.5 21.5t15.5 26.5l15 -5q-8 -25 -22 -47.5t-31.5 -39t-36 -26.5t-36.5 -10q-17 0 -36 10t-36 26.5t-31 39t-22 47.5zM534 48v-8l-80 -24l-56 -21h-15v5v110q-14 -24 -32.5 -45t-38.5 -36.5
t-41 -24.5t-41 -9q-35 0 -67 18t-56 49t-38 72t-14 87q0 58 17 109.5t46 90.5t67 61.5t81 22.5q19 0 38.5 -6.5t37.5 -17.5t33 -25t24 -29l49 73h25v-354q0 -26 3 -43.5t10 -28t19 -16.5t29 -10zM383 132v271q-6 14 -18.5 27.5t-29.5 24.5t-36 18t-38 7q-23 0 -43.5 -18
t-36 -48.5t-24.5 -71.5t-9 -86q0 -42 10.5 -79t28.5 -65.5t42 -45t51 -16.5q26 0 56 24t47 58z" />
    <glyph glyph-name="Aogonek" unicode="&#x104;" horiz-adv-x="653" 
d="M647 13v-13h-49h-53h-53q-10 -4 -28 -19t-35.5 -36t-30 -45t-12.5 -45q0 -26 26.5 -45.5t62.5 -19.5q19 0 36 4.5t22 9.5l7 -7q-11 -13 -36 -22.5t-48 -9.5q-25 0 -48 6.5t-40 17.5t-27 25.5t-10 30.5q0 19 12 40.5t31 42.5t41 40t41 32h-48v13h12q27 0 37.5 24.5
t-3.5 58.5v0l-51 131h-236l-42 -122q-11 -38 0 -65t40 -27h13v-13h-89h-16h-16h-56v13h9q20 0 44.5 24.5t36.5 58.5v0l206 579h24l238 -579v0q14 -34 37.5 -58.5t42.5 -24.5h8zM393 252l-116 295l-101 -295h217z" />
    <glyph glyph-name="aogonek" unicode="&#x105;" horiz-adv-x="500" 
d="M479 49l10 -12q-14 -14 -35 -26q-13 -11 -27 -27t-26 -34t-20 -38t-8 -38q0 -17 7 -32t19.5 -26.5t28.5 -18.5t34 -7q19 0 36 4.5t22 9.5l7 -7q-11 -13 -36 -22.5t-48 -9.5q-25 0 -48 8t-40 21.5t-27 31.5t-10 38q0 30 25 65t57 64q-15 -3 -31 -3q-29 0 -46 18t-23 44
q-34 -25 -74 -41t-73 -16q-24 0 -45 8.5t-37 23.5t-25.5 35t-9.5 42q0 25 14 49t38 43.5t55.5 32.5t67.5 16l85 8v122q0 43 -17.5 74t-41.5 31q-29 0 -56.5 -24.5t-35.5 -57.5h-90q5 22 24 41.5t46.5 34t61.5 23t70 8.5q27 0 51.5 -12t42.5 -32.5t29 -48t11 -57.5v-258
q0 -26 9.5 -45t30.5 -19q15 0 25 3q14 9 21 11zM296 230l-85 -13q-35 -5 -60.5 -31t-25.5 -57q0 -30 22 -52t51 -22q25 0 50.5 6t47.5 16v10v143z" />
    <glyph glyph-name="Cacute" unicode="&#x106;" horiz-adv-x="708" 
d="M351 690l-10 8l78 154q11 21 20 36.5t12 15.5q5 0 14 -4.5t17 -10.5t14 -12.5t6 -10.5q0 -3 -11 -18t-26 -32zM648 484h-11q-2 6 -5.5 15t-5.5 15q-7 20 -23 39.5t-37.5 36t-46.5 28.5t-50 17q-39 6 -72 6q-49 0 -92.5 -25t-76.5 -67.5t-52 -99t-19 -119.5t19 -119.5
t52 -99t76.5 -67.5t92.5 -25h11t12 1v0q33 2 66 13.5t61.5 30t49.5 41.5t30 48q2 7 5.5 16t5.5 15h11v-121l-7 10v0l7 -10q-18 -14 -47.5 -26.5t-64 -21.5t-71 -14.5t-69.5 -5.5q-70 0 -133.5 27t-110.5 72.5t-75 106.5t-28 129t28 129t75 106.5t110.5 72.5t133.5 27
q29 0 64 -4.5t69.5 -12.5t65.5 -18.5t52 -22.5v-123z" />
    <glyph glyph-name="cacute" unicode="&#x107;" horiz-adv-x="503" 
d="M226 530l-10 8l78 154q11 21 20 36.5t12 15.5q5 0 14 -4.5t17 -10.5t14 -12.5t6 -10.5q0 -3 -11 -18t-27 -32zM453 84q-18 -18 -43.5 -34t-53 -28.5t-54.5 -19.5t-50 -7q-41 0 -77.5 19t-64.5 51.5t-44 75t-16 90.5q0 56 20.5 105.5t55 87t80 59.5t96.5 22
q29 0 55.5 -8.5t47.5 -22.5t34 -33.5t15 -40.5q0 -17 -11.5 -28.5t-28.5 -11.5t-30 13t-15 31q-3 31 -25.5 53.5t-51.5 22.5q-30 0 -56.5 -17t-47 -46.5t-32 -68t-11.5 -82.5t14.5 -83t39.5 -68.5t58 -47t70 -17.5q15 0 31.5 3.5t32.5 9.5t30 13.5t23 16.5z" />
    <glyph glyph-name="Ccircumflex" unicode="&#x108;" horiz-adv-x="708" 
d="M648 484h-11q-2 6 -5.5 15t-5.5 15q-7 20 -23 39.5t-37.5 36t-46.5 28.5t-50 17q-39 6 -72 6q-49 0 -92.5 -25t-76.5 -67.5t-52 -99t-19 -119.5t19 -119.5t52 -99t76.5 -67.5t92.5 -25h11t12 1v0q33 2 66 13.5t61.5 30t49.5 41.5t30 48q2 7 5.5 16t5.5 15h11v-121l-7 10
v0l7 -10q-18 -14 -47.5 -26.5t-64 -21.5t-71 -14.5t-69.5 -5.5q-70 0 -133.5 27t-110.5 72.5t-75 106.5t-28 129t28 129t75 106.5t110.5 72.5t133.5 27q29 0 64 -4.5t69.5 -12.5t65.5 -18.5t52 -22.5v-123zM397 818l-112 -126l-9 8l92 180q3 5 11 15t18 10q9 0 17.5 -10.5
t10.5 -15.5l92 -179l-9 -8z" />
    <glyph glyph-name="Cdotaccent" unicode="&#x10a;" horiz-adv-x="708" 
d="M397 730q-23 0 -39 16t-16 39t16 39t39 16t39 -16t16 -39t-16 -39t-39 -16zM648 484h-11q-2 6 -5.5 15t-5.5 15q-7 20 -23 39.5t-37.5 36t-46.5 28.5t-50 17q-39 6 -72 6q-49 0 -92.5 -25t-76.5 -67.5t-52 -99t-19 -119.5t19 -119.5t52 -99t76.5 -67.5t92.5 -25h11t12 1
v0q33 2 66 13.5t61.5 30t49.5 41.5t30 48q2 7 5.5 16t5.5 15h11v-121l-7 10v0l7 -10q-18 -14 -47.5 -26.5t-64 -21.5t-71 -14.5t-69.5 -5.5q-70 0 -133.5 27t-110.5 72.5t-75 106.5t-28 129t28 129t75 106.5t110.5 72.5t133.5 27q29 0 64 -4.5t69.5 -12.5t65.5 -18.5
t52 -22.5v-123z" />
    <glyph glyph-name="cdotaccent" unicode="&#x10b;" horiz-adv-x="503" 
d="M302 570q-23 0 -39 16t-16 39t16 39t39 16t39 -16t16 -39t-16 -39t-39 -16zM453 84q-18 -18 -43.5 -34t-53 -28.5t-54.5 -19.5t-50 -7q-41 0 -77.5 19t-64.5 51.5t-44 75t-16 90.5q0 56 20.5 105.5t55 87t80 59.5t96.5 22q29 0 55.5 -8.5t47.5 -22.5t34 -33.5t15 -40.5
q0 -17 -11.5 -28.5t-28.5 -11.5t-30 13t-15 31q-3 31 -25.5 53.5t-51.5 22.5q-30 0 -56.5 -17t-47 -46.5t-32 -68t-11.5 -82.5t14.5 -83t39.5 -68.5t58 -47t70 -17.5q15 0 31.5 3.5t32.5 9.5t30 13.5t23 16.5z" />
    <glyph glyph-name="Ccaron" unicode="&#x10c;" horiz-adv-x="708" 
d="M648 484h-11q-2 6 -5.5 15t-5.5 15q-7 20 -23 39.5t-37.5 36t-46.5 28.5t-50 17q-39 6 -72 6q-49 0 -92.5 -25t-76.5 -67.5t-52 -99t-19 -119.5t19 -119.5t52 -99t76.5 -67.5t92.5 -25h11t12 1v0q33 2 66 13.5t61.5 30t49.5 41.5t30 48q2 7 5.5 16t5.5 15h11v-121l-7 10
v0l7 -10q-18 -14 -47.5 -26.5t-64 -21.5t-71 -14.5t-69.5 -5.5q-70 0 -133.5 27t-110.5 72.5t-75 106.5t-28 129t28 129t75 106.5t110.5 72.5t133.5 27q29 0 64 -4.5t69.5 -12.5t65.5 -18.5t52 -22.5v-123zM397 802l-112 126l-9 -8l92 -180q3 -5 11 -15t18 -10
q9 0 17.5 10.5t10.5 15.5l92 179l-9 8z" />
    <glyph glyph-name="ccaron" unicode="&#x10d;" horiz-adv-x="503" 
d="M453 84q-18 -18 -43.5 -34t-53 -28.5t-54.5 -19.5t-50 -7q-41 0 -77.5 19t-64.5 51.5t-44 75t-16 90.5q0 56 20.5 105.5t55 87t80 59.5t96.5 22q29 0 55.5 -8.5t47.5 -22.5t34 -33.5t15 -40.5q0 -17 -11.5 -28.5t-28.5 -11.5t-30 13t-15 31q-3 31 -25.5 53.5t-51.5 22.5
q-30 0 -56.5 -17t-47 -46.5t-32 -68t-11.5 -82.5t14.5 -83t39.5 -68.5t58 -47t70 -17.5q15 0 31.5 3.5t32.5 9.5t30 13.5t23 16.5zM302 642l-111 126l-10 -8l92 -180q3 -5 11 -15t18 -10t18 10.5t11 15.5l91 179l-9 8z" />
    <glyph glyph-name="Dcaron" unicode="&#x10e;" horiz-adv-x="708" 
d="M41 647v13h60h49h49h108q71 0 135 -26.5t112 -71.5t76.5 -105t28.5 -127t-25.5 -127t-68.5 -105t-100 -71.5t-121 -26.5h-145h-49h-49h-60v13h9q20 0 35.5 24.5t15.5 58.5v468q0 34 -15.5 58.5t-35.5 24.5h-9zM332 802l-112 126l-9 -8l92 -180q2 -5 10.5 -15t17.5 -10
q10 0 18.5 10.5t10.5 15.5l92 179l-9 8zM199 25h145q44 0 83.5 24.5t69 66t47 97t17.5 117.5t-20.5 117.5t-55 97t-81 66t-97.5 24.5h-108v-610z" />
    <glyph glyph-name="dcaron" unicode="&#x10f;" horiz-adv-x="605" 
d="M556 48v-8l-133 -40h-18v23v35q-14 -13 -33.5 -24.5t-40.5 -20t-42.5 -13.5t-40.5 -5q-39 0 -74 18t-61.5 49t-42 72t-15.5 87q0 58 18.5 109.5t49.5 90.5t72.5 61.5t87.5 22.5q32 0 64.5 -14.5t57.5 -37.5v121q0 52 -13 71.5t-48 26.5v8l133 40h18v-23v-98v-453
q0 -26 3 -43.5t10 -28t19 -16.5t29 -10zM627 624l-73 -148l-12 4l29 164q3 15 7.5 34t10 35.5t12 27.5t12.5 11t15.5 -1.5t18.5 -4t15.5 -6t6.5 -8.5q0 -3 -3.5 -14t-9 -26.5t-13 -33t-16.5 -34.5zM405 121v297q-20 25 -55.5 43.5t-70.5 18.5q-27 0 -50.5 -18t-41.5 -48.5
t-28.5 -71.5t-10.5 -86q0 -42 12 -79t32.5 -65.5t47.5 -45t57 -16.5q33 0 63.5 6.5t44.5 16.5v48z" />
    <glyph glyph-name="Emacron" unicode="&#x112;" 
d="M142 765v50h300v-50h-300zM429 261h-11l-3 11q-3 12 -14.5 22.5t-29 18.5t-38.5 12.5t-43 4.5h-91v-306h138q24 0 49.5 7.5t48 20.5t40.5 29.5t28 35.5l8 16q0 2 9 0q1 1 1 0q-2 -12 -5 -28t-6 -32.5t-6 -32.5t-5 -28q0 -6 -2 -12h-3h-93h-202h-49h-49h-60v13h9
q20 0 35.5 24.5t15.5 58.5v468q0 34 -15.5 58.5t-35.5 24.5h-9v13h60h49h49h200h85h12v-12v-121h-10l-5 16q-6 19 -21.5 36t-36 29.5t-44.5 20t-48 7.5h-132v-282h91q22 0 43 4.5t38.5 11.5t29 16.5t14.5 19.5l3 9h11v-61v-12v-12v-69z" />
    <glyph glyph-name="emacron" unicode="&#x113;" horiz-adv-x="510" 
d="M127 605v50h300v-50h-300zM460 84q-18 -18 -44 -34t-54 -28.5t-56 -19.5t-51 -7q-42 0 -79 19t-65 51.5t-44.5 75t-16.5 90.5q0 56 18 105.5t49 87t72.5 59.5t87.5 22q37 0 70.5 -15.5t58.5 -42.5t39.5 -63t14.5 -76h-85h-227q-3 -21 -3 -42q0 -44 15 -83t40 -68.5
t59 -47t71 -17.5q15 0 32.5 3.5t34 9.5t30.5 13.5t23 16.5zM150 325l184 13q17 2 29 15t13 30v1q0 20 -8.5 37t-22.5 30.5t-33 21t-40 7.5t-40.5 -11.5t-35.5 -32.5t-28 -49.5t-18 -61.5z" />
    <glyph glyph-name="Ebreve" unicode="&#x114;" 
d="M167 871l15 5q5 -14 16 -26.5t26 -21.5t32.5 -14.5t35.5 -5.5t36 5.5t33 14.5t26.5 21.5t15.5 26.5l15 -5q-8 -25 -22 -47.5t-31.5 -39t-36 -26.5t-36.5 -10q-17 0 -36 10t-36 26.5t-31 39t-22 47.5zM429 261h-11l-3 11q-3 12 -14.5 22.5t-29 18.5t-38.5 12.5t-43 4.5
h-91v-306h138q24 0 49.5 7.5t48 20.5t40.5 29.5t28 35.5l8 16q0 2 9 0q1 1 1 0q-2 -12 -5 -28t-6 -32.5t-6 -32.5t-5 -28q0 -6 -2 -12h-3h-93h-202h-49h-49h-60v13h9q20 0 35.5 24.5t15.5 58.5v468q0 34 -15.5 58.5t-35.5 24.5h-9v13h60h49h49h200h85h12v-12v-121h-10l-5 16
q-6 19 -21.5 36t-36 29.5t-44.5 20t-48 7.5h-132v-282h91q22 0 43 4.5t38.5 11.5t29 16.5t14.5 19.5l3 9h11v-61v-12v-12v-69z" />
    <glyph glyph-name="ebreve" unicode="&#x115;" horiz-adv-x="510" 
d="M151 711l15 5q5 -14 16 -26.5t26 -21.5t33 -14.5t36 -5.5t35.5 5.5t32.5 14.5t26.5 21.5t15.5 26.5l16 -5q-8 -25 -22.5 -47.5t-31.5 -39t-36 -26.5t-36 -10t-36 10t-36 26.5t-31.5 39t-22.5 47.5zM460 84q-18 -18 -44 -34t-54 -28.5t-56 -19.5t-51 -7q-42 0 -79 19
t-65 51.5t-44.5 75t-16.5 90.5q0 56 18 105.5t49 87t72.5 59.5t87.5 22q37 0 70.5 -15.5t58.5 -42.5t39.5 -63t14.5 -76h-85h-227q-3 -21 -3 -42q0 -44 15 -83t40 -68.5t59 -47t71 -17.5q15 0 32.5 3.5t34 9.5t30.5 13.5t23 16.5zM150 325l184 13q17 2 29 15t13 30v1
q0 20 -8.5 37t-22.5 30.5t-33 21t-40 7.5t-40.5 -11.5t-35.5 -32.5t-28 -49.5t-18 -61.5z" />
    <glyph glyph-name="Edotaccent" unicode="&#x116;" 
d="M292 730q-23 0 -39 16t-16 39t16 39t39 16t39 -16t16 -39t-16 -39t-39 -16zM429 261h-11l-3 11q-3 12 -14.5 22.5t-29 18.5t-38.5 12.5t-43 4.5h-91v-306h138q24 0 49.5 7.5t48 20.5t40.5 29.5t28 35.5l8 16q0 2 9 0q1 1 1 0q-2 -12 -5 -28t-6 -32.5t-6 -32.5t-5 -28
q0 -6 -2 -12h-3h-93h-202h-49h-49h-60v13h9q20 0 35.5 24.5t15.5 58.5v468q0 34 -15.5 58.5t-35.5 24.5h-9v13h60h49h49h200h85h12v-12v-121h-10l-5 16q-6 19 -21.5 36t-36 29.5t-44.5 20t-48 7.5h-132v-282h91q22 0 43 4.5t38.5 11.5t29 16.5t14.5 19.5l3 9h11v-61v-12v-12
v-69z" />
    <glyph glyph-name="edotaccent" unicode="&#x117;" horiz-adv-x="510" 
d="M277 570q-23 0 -39 16t-16 39t16 39t39 16t39 -16t16 -39t-16 -39t-39 -16zM460 84q-18 -18 -44 -34t-54 -28.5t-56 -19.5t-51 -7q-42 0 -79 19t-65 51.5t-44.5 75t-16.5 90.5q0 56 18 105.5t49 87t72.5 59.5t87.5 22q37 0 70.5 -15.5t58.5 -42.5t39.5 -63t14.5 -76h-85
h-227q-3 -21 -3 -42q0 -44 15 -83t40 -68.5t59 -47t71 -17.5q15 0 32.5 3.5t34 9.5t30.5 13.5t23 16.5zM150 325l184 13q17 2 29 15t13 30v1q0 20 -8.5 37t-22.5 30.5t-33 21t-40 7.5t-40.5 -11.5t-35.5 -32.5t-28 -49.5t-18 -61.5z" />
    <glyph glyph-name="Eogonek" unicode="&#x118;" 
d="M429 261h-11l-3 11q-3 12 -14.5 22.5t-29 18.5t-38.5 12.5t-43 4.5h-91v-306h138q24 0 49.5 7.5t48 20.5t40.5 29.5t28 35.5l8 16q0 2 9 0q1 1 1 0q-2 -12 -5 -28t-6 -32.5t-6 -32.5t-5 -28q0 -6 -2 -12h-3q-11 -4 -29 -19t-35.5 -36t-30 -45t-12.5 -45q0 -26 26.5 -45.5
t63.5 -19.5q19 0 35.5 4.5t21.5 9.5l7 -7q-11 -13 -36 -22.5t-48 -9.5q-25 0 -48 6.5t-40 17.5t-27 25.5t-10 30.5q0 19 12 40.5t31 42.5t41 40t42 32h-57h-202h-49h-49h-60v13h9q20 0 35.5 24.5t15.5 58.5v468q0 34 -15.5 58.5t-35.5 24.5h-9v13h60h49h49h200h85h12v-12
v-121h-10l-5 16q-6 19 -21.5 36t-36 29.5t-44.5 20t-48 7.5h-132v-282h91q22 0 43 4.5t38.5 11.5t29 16.5t14.5 19.5l3 9h11v-61v-12v-12v-69z" />
    <glyph glyph-name="eogonek" unicode="&#x119;" horiz-adv-x="510" 
d="M359 20v0q-10 -4 -28 -19.5t-35.5 -37t-30 -46.5t-12.5 -48q0 -32 26.5 -55.5t63.5 -23.5q18 0 35 4.5t22 9.5l7 -7q-11 -13 -36 -22.5t-48 -9.5q-25 0 -48 7.5t-40 20.5t-27 30t-10 36q0 16 8.5 35t23 37.5t32 36t35.5 32.5q-25 -5 -42 -5q-42 0 -79 19t-65 51.5
t-44.5 75t-16.5 90.5q0 56 18 105.5t49 87t72.5 59.5t87.5 22q37 0 70.5 -15.5t58.5 -42.5t39.5 -63t14.5 -76h-85h-227q-3 -21 -3 -42q0 -44 15 -83t40 -68.5t59 -47t71 -17.5q15 0 32.5 3.5t34 9.5t30.5 13.5t23 16.5l10 -9q-19 -19 -45.5 -35.5t-55.5 -28.5v0zM150 325
l184 13q17 2 29 15t13 30v1q0 20 -8.5 37t-22.5 30.5t-33 21t-40 7.5t-40.5 -11.5t-35.5 -32.5t-28 -49.5t-18 -61.5z" />
    <glyph glyph-name="Ecaron" unicode="&#x11a;" 
d="M429 261h-11l-3 11q-3 12 -14.5 22.5t-29 18.5t-38.5 12.5t-43 4.5h-91v-306h138q24 0 49.5 7.5t48 20.5t40.5 29.5t28 35.5l8 16q0 2 9 0q1 1 1 0q-2 -12 -5 -28t-6 -32.5t-6 -32.5t-5 -28q0 -6 -2 -12h-3h-93h-202h-49h-49h-60v13h9q20 0 35.5 24.5t15.5 58.5v468
q0 34 -15.5 58.5t-35.5 24.5h-9v13h60h49h49h200h85h12v-12v-121h-10l-5 16q-6 19 -21.5 36t-36 29.5t-44.5 20t-48 7.5h-132v-282h91q22 0 43 4.5t38.5 11.5t29 16.5t14.5 19.5l3 9h11v-61v-12v-12v-69zM293 802l-112 126l-9 -8l92 -180q2 -5 10.5 -15t17.5 -10
q10 0 18.5 10.5t10.5 15.5l92 179l-9 8z" />
    <glyph glyph-name="ecaron" unicode="&#x11b;" horiz-adv-x="510" 
d="M460 84q-18 -18 -44 -34t-54 -28.5t-56 -19.5t-51 -7q-42 0 -79 19t-65 51.5t-44.5 75t-16.5 90.5q0 56 18 105.5t49 87t72.5 59.5t87.5 22q37 0 70.5 -15.5t58.5 -42.5t39.5 -63t14.5 -76h-85h-227q-3 -21 -3 -42q0 -44 15 -83t40 -68.5t59 -47t71 -17.5q15 0 32.5 3.5
t34 9.5t30.5 13.5t23 16.5zM277 642l-111 126l-10 -8l92 -180q3 -5 11 -15t18 -10t18 10.5t11 15.5l91 179l-9 8zM150 325l184 13q17 2 29 15t13 30v1q0 20 -8.5 37t-22.5 30.5t-33 21t-40 7.5t-40.5 -11.5t-35.5 -32.5t-28 -49.5t-18 -61.5z" />
    <glyph glyph-name="Gcircumflex" unicode="&#x11c;" horiz-adv-x="788" 
d="M695 310v-13h-10q-20 0 -35.5 -24.5t-15.5 -58.5v-159q-21 -12 -51.5 -23t-64 -19t-68 -13t-63.5 -5q-68 0 -129.5 27t-107.5 72.5t-73 106.5t-27 129t27 129t73 106.5t107.5 72.5t129.5 27q27 0 60.5 -4.5t66.5 -12.5t63 -18.5t51 -22.5v-123h-11q-2 6 -5.5 15t-5.5 15
q-8 22 -25.5 42.5t-41 37.5t-50.5 28.5t-54 14.5v1q-25 3 -48 3q-46 0 -88 -25t-73.5 -67.5t-50 -99t-18.5 -119.5t18.5 -119.5t50 -99t73.5 -67.5t88 -25q35 0 78 7.5t81 19.5v168q0 34 -15 58.5t-36 24.5h-9v13h60h44h44h61zM387 818l-112 -126l-9 8l92 180q3 5 11 15
t18 10q9 0 17.5 -10.5t10.5 -15.5l92 -179l-9 -8z" />
    <glyph glyph-name="Gbreve" unicode="&#x11e;" horiz-adv-x="788" 
d="M261 871l15 5q5 -14 16 -26.5t26 -21.5t33 -14.5t36 -5.5t35.5 5.5t32.5 14.5t26.5 21.5t15.5 26.5l15 -5q-8 -25 -22 -47.5t-31 -39t-36 -26.5t-36 -10q-18 0 -36.5 10t-36 26.5t-31.5 39t-22 47.5zM695 310v-13h-10q-20 0 -35.5 -24.5t-15.5 -58.5v-159
q-21 -12 -51.5 -23t-64 -19t-68 -13t-63.5 -5q-68 0 -129.5 27t-107.5 72.5t-73 106.5t-27 129t27 129t73 106.5t107.5 72.5t129.5 27q27 0 60.5 -4.5t66.5 -12.5t63 -18.5t51 -22.5v-123h-11q-2 6 -5.5 15t-5.5 15q-8 22 -25.5 42.5t-41 37.5t-50.5 28.5t-54 14.5v1
q-25 3 -48 3q-46 0 -88 -25t-73.5 -67.5t-50 -99t-18.5 -119.5t18.5 -119.5t50 -99t73.5 -67.5t88 -25q35 0 78 7.5t81 19.5v168q0 34 -15 58.5t-36 24.5h-9v13h60h44h44h61z" />
    <glyph glyph-name="gbreve" unicode="&#x11f;" horiz-adv-x="474" 
d="M109 711l16 5q5 -14 16 -26.5t26 -21.5t32.5 -14.5t35.5 -5.5t36 5.5t33 14.5t26.5 21.5t15.5 26.5l15 -5q-8 -25 -22 -47.5t-31.5 -39t-36 -26.5t-36.5 -10q-17 0 -36 10t-36 26.5t-31.5 39t-22.5 47.5zM474 500v-50l-101 -6q18 -20 28 -45t10 -52q0 -32 -14 -60.5
t-38 -50t-56 -34t-68 -12.5h-55q-30 0 -52.5 -17t-22.5 -40t25 -38.5t60 -13.5l85 4q36 0 68.5 -10t57 -26.5t39 -38.5t14.5 -46q0 -42 -22.5 -79t-61 -65t-89 -44.5t-107.5 -16.5q-31 0 -59 9.5t-49 25t-33.5 36.5t-12.5 45q0 17 9.5 35.5t26.5 35t39.5 31t47.5 23.5
q-42 10 -70 36.5t-28 61.5q0 20 9.5 38.5t25.5 32.5t37.5 23.5t46.5 11.5q-45 19 -74.5 57.5t-29.5 85.5q0 32 14 61t38 50.5t56 34t67 12.5q28 0 53 -7.5t47 -21.5zM145 347q0 -28 7 -52.5t19.5 -43.5t29 -30t34.5 -11t34.5 11t29 30t20 43.5t7.5 52.5t-7.5 53t-20 44
t-29 30t-34.5 11t-34.5 -11t-29 -30t-19.5 -44t-7 -53zM168 -3q-18 -6 -34 -18t-28 -27t-19 -32.5t-7 -33.5q0 -21 8.5 -39.5t22.5 -32.5t33 -22t40 -8q42 0 79 11t65 29t44.5 42.5t16.5 51.5q0 16 -11 31t-30 26t-44.5 17.5t-53.5 6.5l-55 -3h-13.5t-13.5 1z" />
    <glyph glyph-name="Gdotaccent" unicode="&#x120;" horiz-adv-x="788" 
d="M387 730q-23 0 -39 16t-16 39t16 39t39 16t39 -16t16 -39t-16 -39t-39 -16zM695 310v-13h-10q-20 0 -35.5 -24.5t-15.5 -58.5v-159q-21 -12 -51.5 -23t-64 -19t-68 -13t-63.5 -5q-68 0 -129.5 27t-107.5 72.5t-73 106.5t-27 129t27 129t73 106.5t107.5 72.5t129.5 27
q27 0 60.5 -4.5t66.5 -12.5t63 -18.5t51 -22.5v-123h-11q-2 6 -5.5 15t-5.5 15q-8 22 -25.5 42.5t-41 37.5t-50.5 28.5t-54 14.5v1q-25 3 -48 3q-46 0 -88 -25t-73.5 -67.5t-50 -99t-18.5 -119.5t18.5 -119.5t50 -99t73.5 -67.5t88 -25q35 0 78 7.5t81 19.5v168
q0 34 -15 58.5t-36 24.5h-9v13h60h44h44h61z" />
    <glyph glyph-name="gdotaccent" unicode="&#x121;" horiz-adv-x="474" 
d="M235 570q-23 0 -39 16t-16 39t16 39t39 16t39 -16t16 -39t-16 -39t-39 -16zM474 500v-50l-101 -6q18 -20 28 -45t10 -52q0 -32 -14 -60.5t-38 -50t-56 -34t-68 -12.5h-55q-30 0 -52.5 -17t-22.5 -40t25 -38.5t60 -13.5l85 4q36 0 68.5 -10t57 -26.5t39 -38.5t14.5 -46
q0 -42 -22.5 -79t-61 -65t-89 -44.5t-107.5 -16.5q-31 0 -59 9.5t-49 25t-33.5 36.5t-12.5 45q0 17 9.5 35.5t26.5 35t39.5 31t47.5 23.5q-42 10 -70 36.5t-28 61.5q0 20 9.5 38.5t25.5 32.5t37.5 23.5t46.5 11.5q-45 19 -74.5 57.5t-29.5 85.5q0 32 14 61t38 50.5t56 34
t67 12.5q28 0 53 -7.5t47 -21.5zM145 347q0 -28 7 -52.5t19.5 -43.5t29 -30t34.5 -11t34.5 11t29 30t20 43.5t7.5 52.5t-7.5 53t-20 44t-29 30t-34.5 11t-34.5 -11t-29 -30t-19.5 -44t-7 -53zM168 -3q-18 -6 -34 -18t-28 -27t-19 -32.5t-7 -33.5q0 -21 8.5 -39.5t22.5 -32.5
t33 -22t40 -8q42 0 79 11t65 29t44.5 42.5t16.5 51.5q0 16 -11 31t-30 26t-44.5 17.5t-53.5 6.5l-55 -3h-13.5t-13.5 1z" />
    <glyph glyph-name="Hcircumflex" unicode="&#x124;" horiz-adv-x="751" 
d="M711 660v-13h-9q-20 0 -35 -23t-16 -55v-5v-468v-5q1 -32 16 -55t35 -23h9v-13h-60h-49h-49h-60v13h9q21 0 36 24.5t15 58.5v230h-354v-230v-5q1 -32 16 -55t35 -23h9v-13h-60h-49h-49h-60v13h9q20 0 35.5 24.5t15.5 58.5v468q0 34 -15.5 58.5t-35.5 24.5h-9v13h60h49h49
h60v-13h-9q-20 0 -35 -23t-16 -55v-5v-214h354v214q0 34 -15 58.5t-36 24.5h-9v13h60h49h49h60zM376 818l-111 -126l-10 8l92 180q3 5 11 15t18 10t18 -10.5t11 -15.5l92 -179l-10 -8z" />
    <glyph glyph-name="Itilde" unicode="&#x128;" horiz-adv-x="299" 
d="M10 755h-15q0 24 6 46t16.5 38.5t24.5 26t29 9.5q20 0 42 -10t45 -21.5t45 -21.5t42 -10q19 0 32.5 18t13.5 42h15q0 -24 -6.5 -45.5t-17.5 -38t-25.5 -26t-31.5 -9.5q-20 0 -42 9.5t-44.5 21.5t-44.5 21.5t-42 9.5q-17 0 -29.5 -18t-12.5 -42zM260 660v-13h-9
q-21 0 -36.5 -24.5t-15.5 -58.5v-468q0 -34 15.5 -58.5t36.5 -24.5h9v-13h-61h-48h-49h-61v13h10q20 0 35.5 24.5t15.5 58.5v468q0 34 -15.5 58.5t-35.5 24.5h-10v13h61h49h48h61z" />
    <glyph glyph-name="itilde" unicode="&#x129;" horiz-adv-x="301" 
d="M10 595h-15q0 24 6 46t16.5 38.5t24.5 26t29 9.5q20 0 42 -10t45 -21.5t45 -21.5t42 -10q19 0 32.5 18t13.5 42h15q0 -24 -6.5 -45.5t-17.5 -38t-25.5 -26t-31.5 -9.5q-20 0 -42 9.5t-44.5 21.5t-44.5 21.5t-42 9.5q-17 0 -29.5 -18t-12.5 -42zM196 0h-90q0 8 -14.5 10.5
t-34.5 2.5h-12v-13h61v378q0 32 -4.5 46.5t-10.5 16.5l-36 13v9l136 42h5v-101v-404q0 8 14 10.5t34 2.5h12v-13h-60z" />
    <glyph glyph-name="Imacron" unicode="&#x12a;" horiz-adv-x="299" 
d="M1 765v50h300v-50h-300zM260 660v-13h-9q-21 0 -36.5 -24.5t-15.5 -58.5v-468q0 -34 15.5 -58.5t36.5 -24.5h9v-13h-61h-48h-49h-61v13h10q20 0 35.5 24.5t15.5 58.5v468q0 34 -15.5 58.5t-35.5 24.5h-10v13h61h49h48h61z" />
    <glyph glyph-name="imacron" unicode="&#x12b;" horiz-adv-x="301" 
d="M1 605v50h300v-50h-300zM196 0h-90q0 8 -14.5 10.5t-34.5 2.5h-12v-13h61v378q0 32 -4.5 46.5t-10.5 16.5l-36 13v9l136 42h5v-101v-404q0 8 14 10.5t34 2.5h12v-13h-60z" />
    <glyph glyph-name="Ibreve" unicode="&#x12c;" horiz-adv-x="299" 
d="M25 871l15 5q5 -14 16 -26.5t26 -21.5t33 -14.5t36 -5.5t35.5 5.5t32.5 14.5t26.5 21.5t15.5 26.5l15 -5q-8 -25 -22 -47.5t-31 -39t-36 -26.5t-36 -10q-18 0 -36.5 10t-36 26.5t-31.5 39t-22 47.5zM260 660v-13h-9q-21 0 -36.5 -24.5t-15.5 -58.5v-468q0 -34 15.5 -58.5
t36.5 -24.5h9v-13h-61h-48h-49h-61v13h10q20 0 35.5 24.5t15.5 58.5v468q0 34 -15.5 58.5t-35.5 24.5h-10v13h61h49h48h61z" />
    <glyph glyph-name="ibreve" unicode="&#x12d;" horiz-adv-x="301" 
d="M25 711l15 5q5 -14 16 -26.5t26 -21.5t33 -14.5t36 -5.5t35.5 5.5t32.5 14.5t26.5 21.5t15.5 26.5l15 -5q-8 -25 -22 -47.5t-31 -39t-36 -26.5t-36 -10q-18 0 -36.5 10t-36 26.5t-31.5 39t-22 47.5zM196 0h-90q0 8 -14.5 10.5t-34.5 2.5h-12v-13h61v378q0 32 -4.5 46.5
t-10.5 16.5l-36 13v9l136 42h5v-101v-404q0 8 14 10.5t34 2.5h12v-13h-60z" />
    <glyph glyph-name="Idotaccent" unicode="&#x130;" horiz-adv-x="299" 
d="M151 730q-23 0 -39 16t-16 39t16 39t39 16t39 -16t16 -39t-16 -39t-39 -16zM260 660v-13h-9q-21 0 -36.5 -24.5t-15.5 -58.5v-468q0 -34 15.5 -58.5t36.5 -24.5h9v-13h-61h-48h-49h-61v13h10q20 0 35.5 24.5t15.5 58.5v468q0 34 -15.5 58.5t-35.5 24.5h-10v13h61h49h48
h61z" />
    <glyph glyph-name="dotlessi" unicode="&#x131;" horiz-adv-x="301" 
d="M196 0h-90q0 8 -14.5 10.5t-34.5 2.5h-12v-13h61v378q0 32 -4.5 46.5t-10.5 16.5l-36 13v9l136 42h5v-101v-404q0 8 14 10.5t34 2.5h12v-13h-60z" />
    <glyph glyph-name="Jcircumflex" unicode="&#x134;" horiz-adv-x="383" 
d="M344 660v-13h-10q-20 0 -35.5 -24.5t-15.5 -58.5v-282q0 -143 -44.5 -217.5t-129.5 -74.5q-19 0 -37.5 5t-33.5 13t-25 19t-13 23q-5 17 7.5 28.5t32.5 11.5q14 0 27 -11.5t18 -28.5q4 -17 18.5 -28.5t30.5 -11.5q26 0 39 48.5t13 141.5v364q0 34 -15.5 58.5t-36.5 24.5
h-9v13h61h48h49h61zM235 818l-112 -126l-9 8l92 180q2 5 10.5 15t17.5 10q10 0 18.5 -10.5t10.5 -15.5l92 -179l-9 -8z" />
    <glyph glyph-name="Lacute" unicode="&#x139;" 
d="M127 690l-10 8l78 154q11 21 20 36.5t12 15.5q5 0 14 -4.5t17 -10.5t14 -12.5t6 -10.5q0 -3 -11 -18t-26 -32zM507 146q4 -1 8 -3q7 -3 7 -4q-2 -13 -5 -29.5t-6 -34t-6 -34t-6 -29.5q0 -6 -2 -12h-3h-93h-202h-49h-49h-60v13h9q20 0 35.5 24.5t15.5 58.5v468
q0 34 -15.5 58.5t-35.5 24.5h-9v13h60h49h49h60v-13h-9q-20 0 -35 -23t-16 -55v-5v-540h148q22 0 45 8.5t44 22.5t37.5 32.5t25.5 39.5z" />
    <glyph glyph-name="Lcaron" unicode="&#x13d;" 
d="M507 146q4 -1 8 -3q7 -3 7 -4q-2 -13 -5 -29.5t-6 -34t-6 -34t-6 -29.5q0 -6 -2 -12h-3h-93h-202h-49h-49h-60v13h9q20 0 35.5 24.5t15.5 58.5v468q0 34 -15.5 58.5t-35.5 24.5h-9v13h60h49h49h60v-13h-9q-20 0 -35 -23t-16 -55v-5v-540h148q22 0 45 8.5t44 22.5
t37.5 32.5t25.5 39.5zM391 564l-73 -148l-12 4l29 164q3 15 7.5 34t10 35.5t12 27.5t12.5 11t15.5 -1.5t18.5 -4t15.5 -6t6.5 -8.5q0 -3 -3.5 -14t-9 -26.5t-13 -33t-16.5 -34.5z" />
    <glyph glyph-name="lcaron" unicode="&#x13e;" horiz-adv-x="301" 
d="M45 672v8l133 40h18v-23v-98v-503v-5q1 -32 16 -55t35 -23h9v-13h-60h-45h-45h-61v13h9q21 0 36.5 24.5t15.5 58.5v478q0 52 -13 71.5t-48 26.5zM328 594l-74 -148l-11 4l29 164q2 15 6.5 34t10 35.5t12 27.5t12.5 11t15.5 -1.5t19 -4t16 -6t6.5 -8.5q0 -3 -3.5 -14
t-9 -26.5t-13 -33t-16.5 -34.5z" />
    <glyph glyph-name="Lslash" unicode="&#x141;" 
d="M51 265v30l50 17v252q0 34 -15.5 58.5t-35.5 24.5h-9v13h60h49h49h60v-13h-9q-20 0 -35 -23t-16 -55v-5v-219l147 50v-30l-147 -50v-291h148q22 0 45 8.5t44 22.5t37.5 32.5t25.5 39.5l8 19q4 -1 8 -3q7 -3 7 -4q-2 -13 -5 -29.5t-6 -34t-6 -34t-6 -29.5q0 -6 -2 -12h-3
h-93h-202h-49h-49h-60v13h9q20 0 35.5 24.5t15.5 58.5v186z" />
    <glyph glyph-name="lslash" unicode="&#x142;" horiz-adv-x="301" 
d="M6 295v30l100 34v215q0 52 -13 71.5t-48 26.5v8l133 40h18v-23v-98v-208l100 34v-30l-100 -34v-265v-5q1 -32 16 -55t35 -23h9v-13h-60h-45h-45h-61v13h9q21 0 36.5 24.5t15.5 58.5v233z" />
    <glyph glyph-name="Nacute" unicode="&#x143;" horiz-adv-x="683" 
d="M312 690l-10 8l78 154q11 21 20.5 36.5t11.5 15.5q5 0 14 -4.5t17 -10.5t14 -12.5t6 -10.5q1 -3 -10.5 -18t-26.5 -32zM645 660v-13h-9q-21 0 -36 -24.5t-15 -58.5v-487v-97h-29l-45 62l-382 532v-478q0 -34 15.5 -58.5t36.5 -24.5h9v-13h-61h-14h-15h-60v13h9
q20 0 35.5 24.5t15.5 58.5v468q0 34 -15.5 58.5t-35.5 24.5h-9v13h60h15h14h57l-57 -41v-1l57 42l370 -518v422q0 34 -15.5 58.5t-36.5 24.5h-9v13h61h14h15h60z" />
    <glyph glyph-name="nacute" unicode="&#x144;" horiz-adv-x="601" 
d="M227 530l-10 8l78 154q11 21 20 36.5t12 15.5q5 0 14 -4.5t17 -10.5t14 -12.5t6 -10.5q0 -3 -11 -18t-27 -32zM561 13v-13h-60h-45h-45h-61v13h9q21 0 36.5 24.5t15.5 58.5v232q0 24 -6.5 45t-18.5 37t-30 25.5t-42 9.5q-33 0 -67 -4t-52 -10v-51v-1v-283
q0 -34 15.5 -58.5t36.5 -24.5h9q-2 0 0 -7q-2 -6 0 -6h-61h-45h-45h-61q2 0 0 6q2 7 0 7h10q20 0 35.5 24.5t15.5 58.5v258q0 53 -13 72t-48 26q2 0 0 7q1 1 0 1l133 40h18v-58q25 13 52.5 24.5t53 20t47.5 13.5t36 5q29 0 50.5 -13.5t36.5 -36.5t22.5 -53.5t7.5 -64.5v-241
v-5q1 -32 16 -55t35 -23h9z" />
    <glyph glyph-name="Ncaron" unicode="&#x147;" horiz-adv-x="683" 
d="M645 660v-13h-9q-21 0 -36 -24.5t-15 -58.5v-487v-97h-29l-45 62l-382 532v-478q0 -34 15.5 -58.5t36.5 -24.5h9v-13h-61h-14h-15h-60v13h9q20 0 35.5 24.5t15.5 58.5v468q0 34 -15.5 58.5t-35.5 24.5h-9v13h60h15h14h57l-57 -41v-1l57 42l370 -518v422q0 34 -15.5 58.5
t-36.5 24.5h-9v13h61h14h15h60zM343 802l-112 126l-9 -8l92 -180q3 -5 11 -15t18 -10q9 0 17.5 10.5t10.5 15.5l92 179l-9 8z" />
    <glyph glyph-name="ncaron" unicode="&#x148;" horiz-adv-x="601" 
d="M561 13v-13h-60h-45h-45h-61v13h9q21 0 36.5 24.5t15.5 58.5v232q0 24 -6.5 45t-18.5 37t-30 25.5t-42 9.5q-33 0 -67 -4t-52 -10v-51v-1v-283q0 -34 15.5 -58.5t36.5 -24.5h9q-2 0 0 -7q-2 -6 0 -6h-61h-45h-45h-61q2 0 0 6q2 7 0 7h10q20 0 35.5 24.5t15.5 58.5v258
q0 53 -13 72t-48 26q2 0 0 7q1 1 0 1l133 40h18v-58q25 13 52.5 24.5t53 20t47.5 13.5t36 5q29 0 50.5 -13.5t36.5 -36.5t22.5 -53.5t7.5 -64.5v-241v-5q1 -32 16 -55t35 -23h9zM303 642l-111 126l-10 -8l92 -180q3 -5 11 -15t18 -10t18 10.5t11 15.5l91 179l-9 8z" />
    <glyph glyph-name="Omacron" unicode="&#x14c;" horiz-adv-x="759" 
d="M230 765v50h300v-50h-300zM380 19q50 0 90.5 27.5t70 71.5t45.5 99.5t16 112.5t-16 112.5t-45.5 99.5t-70 71.5t-90.5 27.5t-91 -27.5t-70.5 -71.5t-45.5 -99.5t-16 -112.5t16 -112.5t45.5 -99.5t70.5 -71.5t91 -27.5zM50 330q0 61 24 121t67.5 107.5t104.5 77t134 29.5
t133.5 -29.5t104 -77t67.5 -107.5t24 -121t-24 -121t-67.5 -107.5t-104 -77t-133.5 -29.5t-134 29.5t-104.5 77t-67.5 107.5t-24 121z" />
    <glyph glyph-name="omacron" unicode="&#x14d;" horiz-adv-x="600" 
d="M150 605v50h300v-50h-300zM300 15q30 0 57.5 19t48 51t32.5 74.5t12 90.5t-12 90.5t-32.5 74.5t-48 51t-57.5 19t-57.5 -19t-48 -51t-32.5 -74.5t-12 -90.5t12 -90.5t32.5 -74.5t48 -51t57.5 -19zM50 250q0 52 20 98t54.5 81t79.5 55.5t96 20.5t96 -20.5t79.5 -55.5
t54.5 -81t20 -98t-20 -98t-54.5 -81t-79.5 -55.5t-96 -20.5t-96 20.5t-79.5 55.5t-54.5 81t-20 98z" />
    <glyph glyph-name="Obreve" unicode="&#x14e;" horiz-adv-x="759" 
d="M254 871l15 5q5 -14 16 -26.5t26 -21.5t33 -14.5t36 -5.5t35.5 5.5t32.5 14.5t26.5 21.5t15.5 26.5l15 -5q-8 -25 -22 -47.5t-31 -39t-36 -26.5t-36 -10q-18 0 -36.5 10t-36 26.5t-31.5 39t-22 47.5zM380 19q50 0 90.5 27.5t70 71.5t45.5 99.5t16 112.5t-16 112.5
t-45.5 99.5t-70 71.5t-90.5 27.5t-91 -27.5t-70.5 -71.5t-45.5 -99.5t-16 -112.5t16 -112.5t45.5 -99.5t70.5 -71.5t91 -27.5zM50 330q0 61 24 121t67.5 107.5t104.5 77t134 29.5t133.5 -29.5t104 -77t67.5 -107.5t24 -121t-24 -121t-67.5 -107.5t-104 -77t-133.5 -29.5
t-134 29.5t-104.5 77t-67.5 107.5t-24 121z" />
    <glyph glyph-name="obreve" unicode="&#x14f;" horiz-adv-x="600" 
d="M174 711l15 5q5 -14 16 -26.5t26 -21.5t33 -14.5t36 -5.5t36 5.5t33 14.5t26.5 21.5t15.5 26.5l15 -5q-8 -25 -22.5 -47.5t-31.5 -39t-36 -26.5t-36 -10t-36 10t-36 26.5t-31.5 39t-22.5 47.5zM300 15q30 0 57.5 19t48 51t32.5 74.5t12 90.5t-12 90.5t-32.5 74.5t-48 51
t-57.5 19t-57.5 -19t-48 -51t-32.5 -74.5t-12 -90.5t12 -90.5t32.5 -74.5t48 -51t57.5 -19zM50 250q0 52 20 98t54.5 81t79.5 55.5t96 20.5t96 -20.5t79.5 -55.5t54.5 -81t20 -98t-20 -98t-54.5 -81t-79.5 -55.5t-96 -20.5t-96 20.5t-79.5 55.5t-54.5 81t-20 98z" />
    <glyph glyph-name="Racute" unicode="&#x154;" horiz-adv-x="654" 
d="M246 690l-10 8l78 154q11 21 20.5 36.5t11.5 15.5q5 0 14 -4.5t17 -10.5t14.5 -12.5t6.5 -10.5q-1 -3 -12 -18t-26 -32zM41 647v13h60h49h49h121q45 0 85.5 -14t71 -38t48.5 -55.5t18 -67.5q0 -28 -12 -53.5t-33 -47.5t-50 -39t-63 -27l178 -231q17 -22 28.5 -35
t20.5 -20t18 -9.5t20 -2.5h5v-20h-35q-37 0 -62 3.5t-45.5 15t-40.5 32.5t-46 55l-151 199h-76v-209v-5q1 -32 16 -55t35 -23h9v-13h-60h-49h-49h-60v13h9q20 0 35.5 24.5t15.5 58.5v468q0 34 -15.5 58.5t-35.5 24.5h-9zM296 330q29 0 55.5 12.5t46.5 33.5t31.5 49.5
t11.5 59.5q0 30 -10 57.5t-26.5 48t-38.5 32.5t-46 12h-121v-305h57h40z" />
    <glyph glyph-name="Rcaron" unicode="&#x158;" horiz-adv-x="578" 
d="M41 647v13h60h49h49h121q45 0 85.5 -14t71 -38t48.5 -55.5t18 -67.5q0 -27 -11 -52t-31 -46.5t-47.5 -38t-59.5 -27.5h3q22 -60 48 -118.5t52.5 -106.5t50 -81.5t40.5 -44.5l-9 -15q-42 27 -85.5 68.5t-82 89.5t-69 98t-46.5 94h-97v-209v-5q1 -32 16 -55t35 -23h9v-13
h-60h-49h-49h-60v13h9q20 0 35.5 24.5t15.5 58.5v468q0 34 -15.5 58.5t-35.5 24.5h-9zM322 802l-111 126l-9 -8l92 -180q2 -5 10.5 -15t17.5 -10q10 0 18 10.5t11 15.5l92 179l-9 8zM199 330h97q29 0 55.5 12.5t46.5 33.5t31.5 49.5t11.5 59.5q0 30 -10 57.5t-26.5 48
t-38.5 32.5t-46 12h-121v-305z" />
    <glyph glyph-name="rcaron" unicode="&#x159;" horiz-adv-x="414" 
d="M216 642l-111 126l-9 -8l92 -180q2 -5 10 -15t18 -10t18 10.5t11 15.5l92 179l-10 8zM192 414l3 -34v0v-1v-283q0 -34 15.5 -58.5t36.5 -24.5h9q-2 0 0 -7q-2 -6 0 -6h-61h-45h-45h-61q2 0 0 6q2 7 0 7h10q20 0 35.5 24.5t15.5 58.5v258q0 53 -13 72t-48 26q2 0 0 7
q1 1 0 1l121 40h18l7 -74q15 16 33 30.5t36.5 25t36 17t31.5 6.5q38 0 57.5 -17.5t19.5 -41.5q0 -17 -13 -30t-30 -13q-12 0 -25.5 5.5t-27.5 12t-27.5 12t-25.5 5.5q-16 0 -34 -7t-29 -17z" />
    <glyph glyph-name="Sacute" unicode="&#x15a;" horiz-adv-x="509" 
d="M202 690l-10 8l78 154q11 21 20.5 36.5t11.5 15.5q5 0 14 -4.5t17.5 -10.5t14.5 -12.5t6 -10.5q0 -3 -11.5 -18t-26.5 -32zM40 179h11q2 -6 5.5 -15t5.5 -15q8 -22 25 -43.5t38.5 -39t46.5 -29.5t49 -16q9 -1 17 -1.5t16 -0.5q29 0 54.5 10t44.5 26.5t30.5 38.5t11.5 46
q0 19 -14.5 41t-39.5 42.5t-58 38.5t-70 30q-34 11 -64.5 30.5t-54 43.5t-37 51t-13.5 52q0 40 17 75.5t45.5 62.5t66 42.5t79.5 15.5q18 0 41 -3.5t46.5 -10t45.5 -15t39 -17.5v-131h-11q-3 8 -7.5 20.5t-7.5 20.5q-6 17 -17.5 33.5t-25.5 30.5t-30.5 25t-32.5 16
q-13 3 -24.5 5t-19.5 2q-28 0 -52.5 -10.5t-43.5 -29t-30 -42.5t-11 -51q0 -17 14.5 -37t38.5 -39t56.5 -36t68.5 -28t67.5 -32t55.5 -46.5t38 -54t14 -55.5q0 -37 -17 -71t-45.5 -59t-66.5 -40t-81 -15q-28 0 -59 4.5t-60.5 12t-54.5 18t-40 21.5l10 14v0l-10 -14v128z" />
    <glyph glyph-name="sacute" unicode="&#x15b;" horiz-adv-x="420" 
d="M147 530l-10 8l78 154q11 21 20.5 36.5t11.5 15.5q5 0 14 -4.5t17.5 -10.5t14.5 -12.5t6 -10.5q0 -3 -11 -18t-27 -32zM45 133h9q2 -5 5 -11t5 -11q8 -18 22.5 -35t32.5 -30t38 -21t39 -9v-1h7q19 0 36 8t29.5 21.5t20 31t7.5 37.5q0 12 -8 27t-22 29t-32.5 27t-38.5 22
q-28 13 -53.5 31.5t-45 39t-30.5 41t-11 38.5q0 28 13.5 53t36.5 43.5t53.5 29.5t64.5 11q11 0 26 -3t32.5 -8.5t34.5 -12.5t32 -15v-89h-10q-2 4 -3 9t-3 8q-8 23 -31 46.5t-51 36.5q-21 8 -27 8q-20 0 -38 -7t-31.5 -18.5t-21.5 -27t-8 -33.5q0 -12 11 -27t29 -31
t42.5 -31.5t51.5 -27.5q23 -10 43.5 -26t36 -34.5t24.5 -38t9 -36.5q0 -31 -14 -58.5t-38 -48.5t-55.5 -33t-66.5 -12q-19 0 -41 3.5t-42.5 9.5t-38.5 13.5t-30 16.5v95z" />
    <glyph glyph-name="Scircumflex" unicode="&#x15c;" horiz-adv-x="509" 
d="M40 179h11q2 -6 5.5 -15t5.5 -15q8 -22 25 -43.5t38.5 -39t46.5 -29.5t49 -16q9 -1 17 -1.5t16 -0.5q29 0 54.5 10t44.5 26.5t30.5 38.5t11.5 46q0 19 -14.5 41t-39.5 42.5t-58 38.5t-70 30q-34 11 -64.5 30.5t-54 43.5t-37 51t-13.5 52q0 40 17 75.5t45.5 62.5t66 42.5
t79.5 15.5q18 0 41 -3.5t46.5 -10t45.5 -15t39 -17.5v-131h-11q-3 8 -7.5 20.5t-7.5 20.5q-6 17 -17.5 33.5t-25.5 30.5t-30.5 25t-32.5 16q-13 3 -24.5 5t-19.5 2q-28 0 -52.5 -10.5t-43.5 -29t-30 -42.5t-11 -51q0 -17 14.5 -37t38.5 -39t56.5 -36t68.5 -28t67.5 -32
t55.5 -46.5t38 -54t14 -55.5q0 -37 -17 -71t-45.5 -59t-66.5 -40t-81 -15q-28 0 -59 4.5t-60.5 12t-54.5 18t-40 21.5l10 14v0l-10 -14v128zM248 818l-111 -126l-10 8l92 180q3 5 11 15t18 10t18 -10.5t11 -15.5l91 -179l-9 -8z" />
    <glyph glyph-name="Scedilla" unicode="&#x15e;" horiz-adv-x="509" 
d="M40 179h11q2 -6 5.5 -15t5.5 -15q8 -22 25 -43.5t38.5 -39t46.5 -29.5t49 -16q9 -1 17 -1.5t16 -0.5q29 0 54.5 10t44.5 26.5t30.5 38.5t11.5 46q0 19 -14.5 41t-39.5 42.5t-58 38.5t-70 30q-34 11 -64.5 30.5t-54 43.5t-37 51t-13.5 52q0 40 17 75.5t45.5 62.5t66 42.5
t79.5 15.5q18 0 41 -3.5t46.5 -10t45.5 -15t39 -17.5v-131h-11q-3 8 -7.5 20.5t-7.5 20.5q-6 17 -17.5 33.5t-25.5 30.5t-30.5 25t-32.5 16q-13 3 -24.5 5t-19.5 2q-28 0 -52.5 -10.5t-43.5 -29t-30 -42.5t-11 -51q0 -17 14.5 -37t38.5 -39t56.5 -36t68.5 -28t67.5 -32
t55.5 -46.5t38 -54t14 -55.5q0 -37 -17 -71t-45.5 -59t-66.5 -40t-81 -15q-28 0 -59 4.5t-60.5 12t-54.5 18t-40 21.5l10 14v0l-10 -14v128z" />
    <glyph glyph-name="scedilla" unicode="&#x15f;" horiz-adv-x="420" 
d="M45 133h9q2 -5 5 -11t5 -11q8 -18 22.5 -35t32.5 -30t38 -21t39 -9v-1h7q19 0 36 8t29.5 21.5t20 31t7.5 37.5q0 12 -8 27t-22 29t-32.5 27t-38.5 22q-28 13 -53.5 31.5t-45 39t-30.5 41t-11 38.5q0 28 13.5 53t36.5 43.5t53.5 29.5t64.5 11q11 0 26 -3t32.5 -8.5
t34.5 -12.5t32 -15v-89h-10q-2 4 -3 9t-3 8q-8 23 -31 46.5t-51 36.5q-21 8 -27 8q-20 0 -38 -7t-31.5 -18.5t-21.5 -27t-8 -33.5q0 -12 11 -27t29 -31t42.5 -31.5t51.5 -27.5q23 -10 43.5 -26t36 -34.5t24.5 -38t9 -36.5q0 -31 -14 -58.5t-38 -48.5t-55.5 -33t-66.5 -12
q-19 0 -41 3.5t-42.5 9.5t-38.5 13.5t-30 16.5v95z" />
    <glyph glyph-name="Scaron" unicode="&#x160;" horiz-adv-x="509" 
d="M40 179h11q2 -6 5.5 -15t5.5 -15q8 -22 25 -43.5t38.5 -39t46.5 -29.5t49 -16q9 -1 17 -1.5t16 -0.5q29 0 54.5 10t44.5 26.5t30.5 38.5t11.5 46q0 19 -14.5 41t-39.5 42.5t-58 38.5t-70 30q-34 11 -64.5 30.5t-54 43.5t-37 51t-13.5 52q0 40 17 75.5t45.5 62.5t66 42.5
t79.5 15.5q18 0 41 -3.5t46.5 -10t45.5 -15t39 -17.5v-131h-11q-3 8 -7.5 20.5t-7.5 20.5q-6 17 -17.5 33.5t-25.5 30.5t-30.5 25t-32.5 16q-13 3 -24.5 5t-19.5 2q-28 0 -52.5 -10.5t-43.5 -29t-30 -42.5t-11 -51q0 -17 14.5 -37t38.5 -39t56.5 -36t68.5 -28t67.5 -32
t55.5 -46.5t38 -54t14 -55.5q0 -37 -17 -71t-45.5 -59t-66.5 -40t-81 -15q-28 0 -59 4.5t-60.5 12t-54.5 18t-40 21.5l10 14v0l-10 -14v128zM248 802l-111 126l-10 -8l92 -180q3 -5 11 -15t18 -10t18 10.5t11 15.5l91 179l-9 8z" />
    <glyph glyph-name="scaron" unicode="&#x161;" horiz-adv-x="420" 
d="M45 133h9q2 -5 5 -11t5 -11q8 -18 22.5 -35t32.5 -30t38 -21t39 -9v-1h7q19 0 36 8t29.5 21.5t20 31t7.5 37.5q0 12 -8 27t-22 29t-32.5 27t-38.5 22q-28 13 -53.5 31.5t-45 39t-30.5 41t-11 38.5q0 28 13.5 53t36.5 43.5t53.5 29.5t64.5 11q11 0 26 -3t32.5 -8.5
t34.5 -12.5t32 -15v-89h-10q-2 4 -3 9t-3 8q-8 23 -31 46.5t-51 36.5q-21 8 -27 8q-20 0 -38 -7t-31.5 -18.5t-21.5 -27t-8 -33.5q0 -12 11 -27t29 -31t42.5 -31.5t51.5 -27.5q23 -10 43.5 -26t36 -34.5t24.5 -38t9 -36.5q0 -31 -14 -58.5t-38 -48.5t-55.5 -33t-66.5 -12
q-19 0 -41 3.5t-42.5 9.5t-38.5 13.5t-30 16.5v95zM224 642l-112 126l-9 -8l92 -180q3 -5 11 -15t17 -10q10 0 18.5 10.5t10.5 15.5l92 179l-9 8z" />
    <glyph glyph-name="Tcaron" unicode="&#x164;" horiz-adv-x="620" 
d="M617 514h-10l-10 23q-8 20 -23.5 38t-34.5 31.5t-40.5 21.5t-41.5 8h-98v-540v-5q1 -32 16 -55t35 -23h9v-13h-60h-49h-49h-60v13h9q20 0 35.5 24.5t15.5 58.5v540h-98q-20 0 -41.5 -8t-40.5 -21.5t-34.5 -31.5t-23.5 -38l-10 -23h-10q1 14 2.5 31.5t3.5 35.5t3.5 36
t2.5 31q0 2 0.5 6t0.5 6h24h72h396h72h24q0 -2 0.5 -6t0.5 -6q1 -13 2.5 -31t3.5 -36t3.5 -35.5t2.5 -31.5zM310 802l-111 126l-10 -8l92 -180q3 -5 11 -15t18 -10t18 10.5t11 15.5l92 179l-10 8z" />
    <glyph glyph-name="tcaron" unicode="&#x165;" horiz-adv-x="351" 
d="M320 500v-35h-135l-1 -368q0 -32 12 -47t39 -15q25 0 49 11t41 25l7 -7q-33 -28 -71.5 -48.5t-70.5 -20.5q-51 0 -73 27.5t-22 90.5v352h-70v10h1q16 3 35.5 17.5t38.5 36t36.5 49t30.5 56.5l-62 -147v0l65 153h15v-140h135zM452 594l-73 -148l-12 4l29 164q3 15 7.5 34
t10 35.5t12 27.5t12.5 11t15.5 -1.5t18.5 -4t15.5 -6t6.5 -8.5q0 -3 -3.5 -14t-9 -26.5t-13 -33t-16.5 -34.5z" />
    <glyph glyph-name="Utilde" unicode="&#x168;" horiz-adv-x="649" 
d="M186 755h-15q0 24 6 46t16.5 38.5t24.5 26t29 9.5q20 0 42 -10t44.5 -21.5t44.5 -21.5t42 -10q19 0 32.5 18t13.5 42h15q0 -24 -6.5 -45.5t-17.5 -38t-25.5 -26t-30.5 -9.5q-20 0 -42 9.5t-45 21.5t-45 21.5t-42 9.5q-17 0 -29 -18t-12 -42zM630 660v-13h-11
q-23 0 -40.5 -27.5t-17.5 -65.5v-369q0 -39 -15 -73.5t-44 -60.5t-72 -41t-99 -15q-58 0 -103 17.5t-75.5 47.5t-46 70t-15.5 85v349q0 34 -15.5 58.5t-35.5 24.5h-9v13h60h49h49h60v-13h-9q-20 0 -35 -23t-16 -55v-5v-368q0 -34 10 -64t30 -53t49 -36.5t67 -13.5
q45 0 79.5 13.5t58 36t35.5 52.5t12 64l1 366q-2 35 -20.5 60.5t-41.5 25.5h-11v13h73h15h15h69z" />
    <glyph glyph-name="utilde" unicode="&#x169;" horiz-adv-x="566" 
d="M133 595h-15q0 24 6 46t16.5 38.5t24 26t28.5 9.5q20 0 42 -10t45 -21.5t45 -21.5t42 -10q19 0 32.5 18t13.5 42h15q0 -24 -6.5 -45.5t-17.5 -38t-25.5 -26t-31.5 -9.5q-20 0 -42 9.5t-44.5 21.5t-44.5 21.5t-42 9.5q-17 0 -29 -18t-12 -42zM531 48v-8l-132 -40h-18v23
v40q-29 -29 -73 -48.5t-94 -19.5q-31 0 -56.5 13t-44 34.5t-28.5 50.5t-10 62v249q0 34 -15.5 58.5t-35.5 24.5h-10q2 0 0 7q2 6 0 6h61h45h45v-336q0 -22 9 -42t24.5 -35t37.5 -24t49 -9q35 0 59.5 7t36.5 18v42v283q0 34 -15.5 58.5t-36.5 24.5h-9v13h61h45h45v-354v-13
q1 -45 14.5 -61.5t45.5 -23.5z" />
    <glyph glyph-name="Umacron" unicode="&#x16a;" horiz-adv-x="649" 
d="M176 765v50h300v-50h-300zM630 660v-13h-11q-23 0 -40.5 -27.5t-17.5 -65.5v-369q0 -39 -15 -73.5t-44 -60.5t-72 -41t-99 -15q-58 0 -103 17.5t-75.5 47.5t-46 70t-15.5 85v349q0 34 -15.5 58.5t-35.5 24.5h-9v13h60h49h49h60v-13h-9q-20 0 -35 -23t-16 -55v-5v-368
q0 -34 10 -64t30 -53t49 -36.5t67 -13.5q45 0 79.5 13.5t58 36t35.5 52.5t12 64l1 366q-2 35 -20.5 60.5t-41.5 25.5h-11v13h73h15h15h69z" />
    <glyph glyph-name="umacron" unicode="&#x16b;" horiz-adv-x="566" 
d="M123 605v50h300v-50h-300zM531 48v-8l-132 -40h-18v23v40q-29 -29 -73 -48.5t-94 -19.5q-31 0 -56.5 13t-44 34.5t-28.5 50.5t-10 62v249q0 34 -15.5 58.5t-35.5 24.5h-10q2 0 0 7q2 6 0 6h61h45h45v-336q0 -22 9 -42t24.5 -35t37.5 -24t49 -9q35 0 59.5 7t36.5 18v42
v283q0 34 -15.5 58.5t-36.5 24.5h-9v13h61h45h45v-354v-13q1 -45 14.5 -61.5t45.5 -23.5z" />
    <glyph glyph-name="Ubreve" unicode="&#x16c;" horiz-adv-x="649" 
d="M200 871l16 5q5 -14 16 -26.5t26 -21.5t32.5 -14.5t35.5 -5.5t36 5.5t33 14.5t26.5 21.5t15.5 26.5l15 -5q-8 -25 -22.5 -47.5t-31.5 -39t-36 -26.5t-36 -10t-36 10t-36 26.5t-31.5 39t-22.5 47.5zM630 660v-13h-11q-23 0 -40.5 -27.5t-17.5 -65.5v-369q0 -39 -15 -73.5
t-44 -60.5t-72 -41t-99 -15q-58 0 -103 17.5t-75.5 47.5t-46 70t-15.5 85v349q0 34 -15.5 58.5t-35.5 24.5h-9v13h60h49h49h60v-13h-9q-20 0 -35 -23t-16 -55v-5v-368q0 -34 10 -64t30 -53t49 -36.5t67 -13.5q45 0 79.5 13.5t58 36t35.5 52.5t12 64l1 366q-2 35 -20.5 60.5
t-41.5 25.5h-11v13h73h15h15h69z" />
    <glyph glyph-name="ubreve" unicode="&#x16d;" horiz-adv-x="566" 
d="M147 711l15 5q5 -14 16 -26.5t26 -21.5t33 -14.5t36 -5.5t35.5 5.5t32.5 14.5t26.5 21.5t15.5 26.5l16 -5q-8 -25 -22.5 -47.5t-31.5 -39t-36 -26.5t-36 -10q-18 0 -36.5 10t-36 26.5t-31.5 39t-22 47.5zM531 48v-8l-132 -40h-18v23v40q-29 -29 -73 -48.5t-94 -19.5
q-31 0 -56.5 13t-44 34.5t-28.5 50.5t-10 62v249q0 34 -15.5 58.5t-35.5 24.5h-10q2 0 0 7q2 6 0 6h61h45h45v-336q0 -22 9 -42t24.5 -35t37.5 -24t49 -9q35 0 59.5 7t36.5 18v42v283q0 34 -15.5 58.5t-36.5 24.5h-9v13h61h45h45v-354v-13q1 -45 14.5 -61.5t45.5 -23.5z" />
    <glyph glyph-name="Uring" unicode="&#x16e;" horiz-adv-x="649" 
d="M326 715q13 0 25.5 6.5t22.5 16.5t16 23.5t6 26.5q0 29 -20.5 50.5t-49.5 21.5t-49.5 -21.5t-20.5 -50.5q0 -13 6 -26.5t16 -23.5t22.5 -16.5t25.5 -6.5zM231 788q0 18 7.5 35t20.5 29.5t30.5 20t36.5 7.5t36.5 -7.5t30.5 -20t20.5 -29.5t7.5 -35q0 -17 -8.5 -33.5
t-22 -30t-30.5 -21.5t-34 -8t-34 8t-30.5 21.5t-22 30t-8.5 33.5zM630 660v-13h-11q-23 0 -40.5 -27.5t-17.5 -65.5v-369q0 -39 -15 -73.5t-44 -60.5t-72 -41t-99 -15q-58 0 -103 17.5t-75.5 47.5t-46 70t-15.5 85v349q0 34 -15.5 58.5t-35.5 24.5h-9v13h60h49h49h60v-13h-9
q-20 0 -35 -23t-16 -55v-5v-368q0 -34 10 -64t30 -53t49 -36.5t67 -13.5q45 0 79.5 13.5t58 36t35.5 52.5t12 64l1 366q-2 35 -20.5 60.5t-41.5 25.5h-11v13h73h15h15h69z" />
    <glyph glyph-name="uring" unicode="&#x16f;" horiz-adv-x="566" 
d="M273 555q13 0 25.5 6.5t22.5 16.5t16 23.5t6 26.5q0 29 -20.5 50.5t-49.5 21.5t-49.5 -21.5t-20.5 -50.5q0 -13 6 -26.5t16 -23.5t22.5 -16.5t25.5 -6.5zM178 628q0 18 7.5 35t20.5 29.5t30.5 20t36.5 7.5t36.5 -7.5t30.5 -20t20.5 -29.5t7.5 -35q0 -17 -8.5 -33.5
t-22 -30t-30.5 -21.5t-34 -8t-34 8t-30.5 21.5t-22 30t-8.5 33.5zM531 48v-8l-132 -40h-18v23v40q-29 -29 -73 -48.5t-94 -19.5q-31 0 -56.5 13t-44 34.5t-28.5 50.5t-10 62v249q0 34 -15.5 58.5t-35.5 24.5h-10q2 0 0 7q2 6 0 6h61h45h45v-336q0 -22 9 -42t24.5 -35
t37.5 -24t49 -9q35 0 59.5 7t36.5 18v42v283q0 34 -15.5 58.5t-36.5 24.5h-9v13h61h45h45v-354v-13q1 -45 14.5 -61.5t45.5 -23.5z" />
    <glyph glyph-name="Wcircumflex" unicode="&#x174;" horiz-adv-x="953" 
d="M949 660v-13h-9q-20 0 -41.5 -22t-33.5 -54l-175 -586h-25l-197 522l49 163l-206 -685h-25l206 685h25l193 -531l124 427q10 33 -3 57t-41 24h-13q2 0 0 7q2 6 0 6h85h15h15h57zM225 660v-13h-10q-23 0 -32 -24.5t2 -58.5v0l144 -435l-43 -144l-206 579v0
q-12 34 -33 58.5t-38 24.5h-7v13h44h53h54h72zM505 818l-112 -126l-9 8l92 180q2 5 10.5 15t17.5 10q10 0 18.5 -10.5t10.5 -15.5l92 -179l-9 -8z" />
    <glyph glyph-name="Ycircumflex" unicode="&#x176;" horiz-adv-x="623" 
d="M422 13v-13h-61h-48h-49h-60v13h9q20 0 35.5 24.5t15.5 58.5v181l-170 299q-19 30 -41 50.5t-36 20.5h-7v13h37h59h58h73v-13h-10q-22 0 -25.5 -22t12.5 -53l134 -238l129 210v0q26 42 24.5 72.5t-29.5 30.5h-13q2 0 0 7q2 6 0 6h89h15h15h45v-13h-8q-17 0 -44.5 -23.5
t-49.5 -55.5l-160 -256v-216q1 -34 16 -58.5t36 -24.5h9zM313 818l-112 -126l-9 8l92 180q3 5 11 15t18 10q9 0 17.5 -10.5t11.5 -15.5l91 -179l-9 -8z" />
    <glyph glyph-name="Ydieresis" unicode="&#x178;" horiz-adv-x="623" 
d="M409 730q-23 0 -39 16t-16 39t16 39t39 16t39 -16t16 -39t-16 -39t-39 -16zM217 730q-23 0 -39 16t-16 39t16 39t39 16t39 -16t16 -39t-16 -39t-39 -16zM422 13v-13h-61h-48h-49h-60v13h9q20 0 35.5 24.5t15.5 58.5v181l-170 299q-19 30 -41 50.5t-36 20.5h-7v13h37h59
h58h73v-13h-10q-22 0 -25.5 -22t12.5 -53l134 -238l129 210v0q26 42 24.5 72.5t-29.5 30.5h-13q2 0 0 7q2 6 0 6h89h15h15h45v-13h-8q-17 0 -44.5 -23.5t-49.5 -55.5l-160 -256v-216q1 -34 16 -58.5t36 -24.5h9z" />
    <glyph glyph-name="Zacute" unicode="&#x179;" horiz-adv-x="588" 
d="M325 690l-10 8l78 154q11 21 20.5 36.5t11.5 15.5q5 0 14 -4.5t17 -10.5t14 -12.5t6 -10.5q0 -3 -11 -18t-26 -32zM515 147q3 -2 6 -3q7 -3 9 -4q-2 -13 -5 -29.5t-6 -34t-6 -34t-5 -29.5q-1 -3 -1.5 -7t-1.5 -6h-3h-93h-259h-55h-54l364 636h-166q-20 0 -42.5 -6.5
t-43.5 -18t-39 -26.5t-30 -32l-10 -14h-10q6 22 14.5 54t14.5 55l4 12h24h72h226h55h55l-365 -635h191q22 0 45.5 8.5t44 22.5t37 32.5t25.5 39.5z" />
    <glyph glyph-name="zacute" unicode="&#x17a;" horiz-adv-x="483" 
d="M188 530l-10 8l78 154q11 21 20 36.5t12 15.5q5 0 14 -4.5t17 -10.5t14 -12.5t6 -10.5q0 -3 -11 -18t-26 -32zM421 142v0q3 -1 5 -2q6 -3 10 -4q-2 -13 -5 -29.5t-6 -33.5t-6 -33.5t-5 -29.5q-1 -2 -1 -5t-1 -5h-4h-92h-165h-53h-53l273 480l-104 -1v0q-20 0 -42 -5
t-42.5 -13.5t-37.5 -19.5t-28 -24l-9 -11h-10q5 17 11.5 42t11.5 42q0 4 2 10h25h72h163h52h52l-272 -480h99q22 0 45 8.5t44 22.5t37.5 32.5t25.5 39.5z" />
    <glyph glyph-name="Zdotaccent" unicode="&#x17b;" horiz-adv-x="588" 
d="M325 730q-23 0 -39 16t-16 39t16 39t39 16t39 -16t16 -39t-16 -39t-39 -16zM515 147q3 -2 6 -3q7 -3 9 -4q-2 -13 -5 -29.5t-6 -34t-6 -34t-5 -29.5q-1 -3 -1.5 -7t-1.5 -6h-3h-93h-259h-55h-54l364 636h-166q-20 0 -42.5 -6.5t-43.5 -18t-39 -26.5t-30 -32l-10 -14h-10
q6 22 14.5 54t14.5 55l4 12h24h72h226h55h55l-365 -635h191q22 0 45.5 8.5t44 22.5t37 32.5t25.5 39.5z" />
    <glyph glyph-name="zdotaccent" unicode="&#x17c;" horiz-adv-x="483" 
d="M264 570q-23 0 -39 16t-16 39t16 39t39 16t39 -16t16 -39t-16 -39t-39 -16zM421 142v0q3 -1 5 -2q6 -3 10 -4q-2 -13 -5 -29.5t-6 -33.5t-6 -33.5t-5 -29.5q-1 -2 -1 -5t-1 -5h-4h-92h-165h-53h-53l273 480l-104 -1v0q-20 0 -42 -5t-42.5 -13.5t-37.5 -19.5t-28 -24
l-9 -11h-10q5 17 11.5 42t11.5 42q0 4 2 10h25h72h163h52h52l-272 -480h99q22 0 45 8.5t44 22.5t37.5 32.5t25.5 39.5z" />
    <glyph glyph-name="Zcaron" unicode="&#x17d;" horiz-adv-x="588" 
d="M515 147q3 -2 6 -3q7 -3 9 -4q-2 -13 -5 -29.5t-6 -34t-6 -34t-5 -29.5q-1 -3 -1.5 -7t-1.5 -6h-3h-93h-259h-55h-54l364 636h-166q-20 0 -42.5 -6.5t-43.5 -18t-39 -26.5t-30 -32l-10 -14h-10q6 22 14.5 54t14.5 55l4 12h24h72h226h55h55l-365 -635h191q22 0 45.5 8.5
t44 22.5t37 32.5t25.5 39.5zM325 802l-111 126l-9 -8l92 -180q2 -5 10 -15t18 -10t18 10.5t11 15.5l92 179l-10 8z" />
    <glyph glyph-name="zcaron" unicode="&#x17e;" horiz-adv-x="483" 
d="M421 142v0q3 -1 5 -2q6 -3 10 -4q-2 -13 -5 -29.5t-6 -33.5t-6 -33.5t-5 -29.5q-1 -2 -1 -5t-1 -5h-4h-92h-165h-53h-53l273 480l-104 -1v0q-20 0 -42 -5t-42.5 -13.5t-37.5 -19.5t-28 -24l-9 -11h-10q5 17 11.5 42t11.5 42q0 4 2 10h25h72h163h52h52l-272 -480h99
q22 0 45 8.5t44 22.5t37.5 32.5t25.5 39.5zM264 642l-111 126l-10 -8l92 -180q3 -5 11 -15t18 -10t18 10.5t11 15.5l92 179l-10 8z" />
    <glyph glyph-name="SmallLetterOwithogon" unicode="&#x1eb;" horiz-adv-x="699" 
d="M714 -52q-14 -17 -33 -31.5t-40 -26t-41.5 -18t-37.5 -6.5q-24 0 -53 10t-60 28t-62 41.5t-59 50.5q-61 4 -112 30t-87 65.5t-56 88t-20 97.5q0 51 21.5 101.5t61 90t94.5 64.5t121 25t121 -25t94.5 -64.5t61 -90t21.5 -101.5q0 -50 -21 -99.5t-58.5 -89.5t-90.5 -65.5
t-117 -27.5q35 -29 90.5 -49.5t118.5 -20.5q22 0 44 2.5t40.5 6.5t32 9.5t18.5 11.5zM351 17q45 0 82 23t64 59.5t41.5 83t14.5 94.5q0 47 -14.5 93.5t-41.5 83.5t-64 59.5t-82 22.5t-82 -22.5t-64 -59.5t-41.5 -83.5t-14.5 -93.5q0 -48 14.5 -94.5t41.5 -83t64 -59.5
t82 -23z" />
    <glyph glyph-name="CapitalLetterAwithdo" unicode="&#x226;" horiz-adv-x="653" 
d="M309 730q-23 0 -39 16t-16 39t16 39t39 16t39 -16t16 -39t-16 -39t-39 -16zM647 13v-13h-49h-53h-53h-84v13h12q27 0 37.5 24.5t-3.5 58.5v0l-51 131h-236l-42 -122q-11 -38 0 -65t40 -27h13v-13h-89h-16h-16h-56v13h9q20 0 44.5 24.5t36.5 58.5v0l206 579h24l238 -579v0
q14 -34 37.5 -58.5t42.5 -24.5h8zM393 252l-116 295l-101 -295h217z" />
    <glyph glyph-name="LETTERSMALLCAPITALG" unicode="&#x262;" horiz-adv-x="730" 
d="M637 260v-13h-9q-21 1 -36.5 -24t-15.5 -59v-109q-21 -12 -49.5 -23t-58.5 -19t-60 -13t-54 -5q-61 0 -115.5 22.5t-95.5 61.5t-65.5 90t-24.5 108t24.5 108t65.5 89.5t95.5 61t115.5 22.5q23 0 51.5 -4.5t58 -12.5t57.5 -18.5t50 -22.5v-121h-11q-2 6 -5.5 15t-5.5 15
q-8 22 -24.5 42.5t-38 37t-46.5 28.5t-51 16q-19 3 -35 3q-42 0 -79 -21t-65 -56t-44.5 -82t-16.5 -100t16.5 -100t44.5 -82.5t65 -56.5t79 -21q30 0 69 7.5t75 20.5v119q0 34 -15.5 59t-36.5 24h-9v13h61h39h39h61z" />
    <glyph glyph-name="LETTERSMALLCAPITALI" unicode="&#x26a;" horiz-adv-x="294" 
d="M255 553v-12h-9q-21 0 -36 -25t-16 -59v-361q1 -34 16 -58.5t36 -24.5h9v-13h-61h-43h-44h-61v13h9q21 0 36.5 24.5t15.5 58.5v361q0 34 -15.5 59t-36.5 25h-9v12q21 1 52 1t53 -1q21 1 52 1t52 -1z" />
    <glyph glyph-name="LETTERSMALLCAPITALN" unicode="&#x274;" horiz-adv-x="620" 
d="M435 541v12q15 1 37 0t37 0t37 1t36 -1q2 2 0 -6q2 -6 0 -6h-9q-21 0 -36 -25t-15 -59v-387v-88h-25l-41 56l-329 439v-381q0 -34 15.5 -58.5t36.5 -24.5h9v-13h-61h-13h-13h-61v13h10q20 0 35.5 24.5t15.5 58.5v361q0 34 -15.5 59t-35.5 25h-10v12q15 1 37 1t37 -1h13
h51l-51 -37v0l51 37l318 -426v330q0 34 -15.5 59t-36.5 25h-9z" />
    <glyph glyph-name="LETTERSMALLCAPITALR" unicode="&#x280;" 
d="M43 541v12q21 1 52 1t52 -1h44h81q41 0 78 -11.5t65 -31t44 -46t16 -55.5q0 -48 -39 -86.5t-99 -55.5l156 -178q20 -23 33.5 -37t24 -21.5t19.5 -10t19 -2.5h5v-18h-32q-32 0 -54.5 3.5t-43 15t-42.5 32.5t-52 55l-131 149h-48v-159q0 -34 15.5 -58.5t36.5 -24.5h9v-13
h-61h-44h-43h-61v13h9q21 0 36.5 24.5t15.5 58.5v361q0 34 -15.5 59t-36.5 25h-9zM256 278q26 0 49 10.5t40.5 28.5t28 41.5t10.5 50.5q0 25 -9 47t-24.5 38.5t-35.5 26.5t-43 10h-81v-253h28h37z" />
    <glyph glyph-name="LETTERSMALLCAPITALY" unicode="&#x28f;" horiz-adv-x="554" 
d="M384 13v-13h-61h-44h-43h-61v13h9q21 0 36.5 24.5t15.5 58.5v139l-130 222v0q-10 17 -21.5 32t-23.5 26.5t-22.5 18.5t-18.5 7h-7v12q18 1 45 1t45 -1q12 0 28.5 0.5t33.5 0.5t33.5 -0.5t29.5 -0.5v-12h-10q-22 0 -25.5 -24t13.5 -57l102 -184l101 161v0q26 42 25 73
t-29 31h-12v12q20 1 50.5 1t51.5 -1q12 1 29.5 1t28.5 -1v-12h-8q-17 0 -43.5 -22t-48.5 -53l-130 -202v-168q0 -34 15.5 -58.5t36.5 -24.5h9z" />
    <glyph glyph-name="LETTERSMALLCAPITALB" unicode="&#x299;" horiz-adv-x="545" 
d="M43 541v12q21 1 52 1t52 -1h44h81q40 0 76 -11t63.5 -29t43.5 -42.5t16 -51.5q0 -44 -40 -78.5t-101 -49.5q41 -5 77 -18t62 -32t41 -42t15 -49q0 -30 -18.5 -57.5t-50.5 -48t-74 -32.5t-89 -12h-102h-44h-43h-61v13h9q21 0 36.5 24.5t15.5 58.5v361q0 34 -15.5 59
t-36.5 25h-9zM191 295h65q26 0 49 10t40.5 27t28 39.5t10.5 47.5q0 23 -9 43t-24.5 35.5t-35.5 24.5t-43 9h-81v-236zM191 277v-254h93q30 0 57.5 10t48 27.5t32.5 40.5t12 49t-14.5 49t-39.5 40t-58 27.5t-70 10.5h-61z" />
    <glyph glyph-name="LETTERSMALLCAPITALH" unicode="&#x29c;" horiz-adv-x="691" 
d="M651 553v-12h-9q-20 0 -35 -23.5t-16 -55.5v-5v-361v-5q1 -32 16 -55t35 -23h9v-13h-60h-44h-44h-60v13h9q20 0 35.5 24.5t15.5 58.5v178h-312v-178q0 -34 15.5 -58.5t36.5 -24.5h9v-13h-61h-44h-43h-61v13h9q21 0 36.5 24.5t15.5 58.5v361q0 34 -15.5 59t-36.5 25h-9v12
q21 1 52 1t52 -1q22 1 53 1t52 -1v-12h-9q-21 0 -36.5 -25t-15.5 -59v-161h312v161q0 34 -15.5 59t-35.5 25h-9v12q21 1 52 0t52 0t52 1t52 -1z" />
    <glyph glyph-name="LETTERSMALLCAPITALL" unicode="&#x29f;" horiz-adv-x="541" 
d="M454 143q3 -1 5 -2q6 -3 10 -4q-2 -13 -5 -29.5t-6.5 -33.5t-6.5 -33.5t-5 -29.5q0 -2 -0.5 -5.5t-0.5 -5.5h-4h-93h-157h-44h-43h-61v13h9q21 0 36.5 24.5t15.5 58.5v361q0 34 -15.5 59t-36.5 25h-9v12q21 1 52 1t52 -1q22 1 53 1t52 -1v-12h-9q-21 0 -36.5 -25
t-15.5 -59v-435h102q22 0 45.5 8t44.5 22.5t37.5 33t25.5 39.5z" />
    <glyph glyph-name="LETTERSMALLCAPITALA" unicode="&#x1d00;" horiz-adv-x="583" 
d="M576 13v-13h-48h-48h-47h-84v13h12q26 0 36 24.5t-4 58.5v0l-38 94h-202l-28 -79h1q-14 -40 -3 -69t40 -29h12v-13h-89h-14h-14h-56v13h9q20 0 44.5 24.5t37.5 58.5v0l172 470h22l203 -476q15 -32 38 -54.5t40 -22.5h8zM346 212l-99 241l-86 -241h185z" />
    <glyph glyph-name="LETTERSMALLCAPITALC" unicode="&#x1d04;" horiz-adv-x="650" 
d="M591 379h-11q-2 6 -5.5 15t-5.5 15q-8 22 -25.5 42.5t-40.5 38t-49.5 29t-52.5 15.5q-10 1 -19.5 1.5t-17.5 0.5q-43 0 -82.5 -21t-68.5 -56t-46.5 -82t-17.5 -100t17.5 -100t46.5 -82.5t68.5 -56.5t82.5 -21q32 0 64.5 11t61 29t49.5 42.5t31 51.5q2 7 5 16t5 16h11
v-120l-6 9v0l6 -9q-19 -14 -46.5 -26.5t-58.5 -21.5t-63 -14.5t-59 -5.5q-63 0 -119.5 22.5t-99 61.5t-67.5 90t-25 108t25 108t67.5 89.5t99 61t119.5 22.5q24 0 54.5 -4.5t61.5 -12.5t60 -18.5t51 -22.5v-121z" />
    <glyph glyph-name="LETTERSMALLCAPITALD" unicode="&#x1d05;" horiz-adv-x="641" 
d="M43 541v12q21 1 52 1t52 -1h44h79q65 0 123 -22t102 -60t70 -88t26 -106t-23.5 -106.5t-64 -88.5t-94 -60t-113.5 -22h-105h-44h-43h-61v13h9q21 0 36.5 24.5t15.5 58.5v361q0 34 -15.5 59t-36.5 25h-9zM191 23h105q42 0 80 20.5t66.5 55t45 81t16.5 97.5t-19 97.5
t-51 81t-74.5 55t-89.5 20.5h-79v-508z" />
    <glyph glyph-name="LETTERSMALLCAPITALE" unicode="&#x1d07;" horiz-adv-x="541" 
d="M376 207h-10l-3 11q-3 12 -15 22.5t-29 18.5t-38 12.5t-44 4.5h-46v-254h92q24 0 49.5 7.5t48.5 20t41 29.5t28 36l8 16h10q-5 -25 -11 -60.5t-11 -59.5q0 -2 -0.5 -5.5t-0.5 -5.5h-4h-93h-157h-44h-43h-61v13h9q21 0 36.5 24.5t15.5 58.5v361q0 34 -15.5 59t-36.5 25h-9
v12q21 1 52 1t52 -1h44h155q17 1 41.5 1t41.5 -1q4 2 7 0q6 2 6 0v-11v-120h-9l-6 17q-6 19 -21.5 35.5t-36 29t-44.5 20t-48 7.5h-86v-233h46q23 0 44 4t38 11t29 16.5t15 19.5l3 10h10v-61v-11v-11v-69z" />
    <glyph glyph-name="LETTERSMALLCAPITALJ" unicode="&#x1d0a;" horiz-adv-x="337" 
d="M89 541v12q21 1 52 1t52 -1q22 1 53 1t51 -1q2 2 0 -6q2 -6 0 -6h-9q-21 0 -36 -25t-15 -59v-216q0 -123 -37 -187t-109 -64q-32 0 -59 18t-32 42q-4 14 7 25t29 11q13 0 25 -11t15 -25q5 -17 15.5 -29.5t21.5 -12.5q17 0 26.5 41t9.5 119v289q0 34 -15.5 59t-35.5 25h-9
z" />
    <glyph glyph-name="LETTERSMALLCAPITALK" unicode="&#x1d0b;" horiz-adv-x="585" 
d="M376 541v12q15 1 37 1t37 -1q13 1 31 1t31 -1v-12h-9q-10 0 -26 -7t-34 -18.5t-36 -26.5t-34 -32h-1l-106 -112l102 -135q72 -97 124 -147t79 -50h5v-18h-33q-61 0 -121.5 38.5t-115.5 111.5l-115 153v-202q0 -34 15.5 -58.5t36.5 -24.5h9v-13h-61h-44h-43h-61v13h9
q21 0 36.5 24.5t15.5 58.5v361q0 34 -15.5 59t-36.5 25h-9v12q21 1 52 1t52 -1q22 1 53 1t52 -1v-12h-9q-21 0 -36.5 -25t-15.5 -59v-159l62 65v0l103 107q26 29 34.5 50t-6.5 21h-8z" />
    <glyph glyph-name="LETTERSMALLCAPITALM" unicode="&#x1d0d;" horiz-adv-x="765" 
d="M727 553v-12h-9q-20 0 -33 -23t-13 -55l20 -367v0q2 -34 18.5 -58.5t37.5 -24.5h9v-13h-60h-44h-44h-60v13h9q18 0 32 20.5t16 49.5l-15 401l-210 -489h-22l-20 43l-198 410l-15 -338q-1 -40 19.5 -68.5t51.5 -28.5h13v-13h-89h-13h-13h-60v13h9q21 0 37.5 24.5
t17.5 58.5v0l17 370q-1 31 -14.5 53t-33.5 22h-9v12q15 1 37 1t37 -1h13h39l213 -451l3 -5l187 456h32h8q20 1 49.5 1t49.5 -1z" />
    <glyph glyph-name="LETTERSMALLCAPITALO" unicode="&#x1d0f;" horiz-adv-x="699" 
d="M351 17q45 0 82 23t64 59.5t41.5 83t14.5 94.5q0 47 -14.5 93.5t-41.5 83.5t-64 59.5t-82 22.5t-82 -22.5t-64 -59.5t-41.5 -83.5t-14.5 -93.5q0 -48 14.5 -94.5t41.5 -83t64 -59.5t82 -23zM53 277q0 51 21.5 101.5t61 90t94.5 64.5t121 25t121 -25t94.5 -64.5t61 -90
t21.5 -101.5t-21.5 -101.5t-61 -90.5t-94.5 -65t-121 -25t-121 25t-94.5 65t-61 90.5t-21.5 101.5z" />
    <glyph glyph-name="LETTERSMALLCAPITALP" unicode="&#x1d18;" horiz-adv-x="512" 
d="M43 541v12q21 1 52 1t52 -1h44h88q44 0 82.5 -12.5t68 -34t46.5 -49.5t17 -60q0 -31 -18.5 -59.5t-50.5 -50t-74 -34t-89 -12.5h-70v-145q0 -34 15.5 -58.5t36.5 -24.5h9v-13h-61h-44h-43h-61v13h9q21 0 36.5 24.5t15.5 58.5v361q0 34 -15.5 59t-36.5 25h-9zM191 263h70
q29 0 54 11t44.5 29t30.5 42.5t11 51.5t-10 51.5t-26.5 42.5t-38.5 29t-47 11h-88v-268z" />
    <glyph glyph-name="LETTERSMALLCAPITALT" unicode="&#x1d1b;" horiz-adv-x="560" 
d="M554 410h-10l-9 23q-8 20 -23.5 37.5t-35 31t-40.5 21.5t-41 8h-71v-435q0 -34 15 -58.5t36 -24.5h9v-13h-60h-44h-44h-60v13h9q20 0 35.5 24.5t15.5 58.5v435h-71q-20 0 -41 -8t-40.5 -21.5t-35 -31t-23.5 -37.5l-9 -23h-10q1 14 2.5 31t3 35t3 35.5t2.5 30.5q1 2 1 5.5
v5.5t7 0q2 2 6 0q17 1 42 1t42 -1h330q17 1 42 1t42 -1q4 2 6 0q7 2 7 0v-5.5t1 -5.5q1 -13 2.5 -30.5t3 -35.5t3 -35t2.5 -31z" />
    <glyph glyph-name="LETTERSMALLCAPITALU" unicode="&#x1d1c;" horiz-adv-x="591" 
d="M571 553v-12h-10q-23 0 -40 -26t-18 -63v-5v-297q0 -31 -13 -59.5t-38.5 -49.5t-63 -33.5t-86.5 -12.5q-51 0 -89.5 14.5t-65 39.5t-40 57.5t-13.5 69.5v281q0 34 -15.5 59t-36.5 25h-9v12q21 1 52 1t52 -1q22 1 53 1t52 -1v-12h-9q-21 0 -36.5 -25t-15.5 -59v-298
q0 -27 8.5 -51t25.5 -42.5t42 -29t58 -10.5q39 0 69 10.5t50 29t30.5 42.5t10.5 51l1 296q-2 36 -20.5 61t-41.5 25h-11v12q17 1 43 1t43 -1q17 1 41 1t41 -1z" />
    <glyph glyph-name="LETTERSMALLCAPITALV" unicode="&#x1d20;" horiz-adv-x="577" 
d="M577 553v-12h-10q-21 0 -45 -25t-35 -59v0l-165 -472h-22l-214 483q-16 30 -37 51.5t-36 21.5h-8q2 0 0 6q1 3 1 6q19 1 45.5 1t44.5 -1q13 0 30 0.5t35 0.5t34.5 -0.5t29.5 -0.5v-12h-11q-24 0 -33.5 -22t0.5 -52l157 -371l112 331v0q8 23 8.5 43.5t-4.5 36.5t-16.5 25
t-27.5 9h-14v12q23 1 55.5 1t55.5 -1q14 1 35 1t35 -1zM6 553v0h-1h1z" />
    <glyph glyph-name="LETTERSMALLCAPITALW" unicode="&#x1d21;" horiz-adv-x="821" 
d="M817 553v-12h-9q-20 0 -42.5 -24t-33.5 -56l-143 -476h-22l139 475q8 33 -5 57t-40 24h-13v12q20 1 49.5 1t49.5 -1q14 1 35 1t35 -1zM215 553v-12h-11q-23 0 -32.5 -23.5t-0.5 -55.5l116 -357l136 458h22l-171 -578h-23l-170 472h-1q-12 34 -33 59t-38 25h-7v12
q18 1 45.5 1t46.5 -1q24 1 60 1t61 -1zM567 -15l-162 442l40 136l159 -451z" />
    <glyph glyph-name="LETTERSMALLCAPITALZ" unicode="&#x1d22;" horiz-adv-x="528" 
d="M457 144l15 -6q-2 -13 -5 -29.5t-6 -34t-6 -34t-5 -29.5q-2 -6 -2 -11h-3h-94h-210h-49h-48l313 531h-112q-20 0 -42.5 -6.5t-43.5 -18t-39.5 -26t-29.5 -31.5l-10 -15h-10q5 22 14 54t15 54q0 2 1 5.5t2 5.5q0 2 6 0q4 2 6 0q17 1 42 1t42 -1h172h50h49l-314 -530h142
q22 0 45 8t44 22.5t37.5 33t25.5 39.5z" />
    <glyph glyph-name="Wgrave" unicode="&#x1e80;" horiz-adv-x="953" 
d="M949 660v-13h-9q-20 0 -41.5 -22t-33.5 -54l-175 -586h-25l-197 522l49 163l-206 -685h-25l206 685h25l193 -531l124 427q10 33 -3 57t-41 24h-13q2 0 0 7q2 6 0 6h85h15h15h57zM225 660v-13h-10q-23 0 -32 -24.5t2 -58.5v0l144 -435l-43 -144l-206 579v0
q-12 34 -33 58.5t-38 24.5h-7v13h44h53h54h72zM506 852l81 -154l-10 -8l-117 126q-16 17 -27.5 31t-11.5 19q0 4 6 10.5t14.5 12.5t17 10.5t13.5 4.5q4 0 13.5 -15.5t20.5 -36.5z" />
    <glyph glyph-name="Wacute" unicode="&#x1e82;" horiz-adv-x="953" 
d="M443 690l-10 8l78 154q11 21 20.5 36.5t11.5 15.5q5 0 14 -4.5t17.5 -10.5t14.5 -12.5t6 -10.5q0 -3 -11 -18t-27 -32zM949 660v-13h-9q-20 0 -41.5 -22t-33.5 -54l-175 -586h-25l-197 522l49 163l-206 -685h-25l206 685h25l193 -531l124 427q10 33 -3 57t-41 24h-13
q2 0 0 7q2 6 0 6h85h15h15h57zM225 660v-13h-10q-23 0 -32 -24.5t2 -58.5v0l144 -435l-43 -144l-206 579v0q-12 34 -33 58.5t-38 24.5h-7v13h44h53h54h72z" />
    <glyph glyph-name="Wdieresis" unicode="&#x1e84;" horiz-adv-x="953" 
d="M600 730q-23 0 -39 16t-16 39t16 39t39 16t39 -16t16 -39t-16 -39t-39 -16zM408 730q-23 0 -39 16t-16 39t16 39t39 16t39 -16t16 -39t-16 -39t-39 -16zM949 660v-13h-9q-20 0 -41.5 -22t-33.5 -54l-175 -586h-25l-197 522l49 163l-206 -685h-25l206 685h25l193 -531
l124 427q10 33 -3 57t-41 24h-13q2 0 0 7q2 6 0 6h85h15h15h57zM225 660v-13h-10q-23 0 -32 -24.5t2 -58.5v0l144 -435l-43 -144l-206 579v0q-12 34 -33 58.5t-38 24.5h-7v13h44h53h54h72z" />
    <glyph glyph-name="CapitalLetterEWITHTI" unicode="&#x1ebc;" 
d="M152 755h-15q0 24 6 46t16.5 38.5t24.5 26t29 9.5q20 0 42 -10t44.5 -21.5t44.5 -21.5t42 -10t33.5 18t13.5 42h15q0 -24 -6.5 -45.5t-17.5 -38t-25.5 -26t-31.5 -9.5q-20 0 -42 9.5t-44.5 21.5t-44.5 21.5t-42 9.5q-17 0 -29.5 -18t-12.5 -42zM429 261h-11l-3 11
q-3 12 -14.5 22.5t-29 18.5t-38.5 12.5t-43 4.5h-91v-306h138q24 0 49.5 7.5t48 20.5t40.5 29.5t28 35.5l8 16q0 2 9 0q1 1 1 0q-2 -12 -5 -28t-6 -32.5t-6 -32.5t-5 -28q0 -6 -2 -12h-3h-93h-202h-49h-49h-60v13h9q20 0 35.5 24.5t15.5 58.5v468q0 34 -15.5 58.5
t-35.5 24.5h-9v13h60h49h49h200h85h12v-12v-121h-10l-5 16q-6 19 -21.5 36t-36 29.5t-44.5 20t-48 7.5h-132v-282h91q22 0 43 4.5t38.5 11.5t29 16.5t14.5 19.5l3 9h11v-61v-12v-12v-69z" />
    <glyph glyph-name="Ygrave" unicode="&#x1ef2;" horiz-adv-x="623" 
d="M422 13v-13h-61h-48h-49h-60v13h9q20 0 35.5 24.5t15.5 58.5v181l-170 299q-19 30 -41 50.5t-36 20.5h-7v13h37h59h58h73v-13h-10q-22 0 -25.5 -22t12.5 -53l134 -238l129 210v0q26 42 24.5 72.5t-29.5 30.5h-13q2 0 0 7q2 6 0 6h89h15h15h45v-13h-8q-17 0 -44.5 -23.5
t-49.5 -55.5l-160 -256v-216q1 -34 16 -58.5t36 -24.5h9zM314 852l81 -154l-10 -8l-117 126q-16 17 -27.5 31t-11.5 19q0 4 6 10.5t14.5 12.5t17.5 10.5t14 4.5q3 0 12.5 -15.5t20.5 -36.5z" />
    <glyph glyph-name="quoteleft" unicode="&#x2018;" horiz-adv-x="251" 
d="M125 525q26 0 45.5 -19.5t19.5 -45.5t-19.5 -45.5t-45.5 -19.5q-19 0 -34.5 10.5t-23.5 26.5q-8 14 -13 29.5t-5 28.5q0 24 9.5 50.5t25.5 51t37 44.5t45 32l6 -13q-14 -7 -27 -20t-22.5 -29.5t-15 -35t-5.5 -35.5v-6.5t1 -7.5q9 4 22 4z" />
    <glyph glyph-name="quoteright" unicode="&#x2019;" horiz-adv-x="251" 
d="M125 535q-26 0 -45.5 19.5t-19.5 45.5t19.5 45.5t45.5 19.5q19 0 34.5 -10.5t23.5 -26.5q8 -14 13 -29.5t5 -28.5q0 -24 -9.5 -50.5t-25.5 -51t-37 -44.5t-45 -32l-6 13q14 7 27 20t22.5 29.5t15 35t5.5 35.5v6.5t-1 7.5q-9 -4 -22 -4z" />
    <glyph glyph-name="quotedblleft" unicode="&#x201c;" horiz-adv-x="442" 
d="M270 415v0q-12 13 -21 35t-9 40q0 24 9.5 50.5t25.5 51t37 44.5t45 32l7 -13q-14 -7 -27 -20t-22.5 -29.5t-15 -35t-5.5 -35.5v-6.5t1 -7.5q9 4 21 4q27 0 46.5 -19.5t18.5 -45.5q1 -26 -18.5 -45.5t-46.5 -19.5q-14 0 -25.5 5.5t-20.5 14.5v0zM125 525q26 0 45.5 -19.5
t19.5 -45.5t-19.5 -45.5t-45.5 -19.5q-19 0 -34.5 10.5t-23.5 26.5q-8 14 -13 29.5t-5 28.5q0 24 9.5 50.5t25.5 51t37 44.5t45 32l6 -13q-14 -7 -27 -20t-22.5 -29.5t-15 -35t-5.5 -35.5v-6.5t1 -7.5q9 4 22 4z" />
    <glyph glyph-name="quotedblright" unicode="&#x201d;" horiz-adv-x="442" 
d="M316 535q-26 0 -45.5 19.5t-19.5 45.5t19.5 45.5t45.5 19.5q17 0 31 -8t23 -21q10 -14 16.5 -32.5t6.5 -33.5q0 -24 -9.5 -50.5t-25.5 -51t-37 -44.5t-45 -32l-7 13q14 7 27 20t22.5 29.5t15 35t5.5 35.5v6.5t-1 7.5q-9 -4 -22 -4zM125 535q-26 0 -45.5 19.5t-19.5 45.5
t19.5 45.5t45.5 19.5q19 0 34.5 -10.5t23.5 -26.5q8 -14 13 -29.5t5 -28.5q0 -24 -9.5 -50.5t-25.5 -51t-37 -44.5t-45 -32l-6 13q14 7 27 20t22.5 29.5t15 35t5.5 35.5v6.5t-1 7.5q-9 -4 -22 -4z" />
    <glyph glyph-name="ellipsis" unicode="&#x2026;" horiz-adv-x="570" 
d="M475 0q-26 0 -45.5 19.5t-19.5 45.5t19.5 45.5t45.5 19.5t45.5 -19.5t19.5 -45.5t-19.5 -45.5t-45.5 -19.5zM285 0q-26 0 -45.5 19.5t-19.5 45.5t19.5 45.5t45.5 19.5t45.5 -19.5t19.5 -45.5t-19.5 -45.5t-45.5 -19.5zM95 0q-26 0 -45.5 19.5t-19.5 45.5t19.5 45.5
t45.5 19.5t45.5 -19.5t19.5 -45.5t-19.5 -45.5t-45.5 -19.5z" />
    <glyph glyph-name="guilsinglleft" unicode="&#x2039;" horiz-adv-x="296" 
d="M111 251l141 -204l-10 -10l-222 209v10l220 209l9 -9z" />
    <glyph glyph-name="guilsinglright" unicode="&#x203a;" horiz-adv-x="296" 
d="M186 251l-139 205l10 9l220 -209v-10l-222 -209l-10 10z" />
    <glyph glyph-name="Euro" unicode="&#x20ac;" horiz-adv-x="658" 
d="M599 476h-11q-2 7 -5.5 16t-5.5 15q-9 24 -27 47t-41.5 41.5t-49.5 30.5t-51 14v0q-4 1 -12 1q-31 0 -59.5 -16.5t-52.5 -46t-42 -69.5t-27 -87h230l-9 -64h-228q-1 -6 -1 -12.5v-12.5v-12.5t1 -12.5h228l-9 -65h-212q9 -48 26.5 -89t41.5 -71t53 -47t60 -17q17 0 47 8
q43 15 80.5 50.5t53.5 80.5q2 6 5.5 15t5.5 16h11v-122l-7 10v0l7 -10q-25 -15 -54 -28t-56.5 -22.5t-52 -15.5t-40.5 -6q-50 0 -95.5 19t-83 52t-65 78.5t-41.5 98.5h-70l9 65h51q-1 6 -1 12.5v12.5v12.5t1 12.5h-51l9 64h52q14 52 41.5 96.5t65 77t83 51t95.5 18.5
q18 0 43 -5.5t52.5 -14.5t55.5 -21t52 -26l-7 -10v0l7 10v-122z" />
    <glyph glyph-name="LETTERSMALLCAPITALF" unicode="&#xa730;" horiz-adv-x="471" 
d="M366 203h-10l-3 11q-3 12 -15 22.5t-29 18.5t-38 12.5t-44 4.5h-36v-176q0 -34 18 -58.5t42 -24.5h11v-13h-71h-44h-43h-61v13h9q21 0 36.5 24.5t15.5 58.5v361q0 34 -15.5 59t-36.5 25h-9v12q21 1 52 1t52 -1h44h185q17 1 41.5 1t41.5 -1q4 2 7 0q6 2 6 0v-11v-120h-9
l-6 17q-6 19 -21.5 35.5t-36 29t-44.5 20t-48 7.5h-116v-237h36q23 0 44 4t38 11t29 16.5t15 19.5l3 9q0 2 8 0q2 2 2 0v-60v-11v-11v-69z" />
    <glyph glyph-name="LETTERSMALLCAPITALS" unicode="&#xa731;" horiz-adv-x="447" 
d="M40 177h11q2 -6 5.5 -15t5.5 -16q9 -26 26.5 -49.5t39.5 -41t46.5 -28t47.5 -10.5q24 0 45.5 8t38 21.5t26 31.5t9.5 38q0 16 -12.5 34.5t-33.5 36t-49 33t-60 25.5q-28 9 -53.5 25.5t-44.5 36.5t-30.5 42.5t-11.5 43.5q0 33 14 63t38 52.5t56 36t68 13.5q12 0 29 -3.5
t36.5 -10t39.5 -15t37 -17.5l-8 -14h1l7 14v-128h-11q-3 8 -7.5 21t-7.5 21q-7 20 -19.5 38.5t-28 33.5t-32.5 25t-32 13v0q-3 1 -7 1q-23 0 -43.5 -8.5t-36 -23.5t-24.5 -35t-9 -42q0 -15 11.5 -32t31.5 -33.5t46.5 -30.5t55.5 -23q31 -10 58.5 -27.5t48.5 -39t33 -45
t12 -46.5q0 -31 -14.5 -59.5t-39 -50t-57.5 -34t-70 -12.5q-21 0 -46.5 4.5t-50 12.5t-47 18t-38.5 22v125z" />
    <glyph glyph-name="[namenotfound]001" unicode="&#xf078;" horiz-adv-x="587" 
d="M527 553v-12h-9q-10 0 -24 -7t-28.5 -18.5t-29 -26.5t-25.5 -32l-90 -135h-1l155 -237q22 -30 46 -51t38 -21h7v-13h-36h-50h-50h-81v13h11q24 0 27.5 21.5t-13.5 51.5l-104 159l-89 -145q-20 -36 -16 -61.5t30 -25.5h13v-13h-89h-14h-13h-53v13h9q21 0 51 24t53 57
l107 169l-136 208q-21 29 -44.5 49.5t-37.5 20.5h-7v12q17 1 43 1t43 -1q13 0 30 0.5t35 0.5t35.5 -0.5t30.5 -0.5v-12h-11q-25 0 -27.5 -25t20.5 -59h-1l78 -118l78 123q19 32 14 55.5t-33 23.5h-12v12q21 1 51.5 1t51.5 -1q14 1 33.5 1t33.5 -1z" />
  </font>
</defs>
</svg>
