<?xml version="1.0" standalone="no"?>
<!DOCTYPE svg PUBLIC "-//W3C//DTD SVG 1.1//EN" "http://www.w3.org/Graphics/SVG/1.1/DTD/svg11.dtd" >
<svg xmlns="http://www.w3.org/2000/svg" xmlns:xlink="http://www.w3.org/1999/xlink" version="1.1">
<metadata>
Created by FontForge 20170731 at Sat Apr 15 09:49:02 2017
 By Aleksey,,,
Copyright (c) 2017 by Creativetacos. All rights reserved.
</metadata>
<defs>
<font id="Zimra-Thin" horiz-adv-x="549" >
  <font-face 
    font-family="Zimra Thin"
    font-weight="100"
    font-stretch="normal"
    units-per-em="1024"
    panose-1="0 0 0 0 0 0 0 0 0 0"
    ascent="819"
    descent="-205"
    x-height="500"
    cap-height="660"
    bbox="-94 -246 1067 926"
    underline-thickness="0"
    underline-position="0"
    unicode-range="U+000D-F078"
  />
<missing-glyph horiz-adv-x="472" 
d="M0 700h432v-700h-432v700zM50 50h332v600h-332v-600z" />
    <glyph glyph-name=".notdef" horiz-adv-x="472" 
d="M0 700h432v-700h-432v700zM50 50h332v600h-332v-600z" />
    <glyph glyph-name=".null" horiz-adv-x="0" 
 />
    <glyph glyph-name=".null" horiz-adv-x="0" 
 />
    <glyph glyph-name="nonmarkingreturn" unicode="&#xd;" horiz-adv-x="256" 
 />
    <glyph glyph-name="space" unicode=" " horiz-adv-x="250" 
 />
    <glyph glyph-name="exclam" unicode="!" horiz-adv-x="153" 
d="M74 -5q-8 0 -14 6t-6 14t6 14t14 6t14 -6t6 -14t-6 -14t-14 -6zM93 620l-17 -510h-3l-20 510q-1 18 5 31.5t15 13.5t15 -13.5t5 -31.5z" />
    <glyph glyph-name="quotedbl" unicode="&#x22;" horiz-adv-x="212" 
d="M121 660h51l-22 -171h-7zM40 660h51l-22 -171h-7z" />
    <glyph glyph-name="numbersign" unicode="#" horiz-adv-x="525" 
d="M390 692h8l-31 -224h138l-2 -16h-138l-33 -244h130l-2 -16h-131l-26 -192h-8l26 192h-154l-26 -192h-8l26 192h-138l2 16h139l33 244h-136l2 16h136l31 224h8l-31 -224h154zM203 452l-33 -244h154l33 244h-154z" />
    <glyph glyph-name="dollar" unicode="$" horiz-adv-x="499" 
d="M263 735h14v-74q38 -6 78.5 -19t69.5 -29v-107h-11q-3 9 -8 22t-8 23q-6 18 -18.5 35t-28 31t-33 24t-34.5 13v0q-2 0 -3.5 0.5t-3.5 0.5v-322q36 -12 68.5 -32t57 -43.5t38.5 -49t14 -49.5q0 -33 -14 -63t-38 -52.5t-55.5 -35.5t-66.5 -13h-4v-70h-14v70q-16 1 -32.5 3
t-33.5 5v-78h-14v80q-43 8 -80.5 21.5t-58.5 29.5v107h11q2 -6 5.5 -15.5t5.5 -15.5q12 -35 44.5 -66.5t72.5 -48.5v329q-27 14 -50.5 31.5t-40 36.5t-26 39t-9.5 38q0 29 9.5 55.5t26.5 48.5t40 38.5t50 24.5v77h14v-74q15 4 34 4q8 0 15.5 -0.5t16.5 -1.5v72zM197 12v0
q18 -7 37 -9v0q8 -1 15 -1.5t14 -1.5v316l-18 6q-25 8 -48 18v-328zM263 338v319q-18 3 -33 3q-18 0 -33 -4v-292q15 -8 31.5 -14.5t33.5 -11.5h1zM183 371v281q-48 -16 -79.5 -57.5t-31.5 -94.5q0 -32 31 -67t80 -62zM277 311v-311h4q32 0 61 12t50.5 32.5t34 48t12.5 57.5
q0 21 -12.5 44t-34.5 44.5t-51.5 40.5t-63.5 32z" />
    <glyph glyph-name="ampersand" unicode="&#x26;" horiz-adv-x="692" 
d="M632 380v-13h-12q-28 0 -48.5 -21t-20.5 -76v-30q0 -43 -17.5 -82.5t-49.5 -71.5q68 -58 119 -74t90 -9v-3q-44 -8 -98 6t-122 69q-41 -37 -95.5 -58.5t-116.5 -21.5q-43 0 -81 13.5t-67 36t-46 52.5t-17 64q0 29 14 60t38.5 59t57 50.5t69.5 35.5q-26 44 -41 80.5
t-15 61.5q0 32 11 60.5t30 50t43.5 34t52.5 12.5t53 -9t43.5 -25t29.5 -37t11 -44q0 -28 -15.5 -56.5t-42 -52.5t-61.5 -41t-74 -24l-2 3q36 6 68.5 23t57 40.5t39 51t14.5 55.5q0 23 -10 43t-26.5 35.5t-38.5 24.5t-47 9q-24 0 -46 -11.5t-38.5 -31t-26 -46t-9.5 -55.5
q0 -24 14 -59t38.5 -76t56.5 -85.5t68 -87.5q32 -38 60.5 -67.5t54.5 -52.5q31 31 48.5 69.5t17.5 81.5v30q0 55 -18 76t-43 21h-12v13h158zM469 78v0q-55 44 -118 119q-35 41 -65.5 83.5t-54.5 82.5q-33 -12 -62.5 -33.5t-51.5 -47.5t-35 -55.5t-13 -57.5q0 -33 16.5 -63
t44 -52.5t64.5 -36t78 -13.5q57 0 108 20t89 54z" />
    <glyph glyph-name="quotesingle" unicode="'" horiz-adv-x="130" 
d="M40 660h51l-22 -171h-7z" />
    <glyph glyph-name="parenleft" unicode="(" horiz-adv-x="164" 
d="M152 690l3 -2q-32 -38 -56 -142.5t-24 -275.5t24 -275.5t56 -142.5l-3 -2q-38 45 -65 150t-27 270t27 270t65 150z" />
    <glyph glyph-name="parenright" unicode=")" horiz-adv-x="164" 
d="M10 -150l-3 2q32 38 56 142.5t24 275.5t-24 275.5t-56 142.5l3 2q38 -45 65 -150t27 -270t-27 -270t-65 -150z" />
    <glyph glyph-name="asterisk" unicode="*" horiz-adv-x="245" 
d="M149 541l-5 119q0 8 6 8t6 -8l-5 -119l100 64q8 4 10 -1.5t-4 -8.5l-106 -54v-1v-1l106 -54q6 -3 4 -9q-3 -4 -10 -1l-100 64l5 -119q0 -8 -6 -8t-6 8l5 119l-100 -64q-8 -4 -10 1.5t4 8.5l106 54v1v1l-106 54q-6 3 -4 9q3 5 10 1z" />
    <glyph glyph-name="plus" unicode="+" horiz-adv-x="555" 
d="M270 450h10v-196h195v-8h-195v-196h-10v196h-195v8h195v196z" />
    <glyph glyph-name="comma" unicode="," horiz-adv-x="150" 
d="M171 105q-17 17 -31 16.5t-24 -14.5q19 6 41 -16zM79 -5q-8 0 -13.5 5.5t-5.5 13.5t5.5 13.5t13.5 5.5q4 0 6 -1q3 63 31 75q-7 -11 -11 -29.5t-4 -43.5q0 -35 -10 -65t-24 -37l-2 4q7 3 12 20t7 40q-2 -1 -5 -1z" />
    <glyph glyph-name="hyphen" unicode="-" horiz-adv-x="280" 
d="M20 221v15h240v-15h-240z" />
    <glyph glyph-name="period" unicode="." horiz-adv-x="205" 
d="M125 -5q-8 0 -14 6t-6 14t6 14t14 6t14 -6t6 -14t-6 -14t-14 -6z" />
    <glyph glyph-name="slash" unicode="/" horiz-adv-x="318" 
d="M0 -145l310 855h9l-310 -855h-9z" />
    <glyph glyph-name="zero" unicode="0" horiz-adv-x="590" 
d="M295 -1q45 0 85.5 20t71 54.5t48.5 80t18 96.5t-18 96.5t-48.5 80t-71 54.5t-85.5 20t-85.5 -20t-71 -54.5t-48.5 -80t-18 -96.5t18 -96.5t48.5 -80t71 -54.5t85.5 -20zM50 250q0 52 19.5 98t53.5 81t78.5 55.5t93.5 20.5q50 0 94.5 -20.5t78.5 -55.5t53.5 -81t19.5 -98
t-19.5 -98t-53.5 -81t-78.5 -55.5t-94.5 -20.5q-49 0 -93.5 20.5t-78.5 55.5t-53.5 81t-19.5 98z" />
    <glyph glyph-name="one" unicode="1" horiz-adv-x="251" 
d="M196 500v-13h-9q-20 0 -35 -23t-16 -55v-5v-308v-5q1 -32 16 -55t35 -23h9v-13h-60h-10h-10h-61v13h9q21 0 36.5 24.5t15.5 58.5v308q0 34 -15.5 58.5t-36.5 24.5h-9v13h61h10h10h60z" />
    <glyph glyph-name="two" unicode="2" horiz-adv-x="478" 
d="M439 81h13q-1 -15 -2.5 -36t-3.5 -35l-1 -10h-420v4q10 7 22 14l2 2h1q71 46 133 86.5t109 78.5t74 76t27 79q0 30 -11.5 57.5t-31 48t-45 32.5t-54.5 12q-25 0 -51.5 -11t-50.5 -29t-43.5 -42.5t-30.5 -51.5l-3 1q12 30 33.5 57t47 47t54 32t54.5 12q32 0 60 -12.5
t49 -34.5t33.5 -50.5t12.5 -60.5q0 -39 -28.5 -77.5t-77.5 -78t-114.5 -81.5t-139.5 -90h294q35 0 61 15.5t28 36.5v9z" />
    <glyph glyph-name="three" unicode="3" horiz-adv-x="449" 
d="M26 -215v3q71 4 135 26t112 56.5t76.5 78t28.5 90.5q0 32 -15 61t-40.5 51t-59 35t-71.5 13q-19 0 -40 -2.5t-36 -6.5q-4 -1 -10 -3v3q5 2 10 3.5t10 3.5q41 15 77.5 36t63.5 45t43 48.5t16 46.5q0 24 -10 45t-27 37t-39.5 25.5t-47.5 9.5q-22 0 -48.5 -9.5t-52 -25
t-48.5 -36.5t-39 -45l-3 1q18 26 43 49.5t52.5 41.5t55 28.5t50.5 10.5q27 0 51.5 -10t43 -27.5t29.5 -40t11 -48.5q0 -21 -15 -45t-41 -47t-61.5 -44.5t-76.5 -38.5q26 6 43 6q41 0 78 -13.5t65 -37t44 -54t16 -65.5q0 -48 -30 -92t-81 -79t-118.5 -57.5t-143.5 -26.5z" />
    <glyph glyph-name="four" unicode="4" horiz-adv-x="490" 
d="M31 9l336 496h3v-6v-490h110v-9h-110v-150h-20v150h-318h-1h-4v3l4 6v0v0zM38 9h312v460l1 2z" />
    <glyph glyph-name="five" unicode="5" horiz-adv-x="433" 
d="M381 500l-7 -21h-280l-17 -216h77q46 0 87.5 -16t73 -43t50 -63t18.5 -77q0 -47 -28.5 -90.5t-76.5 -77.5t-112 -55t-135 -23v4q67 2 127.5 22t106 52.5t72 74t26.5 87.5q0 38 -17.5 71.5t-47.5 58.5t-70 40t-85 15h-68h-5l20 257h6h189q34 0 63.5 15.5t36.5 36.5l3 9h12
q-4 -13 -9 -30t-10 -31v0z" />
    <glyph glyph-name="six" unicode="6" horiz-adv-x="571" 
d="M516 715v-3q-84 -3 -159 -37t-131.5 -89.5t-89.5 -127t-33 -150.5q0 -5 -0.5 -12.5t-0.5 -12.5q0 -45 10 -84q-1 47 15 88t44.5 71.5t67.5 48.5t85 18q40 0 75.5 -17t62.5 -45.5t43 -66.5t16 -81q3 -45 -14 -85t-47.5 -70t-72.5 -47.5t-90 -17.5q-44 0 -83.5 24.5
t-69 66.5t-47 97.5t-17.5 117.5q0 81 35 154.5t95 130.5t139 91.5t167 37.5zM118 176q11 -38 29.5 -70t42.5 -55.5t52 -36.5t58 -13q43 0 80.5 17t65 46.5t42.5 68t12 81.5q0 42 -14.5 79t-39 65.5t-57 45t-68.5 16.5q-46 0 -85.5 -19.5t-67.5 -53t-41.5 -77.5t-8.5 -94v0z
" />
    <glyph glyph-name="seven" unicode="7" horiz-adv-x="436" 
d="M29 490l1 10h395l2 -2q-67 -160 -133 -318.5t-132 -319.5h-23l276 620h-291q-34 0 -60 -15.5t-28 -36.5v-9h-13q2 12 3 29t2 32v0z" />
    <glyph glyph-name="eight" unicode="8" horiz-adv-x="539" 
d="M290 343v0q32 3 59.5 17.5t48.5 37.5t33 52.5t12 62.5q0 30 -13.5 57t-36 47t-52.5 32t-64 12q-33 0 -62.5 -12.5t-52 -33.5t-35.5 -49t-13 -60q0 -30 13 -58t35 -50t51 -36t62 -17q5 0 15 -2zM295 343q40 -6 75.5 -22.5t62 -39.5t42 -51t15.5 -58q0 -36 -17 -68
t-45.5 -56.5t-66.5 -38.5t-80 -14q-43 0 -81 13.5t-66.5 37t-45.5 54t-17 64.5q0 33 15 62t40 51.5t59 36t71 13.5q-33 5 -61.5 21t-50.5 39.5t-34.5 52t-12.5 58.5q0 34 14.5 64t39.5 53t57.5 36.5t69.5 13.5t70 -12t57.5 -32.5t39 -47.5t14.5 -57q0 -33 -13 -62.5
t-35.5 -53t-52.5 -39t-63 -18.5zM259 327v-1q-34 0 -64.5 -12.5t-54 -34.5t-37 -51t-13.5 -61q0 -34 15.5 -64.5t41.5 -53.5t61 -36.5t74 -13.5q38 0 72.5 13.5t60.5 36t41 52.5t15 64q0 29 -16 56.5t-43 49.5t-63 36.5t-76 17.5q-4 0 -7 0.5t-7 1.5z" />
    <glyph glyph-name="nine" unicode="9" horiz-adv-x="571" 
d="M55 -215v3q84 3 159 37t131.5 89.5t89.5 127t33 150.5q0 5 0.5 12.5t0.5 12.5q0 22 -2.5 43.5t-7.5 41.5q1 -46 -15 -87.5t-44.5 -72.5t-67.5 -49t-85 -18q-40 0 -75.5 17t-62.5 45.5t-43 66.5t-16 81q-2 45 14.5 85t47.5 70t72.5 47.5t89.5 17.5q44 0 83.5 -24.5
t69 -66.5t47 -97.5t17.5 -117.5q0 -81 -35 -154.5t-94.5 -130.5t-138.5 -91.5t-168 -37.5zM454 322q-11 38 -29.5 70.5t-42.5 56t-52 37t-58 13.5q-43 0 -80.5 -17t-65 -46.5t-42.5 -68t-13 -81.5q0 -42 14.5 -79t39 -65.5t57.5 -45t69 -16.5q46 0 85 19.5t67 52.5t42 77
t9 93z" />
    <glyph glyph-name="colon" unicode=":" horiz-adv-x="205" 
d="M125 352q-8 0 -14 6t-6 14t6 14t14 6t14 -6t6 -14t-6 -14t-14 -6zM125 -5q-8 0 -14 6t-6 14t6 14t14 6t14 -6t6 -14t-6 -14t-14 -6z" />
    <glyph glyph-name="semicolon" unicode=";" horiz-adv-x="150" 
d="M79 345q-8 0 -14 6t-6 14t6 14t14 6t14 -6t6 -14t-6 -14t-14 -6zM171 105q-17 17 -31 16.5t-24 -14.5q19 6 41 -16zM79 -5q-8 0 -13.5 5.5t-5.5 13.5t5.5 13.5t13.5 5.5q4 0 6 -1q3 63 31 75q-7 -11 -11 -29.5t-4 -43.5q0 -35 -10 -65t-24 -37l-2 4q7 3 12 20t7 40
q-2 -1 -5 -1z" />
    <glyph glyph-name="less" unicode="&#x3c;" horiz-adv-x="532" 
d="M457 500v-10l-409 -215l409 -215v-10l-415 219l-2 1v10l2 1z" />
    <glyph glyph-name="equal" unicode="=" horiz-adv-x="523" 
d="M73 204h380v-8h-380v8zM73 304h380v-8h-380v8z" />
    <glyph glyph-name="greater" unicode="&#x3e;" horiz-adv-x="530" 
d="M474 275l-399 215v10l405 -219l10 -6l-10 -6l-405 -219v10z" />
    <glyph glyph-name="question" unicode="?" horiz-adv-x="365" 
d="M142 -5q-8 0 -14 6t-6 14t6 14t14 6t14 -6t6 -14t-6 -14t-14 -6zM148 348l-5 -244h-2l-5 256q0 3 5 3h35q42 0 71 11t46.5 26t25 31.5t7.5 28.5q0 38 -15.5 72.5t-41.5 60.5t-60.5 41t-72.5 15q-12 0 -21.5 -8.5t-18.5 -19t-18 -19.5t-21 -9q-5 0 -8.5 0.5t-3.5 2.5
q0 28 25 48.5t59 20.5q41 0 77.5 -16.5t64 -45t43.5 -66t16 -79.5q0 -13 -7.5 -32t-24.5 -36.5t-45.5 -29.5t-70.5 -12h-34z" />
    <glyph glyph-name="at" unicode="@" horiz-adv-x="1121" 
d="M1046 0h7q-23 -50 -74 -94.5t-118.5 -78.5t-145 -53.5t-153.5 -19.5q-103 0 -195 40.5t-161.5 109.5t-110 161t-40.5 194t40.5 194t110 161t161.5 109.5t194 40.5t194 -34t161.5 -91.5t110 -134t40.5 -161.5q0 -70 -18 -133.5t-48 -111t-70 -75.5t-85 -28t-83 13
t-65.5 36t-42.5 53.5t-14 66.5q-12 -31 -30.5 -57.5t-41 -46.5t-47.5 -31.5t-49 -11.5q-34 0 -64.5 15t-53.5 40t-36.5 58.5t-13.5 70.5q0 59 21 111t56.5 92t83 63t100.5 23q23 0 44.5 -9.5t38 -26t27 -38.5t12.5 -47l28 111h19l-70 -280q-10 -40 -0.5 -76t35 -63t64 -43
t85.5 -16q41 0 77.5 27.5t64.5 74t44 108.5t16 131q0 84 -39.5 159.5t-106.5 132.5t-156 90.5t-188 33.5t-188 -40t-156 -108.5t-106.5 -159.5t-39.5 -192t39.5 -192t106.5 -159.5t156.5 -108.5t188.5 -40q75 0 152 19.5t143 52.5t116.5 76.5t72.5 92.5zM685 356
q0 26 -10 49.5t-26 41t-38 27.5t-46 10q-48 0 -91 -22.5t-76 -60.5t-52 -88.5t-19 -107.5q0 -36 12.5 -68t34 -56.5t50 -38.5t59.5 -14q24 0 49.5 14t48 37.5t39.5 54.5t26 66z" />
    <glyph glyph-name="A" unicode="A" horiz-adv-x="623" 
d="M586 13v-13h-48h-12h-12h-85v13h13q28 0 39.5 24.5t0.5 58.5l-45 136h-272l-39 -122q-13 -40 -1 -68.5t41 -28.5h13v-13h-89h-3h-4h-57v13h10q20 0 43.5 24.5t34.5 58.5v0l190 579h5l200 -591q13 -30 32.5 -50.5t36.5 -20.5h8zM435 238l-136 407l-132 -407h268z" />
    <glyph glyph-name="B" unicode="B" horiz-adv-x="553" 
d="M39 647v13h60h11h11h170q39 0 73.5 -12t60.5 -32.5t41.5 -48t15.5 -57.5t-14.5 -58t-39.5 -50.5t-58.5 -37.5t-71.5 -21q50 -6 93 -21.5t74.5 -38t50 -50.5t18.5 -59q0 -35 -17.5 -66.5t-47.5 -55.5t-69.5 -38t-83.5 -14h-195h-11h-11h-60v13h9q20 0 35.5 24.5t15.5 58.5
v468q0 34 -15.5 58.5t-35.5 24.5h-9zM283 344v0q36 4 68.5 19t56.5 37t38 50.5t14 59.5q0 29 -13.5 55.5t-37 46t-54 31t-64.5 11.5h-170v-309l124 1q10 0 19 -0.5t19 -1.5zM274 340v0h-17h-136v-334h193q40 0 75.5 13.5t62.5 36.5t43 53.5t16 64.5q0 32 -18.5 60t-51 50.5
t-75.5 37t-92 18.5z" />
    <glyph glyph-name="C" unicode="C" horiz-adv-x="726" 
d="M667 497h-11q-2 6 -5.5 15t-5.5 16q-8 22 -25.5 43t-41 38t-50.5 29t-54 16v1q-18 2 -35 3.5t-32 1.5q-63 0 -120 -26.5t-99.5 -71.5t-67.5 -105t-25 -127t25 -127t67.5 -105t99.5 -71.5t120 -26.5h15.5t15.5 1v1q33 2 66.5 14.5t62 31.5t49 43t29.5 49q2 7 5.5 16.5
t5.5 15.5h11v-105q-19 -15 -50 -28t-66.5 -22.5t-73 -15.5t-70.5 -6q-68 0 -129 27t-107 72.5t-73 106.5t-27 129t27 129t73 106.5t107 72.5t129 27q30 0 65.5 -5t71 -13.5t68 -19.5t55.5 -24v-106z" />
    <glyph glyph-name="D" unicode="D" horiz-adv-x="651" 
d="M60 647v13h60h11h11h131q67 0 126.5 -26.5t104.5 -71.5t71.5 -105t26.5 -127t-23 -127t-62 -105t-90.5 -71.5t-109.5 -26.5h-175h-11h-11h-60v13h9q20 0 35.5 24.5t15.5 58.5v468q0 34 -15.5 58.5t-35.5 24.5h-9zM142 6h175q53 0 101 26t84 70.5t57 103t21 124.5
t-24.5 124.5t-66.5 103t-98 70.5t-118 26h-131v-648z" />
    <glyph glyph-name="E" unicode="E" horiz-adv-x="508" 
d="M342 271h-10l-3 10q-3 12 -15 22.5t-29 19t-38 13t-43 4.5h-92v-335h132q24 0 49.5 7.5t48.5 20.5t41 29.5t28 35.5l8 17h9q-4 -23 -9.5 -56t-9.5 -56q-1 -1 -1 -3h-1h-95h-200h-10h-11h-61v13h9q21 0 36.5 24.5t15.5 58.5v468q0 34 -15.5 58.5t-36.5 24.5h-9v13h61h11
h10h192h93h3v-3v-112h-9l-6 17q-6 19 -21.5 36t-36 29.5t-44.5 20t-48 7.5h-123v-310h92q22 0 43 4t38 11.5t29 17t15 19.5l3 9h10v-61v-3v-2v-69z" />
    <glyph glyph-name="F" unicode="F" horiz-adv-x="447" 
d="M342 266h-10l-3 10q-3 12 -15 22.5t-29 19t-38 13t-43 4.5h-82v-239q1 -34 18.5 -58.5t41.5 -24.5h11v-13h-71h-10h-11h-61v13h9q21 0 36.5 24.5t15.5 58.5v468q0 34 -15.5 58.5t-36.5 24.5h-9v13h61h11h10h222h93h3v-3v-112h-9l-6 17q-6 19 -21.5 36t-36 29.5t-44.5 20
t-48 7.5h-153v-315h82q22 0 43 4t38 11.5t29 17t15 19.5l3 9q0 -2 9 0q0 -1 0.5 -1t0.5 1v-61v-3v-2v-69z" />
    <glyph glyph-name="G" unicode="G" horiz-adv-x="726" 
d="M713 310v-13h-10q-20 0 -35.5 -24.5t-15.5 -58.5v-155q-22 -13 -54 -24.5t-67.5 -20.5t-70.5 -14t-65 -5q-66 0 -124.5 27t-103 72.5t-70.5 106.5t-26 129t26 129t70.5 106.5t103 72.5t124.5 27q28 0 62 -5t68.5 -13.5t66.5 -19.5t55 -24v-106h-11q-2 6 -5.5 15t-5.5 16
q-8 22 -25.5 43.5t-41 38.5t-51 29t-54.5 16v0q-16 2 -30.5 3.5t-27.5 1.5q-61 0 -115.5 -26.5t-95.5 -71.5t-65 -105t-24 -127t24 -127t65 -105t95.5 -71.5t115.5 -26.5q27 0 58.5 4t63 11.5t61.5 17.5t54 22v159q0 34 -15 58.5t-36 24.5h-9v13h60h10h10h61z" />
    <glyph glyph-name="H" unicode="H" horiz-adv-x="730" 
d="M673 660v-13h-9q-21 0 -36.5 -24.5t-15.5 -58.5v-468q0 -34 15.5 -58.5t36.5 -24.5h9v-13h-61h-11h-10h-61v13h9q21 0 36.5 24.5t15.5 58.5v213h-488v-213q1 -34 16 -58.5t36 -24.5h9v-13h-61h-10h-11h-61v13h9q21 0 36.5 24.5t15.5 58.5v468q0 34 -15.5 58.5t-36.5 24.5
h-9v13h61h11h10h61v-13h-9q-21 0 -36 -24.5t-16 -58.5v-249h488v249q0 34 -15.5 58.5t-36.5 24.5h-9v13h61h10h11h61z" />
    <glyph glyph-name="I" unicode="I" horiz-adv-x="212" 
d="M172 660v-13h-9q-20 0 -35 -23t-16 -55v-5v-468v-5q1 -32 16 -55t35 -23h9v-13h-60h-11h-11h-61v13h9q21 0 36.5 24.5t15.5 58.5v468q0 34 -15.5 58.5t-36.5 24.5h-9v13h61h11h11h60z" />
    <glyph glyph-name="J" unicode="J" horiz-adv-x="316" 
d="M287 660v-13h-9q-21 0 -36.5 -24.5t-15.5 -58.5v-346q0 -112 -35.5 -170t-104.5 -58q-29 0 -54.5 18t-31.5 42q-2 9 9 9q8 0 10 -9q5 -23 27 -39.5t46 -16.5q55 0 84 52.5t29 153.5v364q0 34 -15.5 58.5t-36.5 24.5h-9v13h61h10h11h61z" />
    <glyph glyph-name="K" unicode="K" horiz-adv-x="611" 
d="M441 647v13h61h4h3h45v-13h-9q-10 0 -28 -6.5t-39.5 -18t-45 -26.5t-45.5 -32v0l-253 -199l185 -155q123 -103 193.5 -157t83.5 -54h5v-4h-12q-23 0 -96 51.5t-191 149.5l-185 156l-1 -1l-3 4v-259q0 -34 15 -58.5t36 -24.5h9q2 0 0 -7q2 -6 0 -6h-60h-11h-11h-60v13h9
q20 0 35.5 24.5t15.5 58.5v468q0 34 -15.5 58.5t-35.5 24.5h-9v13h60h11h11h60q2 0 0 -6q2 -7 0 -7h-9q-21 0 -36 -24.5t-15 -58.5v-209l17 14v0l250 195h-1q43 34 63.5 58.5t5.5 24.5h-7z" />
    <glyph glyph-name="L" unicode="L" horiz-adv-x="498" 
d="M404 127q3 -1 5 -2q6 -3 10 -4q-4 -24 -10 -59t-10 -59q-1 -1 -1 -3h-1h-95h-200h-10h-11h-61v13h9q21 0 36.5 24.5t15.5 58.5v468q0 34 -15.5 58.5t-36.5 24.5h-9v13h61h11h10h61v-13h-9q-21 0 -36 -24.5t-16 -58.5v-559h142q22 0 45.5 8.5t44.5 22.5t37.5 32.5
t25.5 39.5z" />
    <glyph glyph-name="M" unicode="M" horiz-adv-x="761" 
d="M723 660v-13h-9q-19 0 -32.5 -21.5t-14.5 -51.5l22 -491q5 -29 20.5 -49.5t34.5 -20.5h9v-13h-60h-11h-11h-60v13h9q20 0 33.5 23t13.5 55l-23 550l-251 -646h-5l255 665h8h2h10h60zM64 647v13h61h3h4h9l256 -635l1 -3l-10 -27l-6 14l-251 622l-20 -527q1 -38 21.5 -64.5
t49.5 -26.5h13v-13h-88h-4h-3h-60v13h9q20 0 35.5 21.5t18.5 52.5l18 477v0q2 34 -12.5 58.5t-35.5 24.5h-9z" />
    <glyph glyph-name="N" unicode="N" horiz-adv-x="640" 
d="M623 660v-13h-9q-21 0 -36.5 -24.5t-15.5 -58.5v-547v-21h-7l-9 13l-434 632v-545q0 -34 15.5 -58.5t36.5 -24.5h9v-13h-61h-3h-3h-61v13h9q21 0 36.5 24.5t15.5 58.5v468q0 34 -15.5 58.5t-36.5 24.5h-9v13h61h3h3h13l-13 -9v-1l13 10l431 -629v533q0 34 -15.5 58.5
t-36.5 24.5h-9v13h61h3h3h61z" />
    <glyph glyph-name="O" unicode="O" horiz-adv-x="759" 
d="M390 0q66 0 120 29t93 76t60.5 106t21.5 119t-21.5 119t-60.5 106t-93 76t-120 29t-120 -29t-93 -76t-60.5 -106t-21.5 -119t21.5 -119t60.5 -106t93 -76t120 -29zM71 330q0 61 23 121t65 107.5t101 77t130 29.5t130 -29.5t101 -77t65 -107.5t23 -121t-23 -121
t-65 -107.5t-101 -77t-130 -29.5t-130 29.5t-101 77t-65 107.5t-23 121z" />
    <glyph glyph-name="P" unicode="P" horiz-adv-x="507" 
d="M30 647v13h60h11h11h176q41 0 77 -15t63 -40.5t43 -59.5t16 -72q0 -37 -19 -70t-51 -58t-74.5 -39.5t-89.5 -14.5h-141v-195q0 -34 15 -58.5t36 -24.5h9q2 0 0 -7q2 -6 0 -6h-60h-11h-11h-60v13h9q20 0 35.5 24.5t15.5 58.5v468q0 34 -15.5 58.5t-35.5 24.5h-9zM112 297
h141q43 0 81.5 14t67.5 38t46 56t17 68q0 37 -14 70t-38.5 57.5t-56.5 39t-68 14.5h-176v-357z" />
    <glyph glyph-name="Q" unicode="Q" horiz-adv-x="759" 
d="M801 -50q-12 -15 -31.5 -28.5t-41 -23t-44.5 -15.5t-43 -6q-33 0 -68 9.5t-69 25.5t-64.5 37.5t-54.5 45.5q-70 1 -128 31t-99 77t-64 106.5t-23 120.5t23 121t65 107.5t101 77t130 29.5t130 -29.5t101 -77t65 -107.5t23 -121t-23 -120.5t-64.5 -107t-99.5 -77
t-129 -30.5q22 -21 50.5 -39.5t61.5 -33t68 -22.5t70 -8q21 0 44.5 4.5t44.5 13t38.5 19t27.5 22.5zM390 0q66 0 120 29t93 76t60.5 106t21.5 119t-21.5 119t-60.5 106t-93 76t-120 29t-120 -29t-93 -76t-60.5 -106t-21.5 -119t21.5 -119t60.5 -106t93 -76t120 -29z" />
    <glyph glyph-name="R" unicode="R" horiz-adv-x="615" 
d="M60 647v13h60h11h11h159q37 0 70.5 -14t58.5 -38t39.5 -55.5t14.5 -67.5q0 -34 -16 -64.5t-43.5 -54t-64 -38.5t-77.5 -18l205 -208q31 -32 50 -51t30 -29.5t16 -14t8 -3.5h5v-4h-12q-8 0 -16 3.5t-21.5 15t-35 32.5t-54.5 55l-200 204h-116v-214q0 -34 15 -58.5
t36 -24.5h9q2 0 0 -7q2 -6 0 -6h-60h-11h-11h-60v13h9q20 0 35.5 24.5t15.5 58.5v468q0 34 -15.5 58.5t-35.5 24.5h-9zM269 315q39 0 74 13.5t61 37t41.5 54.5t15.5 65t-13 64.5t-34.5 54t-50.5 37t-62 13.5h-159v-339h111h16z" />
    <glyph glyph-name="S" unicode="S" horiz-adv-x="480" 
d="M25 163h11q2 -6 5.5 -15.5t5.5 -15.5q8 -23 25.5 -45t40.5 -39.5t49.5 -29.5t52.5 -15v0q24 -3 47 -3q32 0 61 12t50.5 32.5t34 48t12.5 57.5q0 24 -15.5 49.5t-42 49t-62 43t-74.5 30.5q-38 11 -72.5 30t-60 42t-40.5 48.5t-15 48.5q0 35 14 66.5t38 55.5t55.5 38
t66.5 14q20 0 45.5 -4t52 -11.5t52 -16.5t44.5 -20v-107h-11q-3 9 -8 22t-8 23q-6 18 -18.5 35t-28 31t-33 24t-34.5 13v0q-30 6 -54 6q-32 0 -60.5 -13t-50.5 -35t-34.5 -51t-12.5 -61q0 -22 15 -45.5t41 -46t60.5 -41t73.5 -29.5t74 -31t61.5 -44.5t42 -51.5t15.5 -52
q0 -33 -14 -63t-38 -52.5t-55.5 -35.5t-66.5 -13q-31 0 -65.5 5t-67 13t-60 19.5t-44.5 23.5v107z" />
    <glyph glyph-name="T" unicode="T" horiz-adv-x="620" 
d="M596 533h-10l-9 23q-8 20 -23.5 38t-35 31.5t-40.5 21.5t-41 8h-116v-559q0 -34 15 -58.5t36 -24.5h9q2 0 0 -7q2 -6 0 -6h-60h-11h-11h-60v13h9q20 0 35.5 24.5t15.5 58.5v559h-116q-20 0 -41 -8t-40.5 -21.5t-35 -31.5t-23.5 -38l-9 -23h-10q2 26 5 62.5t5 61.5
q0 1 0.5 1.5t0.5 1.5h5h91h358h91h5q0 -1 0.5 -1.5t0.5 -1.5q2 -25 5 -61.5t5 -62.5z" />
    <glyph glyph-name="U" unicode="U" horiz-adv-x="691" 
d="M643 660v-13h-11q-23 0 -40.5 -27.5t-17.5 -65.5v-381q0 -36 -15 -68.5t-43.5 -56.5t-71 -38.5t-97.5 -14.5q-58 0 -102 17t-74 45.5t-45.5 66t-15.5 79.5v361q0 34 -15.5 58.5t-35.5 24.5h-9v13h60h11h11h60q2 0 0 -6q2 -7 0 -7h-9q-21 0 -36 -24.5t-15 -58.5v-365
q0 -40 14 -75.5t42 -62.5t68.5 -42.5t93.5 -15.5t93.5 14t68 37.5t41.5 55t14 66.5v378q0 38 -18 65.5t-44 27.5h-11v13h73h4h3h69z" />
    <glyph glyph-name="V" unicode="V" horiz-adv-x="626" 
d="M597 660v-13h-9q-20 0 -42 -22t-33 -54l-176 -586h-5l167 561q9 42 -5 71.5t-44 29.5h-14v13h97h4h3h57zM190 660v-13h-11q-27 0 -37.5 -24.5t2.5 -58.5v0l197 -548l-9 -31l-217 594q-14 29 -32.5 48.5t-33.5 19.5h-7v13h43h12h12h81z" />
    <glyph glyph-name="W" unicode="W" horiz-adv-x="907" 
d="M784 564v0q10 34 -4 58.5t-42 24.5h-12q-2 0 0 7q-2 6 0 6h85h3h3h57q2 0 0 -6q2 -7 0 -7h-9q-20 0 -41 -22t-32 -54l-163 -586h-5l-186 647l-168 -647h-5l-176 592q-11 29 -29 49.5t-33 20.5h-7v13h44h12h12h73v-13h-10q-24 0 -34.5 -24.5t-0.5 -58.5v0l158 -545
l168 651h6l186 -649l150 543v0z" />
    <glyph glyph-name="X" unicode="X" horiz-adv-x="620" 
d="M592 660v-13h-9q-10 0 -24 -6.5t-28.5 -18t-29 -26.5t-25.5 -32v0l-150 -224l169 -253q22 -31 47 -52.5t40 -21.5h6v-13h-36h-12h-12h-81v13h11q25 0 27 24.5t-21 58.5v0l-150 226l-125 -211v0q-23 -40 -20 -69t31 -29h12v-13h-89h-4h-4h-53v13h9q20 0 47.5 21t47.5 51
l145 242l-163 244q-22 32 -48 54t-40 22h-7v13h36h12h13h81v-13h-11q-25 0 -27 -24.5t21 -58.5v0l145 -219l149 225q18 32 13 54.5t-31 22.5h-12q2 0 0 7q2 6 0 6h89h5h4h52z" />
    <glyph glyph-name="Y" unicode="Y" horiz-adv-x="559" 
d="M369 13v-13h-61h-11h-11h-60v13h9q20 0 35.5 24.5t15.5 58.5v151l-160 322q-17 32 -40 55t-38 23h-6v13h38h13h13h73v-13h-10q-22 0 -27.5 -21.5t7.5 -52.5l155 -314l-2 -3h1l146 288v0q21 42 16 72.5t-34 30.5h-12v13h89h3h3h47v-13h-8q-9 0 -20.5 -6.5t-23.5 -18
t-23.5 -26.5t-20.5 -32v0l-157 -308v0v-160q0 -34 15.5 -58.5t36.5 -24.5h9z" />
    <glyph glyph-name="Z" unicode="Z" horiz-adv-x="587" 
d="M524 3v-3h-1h-96h-341h-12h-12l439 655h-217q-20 0 -42.5 -6.5t-43.5 -18t-39.5 -26.5t-29.5 -32l-10 -14h-10q5 20 13.5 49.5t13.5 49.5q0 2 1 3h5h91h271h13h12l-439 -654h280h4q22 0 44.5 8.5t42.5 22.5t36 32.5t25 39.5l8 18q2 -1 4 -1l8 -4h2l1 -1q-5 -24 -10.5 -59
t-10.5 -59z" />
    <glyph glyph-name="bracketleft" unicode="[" horiz-adv-x="213" 
d="M99 656v-772h105v-4h-105h-16v780h16h105v-4h-105z" />
    <glyph glyph-name="backslash" unicode="\" horiz-adv-x="203" 
d="M197 -145l-257 855h7l257 -855h-7z" />
    <glyph glyph-name="bracketright" unicode="]" horiz-adv-x="195" 
d="M110 656h-105v4h105h15v-780h-15h-105v4h105v772z" />
    <glyph glyph-name="underscore" unicode="_" horiz-adv-x="455" 
d="M5 -50h445v-11h-445v11z" />
    <glyph glyph-name="a" unicode="a" horiz-adv-x="469" 
d="M447 34l2 -3q-17 -17 -36 -29t-35 -12q-23 0 -34 18.5t-11 43.5v30q-17 -18 -40 -34t-48 -27.5t-50.5 -18.5t-48.5 -7q-22 0 -42.5 8.5t-35.5 22.5t-24 33.5t-9 40.5q0 23 13 44t34.5 38.5t50.5 29t61 14.5l139 12v129q0 27 -7.5 51t-21 42t-30.5 28.5t-37 10.5
q-25 0 -49.5 -6.5t-44.5 -18t-33.5 -26t-17.5 -31.5h-20q4 18 19.5 34t39 28t52 19t58.5 7q23 0 43.5 -11.5t36 -31t24.5 -45t9 -54.5v-309q0 -22 9 -38t29 -16q11 0 26 10t29 24zM333 233l-139 -14q-28 -3 -53.5 -13.5t-44.5 -26t-30 -34.5t-11 -39t8 -37.5t22 -31
t32 -21.5t39 -8q22 0 46.5 6t48 16.5t45 25t37.5 30.5v147z" />
    <glyph glyph-name="b" unicode="b" horiz-adv-x="568" 
d="M118 450v-337q0 -22 14 -42.5t38 -36t56 -24.5t68 -9q44 0 83 19t68 51.5t46.5 75t17.5 90.5q0 53 -18 100t-48 82t-70 56t-85 21q-16 0 -38 -3.5t-45.5 -10t-46 -15t-40.5 -17.5zM118 453q20 11 45 20t50.5 16.5t49 11.5t40.5 4q46 0 87.5 -21t72.5 -56t49 -82t18 -100
q0 -51 -19 -96.5t-51.5 -80t-75 -54.5t-90.5 -20q-25 0 -49.5 4t-47.5 8.5t-44 8.5t-40 4q-5 0 -8 -6t-5 -14h-2v593q0 52 -13 71.5t-48 26.5v7l77 22h4v-5v-116v-146z" />
    <glyph glyph-name="c" unicode="c" horiz-adv-x="454" 
d="M402 43q-10 -10 -29 -18.5t-43 -15t-51 -10.5t-53 -4q-36 0 -68 19.5t-56 53t-38 77.5t-14 93q0 54 19.5 102.5t52.5 85t76.5 58t92.5 21.5q21 0 40.5 -8t35 -22.5t25.5 -33t12 -39.5q0 -9 -9 -9q-8 0 -10 10q-1 20 -10 37t-22 30.5t-29.5 21t-34.5 7.5
q-44 0 -83.5 -20.5t-69.5 -55t-47.5 -80.5t-17.5 -97q0 -48 14 -91.5t37.5 -76.5t54.5 -52t66 -19q24 0 48.5 3t46 8.5t38 12.5t24.5 14z" />
    <glyph glyph-name="d" unicode="d" horiz-adv-x="571" 
d="M462 599v-472q0 -52 13 -71.5t48 -26.5v-7l-77 -22h-4v5v56q-12 -13 -34 -25t-49 -21t-56.5 -14.5t-58.5 -5.5q-42 0 -79 18.5t-65 50.5t-44.5 74.5t-16.5 89.5q0 56 17 106.5t46.5 88.5t68 60t81.5 22q29 0 58 -7.5t54.5 -19.5t46 -27.5t31.5 -32.5v175q0 52 -13 71.5
t-48 26.5v7l77 22h4v-5v-116zM442 121v287q-9 17 -28.5 33.5t-46 29.5t-56.5 21t-60 8q-39 0 -73.5 -21.5t-60.5 -57.5t-41.5 -84t-15.5 -101q0 -46 15.5 -88t42.5 -73t62.5 -49.5t74.5 -18.5q28 0 57 4.5t54.5 12.5t45.5 18t30 22v57z" />
    <glyph glyph-name="e" unicode="e" horiz-adv-x="461" 
d="M409 43q-10 -10 -29.5 -18.5t-44 -15t-52 -10.5t-54.5 -4q-36 0 -68.5 19.5t-57 53t-39 77.5t-14.5 93q0 54 16.5 102.5t44.5 85t65 58t78 21.5q32 0 60.5 -14.5t50 -39t34 -57.5t12.5 -70h-331q-9 -37 -9 -78q0 -48 14 -91.5t38 -76.5t55.5 -52t67.5 -19q25 0 50 3
t47 8.5t39 12.5t25 14zM81 328l311 3h-9q9 0 9 10q0 32 -11 60.5t-30 50.5t-44.5 34.5t-53.5 12.5q-29 0 -56 -13t-49.5 -36t-39.5 -54t-27 -68z" />
    <glyph glyph-name="f" unicode="f" horiz-adv-x="323" 
d="M203 13v-13h-60h-10h-10h-61v13h9q21 0 36.5 24.5t15.5 58.5v396h-92v8h92l1 37q1 37 12.5 70.5t30 58.5t42.5 39.5t51 14.5q28 0 49.5 -17.5t23.5 -42.5q0 -8 -9 -8q-10 0 -10 8q-2 23 -19.5 39.5t-40.5 16.5q-22 0 -42.5 -14.5t-35.5 -39.5t-24 -58.5t-9 -70.5v-33h135
v-8h-135v-396v-5q1 -32 16 -55t35 -23h9z" />
    <glyph glyph-name="g" unicode="g" horiz-adv-x="461" 
d="M462 500v-11l-125 -3q42 -20 68.5 -55.5t26.5 -78.5q0 -31 -14.5 -59t-38.5 -49t-56.5 -33t-68.5 -12h-55q-26 0 -49.5 -5.5t-41 -15t-28 -22t-10.5 -26.5q0 -16 10 -30.5t26.5 -24.5t38.5 -15t47 -4l73 3q36 0 68 -9.5t56.5 -25.5t38.5 -37.5t14 -45.5q0 -36 -21.5 -68
t-58 -56t-85 -38.5t-102.5 -14.5q-29 0 -55 11t-45.5 29.5t-31 43t-11.5 52.5q0 19 11 39t29.5 38.5t44 34t54.5 25.5q-48 3 -81 27t-33 58q0 16 11.5 30.5t31 25.5t45 17.5t54.5 6.5h21q-30 5 -56.5 19t-46 34t-30.5 45t-11 52q0 31 14.5 59t38.5 49t56.5 33t68.5 12
q34 0 65 -11v0zM95 352v0q0 -30 13 -57.5t34.5 -47.5t50.5 -32t61 -12t61 12t51 32t34.5 47.5t12.5 57.5q0 44 -25.5 80t-65.5 54h-3v1q-31 14 -65 14q-32 0 -61 -12t-50.5 -32.5t-34.5 -47.5t-13 -57zM178 37v0q-27 -9 -51.5 -24t-42.5 -33.5t-28.5 -38.5t-10.5 -39
q0 -27 10.5 -51t29 -42.5t42.5 -29t51 -10.5q50 0 95.5 13t79.5 35.5t54 51.5t20 62q0 22 -13.5 42t-36.5 35t-53 23.5t-64 8.5l-67 -3h-15z" />
    <glyph glyph-name="h" unicode="h" horiz-adv-x="584" 
d="M544 13v-13h-60h-10h-10h-61v13h9q21 0 36.5 24.5t15.5 58.5v237q0 32 -8.5 61t-25 51t-40.5 34.5t-55 12.5q-19 0 -45.5 -4.5t-55 -12.5t-57 -18t-51.5 -22v-339v-5q1 -32 16 -55t35 -23h9v-13h-60h-10h-10h-61v13h9q21 0 36.5 24.5t15.5 58.5v497q0 52 -13 71.5
t-48 26.5v7l77 22h4v-5v-116v-162q28 14 59.5 26.5t62 21.5t57.5 14.5t45 5.5q33 0 58 -13.5t42 -37t25.5 -54t8.5 -64.5v-240v-5q1 -32 16 -55t35 -23h9z" />
    <glyph glyph-name="i" unicode="i" horiz-adv-x="231" 
d="M186 13v-13h-60h-10h-10h-61v13h9q21 0 36.5 24.5t15.5 58.5v277q0 52 -13 71.5t-48 26.5v7l77 22h4v-5v-116v-283v-5q1 -32 16 -55t35 -23h9zM115 570q-8 0 -14 6t-6 14t6 14t14 6t14 -6t6 -14t-6 -14t-14 -6z" />
    <glyph glyph-name="j" unicode="j" horiz-adv-x="231" 
d="M115 570q-8 0 -14 6t-6 14t6 14t14 6t14 -6t6 -14t-6 -14t-14 -6zM106 387q-2 44 -15.5 60.5t-45.5 23.5v7l77 22h4v-5v-116v-361q0 -48 -7.5 -85t-23.5 -66.5t-40 -52.5t-56 -43l-2 3q27 17 47.5 38t34 49.5t20 65.5t6.5 85z" />
    <glyph glyph-name="k" unicode="k" horiz-adv-x="495" 
d="M522 13v-13h-47h-12h-13h-60v13h7q16 0 -0.5 24.5t-54.5 58.5v0l-197 177l-1 -1l-2 3v-179v-5q1 -32 16 -55t35 -23h9v-13h-60h-10h-10h-61v13h9q21 0 36.5 24.5t15.5 58.5v497q0 52 -13 71.5t-48 26.5v7l77 22h4v-5v-116v-324l15 12v0l148 117v0q44 34 64 58.5t4 24.5
h-6v13h60h5h4h45v-13h-9q-10 0 -27.5 -6.5t-38.5 -17t-44.5 -25t-44.5 -31.5l-157 -123l209 -188v0q19 -17 40 -32t40.5 -26.5t36.5 -18t27 -6.5h9z" />
    <glyph glyph-name="l" unicode="l" horiz-adv-x="231" 
d="M186 13v-13h-60h-10h-10h-61v13h9q21 0 36.5 24.5t15.5 58.5v497q0 52 -13 71.5t-48 26.5v7l77 22h4v-5v-116v-503v-5q1 -32 16 -55t35 -23h9z" />
    <glyph glyph-name="m" unicode="m" horiz-adv-x="962" 
d="M922 13v-13h-60h-10h-10h-61v13h9q20 0 35 22t17 53l-1 245q0 32 -11.5 61t-30.5 51t-44 34.5t-51 12.5q-14 0 -39 -6.5t-55.5 -18t-64 -26.5t-66.5 -32q15 -34 15 -73v-240v-5q1 -32 16 -55t35 -23h9v-13h-60h-10h-10h-61v13h9q21 0 36.5 24.5t15.5 58.5v237
q0 33 -11.5 62t-30 50.5t-42 34.5t-49.5 13q-22 0 -50 -4.5t-56.5 -12.5t-56.5 -18.5t-52 -22.5v-36v-20v-283v-5q1 -32 16 -55t35 -23h9v-13h-60h-10h-10h-61v13h9q21 0 36.5 24.5t15.5 58.5v277q0 26 -3 43.5t-10 28t-19 16.5t-29 10v7l77 22h4v-63q28 14 59.5 26.5
t62.5 21.5t59.5 14.5t49.5 5.5q37 0 70 -26t51 -67q37 19 74 36t69.5 29.5t58.5 20t39 7.5q27 0 53 -13.5t46 -37t32 -54t12 -64.5v-240v-5q1 -32 16 -55t35 -23h9z" />
    <glyph glyph-name="n" unicode="n" horiz-adv-x="584" 
d="M544 13v-13h-60h-10h-10h-61v13h9q21 0 36.5 24.5t15.5 58.5v237q0 32 -8.5 61t-25 51t-40.5 34.5t-55 12.5q-19 0 -45.5 -4.5t-55 -12.5t-57 -18t-51.5 -22v-36v-20v-283v-5q1 -32 16 -55t35 -23h9v-13h-60h-10h-10h-61v13h9q21 0 36.5 24.5t15.5 58.5v277q0 26 -3 43.5
t-10 28t-19 16.5t-29 10v7l77 22h4v-63q28 14 59.5 26.5t62 21.5t57.5 14.5t45 5.5q33 0 58 -13.5t42 -37t25.5 -54t8.5 -64.5v-240v-5q1 -32 16 -55t35 -23h9z" />
    <glyph glyph-name="o" unicode="o" horiz-adv-x="580" 
d="M290 -1q44 0 83.5 20t69.5 54.5t47.5 80t17.5 96.5t-17.5 96.5t-47.5 80t-69.5 54.5t-83.5 20t-83.5 -20t-69.5 -54.5t-47.5 -80t-17.5 -96.5t17.5 -96.5t47.5 -80t69.5 -54.5t83.5 -20zM50 250q0 52 19 98t52 81t76.5 55.5t92.5 20.5t92.5 -20.5t76.5 -55.5t52.5 -81
t19.5 -98t-19.5 -98t-52.5 -81t-76.5 -55.5t-92.5 -20.5t-92.5 20.5t-76.5 55.5t-52 81t-19 98z" />
    <glyph glyph-name="p" unicode="p" horiz-adv-x="611" 
d="M186 -217v-13h-60h-10h-10h-61v13h9q21 0 36.5 24.5t15.5 58.5v507q0 26 -3 43.5t-10 28t-19 16.5t-29 10v7l74 22h4l2 -82q17 18 42 33.5t54.5 27.5t60 19t58.5 7q44 0 83 -20.5t68.5 -55t47 -80.5t17.5 -97q0 -52 -19.5 -98.5t-53.5 -82t-79 -56t-95 -20.5
q-61 0 -111 26t-72 67v-222v-5q1 -32 16 -55t35 -23h9zM125 414l1 -15v0v-20v-239q0 -28 14.5 -53.5t39.5 -44.5t58.5 -30t70.5 -11q46 0 87.5 19t72.5 51t49.5 74.5t18.5 90.5q0 52 -17 98.5t-46.5 81.5t-68 55.5t-81.5 20.5q-26 0 -55 -6.5t-56 -17t-50 -24.5t-38 -30z
" />
    <glyph glyph-name="q" unicode="q" horiz-adv-x="600" 
d="M555 -217v-13h-60h-10h-10h-61v13h9q21 0 36.5 24.5t15.5 58.5v196q-13 -14 -35 -26t-49 -21t-57 -14.5t-59 -5.5q-41 0 -77.5 18.5t-64.5 50.5t-44 74.5t-16 89.5q0 56 18 106.5t48.5 88.5t71 60t85.5 22q26 0 50.5 -4t47.5 -8.5t44 -8.5t40 -4q5 0 9 6t6 14h2v-634
q0 -34 15 -58.5t36 -24.5h9zM475 66v322q0 23 -14.5 43t-39 35t-57 24t-68.5 9q-41 0 -77.5 -21t-64.5 -57t-44 -84t-16 -101q0 -46 15.5 -88t41.5 -73t61 -49.5t74 -18.5q29 0 58 4.5t55 13t46 19t30 22.5z" />
    <glyph glyph-name="r" unicode="r" horiz-adv-x="389" 
d="M186 13v-13h-60h-10h-10h-61v13h9q21 0 36.5 24.5t15.5 58.5v277q0 26 -3 43.5t-10 28t-19 16.5t-29 10v7l74 22h4l2 -80q15 17 35 32.5t42 27t44 18.5t40 7q46 0 70 -10.5t24 -24.5q0 -10 -10 -10q-11 0 -24 4.5t-26.5 10.5t-26 10.5t-23.5 4.5q-17 0 -37 -6t-39.5 -16
t-37.5 -23t-31 -28l1 -18v0v-20v-283v-5q1 -32 16 -55t35 -23h9z" />
    <glyph glyph-name="s" unicode="s" horiz-adv-x="423" 
d="M49 117h9q2 -5 4.5 -11t4.5 -11q7 -16 21.5 -32t32.5 -28.5t39 -21.5t42 -11v0q8 -1 16.5 -1.5t16.5 -0.5q25 0 47 9.5t38.5 26t26.5 38.5t10 46q0 15 -11 32.5t-29.5 34t-43 31.5t-51.5 25q-30 11 -57.5 28.5t-48 37t-32.5 39.5t-12 37q0 24 10.5 46t29 38.5t42.5 26
t51 9.5q12 0 30 -3.5t37.5 -10t39.5 -14.5t37 -17v-67h-10q-2 4 -3 9.5t-3 9.5q-9 27 -38.5 52t-61.5 33q-8 2 -15.5 3t-12.5 1q-24 0 -45 -8.5t-37 -23.5t-25.5 -35t-9.5 -42q0 -16 12 -35t32 -37.5t47 -35t57 -27.5q28 -10 53 -26t43.5 -33.5t29.5 -35.5t11 -34
q0 -27 -11 -51t-30 -42.5t-44.5 -29t-53.5 -10.5q-24 0 -51 4t-52.5 10.5t-47 15t-34.5 18.5v74z" />
    <glyph glyph-name="t" unicode="t" horiz-adv-x="350" 
d="M320 500v-8h-188v-386q0 -54 18 -78t58 -24q37 0 68.5 12.5t52.5 29.5l1 -1q-24 -20 -59 -35t-73 -15q-45 0 -65.5 27t-20.5 88v382h-87v2q35 2 61 10.5t30 18.5l13 117h3v-140h188z" />
    <glyph glyph-name="u" unicode="u" 
d="M514 29v-7l-76 -22h-4v5v58q-24 -28 -76.5 -48t-120.5 -20q-36 0 -65.5 13t-51 35t-33 51t-11.5 62v248q0 34 -15.5 58.5t-36.5 24.5h-9v13h61h10h10l-1 -341q0 -31 11.5 -58.5t32.5 -48t50 -32.5t64 -12q66 0 114 17.5t67 40.5v55v283q0 34 -15.5 58.5t-36.5 24.5h-9v13
h61h10h10v-373v-13q1 -45 14.5 -61.5t45.5 -23.5z" />
    <glyph glyph-name="v" unicode="v" horiz-adv-x="522" 
d="M476 500v-13h-9q-21 0 -45 -24.5t-36 -58.5h-1l-144 -414h-3l142 414v0q11 34 6 58.5t-25 24.5h-9v13h61h3h3h57zM10 487v13h56h11h12h60q2 0 0 -6q2 -7 0 -7h-8q-19 0 -25.5 -22.5t2.5 -54.5l128 -395l-8 -25l-140 414v0q-11 34 -35 58.5t-44 24.5h-9z" />
    <glyph glyph-name="w" unicode="w" horiz-adv-x="742" 
d="M692 500v-13h-11q-15 0 -32 -19t-37 -70l-142 -408h-3l133 387l-1 -1q11 32 13 53t-3 34t-15 18.5t-24 5.5h-13v13h85h6h44zM394 500v-13h-12q-23 0 -34.5 -16.5t-0.5 -59.5l128 -396l-8 -25l-107 317l-109 -317h-3l110 323v0l-26 77v0q-19 55 -35.5 76t-30.5 21h-11v13
h40h23h76zM169 500v-13h-12q-20 0 -30 -16.5t1 -58.5l128 -397l-8 -25l-135 400v0q-19 55 -37 76t-33 21h-11v13h44h23h70z" />
    <glyph glyph-name="x" unicode="x" horiz-adv-x="554" 
d="M478 500v-13h-9q-10 0 -24 -6.5t-29 -18t-29.5 -26.5t-25.5 -32v0l-88 -129l141 -179v0q13 -17 27.5 -32t28.5 -26.5t25.5 -18t18.5 -6.5h6v-13h-31h-12h-12h-61v13h8q17 0 10.5 24.5t-33.5 58.5h1l-128 163l-112 -171q-17 -31 -10 -53t36 -22h14v-13h-97h-4h-3h-61v13
h11q12 0 26.5 6.5t30 18t30.5 26.5t26 32v0l108 164h1l1 2l-111 142v0q-13 17 -28.5 32t-30 26.5t-27.5 18t-21 6.5h-7v13h39h12h12h73v-13h-10q-20 0 -18.5 -22t24.5 -54l105 -132l84 125v0q23 34 21.5 58.5t-26.5 24.5h-11v13h81h3h3h52z" />
    <glyph glyph-name="y" unicode="y" horiz-adv-x="532" 
d="M507 500v-13h-9q-21 0 -45 -24.5t-36 -58.5h-1l-144 -414l-22 -62q-27 -77 -57 -117.5t-61 -40.5q-22 0 -37.5 8.5t-15.5 19.5q0 9 10 9q7 0 14 -4t14 -8.5t14 -8t13 -3.5q25 0 50.5 37.5t50.5 109.5l23 63l-139 411v0q-11 34 -35 58.5t-44 24.5h-9v13h56h11h12h60
q2 0 0 -6q2 -7 0 -7h-8q-19 0 -25.5 -22.5t2.5 -54.5l128 -395l-7 -21v0l141 410v0q11 34 6 58.5t-25 24.5h-9v13h61h3h3h57z" />
    <glyph glyph-name="z" unicode="z" horiz-adv-x="483" 
d="M435 126l15 -6q-4 -24 -10 -59t-11 -59v-2h-1h-95h-244h-12h-12l343 496l-189 -1v0q-20 0 -42.5 -5t-43 -13.5t-37.5 -19.5t-27 -24l-9 -10h-10q5 15 10.5 37l9.5 38q1 0 1 2h5h91h244h11h12l-342 -496l183 1v0q22 0 45.5 8t44 22t37 33t25.5 40z" />
    <glyph glyph-name="braceleft" unicode="{" horiz-adv-x="235" 
d="M221 -120h-40q-24 0 -46 9.5t-38.5 26t-26.5 38.5t-10 46v203q0 26 -15 45.5t-35 19.5h-5v4h5q20 0 35 19.5t15 46.5v202q0 24 10 46t26.5 38.5t38.5 26t46 9.5h40v-3h-36q-22 0 -42 -9.5t-35 -25.5t-23.5 -37t-8.5 -45v-191q0 -16 -14.5 -30.5t-29.5 -25t-23 -17t5 -6.5
q26 0 44 -23t18 -55v-192q0 -24 8.5 -45t23.5 -37t35 -25.5t42 -9.5h36v-3z" />
    <glyph glyph-name="bar" unicode="|" horiz-adv-x="135" 
d="M60 770h16v-1004h-16v1004z" />
    <glyph glyph-name="braceright" unicode="}" horiz-adv-x="235" 
d="M5 660h40q24 0 46 -9.5t38.5 -26t26.5 -38.5t10 -46v-203q0 -26 15 -45.5t35 -19.5h5v-4h-5q-20 0 -35 -19.5t-15 -46.5v-202q0 -24 -10 -46t-26.5 -38.5t-38.5 -26t-46 -9.5h-40v3h36q22 0 42 9.5t35 25.5t23.5 37t8.5 45v191q0 16 14 30.5t28.5 25t22.5 17t-4 6.5
q-25 0 -43 23t-18 55v192q0 24 -8.5 45t-23.5 37t-35 25.5t-42 9.5h-36v3z" />
    <glyph glyph-name="[namenotfound]" unicode="&#xa0;" horiz-adv-x="220" 
 />
    <glyph glyph-name="exclamdown" unicode="&#xa1;" horiz-adv-x="153" 
d="M79 505q8 0 14 -6t6 -14t-6 -14t-14 -6t-14 6t-6 14t6 14t14 6zM60 -120l17 510h3l20 -510q1 -18 -5 -31.5t-15 -13.5t-15 13.5t-5 31.5z" />
    <glyph glyph-name="cent" unicode="&#xa2;" horiz-adv-x="454" 
d="M269 575h14v-70h8q21 0 40.5 -8t35 -22.5t25.5 -33t12 -39.5q0 -9 -9 -9q-8 0 -10 10q-1 20 -10 37t-22 30.5t-29.5 21t-34.5 7.5h-6v-490q38 4 71 14t46 22l2 -2q-15 -14 -48 -26t-71 -18v-74h-14v73q-21 -3 -43 -3q-36 0 -68 19.5t-56 53t-38 77.5t-14 93q0 51 17.5 97
t47 82t69.5 59t85 28v71zM269 8v490q-41 -4 -77 -26t-63 -56t-42.5 -78t-15.5 -92t14 -91.5t37.5 -76.5t54.5 -52t66 -19h13t13 1z" />
    <glyph glyph-name="guillemotleft" unicode="&#xab;" horiz-adv-x="455" 
d="M210 250l201 -211l-2 -3l-222 213v2l221 213l2 -3zM42 250l202 -211l-3 -3l-221 213v2l221 213l2 -3z" />
    <glyph glyph-name="guillemotright" unicode="&#xbb;" horiz-adv-x="455" 
d="M246 250l-200 211l2 3l221 -213v-2l-222 -213l-2 3zM413 250l-200 211l2 3l221 -213v-2l-222 -213l-2 3z" />
    <glyph glyph-name="questiondown" unicode="&#xbf;" horiz-adv-x="365" 
d="M224 505q8 0 13.5 -6t6.5 -14q-1 -8 -6.5 -14t-13.5 -6t-14.5 6t-5.5 14q-1 8 5.5 14t14.5 6zM229 140q0 -3 -4 -3h-35q-43 0 -71.5 -11t-46 -26t-25 -31.5t-7.5 -28.5q0 -38 15 -72.5t41 -60.5t60.5 -41t73.5 -15q12 0 21.5 8.5t18 19t17.5 19.5t21 9t12 -3
q0 -28 -24.5 -48.5t-59.5 -20.5q-40 0 -76.5 16.5t-64.5 45t-44 66t-16 79.5q0 14 7.5 32.5t24.5 36t45.5 29.5t70.5 12h35l4 244h3z" />
    <glyph glyph-name="Agrave" unicode="&#xc0;" horiz-adv-x="573" 
d="M566 13v-13h-48h-12h-12h-85v13h13q28 0 39.5 24.5t0.5 58.5l-45 136h-272l-39 -122q-13 -40 -1 -68.5t41 -28.5h13v-13h-89h-3h-4h-57v13h10q20 0 43.5 24.5t34.5 58.5v0l190 579h5l200 -591q13 -30 32.5 -50.5t36.5 -20.5h8zM261 831l102 -138l-2 -1l-110 131
q-19 22 -33 39t-13 19q-1 2 4 5t7 3t15 -17.5t30 -40.5zM415 238l-136 407l-132 -407h268z" />
    <glyph glyph-name="Aacute" unicode="&#xc1;" horiz-adv-x="573" 
d="M223 692l-2 1l99 138q17 23 30 40.5t14 17.5q2 0 6.5 -3t4.5 -5q0 -1 -13.5 -18t-31.5 -40zM566 13v-13h-48h-12h-12h-85v13h13q28 0 39.5 24.5t0.5 58.5l-45 136h-272l-39 -122q-13 -40 -1 -68.5t41 -28.5h13v-13h-89h-3h-4h-57v13h10q20 0 43.5 24.5t34.5 58.5v0
l190 579h5l200 -591q13 -30 32.5 -50.5t36.5 -20.5h8zM415 238l-136 407l-132 -407h268z" />
    <glyph glyph-name="Acircumflex" unicode="&#xc2;" horiz-adv-x="573" 
d="M566 13v-13h-48h-12h-12h-85v13h13q28 0 39.5 24.5t0.5 58.5l-45 136h-272l-39 -122q-13 -40 -1 -68.5t41 -28.5h13v-13h-89h-3h-4h-57v13h10q20 0 43.5 24.5t34.5 58.5v0l190 579h5l200 -591q13 -30 32.5 -50.5t36.5 -20.5h8zM286 882l-114 -188l-2 2l110 203q1 2 2.5 4
t3.5 2t4 -2t3 -4l110 -203l-3 -2zM415 238l-136 407l-132 -407h268z" />
    <glyph glyph-name="Atilde" unicode="&#xc3;" horiz-adv-x="573" 
d="M143 755h-3q0 35 16.5 60t39.5 25q21 0 44.5 -10t47.5 -21.5t47.5 -21.5t44.5 -10q20 0 34.5 18t14.5 42h4q0 -29 -17 -51t-40 -22q-21 0 -44.5 10t-48 21.5t-48 21.5t-44.5 10q-20 0 -34 -21.5t-14 -50.5zM566 13v-13h-48h-12h-12h-85v13h13q28 0 39.5 24.5t0.5 58.5
l-45 136h-272l-39 -122q-13 -40 -1 -68.5t41 -28.5h13v-13h-89h-3h-4h-57v13h10q20 0 43.5 24.5t34.5 58.5v0l190 579h5l200 -591q13 -30 32.5 -50.5t36.5 -20.5h8zM415 238l-136 407l-132 -407h268z" />
    <glyph glyph-name="Adieresis" unicode="&#xc4;" horiz-adv-x="573" 
d="M370 730q-8 0 -14 6t-6 14t6 14t14 6t14 -6t6 -14t-6 -14t-14 -6zM203 730q-8 0 -14 6t-6 14t6 14t14 6t14 -6t6 -14t-6 -14t-14 -6zM566 13v-13h-48h-12h-12h-85v13h13q28 0 39.5 24.5t0.5 58.5l-45 136h-272l-39 -122q-13 -40 -1 -68.5t41 -28.5h13v-13h-89h-3h-4h-57
v13h10q20 0 43.5 24.5t34.5 58.5v0l190 579h5l200 -591q13 -30 32.5 -50.5t36.5 -20.5h8zM415 238l-136 407l-132 -407h268z" />
    <glyph glyph-name="Aring" unicode="&#xc5;" horiz-adv-x="573" 
d="M286 699q16 0 32 7.5t28.5 20.5t20 29t7.5 32q0 18 -7 34t-19 28t-28 19t-34 7t-33.5 -7t-27.5 -19t-19 -28t-7 -34q0 -16 7.5 -32t20 -29t28 -20.5t31.5 -7.5zM193 788q0 18 7.5 35t20.5 29.5t29.5 20t35.5 7.5t36 -7.5t29.5 -20t20 -29.5t7.5 -35q0 -17 -8 -33.5
t-21.5 -30t-30 -21.5t-33.5 -8t-33.5 8t-30 21.5t-21.5 30t-8 33.5zM566 13v-13h-48h-12h-12h-85v13h13q28 0 39.5 24.5t0.5 58.5l-45 136h-272l-39 -122q-13 -40 -1 -68.5t41 -28.5h13v-13h-89h-3h-4h-57v13h10q20 0 43.5 24.5t34.5 58.5v0l190 579h5l200 -591
q13 -30 32.5 -50.5t36.5 -20.5h8zM415 238l-136 407l-132 -407h268z" />
    <glyph glyph-name="Ccedilla" unicode="&#xc7;" horiz-adv-x="726" 
d="M667 497h-11q-2 6 -5.5 15t-5.5 16q-8 22 -25.5 43t-41 38t-50.5 29t-54 16v1q-18 2 -35 3.5t-32 1.5q-63 0 -120 -26.5t-99.5 -71.5t-67.5 -105t-25 -127t25 -127t67.5 -105t99.5 -71.5t120 -26.5h15.5t15.5 1v1q33 2 66.5 14.5t62 31.5t49 43t29.5 49q2 7 5.5 16.5
t5.5 15.5h11v-105q-19 -15 -50 -28t-66.5 -22.5t-73 -15.5t-70.5 -6q-68 0 -129 27t-107 72.5t-73 106.5t-27 129t27 129t73 106.5t107 72.5t129 27q30 0 65.5 -5t71 -13.5t68 -19.5t55.5 -24v-106z" />
    <glyph glyph-name="Egrave" unicode="&#xc8;" horiz-adv-x="518" 
d="M352 271h-10l-3 10q-3 12 -15 22.5t-29 19t-38 13t-43 4.5h-92v-335h132q24 0 49.5 7.5t48.5 20.5t41 29.5t28 35.5l8 17h9q-4 -23 -9.5 -56t-9.5 -56q-1 -1 -1 -3h-1h-95h-200h-10h-11h-61v13h9q21 0 36.5 24.5t15.5 58.5v468q0 34 -15.5 58.5t-36.5 24.5h-9v13h61h11
h10h192h93h3v-3v-112h-9l-6 17q-6 19 -21.5 36t-36 29.5t-44.5 20t-48 7.5h-123v-310h92q22 0 43 4t38 11.5t29 17t15 19.5l3 9h10v-61v-3v-2v-69zM213 831l102 -138l-2 -1l-110 131q-19 22 -32.5 39t-13.5 19t4.5 5t6.5 3t15 -17.5t30 -40.5z" />
    <glyph glyph-name="Eacute" unicode="&#xc9;" horiz-adv-x="518" 
d="M221 692l-2 1l99 138q17 23 30 40.5t14 17.5q2 0 6.5 -3t4.5 -5q0 -1 -13 -18t-32 -40zM352 271h-10l-3 10q-3 12 -15 22.5t-29 19t-38 13t-43 4.5h-92v-335h132q24 0 49.5 7.5t48.5 20.5t41 29.5t28 35.5l8 17h9q-4 -23 -9.5 -56t-9.5 -56q-1 -1 -1 -3h-1h-95h-200h-10
h-11h-61v13h9q21 0 36.5 24.5t15.5 58.5v468q0 34 -15.5 58.5t-36.5 24.5h-9v13h61h11h10h192h93h3v-3v-112h-9l-6 17q-6 19 -21.5 36t-36 29.5t-44.5 20t-48 7.5h-123v-310h92q22 0 43 4t38 11.5t29 17t15 19.5l3 9h10v-61v-3v-2v-69z" />
    <glyph glyph-name="Ecircumflex" unicode="&#xca;" horiz-adv-x="518" 
d="M352 271h-10l-3 10q-3 12 -15 22.5t-29 19t-38 13t-43 4.5h-92v-335h132q24 0 49.5 7.5t48.5 20.5t41 29.5t28 35.5l8 17h9q-4 -23 -9.5 -56t-9.5 -56q-1 -1 -1 -3h-1h-95h-200h-10h-11h-61v13h9q21 0 36.5 24.5t15.5 58.5v468q0 34 -15.5 58.5t-36.5 24.5h-9v13h61h11
h10h192h93h3v-3v-112h-9l-6 17q-6 19 -21.5 36t-36 29.5t-44.5 20t-48 7.5h-123v-310h92q22 0 43 4t38 11.5t29 17t15 19.5l3 9h10v-61v-3v-2v-69zM254 883l-114 -189l-2 2l110 203q1 2 2.5 4t3.5 2t4 -2t2 -4l110 -203l-2 -2z" />
    <glyph glyph-name="Edieresis" unicode="&#xcb;" horiz-adv-x="518" 
d="M338 730q-8 0 -14 6t-6 14t6 14t14 6t14 -6t6 -14t-6 -14t-14 -6zM171 730q-8 0 -14 6t-6 14t6 14t14 6t14 -6t6 -14t-6 -14t-14 -6zM352 271h-10l-3 10q-3 12 -15 22.5t-29 19t-38 13t-43 4.5h-92v-335h132q24 0 49.5 7.5t48.5 20.5t41 29.5t28 35.5l8 17h9
q-4 -23 -9.5 -56t-9.5 -56q-1 -1 -1 -3h-1h-95h-200h-10h-11h-61v13h9q21 0 36.5 24.5t15.5 58.5v468q0 34 -15.5 58.5t-36.5 24.5h-9v13h61h11h10h192h93h3v-3v-112h-9l-6 17q-6 19 -21.5 36t-36 29.5t-44.5 20t-48 7.5h-123v-310h92q22 0 43 4t38 11.5t29 17t15 19.5l3 9
h10v-61v-3v-2v-69z" />
    <glyph glyph-name="Igrave" unicode="&#xcc;" horiz-adv-x="223" 
d="M183 660v-13h-9q-20 0 -35 -23t-16 -55v-5v-468v-5q1 -32 16 -55t35 -23h9v-13h-60h-11h-11h-61v13h9q21 0 36.5 24.5t15.5 58.5v468q0 34 -15.5 58.5t-36.5 24.5h-9v13h61h11h11h60zM87 831l102 -138l-3 -1l-110 131q-19 22 -32.5 39t-13.5 19t4.5 5t6.5 3t15.5 -17.5
t30.5 -40.5z" />
    <glyph glyph-name="Iacute" unicode="&#xcd;" horiz-adv-x="223" 
d="M48 692l-2 1l99 138q9 12 16.5 22.5t14.5 18.5q7 9 13 17q2 0 6.5 -3t5.5 -5q-1 -1 -14 -18t-32 -40zM183 660v-13h-9q-20 0 -35 -23t-16 -55v-5v-468v-5q1 -32 16 -55t35 -23h9v-13h-60h-11h-11h-61v13h9q21 0 36.5 24.5t15.5 58.5v468q0 34 -15.5 58.5t-36.5 24.5h-9
v13h61h11h11h60z" />
    <glyph glyph-name="Icircumflex" unicode="&#xce;" horiz-adv-x="223" 
d="M183 660v-13h-9q-20 0 -35 -23t-16 -55v-5v-468v-5q1 -32 16 -55t35 -23h9v-13h-60h-11h-11h-61v13h9q21 0 36.5 24.5t15.5 58.5v468q0 34 -15.5 58.5t-36.5 24.5h-9v13h61h11h11h60zM112 882l-114 -188l-2 2l109 203q1 2 3 4t4 2t3.5 -2t2.5 -4l110 -203l-2 -2z" />
    <glyph glyph-name="Idieresis" unicode="&#xcf;" horiz-adv-x="223" 
d="M195 730q-8 0 -14 6t-6 14t6 14t14 6t14 -6t6 -14t-6 -14t-14 -6zM28 730q-8 0 -14 6t-6 14t6 14t14 6t14 -6t6 -14t-6 -14t-14 -6zM183 660v-13h-9q-20 0 -35 -23t-16 -55v-5v-468v-5q1 -32 16 -55t35 -23h9v-13h-60h-11h-11h-61v13h9q21 0 36.5 24.5t15.5 58.5v468
q0 34 -15.5 58.5t-36.5 24.5h-9v13h61h11h11h60z" />
    <glyph glyph-name="Ntilde" unicode="&#xd1;" horiz-adv-x="660" 
d="M191 755h-3q0 35 16 60t39 25q21 0 44.5 -10t48 -21.5t48 -21.5t44.5 -10q20 0 34.5 18t14.5 42h4q0 -29 -17 -51t-40 -22q-21 0 -44.5 10t-48 21.5t-48 21.5t-44.5 10q-20 0 -34 -21.5t-14 -50.5zM623 660v-13h-9q-21 0 -36.5 -24.5t-15.5 -58.5v-547v-21h-7l-9 13
l-434 632v-545q0 -34 15.5 -58.5t36.5 -24.5h9v-13h-61h-3h-3h-61v13h9q21 0 36.5 24.5t15.5 58.5v468q0 34 -15.5 58.5t-36.5 24.5h-9v13h61h3h3h13l-13 -9v-1l13 10l431 -629v533q0 34 -15.5 58.5t-36.5 24.5h-9v13h61h3h3h61z" />
    <glyph glyph-name="Ograve" unicode="&#xd2;" horiz-adv-x="759" 
d="M390 0q66 0 120 29t93 76t60.5 106t21.5 119t-21.5 119t-60.5 106t-93 76t-120 29t-120 -29t-93 -76t-60.5 -106t-21.5 -119t21.5 -119t60.5 -106t93 -76t120 -29zM71 330q0 61 23 121t65 107.5t101 77t130 29.5t130 -29.5t101 -77t65 -107.5t23 -121t-23 -121
t-65 -107.5t-101 -77t-130 -29.5t-130 29.5t-101 77t-65 107.5t-23 121zM365 831l102 -138l-2 -1l-110 131q-19 22 -33 39t-14 19t5 5t7 3q1 0 14.5 -17.5t30.5 -40.5z" />
    <glyph glyph-name="Oacute" unicode="&#xd3;" horiz-adv-x="759" 
d="M365 692l-2 1l99 138q9 12 16.5 22.5t13.5 18.5l13 17q3 0 7.5 -3t4.5 -5q0 -1 -13.5 -18t-31.5 -40zM390 0q66 0 120 29t93 76t60.5 106t21.5 119t-21.5 119t-60.5 106t-93 76t-120 29t-120 -29t-93 -76t-60.5 -106t-21.5 -119t21.5 -119t60.5 -106t93 -76t120 -29z
M71 330q0 61 23 121t65 107.5t101 77t130 29.5t130 -29.5t101 -77t65 -107.5t23 -121t-23 -121t-65 -107.5t-101 -77t-130 -29.5t-130 29.5t-101 77t-65 107.5t-23 121z" />
    <glyph glyph-name="Ocircumflex" unicode="&#xd4;" horiz-adv-x="759" 
d="M390 0q66 0 120 29t93 76t60.5 106t21.5 119t-21.5 119t-60.5 106t-93 76t-120 29t-120 -29t-93 -76t-60.5 -106t-21.5 -119t21.5 -119t60.5 -106t93 -76t120 -29zM71 330q0 61 23 121t65 107.5t101 77t130 29.5t130 -29.5t101 -77t65 -107.5t23 -121t-23 -121
t-65 -107.5t-101 -77t-130 -29.5t-130 29.5t-101 77t-65 107.5t-23 121zM390 883l-114 -189l-2 2l110 203q1 2 2.5 4t3.5 2t3.5 -2t2.5 -4l110 -203l-2 -2z" />
    <glyph glyph-name="Otilde" unicode="&#xd5;" horiz-adv-x="759" 
d="M247 755h-3q0 35 16 60t39 25q21 0 44.5 -10t48 -21.5t48 -21.5t44.5 -10q20 0 34.5 18t14.5 42h4q0 -29 -17 -51t-40 -22q-21 0 -44.5 10t-48 21.5t-48 21.5t-44.5 10q-20 0 -34 -21.5t-14 -50.5zM390 0q66 0 120 29t93 76t60.5 106t21.5 119t-21.5 119t-60.5 106
t-93 76t-120 29t-120 -29t-93 -76t-60.5 -106t-21.5 -119t21.5 -119t60.5 -106t93 -76t120 -29zM71 330q0 61 23 121t65 107.5t101 77t130 29.5t130 -29.5t101 -77t65 -107.5t23 -121t-23 -121t-65 -107.5t-101 -77t-130 -29.5t-130 29.5t-101 77t-65 107.5t-23 121z" />
    <glyph glyph-name="Odieresis" unicode="&#xd6;" horiz-adv-x="759" 
d="M474 730q-8 0 -14 6t-6 14t6 14t14 6t14 -6t6 -14t-6 -14t-14 -6zM307 730q-8 0 -14 6t-6 14t6 14t14 6t14 -6t6 -14t-6 -14t-14 -6zM390 0q66 0 120 29t93 76t60.5 106t21.5 119t-21.5 119t-60.5 106t-93 76t-120 29t-120 -29t-93 -76t-60.5 -106t-21.5 -119t21.5 -119
t60.5 -106t93 -76t120 -29zM71 330q0 61 23 121t65 107.5t101 77t130 29.5t130 -29.5t101 -77t65 -107.5t23 -121t-23 -121t-65 -107.5t-101 -77t-130 -29.5t-130 29.5t-101 77t-65 107.5t-23 121z" />
    <glyph glyph-name="Oslash" unicode="&#xd8;" horiz-adv-x="759" 
d="M75 -8l-7 6l95 100q-44 48 -68 108.5t-24 123.5q0 61 23 121t65 107.5t101 77t130 29.5q68 0 123.5 -26t97.5 -70l94 99l8 -6l-95 -100q44 -48 67.5 -108.5t23.5 -123.5q0 -61 -23 -121t-65 -107.5t-101 -77t-130 -29.5q-68 0 -123.5 26t-97.5 70zM390 0v0q66 0 120 29
t93 76t60.5 106t21.5 119q0 59 -20.5 116.5t-57.5 103.5l-427 -448q38 -46 91.5 -74t118.5 -28zM174 109l427 449q-39 46 -92.5 74t-118.5 28q-66 0 -120 -29t-93 -76t-60.5 -106t-21.5 -119q0 -59 20.5 -116.5t58.5 -104.5z" />
    <glyph glyph-name="Ugrave" unicode="&#xd9;" horiz-adv-x="662" 
d="M643 660v-13h-11q-23 0 -40.5 -27.5t-17.5 -65.5v-381q0 -36 -15 -68.5t-43.5 -56.5t-71 -38.5t-97.5 -14.5q-58 0 -102 17t-74 45.5t-45.5 66t-15.5 79.5v361q0 34 -15.5 58.5t-35.5 24.5h-9v13h60h11h11h60q2 0 0 -6q2 -7 0 -7h-9q-21 0 -36 -24.5t-15 -58.5v-365
q0 -40 14 -75.5t42 -62.5t68.5 -42.5t93.5 -15.5t93.5 14t68 37.5t41.5 55t14 66.5v378q0 38 -18 65.5t-44 27.5h-11v13h73h4h3h69zM317 831l102 -138l-2 -1l-110 131q-19 22 -33 39t-14 19t5 5t7 3q1 0 14.5 -17.5t30.5 -40.5z" />
    <glyph glyph-name="Uacute" unicode="&#xda;" horiz-adv-x="662" 
d="M340 692l-3 1l99 138q17 23 30 40.5t14 17.5q2 0 7 -3t5 -5q0 -1 -13.5 -18t-31.5 -40zM643 660v-13h-11q-23 0 -40.5 -27.5t-17.5 -65.5v-381q0 -36 -15 -68.5t-43.5 -56.5t-71 -38.5t-97.5 -14.5q-58 0 -102 17t-74 45.5t-45.5 66t-15.5 79.5v361q0 34 -15.5 58.5
t-35.5 24.5h-9v13h60h11h11h60q2 0 0 -6q2 -7 0 -7h-9q-21 0 -36 -24.5t-15 -58.5v-365q0 -40 14 -75.5t42 -62.5t68.5 -42.5t93.5 -15.5t93.5 14t68 37.5t41.5 55t14 66.5v378q0 38 -18 65.5t-44 27.5h-11v13h73h4h3h69z" />
    <glyph glyph-name="Ucircumflex" unicode="&#xdb;" horiz-adv-x="662" 
d="M643 660v-13h-11q-23 0 -40.5 -27.5t-17.5 -65.5v-381q0 -36 -15 -68.5t-43.5 -56.5t-71 -38.5t-97.5 -14.5q-58 0 -102 17t-74 45.5t-45.5 66t-15.5 79.5v361q0 34 -15.5 58.5t-35.5 24.5h-9v13h60h11h11h60q2 0 0 -6q2 -7 0 -7h-9q-21 0 -36 -24.5t-15 -58.5v-365
q0 -40 14 -75.5t42 -62.5t68.5 -42.5t93.5 -15.5t93.5 14t68 37.5t41.5 55t14 66.5v378q0 38 -18 65.5t-44 27.5h-11v13h73h4h3h69zM342 883l-114 -189l-2 2l110 203q1 2 2.5 4t3.5 2t4 -2t2 -4l110 -203l-2 -2z" />
    <glyph glyph-name="Udieresis" unicode="&#xdc;" horiz-adv-x="662" 
d="M426 730q-8 0 -14 6t-6 14t6 14t14 6t14 -6t6 -14t-6 -14t-14 -6zM259 730q-8 0 -14 6t-6 14t6 14t14 6t14 -6t6 -14t-6 -14t-14 -6zM643 660v-13h-11q-23 0 -40.5 -27.5t-17.5 -65.5v-381q0 -36 -15 -68.5t-43.5 -56.5t-71 -38.5t-97.5 -14.5q-58 0 -102 17t-74 45.5
t-45.5 66t-15.5 79.5v361q0 34 -15.5 58.5t-35.5 24.5h-9v13h60h11h11h60q2 0 0 -6q2 -7 0 -7h-9q-21 0 -36 -24.5t-15 -58.5v-365q0 -40 14 -75.5t42 -62.5t68.5 -42.5t93.5 -15.5t93.5 14t68 37.5t41.5 55t14 66.5v378q0 38 -18 65.5t-44 27.5h-11v13h73h4h3h69z" />
    <glyph glyph-name="Yacute" unicode="&#xdd;" 
d="M285 692l-2 1l99 138q17 23 29.5 40.5t13.5 17.5q2 0 7 -3t5 -5q0 -1 -13.5 -18t-31.5 -40zM359 13v-13h-61h-11h-11h-60v13h9q20 0 35.5 24.5t15.5 58.5v151l-160 322q-17 32 -40 55t-38 23h-6v13h38h13h13h73v-13h-10q-22 0 -27.5 -21.5t7.5 -52.5l155 -314l-2 -3h1
l146 288v0q21 42 16 72.5t-34 30.5h-12v13h89h3h3h47v-13h-8q-9 0 -20.5 -6.5t-23.5 -18t-23.5 -26.5t-20.5 -32v0l-157 -308v0v-160q0 -34 15.5 -58.5t36.5 -24.5h9z" />
    <glyph glyph-name="agrave" unicode="&#xe0;" horiz-adv-x="565" 
d="M223 671l102 -138l-2 -1l-110 131q-19 22 -33 39t-14 19t5 5t7 3q1 0 14.5 -17.5t30.5 -40.5zM455 4l-16 -9h-3v5v121v1q-12 -26 -33 -49t-46.5 -40.5t-53.5 -27.5t-55 -10q-39 0 -74 18.5t-61.5 50.5t-42 74.5t-15.5 89.5q0 56 16 106.5t43.5 88.5t64 60t77.5 22
q28 0 56.5 -8t53 -21t43.5 -29.5t28 -33.5l13 87h6v-373q0 -52 13 -71.5t48 -26.5v-7zM436 128v275q-7 18 -25 35t-43 31t-54.5 22.5t-58.5 8.5q-36 0 -68.5 -21.5t-57 -57.5t-39 -84t-14.5 -101q0 -46 14.5 -88t39.5 -73t58.5 -49.5t70.5 -18.5q26 0 52.5 10t51 26.5
t44 38.5t29.5 46z" />
    <glyph glyph-name="aacute" unicode="&#xe1;" horiz-adv-x="469" 
d="M180 532l-2 1l99 138q17 23 30 40.5t14 17.5q2 0 6.5 -3t4.5 -5q0 -1 -13.5 -18t-31.5 -40zM447 34l2 -3q-17 -17 -36 -29t-35 -12q-23 0 -34 18.5t-11 43.5v30q-17 -18 -40 -34t-48 -27.5t-50.5 -18.5t-48.5 -7q-22 0 -42.5 8.5t-35.5 22.5t-24 33.5t-9 40.5q0 23 13 44
t34.5 38.5t50.5 29t61 14.5l139 12v129q0 27 -7.5 51t-21 42t-30.5 28.5t-37 10.5q-25 0 -49.5 -6.5t-44.5 -18t-33.5 -26t-17.5 -31.5h-20q4 18 19.5 34t39 28t52 19t58.5 7q23 0 43.5 -11.5t36 -31t24.5 -45t9 -54.5v-309q0 -22 9 -38t29 -16q11 0 26 10t29 24zM333 233
l-139 -14q-28 -3 -53.5 -13.5t-44.5 -26t-30 -34.5t-11 -39t8 -37.5t22 -31t32 -21.5t39 -8q22 0 46.5 6t48 16.5t45 25t37.5 30.5v147z" />
    <glyph glyph-name="acircumflex" unicode="&#xe2;" horiz-adv-x="565" 
d="M248 723l-114 -189l-2 2l110 203q1 2 2.5 4t3.5 2t3.5 -2t2.5 -4l110 -203l-2 -2zM455 4l-16 -9h-3v5v121v1q-12 -26 -33 -49t-46.5 -40.5t-53.5 -27.5t-55 -10q-39 0 -74 18.5t-61.5 50.5t-42 74.5t-15.5 89.5q0 56 16 106.5t43.5 88.5t64 60t77.5 22q28 0 56.5 -8
t53 -21t43.5 -29.5t28 -33.5l13 87h6v-373q0 -52 13 -71.5t48 -26.5v-7zM436 128v275q-7 18 -25 35t-43 31t-54.5 22.5t-58.5 8.5q-36 0 -68.5 -21.5t-57 -57.5t-39 -84t-14.5 -101q0 -46 14.5 -88t39.5 -73t58.5 -49.5t70.5 -18.5q26 0 52.5 10t51 26.5t44 38.5t29.5 46z
" />
    <glyph glyph-name="atilde" unicode="&#xe3;" horiz-adv-x="565" 
d="M105 595h-4q0 35 16.5 60t39.5 25q21 0 44.5 -10t48 -21.5t48 -21.5t44.5 -10q20 0 34.5 18t14.5 42h3q0 -29 -16.5 -51t-39.5 -22q-21 0 -44.5 10t-48 21.5t-48 21.5t-44.5 10q-20 0 -34 -21.5t-14 -50.5zM455 4l-16 -9h-3v5v121v1q-12 -26 -33 -49t-46.5 -40.5
t-53.5 -27.5t-55 -10q-39 0 -74 18.5t-61.5 50.5t-42 74.5t-15.5 89.5q0 56 16 106.5t43.5 88.5t64 60t77.5 22q28 0 56.5 -8t53 -21t43.5 -29.5t28 -33.5l13 87h6v-373q0 -52 13 -71.5t48 -26.5v-7zM436 128v275q-7 18 -25 35t-43 31t-54.5 22.5t-58.5 8.5
q-36 0 -68.5 -21.5t-57 -57.5t-39 -84t-14.5 -101q0 -46 14.5 -88t39.5 -73t58.5 -49.5t70.5 -18.5q26 0 52.5 10t51 26.5t44 38.5t29.5 46z" />
    <glyph glyph-name="adieresis" unicode="&#xe4;" horiz-adv-x="565" 
d="M332 570q-8 0 -14 6t-6 14t6 14t14 6t14 -6t6 -14t-6 -14t-14 -6zM164 570q-8 0 -14 6t-6 14t6 14t14 6t14 -6t6 -14t-6 -14t-14 -6zM455 4l-16 -9h-3v5v121v1q-12 -26 -33 -49t-46.5 -40.5t-53.5 -27.5t-55 -10q-39 0 -74 18.5t-61.5 50.5t-42 74.5t-15.5 89.5
q0 56 16 106.5t43.5 88.5t64 60t77.5 22q28 0 56.5 -8t53 -21t43.5 -29.5t28 -33.5l13 87h6v-373q0 -52 13 -71.5t48 -26.5v-7zM436 128v275q-7 18 -25 35t-43 31t-54.5 22.5t-58.5 8.5q-36 0 -68.5 -21.5t-57 -57.5t-39 -84t-14.5 -101q0 -46 14.5 -88t39.5 -73t58.5 -49.5
t70.5 -18.5q26 0 52.5 10t51 26.5t44 38.5t29.5 46z" />
    <glyph glyph-name="aring" unicode="&#xe5;" horiz-adv-x="565" 
d="M248 539q16 0 32 7.5t28.5 20.5t20 29t7.5 32q0 18 -7 34t-19 28t-28 19t-34 7t-34 -7t-28 -19t-19 -28t-7 -34q0 -16 7.5 -32t20 -29t28.5 -20.5t32 -7.5zM155 628q0 18 7.5 35t20.5 29.5t29.5 20t35.5 7.5t36 -7.5t29.5 -20t20 -29.5t7.5 -35q0 -17 -8 -33.5t-21.5 -30
t-30 -21.5t-33.5 -8t-33.5 8t-30 21.5t-21.5 30t-8 33.5zM455 4l-16 -9h-3v5v121v1q-12 -26 -33 -49t-46.5 -40.5t-53.5 -27.5t-55 -10q-39 0 -74 18.5t-61.5 50.5t-42 74.5t-15.5 89.5q0 56 16 106.5t43.5 88.5t64 60t77.5 22q28 0 56.5 -8t53 -21t43.5 -29.5t28 -33.5
l13 87h6v-373q0 -52 13 -71.5t48 -26.5v-7zM436 128v275q-7 18 -25 35t-43 31t-54.5 22.5t-58.5 8.5q-36 0 -68.5 -21.5t-57 -57.5t-39 -84t-14.5 -101q0 -46 14.5 -88t39.5 -73t58.5 -49.5t70.5 -18.5q26 0 52.5 10t51 26.5t44 38.5t29.5 46z" />
    <glyph glyph-name="ccedilla" unicode="&#xe7;" horiz-adv-x="454" 
d="M402 43q-10 -10 -29 -18.5t-43 -15t-51 -10.5t-53 -4q-36 0 -68 19.5t-56 53t-38 77.5t-14 93q0 54 19.5 102.5t52.5 85t76.5 58t92.5 21.5q21 0 40.5 -8t35 -22.5t25.5 -33t12 -39.5q0 -9 -9 -9q-8 0 -10 10q-1 20 -10 37t-22 30.5t-29.5 21t-34.5 7.5
q-44 0 -83.5 -20.5t-69.5 -55t-47.5 -80.5t-17.5 -97q0 -48 14 -91.5t37.5 -76.5t54.5 -52t66 -19q24 0 48.5 3t46 8.5t38 12.5t24.5 14z" />
    <glyph glyph-name="egrave" unicode="&#xe8;" horiz-adv-x="461" 
d="M409 43q-10 -10 -29.5 -18.5t-44 -15t-52 -10.5t-54.5 -4q-36 0 -68.5 19.5t-57 53t-39 77.5t-14.5 93q0 54 16.5 102.5t44.5 85t65 58t78 21.5q32 0 60.5 -14.5t50 -39t34 -57.5t12.5 -70h-331q-9 -37 -9 -78q0 -48 14 -91.5t38 -76.5t55.5 -52t67.5 -19q25 0 50 3
t47 8.5t39 12.5t25 14zM229 671l102 -138l-2 -1l-110 131q-19 22 -33 39t-13 19q-1 2 4 5t7 3t15 -17.5t30 -40.5zM81 328l311 3h-9q9 0 9 10q0 32 -11 60.5t-30 50.5t-44.5 34.5t-53.5 12.5q-29 0 -56 -13t-49.5 -36t-39.5 -54t-27 -68z" />
    <glyph glyph-name="eacute" unicode="&#xe9;" horiz-adv-x="461" 
d="M221 532l-2 1l99 138q17 23 30 40.5t14 17.5q2 0 6.5 -3t4.5 -5q1 -1 -12.5 -18t-32.5 -40zM409 43q-10 -10 -29.5 -18.5t-44 -15t-52 -10.5t-54.5 -4q-36 0 -68.5 19.5t-57 53t-39 77.5t-14.5 93q0 54 16.5 102.5t44.5 85t65 58t78 21.5q32 0 60.5 -14.5t50 -39
t34 -57.5t12.5 -70h-331q-9 -37 -9 -78q0 -48 14 -91.5t38 -76.5t55.5 -52t67.5 -19q25 0 50 3t47 8.5t39 12.5t25 14zM81 328l311 3h-9q9 0 9 10q0 32 -11 60.5t-30 50.5t-44.5 34.5t-53.5 12.5q-29 0 -56 -13t-49.5 -36t-39.5 -54t-27 -68z" />
    <glyph glyph-name="ecircumflex" unicode="&#xea;" horiz-adv-x="461" 
d="M409 43q-10 -10 -29.5 -18.5t-44 -15t-52 -10.5t-54.5 -4q-36 0 -68.5 19.5t-57 53t-39 77.5t-14.5 93q0 54 16.5 102.5t44.5 85t65 58t78 21.5q32 0 60.5 -14.5t50 -39t34 -57.5t12.5 -70h-331q-9 -37 -9 -78q0 -48 14 -91.5t38 -76.5t55.5 -52t67.5 -19q25 0 50 3
t47 8.5t39 12.5t25 14zM254 722l-114 -188l-2 2l110 203q1 2 2.5 4t3.5 2t4 -2t3 -4l109 -203l-2 -2zM81 328l311 3h-9q9 0 9 10q0 32 -11 60.5t-30 50.5t-44.5 34.5t-53.5 12.5q-29 0 -56 -13t-49.5 -36t-39.5 -54t-27 -68z" />
    <glyph glyph-name="edieresis" unicode="&#xeb;" horiz-adv-x="461" 
d="M338 570q-8 0 -14 6t-6 14t6 14t14 6t14 -6t6 -14t-6 -14t-14 -6zM171 570q-8 0 -14 6t-6 14t6 14t14 6t14 -6t6 -14t-6 -14t-14 -6zM409 43q-10 -10 -29.5 -18.5t-44 -15t-52 -10.5t-54.5 -4q-36 0 -68.5 19.5t-57 53t-39 77.5t-14.5 93q0 54 16.5 102.5t44.5 85t65 58
t78 21.5q32 0 60.5 -14.5t50 -39t34 -57.5t12.5 -70h-331q-9 -37 -9 -78q0 -48 14 -91.5t38 -76.5t55.5 -52t67.5 -19q25 0 50 3t47 8.5t39 12.5t25 14zM81 328l311 3h-9q9 0 9 10q0 32 -11 60.5t-30 50.5t-44.5 34.5t-53.5 12.5q-29 0 -56 -13t-49.5 -36t-39.5 -54t-27 -68
z" />
    <glyph glyph-name="igrave" unicode="&#xec;" horiz-adv-x="231" 
d="M126 0v404h-20v-6q0 32 -4.5 46.5t-10.5 16.5l-36 14v9l70 21h1v-101v-404q0 8 14 10.5t34 2.5h12v-13h-60zM106 398v-398h-61v13h12q20 0 34.5 -2.5t14.5 -10.5v398zM90 671l102 -138l-2 -1l-110 131q-19 22 -32.5 39t-13.5 19t4.5 5t6.5 3t15 -17.5t30 -40.5z" />
    <glyph glyph-name="iacute" unicode="&#xed;" horiz-adv-x="231" 
d="M37 532l-2 1l99 138q17 23 30 40.5t14 17.5q2 0 6.5 -3t4.5 -5q0 -1 -13.5 -18t-31.5 -40zM126 0v404h-20v-6q0 32 -4.5 46.5t-10.5 16.5l-36 14v9l70 21h1v-101v-404q0 8 14 10.5t34 2.5h12v-13h-60zM106 398v-398h-61v13h12q20 0 34.5 -2.5t14.5 -10.5v398z" />
    <glyph glyph-name="icircumflex" unicode="&#xee;" horiz-adv-x="231" 
d="M126 0v404h-20v-6q0 32 -4.5 46.5t-10.5 16.5l-36 14v9l70 21h1v-101v-404q0 8 14 10.5t34 2.5h12v-13h-60zM106 398v-398h-61v13h12q20 0 34.5 -2.5t14.5 -10.5v398zM116 736l6 3l110 -203l-2 -2l-114 188l-115 -188l-2 2l110 203zM109 733l7 -11zM122 739h-13q1 2 3 4
t4 2t3.5 -2t2.5 -4z" />
    <glyph glyph-name="idieresis" unicode="&#xef;" horiz-adv-x="231" 
d="M199 570q-8 0 -14 6t-6 14t6 14t14 6t14 -6t6 -14t-6 -14t-14 -6zM32 570q-8 0 -14 6t-6 14t6 14t14 6t14 -6t6 -14t-6 -14t-14 -6zM126 0v404h-20v-6q0 32 -4.5 46.5t-10.5 16.5l-36 14v9l70 21h1v-101v-404q0 8 14 10.5t34 2.5h12v-13h-60zM106 398v-398h-61v13h12
q20 0 34.5 -2.5t14.5 -10.5v398z" />
    <glyph glyph-name="ntilde" unicode="&#xf1;" horiz-adv-x="584" 
d="M151 595h-3q0 35 16.5 60t39.5 25q21 0 44.5 -10t48 -21.5t48 -21.5t44.5 -10q20 0 34.5 18t14.5 42h3q0 -29 -17 -51t-40 -22q-21 0 -44.5 10t-48 21.5t-48 21.5t-44.5 10q-20 0 -34 -21.5t-14 -50.5zM544 13v-13h-60h-10h-10h-61v13h9q21 0 36.5 24.5t15.5 58.5v237
q0 32 -8.5 61t-25 51t-40.5 34.5t-55 12.5q-19 0 -45.5 -4.5t-55 -12.5t-57 -18t-51.5 -22v-36v-20v-283v-5q1 -32 16 -55t35 -23h9v-13h-60h-10h-10h-61v13h9q21 0 36.5 24.5t15.5 58.5v277q0 26 -3 43.5t-10 28t-19 16.5t-29 10v7l77 22h4v-63q28 14 59.5 26.5t62 21.5
t57.5 14.5t45 5.5q33 0 58 -13.5t42 -37t25.5 -54t8.5 -64.5v-240v-5q1 -32 16 -55t35 -23h9z" />
    <glyph glyph-name="ograve" unicode="&#xf2;" horiz-adv-x="580" 
d="M290 -1q44 0 83.5 20t69.5 54.5t47.5 80t17.5 96.5t-17.5 96.5t-47.5 80t-69.5 54.5t-83.5 20t-83.5 -20t-69.5 -54.5t-47.5 -80t-17.5 -96.5t17.5 -96.5t47.5 -80t69.5 -54.5t83.5 -20zM50 250q0 52 19 98t52 81t76.5 55.5t92.5 20.5t92.5 -20.5t76.5 -55.5t52.5 -81
t19.5 -98t-19.5 -98t-52.5 -81t-76.5 -55.5t-92.5 -20.5t-92.5 20.5t-76.5 55.5t-52 81t-19 98zM265 671l102 -138l-2 -1l-110 131q-19 22 -33 39t-13 19q-1 2 4 5t7 3t15 -17.5t30 -40.5z" />
    <glyph glyph-name="oacute" unicode="&#xf3;" horiz-adv-x="580" 
d="M257 532l-2 1l99 138q17 23 30 40.5t14 17.5q2 0 6.5 -3t4.5 -5q1 -1 -12.5 -18t-32.5 -40zM290 -1q44 0 83.5 20t69.5 54.5t47.5 80t17.5 96.5t-17.5 96.5t-47.5 80t-69.5 54.5t-83.5 20t-83.5 -20t-69.5 -54.5t-47.5 -80t-17.5 -96.5t17.5 -96.5t47.5 -80t69.5 -54.5
t83.5 -20zM50 250q0 52 19 98t52 81t76.5 55.5t92.5 20.5t92.5 -20.5t76.5 -55.5t52.5 -81t19.5 -98t-19.5 -98t-52.5 -81t-76.5 -55.5t-92.5 -20.5t-92.5 20.5t-76.5 55.5t-52 81t-19 98z" />
    <glyph glyph-name="ocircumflex" unicode="&#xf4;" horiz-adv-x="580" 
d="M290 -1q44 0 83.5 20t69.5 54.5t47.5 80t17.5 96.5t-17.5 96.5t-47.5 80t-69.5 54.5t-83.5 20t-83.5 -20t-69.5 -54.5t-47.5 -80t-17.5 -96.5t17.5 -96.5t47.5 -80t69.5 -54.5t83.5 -20zM50 250q0 52 19 98t52 81t76.5 55.5t92.5 20.5t92.5 -20.5t76.5 -55.5t52.5 -81
t19.5 -98t-19.5 -98t-52.5 -81t-76.5 -55.5t-92.5 -20.5t-92.5 20.5t-76.5 55.5t-52 81t-19 98zM290 722l-114 -188l-2 2l110 203q1 2 2.5 4t3.5 2t4 -2t3 -4l110 -203l-3 -2z" />
    <glyph glyph-name="otilde" unicode="&#xf5;" horiz-adv-x="580" 
d="M147 595h-3q0 35 16.5 60t39.5 25q21 0 44.5 -10t47.5 -21.5t47.5 -21.5t44.5 -10q20 0 34.5 18t14.5 42h4q0 -29 -17 -51t-40 -22q-21 0 -44.5 10t-48 21.5t-48 21.5t-44.5 10q-20 0 -34 -21.5t-14 -50.5zM290 -1q44 0 83.5 20t69.5 54.5t47.5 80t17.5 96.5t-17.5 96.5
t-47.5 80t-69.5 54.5t-83.5 20t-83.5 -20t-69.5 -54.5t-47.5 -80t-17.5 -96.5t17.5 -96.5t47.5 -80t69.5 -54.5t83.5 -20zM50 250q0 52 19 98t52 81t76.5 55.5t92.5 20.5t92.5 -20.5t76.5 -55.5t52.5 -81t19.5 -98t-19.5 -98t-52.5 -81t-76.5 -55.5t-92.5 -20.5t-92.5 20.5
t-76.5 55.5t-52 81t-19 98z" />
    <glyph glyph-name="odieresis" unicode="&#xf6;" horiz-adv-x="580" 
d="M374 570q-8 0 -14 6t-6 14t6 14t14 6t14 -6t6 -14t-6 -14t-14 -6zM207 570q-8 0 -14 6t-6 14t6 14t14 6t14 -6t6 -14t-6 -14t-14 -6zM290 -1q44 0 83.5 20t69.5 54.5t47.5 80t17.5 96.5t-17.5 96.5t-47.5 80t-69.5 54.5t-83.5 20t-83.5 -20t-69.5 -54.5t-47.5 -80
t-17.5 -96.5t17.5 -96.5t47.5 -80t69.5 -54.5t83.5 -20zM50 250q0 52 19 98t52 81t76.5 55.5t92.5 20.5t92.5 -20.5t76.5 -55.5t52.5 -81t19.5 -98t-19.5 -98t-52.5 -81t-76.5 -55.5t-92.5 -20.5t-92.5 20.5t-76.5 55.5t-52 81t-19 98z" />
    <glyph glyph-name="oslash" unicode="&#xf8;" horiz-adv-x="580" 
d="M52 -7l-4 4l71 76q-32 35 -50.5 80.5t-18.5 96.5q0 52 19 98t52 81t76.5 55.5t92.5 20.5q48 0 91 -19.5t76 -53.5l71 75l5 -4l-72 -76q32 -35 51 -80.5t19 -96.5q0 -52 -19.5 -98t-52.5 -81t-76.5 -55.5t-92.5 -20.5q-48 0 -91 19.5t-76 54.5zM290 -1v0q44 0 83.5 20
t69.5 54.5t47.5 80t17.5 96.5q0 48 -15.5 90.5t-41.5 76.5l-318 -339q30 -36 70.5 -57.5t86.5 -21.5zM129 83l319 338q-31 37 -71.5 58.5t-86.5 21.5q-44 0 -83.5 -20t-69.5 -54.5t-47.5 -80t-17.5 -96.5q0 -48 15.5 -90.5t41.5 -76.5z" />
    <glyph glyph-name="ugrave" unicode="&#xf9;" 
d="M514 29v-7l-76 -22h-4v5v58q-24 -28 -76.5 -48t-120.5 -20q-36 0 -65.5 13t-51 35t-33 51t-11.5 62v248q0 34 -15.5 58.5t-36.5 24.5h-9v13h61h10h10l-1 -341q0 -31 11.5 -58.5t32.5 -48t50 -32.5t64 -12q66 0 114 17.5t67 40.5v55v283q0 34 -15.5 58.5t-36.5 24.5h-9v13
h61h10h10v-373v-13q1 -45 14.5 -61.5t45.5 -23.5zM239 671l102 -138l-2 -1l-110 131q-19 22 -32.5 39t-13.5 19t4.5 5t6.5 3t15 -17.5t30 -40.5z" />
    <glyph glyph-name="uacute" unicode="&#xfa;" 
d="M232 532l-3 1l99 138q9 12 17 22.5t14 18.5q7 9 13 17q2 0 7 -3t5 -5q0 -1 -13.5 -18t-31.5 -40zM514 29v-7l-76 -22h-4v5v58q-24 -28 -76.5 -48t-120.5 -20q-36 0 -65.5 13t-51 35t-33 51t-11.5 62v248q0 34 -15.5 58.5t-36.5 24.5h-9v13h61h10h10l-1 -341
q0 -31 11.5 -58.5t32.5 -48t50 -32.5t64 -12q66 0 114 17.5t67 40.5v55v283q0 34 -15.5 58.5t-36.5 24.5h-9v13h61h10h10v-373v-13q1 -45 14.5 -61.5t45.5 -23.5z" />
    <glyph glyph-name="ucircumflex" unicode="&#xfb;" 
d="M514 29v-7l-76 -22h-4v5v58q-24 -28 -76.5 -48t-120.5 -20q-36 0 -65.5 13t-51 35t-33 51t-11.5 62v248q0 34 -15.5 58.5t-36.5 24.5h-9v13h61h10h10l-1 -341q0 -31 11.5 -58.5t32.5 -48t50 -32.5t64 -12q66 0 114 17.5t67 40.5v55v283q0 34 -15.5 58.5t-36.5 24.5h-9v13
h61h10h10v-373v-13q1 -45 14.5 -61.5t45.5 -23.5zM265 722l-115 -188l-2 2l110 203q1 2 3 4t4 2t3.5 -2t2.5 -4l110 -203l-2 -2z" />
    <glyph glyph-name="udieresis" unicode="&#xfc;" 
d="M348 570q-8 0 -14 6t-6 14t6 14t14 6t14 -6t6 -14t-6 -14t-14 -6zM181 570q-8 0 -14 6t-6 14t6 14t14 6t14 -6t6 -14t-6 -14t-14 -6zM514 29v-7l-76 -22h-4v5v58q-24 -28 -76.5 -48t-120.5 -20q-36 0 -65.5 13t-51 35t-33 51t-11.5 62v248q0 34 -15.5 58.5t-36.5 24.5h-9
v13h61h10h10l-1 -341q0 -31 11.5 -58.5t32.5 -48t50 -32.5t64 -12q66 0 114 17.5t67 40.5v55v283q0 34 -15.5 58.5t-36.5 24.5h-9v13h61h10h10v-373v-13q1 -45 14.5 -61.5t45.5 -23.5z" />
    <glyph glyph-name="ydieresis" unicode="&#xff;" horiz-adv-x="418" 
d="M326 570q-8 0 -14 6t-6 14t6 14t14 6t14 -6t6 -14t-6 -14t-14 -6zM159 570q-8 0 -14 6t-6 14t6 14t14 6t14 -6t6 -14t-6 -14t-14 -6zM476 500v-13h-9q-21 0 -45 -24.5t-36 -58.5h-1l-144 -414l-22 -62q-27 -77 -57 -117.5t-61 -40.5q-22 0 -37.5 8.5t-15.5 19.5q0 9 10 9
q7 0 14 -4t14 -8.5t14 -8t13 -3.5q25 0 50.5 37.5t50.5 109.5l23 63l-139 411v0q-11 34 -35 58.5t-44 24.5h-9v13h56h11h12h60q2 0 0 -6q2 -7 0 -7h-8q-19 0 -25.5 -22.5t2.5 -54.5l128 -395l-7 -21v0l141 410v0q11 34 6 58.5t-25 24.5h-9v13h61h3h3h57z" />
    <glyph glyph-name="Amacron" unicode="&#x100;" horiz-adv-x="573" 
d="M136 774v11h300v-11h-300zM566 13v-13h-48h-12h-12h-85v13h13q28 0 39.5 24.5t0.5 58.5l-45 136h-272l-39 -122q-13 -40 -1 -68.5t41 -28.5h13v-13h-89h-3h-4h-57v13h10q20 0 43.5 24.5t34.5 58.5v0l190 579h5l200 -591q13 -30 32.5 -50.5t36.5 -20.5h8zM415 238
l-136 407l-132 -407h268z" />
    <glyph glyph-name="amacron" unicode="&#x101;" horiz-adv-x="565" 
d="M98 614v11h300v-11h-300zM455 4l-16 -9h-3v5v121v1q-12 -26 -33 -49t-46.5 -40.5t-53.5 -27.5t-55 -10q-39 0 -74 18.5t-61.5 50.5t-42 74.5t-15.5 89.5q0 56 16 106.5t43.5 88.5t64 60t77.5 22q28 0 56.5 -8t53 -21t43.5 -29.5t28 -33.5l13 87h6v-373q0 -52 13 -71.5
t48 -26.5v-7zM436 128v275q-7 18 -25 35t-43 31t-54.5 22.5t-58.5 8.5q-36 0 -68.5 -21.5t-57 -57.5t-39 -84t-14.5 -101q0 -46 14.5 -88t39.5 -73t58.5 -49.5t70.5 -18.5q26 0 52.5 10t51 26.5t44 38.5t29.5 46z" />
    <glyph glyph-name="Abreve" unicode="&#x102;" horiz-adv-x="573" 
d="M179 872h4q1 -15 9.5 -29t23 -24.5t32.5 -16.5t38 -6t38.5 6t32.5 16.5t23 24.5t10 29h4q-1 -18 -10.5 -34t-24.5 -28.5t-33.5 -19.5t-39.5 -7q-20 0 -39 7t-33.5 19.5t-24 28.5t-10.5 34zM566 13v-13h-48h-12h-12h-85v13h13q28 0 39.5 24.5t0.5 58.5l-45 136h-272
l-39 -122q-13 -40 -1 -68.5t41 -28.5h13v-13h-89h-3h-4h-57v13h10q20 0 43.5 24.5t34.5 58.5v0l190 579h5l200 -591q13 -30 32.5 -50.5t36.5 -20.5h8zM415 238l-136 407l-132 -407h268z" />
    <glyph glyph-name="abreve" unicode="&#x103;" horiz-adv-x="565" 
d="M141 682h3q1 -15 10 -29t23.5 -24.5t32.5 -16.5t38 -6t38.5 6t32.5 16.5t23 24.5t10 29h3q-1 -18 -10 -34t-24 -28.5t-33.5 -19.5t-39.5 -7t-39.5 7t-33.5 19.5t-24 28.5t-10 34zM455 4l-16 -9h-3v5v121v1q-12 -26 -33 -49t-46.5 -40.5t-53.5 -27.5t-55 -10
q-39 0 -74 18.5t-61.5 50.5t-42 74.5t-15.5 89.5q0 56 16 106.5t43.5 88.5t64 60t77.5 22q28 0 56.5 -8t53 -21t43.5 -29.5t28 -33.5l13 87h6v-373q0 -52 13 -71.5t48 -26.5v-7zM436 128v275q-7 18 -25 35t-43 31t-54.5 22.5t-58.5 8.5q-36 0 -68.5 -21.5t-57 -57.5t-39 -84
t-14.5 -101q0 -46 14.5 -88t39.5 -73t58.5 -49.5t70.5 -18.5q26 0 52.5 10t51 26.5t44 38.5t29.5 46z" />
    <glyph glyph-name="Aogonek" unicode="&#x104;" horiz-adv-x="573" 
d="M566 13v-13h-48h-12h-12q-12 -5 -31.5 -21.5t-38.5 -39t-33 -48.5t-14 -49q0 -28 23.5 -48t55.5 -20q21 0 42.5 7.5t29.5 18.5l2 -2q-11 -12 -33.5 -20.5t-44.5 -8.5q-35 0 -61 21t-26 50q0 22 13 46.5t32 47t39.5 40.5t35.5 26h-76v13h13q28 0 39.5 24.5t0.5 58.5
l-45 136h-272l-39 -122q-13 -40 -1 -68.5t41 -28.5h13v-13h-89h-3h-4h-57v13h10q20 0 43.5 24.5t34.5 58.5v0l190 579h5l200 -591q13 -30 32.5 -50.5t36.5 -20.5h8zM415 238l-136 407l-132 -407h268z" />
    <glyph glyph-name="aogonek" unicode="&#x105;" horiz-adv-x="469" 
d="M479 28q-12 -4 -31.5 -21t-38.5 -41t-33 -52t-14 -53q0 -35 23.5 -61t55.5 -26q21 0 42.5 7.5t29.5 18.5l2 -2q-11 -12 -33.5 -20.5t-44.5 -8.5q-18 0 -33.5 7.5t-27.5 19.5t-19 28.5t-7 34.5q0 26 15 54.5t36 53.5t43 43t35 23v-5zM447 34l2 -3q-17 -17 -36 -29t-35 -12
q-23 0 -34 18.5t-11 43.5v30q-17 -18 -40 -34t-48 -27.5t-50.5 -18.5t-48.5 -7q-22 0 -42.5 8.5t-35.5 22.5t-24 33.5t-9 40.5q0 23 13 44t34.5 38.5t50.5 29t61 14.5l139 12v129q0 27 -7.5 51t-21 42t-30.5 28.5t-37 10.5q-25 0 -49.5 -6.5t-44.5 -18t-33.5 -26
t-17.5 -31.5h-20q4 18 19.5 34t39 28t52 19t58.5 7q23 0 43.5 -11.5t36 -31t24.5 -45t9 -54.5v-309q0 -22 9 -38t29 -16q11 0 26 10t29 24zM333 233l-139 -14q-28 -3 -53.5 -13.5t-44.5 -26t-30 -34.5t-11 -39t8 -37.5t22 -31t32 -21.5t39 -8q22 0 46.5 6t48 16.5t45 25
t37.5 30.5v147z" />
    <glyph glyph-name="Cacute" unicode="&#x106;" horiz-adv-x="726" 
d="M359 692l-3 1l99 138q9 12 17 22.5t14 18.5q7 9 13 17q2 0 7 -3t5 -5q-1 -1 -14 -18t-31 -40zM667 497h-11q-2 6 -5.5 15t-5.5 16q-8 22 -25.5 43t-41 38t-50.5 29t-54 16v1q-18 2 -35 3.5t-32 1.5q-63 0 -120 -26.5t-99.5 -71.5t-67.5 -105t-25 -127t25 -127t67.5 -105
t99.5 -71.5t120 -26.5h15.5t15.5 1v1q33 2 66.5 14.5t62 31.5t49 43t29.5 49q2 7 5.5 16.5t5.5 15.5h11v-105q-19 -15 -50 -28t-66.5 -22.5t-73 -15.5t-70.5 -6q-68 0 -129 27t-107 72.5t-73 106.5t-27 129t27 129t73 106.5t107 72.5t129 27q30 0 65.5 -5t71 -13.5t68 -19.5
t55.5 -24v-106z" />
    <glyph glyph-name="cacute" unicode="&#x107;" horiz-adv-x="454" 
d="M213 532l-3 1l99 138q17 23 30 40.5t14 17.5q2 0 7 -3t5 -5q0 -1 -13.5 -18t-31.5 -40zM402 43q-10 -10 -29 -18.5t-43 -15t-51 -10.5t-53 -4q-36 0 -68 19.5t-56 53t-38 77.5t-14 93q0 54 19.5 102.5t52.5 85t76.5 58t92.5 21.5q21 0 40.5 -8t35 -22.5t25.5 -33
t12 -39.5q0 -9 -9 -9q-8 0 -10 10q-1 20 -10 37t-22 30.5t-29.5 21t-34.5 7.5q-44 0 -83.5 -20.5t-69.5 -55t-47.5 -80.5t-17.5 -97q0 -48 14 -91.5t37.5 -76.5t54.5 -52t66 -19q24 0 48.5 3t46 8.5t38 12.5t24.5 14z" />
    <glyph glyph-name="Ccircumflex" unicode="&#x108;" horiz-adv-x="726" 
d="M667 497h-11q-2 6 -5.5 15t-5.5 16q-8 22 -25.5 43t-41 38t-50.5 29t-54 16v1q-18 2 -35 3.5t-32 1.5q-63 0 -120 -26.5t-99.5 -71.5t-67.5 -105t-25 -127t25 -127t67.5 -105t99.5 -71.5t120 -26.5h15.5t15.5 1v1q33 2 66.5 14.5t62 31.5t49 43t29.5 49q2 7 5.5 16.5
t5.5 15.5h11v-105q-19 -15 -50 -28t-66.5 -22.5t-73 -15.5t-70.5 -6q-68 0 -129 27t-107 72.5t-73 106.5t-27 129t27 129t73 106.5t107 72.5t129 27q30 0 65.5 -5t71 -13.5t68 -19.5t55.5 -24v-106zM407 882l-115 -188l-2 2l110 203q1 2 3 4t4 2t3.5 -2t2.5 -4l110 -203
l-2 -2z" />
    <glyph glyph-name="Cdotaccent" unicode="&#x10a;" horiz-adv-x="726" 
d="M407 730q-8 0 -14 6t-6 14t6 14t14 6t14 -6t6 -14t-6 -14t-14 -6zM667 497h-11q-2 6 -5.5 15t-5.5 16q-8 22 -25.5 43t-41 38t-50.5 29t-54 16v1q-18 2 -35 3.5t-32 1.5q-63 0 -120 -26.5t-99.5 -71.5t-67.5 -105t-25 -127t25 -127t67.5 -105t99.5 -71.5t120 -26.5h15.5
t15.5 1v1q33 2 66.5 14.5t62 31.5t49 43t29.5 49q2 7 5.5 16.5t5.5 15.5h11v-105q-19 -15 -50 -28t-66.5 -22.5t-73 -15.5t-70.5 -6q-68 0 -129 27t-107 72.5t-73 106.5t-27 129t27 129t73 106.5t107 72.5t129 27q30 0 65.5 -5t71 -13.5t68 -19.5t55.5 -24v-106z" />
    <glyph glyph-name="cdotaccent" unicode="&#x10b;" horiz-adv-x="454" 
d="M291 570q-8 0 -14 6t-6 14t6 14t14 6t14 -6t6 -14t-6 -14t-14 -6zM402 43q-10 -10 -29 -18.5t-43 -15t-51 -10.5t-53 -4q-36 0 -68 19.5t-56 53t-38 77.5t-14 93q0 54 19.5 102.5t52.5 85t76.5 58t92.5 21.5q21 0 40.5 -8t35 -22.5t25.5 -33t12 -39.5q0 -9 -9 -9
q-8 0 -10 10q-1 20 -10 37t-22 30.5t-29.5 21t-34.5 7.5q-44 0 -83.5 -20.5t-69.5 -55t-47.5 -80.5t-17.5 -97q0 -48 14 -91.5t37.5 -76.5t54.5 -52t66 -19q24 0 48.5 3t46 8.5t38 12.5t24.5 14z" />
    <glyph glyph-name="Ccaron" unicode="&#x10c;" horiz-adv-x="726" 
d="M667 497h-11q-2 6 -5.5 15t-5.5 16q-8 22 -25.5 43t-41 38t-50.5 29t-54 16v1q-18 2 -35 3.5t-32 1.5q-63 0 -120 -26.5t-99.5 -71.5t-67.5 -105t-25 -127t25 -127t67.5 -105t99.5 -71.5t120 -26.5h15.5t15.5 1v1q33 2 66.5 14.5t62 31.5t49 43t29.5 49q2 7 5.5 16.5
t5.5 15.5h11v-105q-19 -15 -50 -28t-66.5 -22.5t-73 -15.5t-70.5 -6q-68 0 -129 27t-107 72.5t-73 106.5t-27 129t27 129t73 106.5t107 72.5t129 27q30 0 65.5 -5t71 -13.5t68 -19.5t55.5 -24v-106zM407 738l-115 188l-2 -2l110 -203q1 -2 3 -4t4 -2t3.5 2t2.5 4l110 203
l-2 2z" />
    <glyph glyph-name="ccaron" unicode="&#x10d;" horiz-adv-x="454" 
d="M402 43q-10 -10 -29 -18.5t-43 -15t-51 -10.5t-53 -4q-36 0 -68 19.5t-56 53t-38 77.5t-14 93q0 54 19.5 102.5t52.5 85t76.5 58t92.5 21.5q21 0 40.5 -8t35 -22.5t25.5 -33t12 -39.5q0 -9 -9 -9q-8 0 -10 10q-1 20 -10 37t-22 30.5t-29.5 21t-34.5 7.5
q-44 0 -83.5 -20.5t-69.5 -55t-47.5 -80.5t-17.5 -97q0 -48 14 -91.5t37.5 -76.5t54.5 -52t66 -19q24 0 48.5 3t46 8.5t38 12.5t24.5 14zM291 577l-114 189l-2 -2l110 -203q1 -2 2.5 -4t3.5 -2t4 2t2 4l110 203l-2 2z" />
    <glyph glyph-name="Dcaron" unicode="&#x10e;" horiz-adv-x="651" 
d="M60 647v13h60h11h11h131q67 0 126.5 -26.5t104.5 -71.5t71.5 -105t26.5 -127t-23 -127t-62 -105t-90.5 -71.5t-109.5 -26.5h-175h-11h-11h-60v13h9q20 0 35.5 24.5t15.5 58.5v468q0 34 -15.5 58.5t-35.5 24.5h-9zM350 738l-114 188l-2 -2l110 -203q1 -2 2.5 -4t3.5 -2
t4 2t3 4l109 203l-2 2zM142 6h175q53 0 101 26t84 70.5t57 103t21 124.5t-24.5 124.5t-66.5 103t-98 70.5t-118 26h-131v-648z" />
    <glyph glyph-name="dcaron" unicode="&#x10f;" horiz-adv-x="587" 
d="M577 644l-47 -157l-3 1l38 161q3 15 7.5 33.5t9 34.5t8 26.5t4.5 10.5q3 0 8 -1t5 -3q0 -1 -2.5 -10.5t-6.5 -24.5t-9.5 -33.5t-11.5 -37.5zM478 599v-472q0 -52 13 -71.5t48 -26.5v-7l-77 -22h-4v5v56q-12 -13 -34 -25t-49 -21t-56.5 -14.5t-58.5 -5.5q-42 0 -79 18.5
t-65 50.5t-44.5 74.5t-16.5 89.5q0 56 17 106.5t46.5 88.5t68 60t81.5 22q29 0 58 -7.5t54.5 -19.5t46 -27.5t31.5 -32.5v175q0 52 -13 71.5t-48 26.5v7l77 22h4v-5v-116zM458 121v287q-9 17 -28.5 33.5t-46 29.5t-56.5 21t-60 8q-39 0 -73.5 -21.5t-60.5 -57.5t-41.5 -84
t-15.5 -101q0 -46 15.5 -88t42.5 -73t62.5 -49.5t74.5 -18.5q28 0 57 4.5t54.5 12.5t45.5 18t30 22v57z" />
    <glyph glyph-name="Emacron" unicode="&#x112;" horiz-adv-x="518" 
d="M104 774v11h300v-11h-300zM352 271h-10l-3 10q-3 12 -15 22.5t-29 19t-38 13t-43 4.5h-92v-335h132q24 0 49.5 7.5t48.5 20.5t41 29.5t28 35.5l8 17h9q-4 -23 -9.5 -56t-9.5 -56q-1 -1 -1 -3h-1h-95h-200h-10h-11h-61v13h9q21 0 36.5 24.5t15.5 58.5v468q0 34 -15.5 58.5
t-36.5 24.5h-9v13h61h11h10h192h93h3v-3v-112h-9l-6 17q-6 19 -21.5 36t-36 29.5t-44.5 20t-48 7.5h-123v-310h92q22 0 43 4t38 11.5t29 17t15 19.5l3 9h10v-61v-3v-2v-69z" />
    <glyph glyph-name="emacron" unicode="&#x113;" horiz-adv-x="461" 
d="M104 614v11h300v-11h-300zM409 43q-10 -10 -29.5 -18.5t-44 -15t-52 -10.5t-54.5 -4q-36 0 -68.5 19.5t-57 53t-39 77.5t-14.5 93q0 54 16.5 102.5t44.5 85t65 58t78 21.5q32 0 60.5 -14.5t50 -39t34 -57.5t12.5 -70h-331q-9 -37 -9 -78q0 -48 14 -91.5t38 -76.5
t55.5 -52t67.5 -19q25 0 50 3t47 8.5t39 12.5t25 14zM81 328l311 3h-9q9 0 9 10q0 32 -11 60.5t-30 50.5t-44.5 34.5t-53.5 12.5q-29 0 -56 -13t-49.5 -36t-39.5 -54t-27 -68z" />
    <glyph glyph-name="Ebreve" unicode="&#x114;" horiz-adv-x="518" 
d="M147 872h3q1 -15 10 -29t23.5 -24.5t32.5 -16.5t38 -6t38.5 6t32.5 16.5t23 24.5t10 29h3q-1 -18 -10 -34t-24 -28.5t-33.5 -19.5t-39.5 -7t-39.5 7t-33.5 19.5t-24 28.5t-10 34zM352 271h-10l-3 10q-3 12 -15 22.5t-29 19t-38 13t-43 4.5h-92v-335h132q24 0 49.5 7.5
t48.5 20.5t41 29.5t28 35.5l8 17h9q-4 -23 -9.5 -56t-9.5 -56q-1 -1 -1 -3h-1h-95h-200h-10h-11h-61v13h9q21 0 36.5 24.5t15.5 58.5v468q0 34 -15.5 58.5t-36.5 24.5h-9v13h61h11h10h192h93h3v-3v-112h-9l-6 17q-6 19 -21.5 36t-36 29.5t-44.5 20t-48 7.5h-123v-310h92
q22 0 43 4t38 11.5t29 17t15 19.5l3 9h10v-61v-3v-2v-69z" />
    <glyph glyph-name="ebreve" unicode="&#x115;" horiz-adv-x="461" 
d="M147 712h3q1 -15 10 -29t23.5 -24.5t32.5 -16.5t38 -6t38.5 6t32.5 16.5t23 24.5t10 29h4q-1 -18 -10.5 -34t-24.5 -28.5t-33.5 -19.5t-39.5 -7q-20 0 -39 7t-33.5 19.5t-24 28.5t-10.5 34zM409 43q-10 -10 -29.5 -18.5t-44 -15t-52 -10.5t-54.5 -4q-36 0 -68.5 19.5
t-57 53t-39 77.5t-14.5 93q0 54 16.5 102.5t44.5 85t65 58t78 21.5q32 0 60.5 -14.5t50 -39t34 -57.5t12.5 -70h-331q-9 -37 -9 -78q0 -48 14 -91.5t38 -76.5t55.5 -52t67.5 -19q25 0 50 3t47 8.5t39 12.5t25 14zM81 328l311 3h-9q9 0 9 10q0 32 -11 60.5t-30 50.5
t-44.5 34.5t-53.5 12.5q-29 0 -56 -13t-49.5 -36t-39.5 -54t-27 -68z" />
    <glyph glyph-name="Edotaccent" unicode="&#x116;" horiz-adv-x="518" 
d="M254 730q-8 0 -14 6t-6 14t6 14t14 6t14 -6t6 -14t-6 -14t-14 -6zM352 271h-10l-3 10q-3 12 -15 22.5t-29 19t-38 13t-43 4.5h-92v-335h132q24 0 49.5 7.5t48.5 20.5t41 29.5t28 35.5l8 17h9q-4 -23 -9.5 -56t-9.5 -56q-1 -1 -1 -3h-1h-95h-200h-10h-11h-61v13h9
q21 0 36.5 24.5t15.5 58.5v468q0 34 -15.5 58.5t-36.5 24.5h-9v13h61h11h10h192h93h3v-3v-112h-9l-6 17q-6 19 -21.5 36t-36 29.5t-44.5 20t-48 7.5h-123v-310h92q22 0 43 4t38 11.5t29 17t15 19.5l3 9h10v-61v-3v-2v-69z" />
    <glyph glyph-name="edotaccent" unicode="&#x117;" horiz-adv-x="461" 
d="M254 570q-8 0 -14 6t-6 14t6 14t14 6t14 -6t6 -14t-6 -14t-14 -6zM409 43q-10 -10 -29.5 -18.5t-44 -15t-52 -10.5t-54.5 -4q-36 0 -68.5 19.5t-57 53t-39 77.5t-14.5 93q0 54 16.5 102.5t44.5 85t65 58t78 21.5q32 0 60.5 -14.5t50 -39t34 -57.5t12.5 -70h-331
q-9 -37 -9 -78q0 -48 14 -91.5t38 -76.5t55.5 -52t67.5 -19q25 0 50 3t47 8.5t39 12.5t25 14zM81 328l311 3h-9q9 0 9 10q0 32 -11 60.5t-30 50.5t-44.5 34.5t-53.5 12.5q-29 0 -56 -13t-49.5 -36t-39.5 -54t-27 -68z" />
    <glyph glyph-name="Eogonek" unicode="&#x118;" horiz-adv-x="518" 
d="M352 271h-10l-3 10q-3 12 -15 22.5t-29 19t-38 13t-43 4.5h-92v-335h132q24 0 49.5 7.5t48.5 20.5t41 29.5t28 35.5l8 17h9q-4 -23 -9.5 -56t-9.5 -56q-1 -1 -1 -3h-1q-12 -5 -31.5 -21.5t-38.5 -39t-33 -48.5t-14 -49q0 -28 23.5 -48t55.5 -20q21 0 42.5 7.5t29.5 18.5
l2 -2q-11 -12 -33.5 -20.5t-44.5 -8.5q-35 0 -61 21t-26 50q0 22 13 46.5t32 47t39.5 40.5t35.5 26h-86h-200h-10h-11h-61v13h9q21 0 36.5 24.5t15.5 58.5v468q0 34 -15.5 58.5t-36.5 24.5h-9v13h61h11h10h192h93h3v-3v-112h-9l-6 17q-6 19 -21.5 36t-36 29.5t-44.5 20
t-48 7.5h-123v-310h92q22 0 43 4t38 11.5t29 17t15 19.5l3 9h10v-61v-3v-2v-69z" />
    <glyph glyph-name="eogonek" unicode="&#x119;" horiz-adv-x="461" 
d="M348 20q8 4 11 5v-2q34 9 48 22l2 -2q-9 -9 -26 -17t-39 -14q-14 -10 -32 -27.5t-33.5 -39t-26 -45t-10.5 -44.5q0 -33 23.5 -57.5t55.5 -24.5q21 0 42.5 7.5t29.5 18.5l2 -2q-11 -12 -33.5 -20.5t-44.5 -8.5q-35 0 -61 25t-26 60q0 20 10 42t25 43t33 39t34 30
q-24 -6 -50.5 -9.5t-52.5 -3.5q-36 0 -68.5 19.5t-57 53t-39 77.5t-14.5 93q0 54 16.5 102.5t44.5 85t65 58t78 21.5q32 0 60.5 -14.5t50 -39t34 -57.5t12.5 -70h-331q-9 -37 -9 -78q0 -48 14 -91.5t38 -76.5t55.5 -52t67.5 -19q26 0 52.5 3.5t49.5 9.5zM81 328l311 3h-9
q9 0 9 10q0 32 -11 60.5t-30 50.5t-44.5 34.5t-53.5 12.5q-29 0 -56 -13t-49.5 -36t-39.5 -54t-27 -68z" />
    <glyph glyph-name="Ecaron" unicode="&#x11a;" horiz-adv-x="518" 
d="M352 271h-10l-3 10q-3 12 -15 22.5t-29 19t-38 13t-43 4.5h-92v-335h132q24 0 49.5 7.5t48.5 20.5t41 29.5t28 35.5l8 17h9q-4 -23 -9.5 -56t-9.5 -56q-1 -1 -1 -3h-1h-95h-200h-10h-11h-61v13h9q21 0 36.5 24.5t15.5 58.5v468q0 34 -15.5 58.5t-36.5 24.5h-9v13h61h11
h10h192h93h3v-3v-112h-9l-6 17q-6 19 -21.5 36t-36 29.5t-44.5 20t-48 7.5h-123v-310h92q22 0 43 4t38 11.5t29 17t15 19.5l3 9h10v-61v-3v-2v-69zM254 737l-114 189l-2 -2l110 -203q1 -2 2.5 -4t3.5 -2t4 2t2 4l110 203l-2 2z" />
    <glyph glyph-name="ecaron" unicode="&#x11b;" horiz-adv-x="461" 
d="M409 43q-10 -10 -29.5 -18.5t-44 -15t-52 -10.5t-54.5 -4q-36 0 -68.5 19.5t-57 53t-39 77.5t-14.5 93q0 54 16.5 102.5t44.5 85t65 58t78 21.5q32 0 60.5 -14.5t50 -39t34 -57.5t12.5 -70h-331q-9 -37 -9 -78q0 -48 14 -91.5t38 -76.5t55.5 -52t67.5 -19q25 0 50 3
t47 8.5t39 12.5t25 14zM254 578l-114 188l-2 -2l110 -203q1 -2 2.5 -4t3.5 -2t4 2t3 4l109 203l-2 2zM81 328l311 3h-9q9 0 9 10q0 32 -11 60.5t-30 50.5t-44.5 34.5t-53.5 12.5q-29 0 -56 -13t-49.5 -36t-39.5 -54t-27 -68z" />
    <glyph glyph-name="Gcircumflex" unicode="&#x11c;" horiz-adv-x="806" 
d="M713 310v-13h-10q-20 0 -35.5 -24.5t-15.5 -58.5v-155q-22 -13 -54 -24.5t-67.5 -20.5t-70.5 -14t-65 -5q-66 0 -124.5 27t-103 72.5t-70.5 106.5t-26 129t26 129t70.5 106.5t103 72.5t124.5 27q28 0 62 -5t68.5 -13.5t66.5 -19.5t55 -24v-106h-11q-2 6 -5.5 15t-5.5 16
q-8 22 -25.5 43.5t-41 38.5t-51 29t-54.5 16v0q-16 2 -30.5 3.5t-27.5 1.5q-61 0 -115.5 -26.5t-95.5 -71.5t-65 -105t-24 -127t24 -127t65 -105t95.5 -71.5t115.5 -26.5q27 0 58.5 4t63 11.5t61.5 17.5t54 22v159q0 34 -15 58.5t-36 24.5h-9v13h60h10h10h61zM396 882
l-115 -188l-2 2l110 203q1 2 2.5 4t3.5 2t4 -2t3 -4l110 -203l-2 -2z" />
    <glyph glyph-name="Gbreve" unicode="&#x11e;" horiz-adv-x="806" 
d="M288 872h4q1 -15 10 -29t23 -24.5t32 -16.5t38 -6t38.5 6t32.5 16.5t23 24.5t10 29h4q-1 -18 -10.5 -34t-24 -28.5t-33.5 -19.5t-40 -7q-20 0 -39 7t-33.5 19.5t-24 28.5t-10.5 34zM713 310v-13h-10q-20 0 -35.5 -24.5t-15.5 -58.5v-155q-22 -13 -54 -24.5t-67.5 -20.5
t-70.5 -14t-65 -5q-66 0 -124.5 27t-103 72.5t-70.5 106.5t-26 129t26 129t70.5 106.5t103 72.5t124.5 27q28 0 62 -5t68.5 -13.5t66.5 -19.5t55 -24v-106h-11q-2 6 -5.5 15t-5.5 16q-8 22 -25.5 43.5t-41 38.5t-51 29t-54.5 16v0q-16 2 -30.5 3.5t-27.5 1.5
q-61 0 -115.5 -26.5t-95.5 -71.5t-65 -105t-24 -127t24 -127t65 -105t95.5 -71.5t115.5 -26.5q27 0 58.5 4t63 11.5t61.5 17.5t54 22v159q0 34 -15 58.5t-36 24.5h-9v13h60h10h10h61z" />
    <glyph glyph-name="gbreve" unicode="&#x11f;" horiz-adv-x="461" 
d="M147 712h3q1 -15 10 -29t23.5 -24.5t32.5 -16.5t38 -6t38.5 6t32.5 16.5t23 24.5t10 29h3q-1 -18 -10 -34t-24 -28.5t-33.5 -19.5t-39.5 -7t-39.5 7t-33.5 19.5t-24 28.5t-10 34zM462 500v-11l-125 -3q42 -20 68.5 -55.5t26.5 -78.5q0 -31 -14.5 -59t-38.5 -49t-56.5 -33
t-68.5 -12h-55q-26 0 -49.5 -5.5t-41 -15t-28 -22t-10.5 -26.5q0 -16 10 -30.5t26.5 -24.5t38.5 -15t47 -4l73 3q36 0 68 -9.5t56.5 -25.5t38.5 -37.5t14 -45.5q0 -36 -21.5 -68t-58 -56t-85 -38.5t-102.5 -14.5q-29 0 -55 11t-45.5 29.5t-31 43t-11.5 52.5q0 13 11.5 27.5
t31 28.5t45.5 25.5t54 19.5l3 -2q-27 -7 -51 -18.5t-42 -25t-28.5 -27.5t-10.5 -26q0 -27 10.5 -51t29 -42.5t42.5 -29t51 -10.5q50 0 95.5 13t79.5 35.5t54 51.5t20 62q0 22 -13.5 42t-36.5 35t-53 23.5t-64 8.5l-67 -3q-28 -1 -52.5 5t-43 17.5t-29.5 27.5t-11 35
q0 16 11.5 30.5t31 25.5t45 17.5t54.5 6.5h21q-30 5 -56.5 19t-46 34t-30.5 45t-11 52q0 31 14.5 59t38.5 49t56.5 33t68.5 12q34 0 65 -11v0zM95 352v0q0 -30 13 -57.5t34.5 -47.5t50.5 -32t61 -12t61 12t51 32t34.5 47.5t12.5 57.5q0 44 -25.5 80t-65.5 54h-3v1
q-31 14 -65 14q-32 0 -61 -12t-50.5 -32.5t-34.5 -47.5t-13 -57z" />
    <glyph glyph-name="Gdotaccent" unicode="&#x120;" horiz-adv-x="806" 
d="M395 730q-8 0 -14 6t-6 14t6 14t14 6t14 -6t6 -14t-6 -14t-14 -6zM713 310v-13h-10q-20 0 -35.5 -24.5t-15.5 -58.5v-155q-22 -13 -54 -24.5t-67.5 -20.5t-70.5 -14t-65 -5q-66 0 -124.5 27t-103 72.5t-70.5 106.5t-26 129t26 129t70.5 106.5t103 72.5t124.5 27
q28 0 62 -5t68.5 -13.5t66.5 -19.5t55 -24v-106h-11q-2 6 -5.5 15t-5.5 16q-8 22 -25.5 43.5t-41 38.5t-51 29t-54.5 16v0q-16 2 -30.5 3.5t-27.5 1.5q-61 0 -115.5 -26.5t-95.5 -71.5t-65 -105t-24 -127t24 -127t65 -105t95.5 -71.5t115.5 -26.5q27 0 58.5 4t63 11.5
t61.5 17.5t54 22v159q0 34 -15 58.5t-36 24.5h-9v13h60h10h10h61z" />
    <glyph glyph-name="gdotaccent" unicode="&#x121;" horiz-adv-x="461" 
d="M254 570q-8 0 -14 6t-6 14t6 14t14 6t14 -6t6 -14t-6 -14t-14 -6zM462 500v-11l-125 -3q42 -20 68.5 -55.5t26.5 -78.5q0 -31 -14.5 -59t-38.5 -49t-56.5 -33t-68.5 -12h-55q-26 0 -49.5 -5.5t-41 -15t-28 -22t-10.5 -26.5q0 -16 10 -30.5t26.5 -24.5t38.5 -15t47 -4
l73 3q36 0 68 -9.5t56.5 -25.5t38.5 -37.5t14 -45.5q0 -36 -21.5 -68t-58 -56t-85 -38.5t-102.5 -14.5q-29 0 -55 11t-45.5 29.5t-31 43t-11.5 52.5q0 13 11.5 27.5t31 28.5t45.5 25.5t54 19.5l3 -2q-27 -7 -51 -18.5t-42 -25t-28.5 -27.5t-10.5 -26q0 -27 10.5 -51
t29 -42.5t42.5 -29t51 -10.5q50 0 95.5 13t79.5 35.5t54 51.5t20 62q0 22 -13.5 42t-36.5 35t-53 23.5t-64 8.5l-67 -3q-28 -1 -52.5 5t-43 17.5t-29.5 27.5t-11 35q0 16 11.5 30.5t31 25.5t45 17.5t54.5 6.5h21q-30 5 -56.5 19t-46 34t-30.5 45t-11 52q0 31 14.5 59
t38.5 49t56.5 33t68.5 12q34 0 65 -11v0zM95 352v0q0 -30 13 -57.5t34.5 -47.5t50.5 -32t61 -12t61 12t51 32t34.5 47.5t12.5 57.5q0 44 -25.5 80t-65.5 54h-3v1q-31 14 -65 14q-32 0 -61 -12t-50.5 -32.5t-34.5 -47.5t-13 -57z" />
    <glyph glyph-name="Hcircumflex" unicode="&#x124;" horiz-adv-x="731" 
d="M692 660v-13h-9q-21 0 -36.5 -24.5t-15.5 -58.5v-468q0 -34 15.5 -58.5t36.5 -24.5h9v-13h-61h-11h-10h-61v13h9q21 0 36.5 24.5t15.5 58.5v239h-488v-239q1 -34 16 -58.5t36 -24.5h9v-13h-61h-10h-11h-61v13h9q21 0 36.5 24.5t15.5 58.5v468q0 34 -15.5 58.5t-36.5 24.5
h-9v13h61h11h10h61v-13h-9q-21 0 -36 -24.5t-16 -58.5v-224h488v224q0 34 -15.5 58.5t-36.5 24.5h-9v13h61h10h11h61zM366 883l-114 -189l-2 2l110 203q1 2 2.5 4t3.5 2t3.5 -2t2.5 -4l110 -203l-2 -2z" />
    <glyph glyph-name="Itilde" unicode="&#x128;" horiz-adv-x="223" 
d="M-31 755h-4q0 35 16.5 60t39.5 25q21 0 44.5 -10t48 -21.5t48 -21.5t44.5 -10q20 0 34.5 18t14.5 42h3q0 -29 -17 -51t-40 -22q-21 0 -44.5 10t-47.5 21.5t-47.5 21.5t-44.5 10q-20 0 -34 -21.5t-14 -50.5zM183 660v-13h-9q-20 0 -35 -23t-16 -55v-5v-468v-5
q1 -32 16 -55t35 -23h9v-13h-60h-11h-11h-61v13h9q21 0 36.5 24.5t15.5 58.5v468q0 34 -15.5 58.5t-36.5 24.5h-9v13h61h11h11h60z" />
    <glyph glyph-name="itilde" unicode="&#x129;" horiz-adv-x="231" 
d="M-28 595h-3q0 35 16.5 60t39.5 25q21 0 44.5 -10t48 -21.5t48 -21.5t44.5 -10q20 0 34.5 18t14.5 42h3q0 -29 -17 -51t-40 -22q-21 0 -44.5 10t-47.5 21.5t-47.5 21.5t-44.5 10q-20 0 -34.5 -21.5t-14.5 -50.5zM126 0v404h-20v-6q0 32 -4.5 46.5t-10.5 16.5l-36 14v9
l70 21h1v-101v-404q0 8 14 10.5t34 2.5h12v-13h-60zM106 398v-398h-61v13h12q20 0 34.5 -2.5t14.5 -10.5v398z" />
    <glyph glyph-name="Imacron" unicode="&#x12a;" horiz-adv-x="223" 
d="M-38 774v11h300v-11h-300zM183 660v-13h-9q-20 0 -35 -23t-16 -55v-5v-468v-5q1 -32 16 -55t35 -23h9v-13h-60h-11h-11h-61v13h9q21 0 36.5 24.5t15.5 58.5v468q0 34 -15.5 58.5t-36.5 24.5h-9v13h61h11h11h60z" />
    <glyph glyph-name="imacron" unicode="&#x12b;" horiz-adv-x="231" 
d="M-34 614v11h300v-11h-300zM126 0v404h-20v-6q0 32 -4.5 46.5t-10.5 16.5l-36 14v9l70 21h1v-101v-404q0 8 14 10.5t34 2.5h12v-13h-60zM106 398v-398h-61v13h12q20 0 34.5 -2.5t14.5 -10.5v398z" />
    <glyph glyph-name="Ibreve" unicode="&#x12c;" horiz-adv-x="223" 
d="M4 872h4q1 -15 10 -29t23 -24.5t32.5 -16.5t38.5 -6t38.5 6t32.5 16.5t23 24.5t10 29h3q-1 -18 -10.5 -34t-24 -28.5t-33.5 -19.5t-39 -7q-21 0 -39.5 7t-33.5 19.5t-24 28.5t-11 34zM183 660v-13h-9q-20 0 -35 -23t-16 -55v-5v-468v-5q1 -32 16 -55t35 -23h9v-13h-60
h-11h-11h-61v13h9q21 0 36.5 24.5t15.5 58.5v468q0 34 -15.5 58.5t-36.5 24.5h-9v13h61h11h11h60z" />
    <glyph glyph-name="ibreve" unicode="&#x12d;" horiz-adv-x="231" 
d="M8 712h4q1 -15 10 -29t23 -24.5t32.5 -16.5t38.5 -6t38 6t32 16.5t23 24.5t10 29h4q-1 -18 -10.5 -34t-24 -28.5t-33.5 -19.5t-39 -7q-21 0 -39.5 7t-33.5 19.5t-24 28.5t-11 34zM126 0v404h-20v-6q0 32 -4.5 46.5t-10.5 16.5l-36 14v9l70 21h1v-101v-404q0 8 14 10.5
t34 2.5h12v-13h-60zM106 398v-398h-61v13h12q20 0 34.5 -2.5t14.5 -10.5v398z" />
    <glyph glyph-name="Idotaccent" unicode="&#x130;" horiz-adv-x="223" 
d="M112 730q-8 0 -14 6t-6 14t6 14t14 6t14 -6t6 -14t-6 -14t-14 -6zM183 660v-13h-9q-20 0 -35 -23t-16 -55v-5v-468v-5q1 -32 16 -55t35 -23h9v-13h-60h-11h-11h-61v13h9q21 0 36.5 24.5t15.5 58.5v468q0 34 -15.5 58.5t-36.5 24.5h-9v13h61h11h11h60z" />
    <glyph glyph-name="dotlessi" unicode="&#x131;" horiz-adv-x="231" 
d="M126 0v404h-20v-6q0 32 -4.5 46.5t-10.5 16.5l-36 14v9l70 21h1v-101v-404q0 8 14 10.5t34 2.5h12v-13h-60zM106 398v-398h-61v13h12q20 0 34.5 -2.5t14.5 -10.5v398z" />
    <glyph glyph-name="Jcircumflex" unicode="&#x134;" horiz-adv-x="326" 
d="M287 660v-13h-9q-21 0 -36.5 -24.5t-15.5 -58.5v-346q0 -112 -35.5 -170t-104.5 -58q-29 0 -54.5 18t-31.5 42q-2 9 9 9q8 0 10 -9q5 -23 27 -39.5t46 -16.5q55 0 84 52.5t29 153.5v364q0 34 -15.5 58.5t-36.5 24.5h-9v13h61h10h11h61zM216 882l-115 -188l-2 2l110 203
q1 2 2.5 4t3.5 2t4 -2t3 -4l110 -203l-2 -2z" />
    <glyph glyph-name="Lacute" unicode="&#x139;" horiz-adv-x="518" 
d="M86 692l-2 1l99 138q17 23 30 40.5t14 17.5q2 0 6.5 -3t4.5 -5q0 -1 -13 -18t-32 -40zM424 127q3 -1 5 -2q6 -3 10 -4q-4 -24 -10 -59t-10 -59q-1 -1 -1 -3h-1h-95h-200h-10h-11h-61v13h9q21 0 36.5 24.5t15.5 58.5v468q0 34 -15.5 58.5t-36.5 24.5h-9v13h61h11h10h61
v-13h-9q-21 0 -36 -24.5t-16 -58.5v-559h142q22 0 45.5 8.5t44.5 22.5t37.5 32.5t25.5 39.5z" />
    <glyph glyph-name="Lcaron" unicode="&#x13d;" horiz-adv-x="518" 
d="M424 127q3 -1 5 -2q6 -3 10 -4q-4 -24 -10 -59t-10 -59q-1 -1 -1 -3h-1h-95h-200h-10h-11h-61v13h9q21 0 36.5 24.5t15.5 58.5v468q0 34 -15.5 58.5t-36.5 24.5h-9v13h61h11h10h61v-13h-9q-21 0 -36 -24.5t-16 -58.5v-559h142q22 0 45.5 8.5t44.5 22.5t37.5 32.5
t25.5 39.5zM282 584l-47 -157l-3 1l38 161q3 15 7.5 33.5t9 34.5t8 26.5t4.5 10.5q3 0 8 -1t5 -3q0 -1 -2.5 -10.5t-6.5 -24.5t-9.5 -33.5t-11.5 -37.5z" />
    <glyph glyph-name="lcaron" unicode="&#x13e;" horiz-adv-x="231" 
d="M186 13v-13h-60h-10h-10h-61v13h9q21 0 36.5 24.5t15.5 58.5v497q0 52 -13 71.5t-48 26.5v7l77 22h4v-5v-116v-503v-5q1 -32 16 -55t35 -23h9zM225 614l-47 -157l-3 1l37 161q3 15 7.5 33.5t9 34.5t8.5 26.5t5 10.5q3 0 8 -1t5 -3q0 -1 -2.5 -10.5t-6.5 -24.5t-9.5 -33.5
t-11.5 -37.5z" />
    <glyph glyph-name="Lslash" unicode="&#x141;" horiz-adv-x="518" 
d="M51 277v6l50 23v258q0 34 -15.5 58.5t-36.5 24.5h-9v13h61h11h10h61v-13h-9q-21 0 -36 -24.5t-16 -58.5v-249l148 68v-6l-148 -68v-304h142q22 0 45.5 8.5t44.5 22.5t37.5 32.5t25.5 39.5l7 19q3 -1 5 -2q6 -3 10 -4q-4 -24 -10 -59t-10 -59q-1 -1 -1 -3h-1h-95h-200h-10
h-11h-61v13h9q21 0 36.5 24.5t15.5 58.5v204z" />
    <glyph glyph-name="lslash" unicode="&#x142;" horiz-adv-x="231" 
d="M6 307v6l100 45v235q0 52 -13 71.5t-48 26.5v7l77 22h4v-5v-116v-231l100 45v-6l-100 -45v-266v-5q1 -32 16 -55t35 -23h9v-13h-60h-10h-10h-61v13h9q21 0 36.5 24.5t15.5 58.5v256z" />
    <glyph glyph-name="Nacute" unicode="&#x143;" horiz-adv-x="660" 
d="M301 692l-2 1l99 138q17 23 30 40.5t14 17.5q2 0 6.5 -3t4.5 -5q0 -1 -13 -18t-32 -40zM623 660v-13h-9q-21 0 -36.5 -24.5t-15.5 -58.5v-547v-21h-7l-9 13l-434 632v-545q0 -34 15.5 -58.5t36.5 -24.5h9v-13h-61h-3h-3h-61v13h9q21 0 36.5 24.5t15.5 58.5v468
q0 34 -15.5 58.5t-36.5 24.5h-9v13h61h3h3h13l-13 -9v-1l13 10l431 -629v533q0 34 -15.5 58.5t-36.5 24.5h-9v13h61h3h3h61z" />
    <glyph glyph-name="nacute" unicode="&#x144;" horiz-adv-x="584" 
d="M216 532l-2 1l99 138q17 23 30 40.5t14 17.5q2 0 6.5 -3t4.5 -5q0 -1 -13.5 -18t-31.5 -40zM544 13v-13h-60h-10h-10h-61v13h9q21 0 36.5 24.5t15.5 58.5v237q0 32 -8.5 61t-25 51t-40.5 34.5t-55 12.5q-19 0 -45.5 -4.5t-55 -12.5t-57 -18t-51.5 -22v-36v-20v-283v-5
q1 -32 16 -55t35 -23h9v-13h-60h-10h-10h-61v13h9q21 0 36.5 24.5t15.5 58.5v277q0 26 -3 43.5t-10 28t-19 16.5t-29 10v7l77 22h4v-63q28 14 59.5 26.5t62 21.5t57.5 14.5t45 5.5q33 0 58 -13.5t42 -37t25.5 -54t8.5 -64.5v-240v-5q1 -32 16 -55t35 -23h9z" />
    <glyph glyph-name="Ncaron" unicode="&#x147;" horiz-adv-x="660" 
d="M623 660v-13h-9q-21 0 -36.5 -24.5t-15.5 -58.5v-547v-21h-7l-9 13l-434 632v-545q0 -34 15.5 -58.5t36.5 -24.5h9v-13h-61h-3h-3h-61v13h9q21 0 36.5 24.5t15.5 58.5v468q0 34 -15.5 58.5t-36.5 24.5h-9v13h61h3h3h13l-13 -9v-1l13 10l431 -629v533q0 34 -15.5 58.5
t-36.5 24.5h-9v13h61h3h3h61zM334 737l-114 189l-2 -2l110 -203q1 -2 2.5 -4t3.5 -2t4 2t2 4l110 203l-2 2z" />
    <glyph glyph-name="ncaron" unicode="&#x148;" horiz-adv-x="584" 
d="M544 13v-13h-60h-10h-10h-61v13h9q21 0 36.5 24.5t15.5 58.5v237q0 32 -8.5 61t-25 51t-40.5 34.5t-55 12.5q-19 0 -45.5 -4.5t-55 -12.5t-57 -18t-51.5 -22v-36v-20v-283v-5q1 -32 16 -55t35 -23h9v-13h-60h-10h-10h-61v13h9q21 0 36.5 24.5t15.5 58.5v277q0 26 -3 43.5
t-10 28t-19 16.5t-29 10v7l77 22h4v-63q28 14 59.5 26.5t62 21.5t57.5 14.5t45 5.5q33 0 58 -13.5t42 -37t25.5 -54t8.5 -64.5v-240v-5q1 -32 16 -55t35 -23h9zM295 578l-115 188l-2 -2l110 -203q1 -2 3 -4t4 -2t3.5 2t2.5 4l110 203l-2 2z" />
    <glyph glyph-name="Omacron" unicode="&#x14c;" horiz-adv-x="759" 
d="M240 774v11h300v-11h-300zM390 0q66 0 120 29t93 76t60.5 106t21.5 119t-21.5 119t-60.5 106t-93 76t-120 29t-120 -29t-93 -76t-60.5 -106t-21.5 -119t21.5 -119t60.5 -106t93 -76t120 -29zM71 330q0 61 23 121t65 107.5t101 77t130 29.5t130 -29.5t101 -77t65 -107.5
t23 -121t-23 -121t-65 -107.5t-101 -77t-130 -29.5t-130 29.5t-101 77t-65 107.5t-23 121z" />
    <glyph glyph-name="omacron" unicode="&#x14d;" horiz-adv-x="580" 
d="M140 614v11h300v-11h-300zM290 -1q44 0 83.5 20t69.5 54.5t47.5 80t17.5 96.5t-17.5 96.5t-47.5 80t-69.5 54.5t-83.5 20t-83.5 -20t-69.5 -54.5t-47.5 -80t-17.5 -96.5t17.5 -96.5t47.5 -80t69.5 -54.5t83.5 -20zM50 250q0 52 19 98t52 81t76.5 55.5t92.5 20.5
t92.5 -20.5t76.5 -55.5t52.5 -81t19.5 -98t-19.5 -98t-52.5 -81t-76.5 -55.5t-92.5 -20.5t-92.5 20.5t-76.5 55.5t-52 81t-19 98z" />
    <glyph glyph-name="Obreve" unicode="&#x14e;" horiz-adv-x="759" 
d="M283 872h3q1 -15 10 -29t23.5 -24.5t32.5 -16.5t38 -6t38.5 6t32.5 16.5t23 24.5t10 29h3q-1 -18 -10 -34t-24 -28.5t-33.5 -19.5t-39.5 -7t-39.5 7t-33.5 19.5t-24 28.5t-10 34zM390 0q66 0 120 29t93 76t60.5 106t21.5 119t-21.5 119t-60.5 106t-93 76t-120 29
t-120 -29t-93 -76t-60.5 -106t-21.5 -119t21.5 -119t60.5 -106t93 -76t120 -29zM71 330q0 61 23 121t65 107.5t101 77t130 29.5t130 -29.5t101 -77t65 -107.5t23 -121t-23 -121t-65 -107.5t-101 -77t-130 -29.5t-130 29.5t-101 77t-65 107.5t-23 121z" />
    <glyph glyph-name="obreve" unicode="&#x14f;" horiz-adv-x="580" 
d="M183 712h3q1 -15 10 -29t23.5 -24.5t32.5 -16.5t38 -6t38.5 6t32.5 16.5t23 24.5t10 29h4q-1 -18 -10.5 -34t-24.5 -28.5t-33.5 -19.5t-39.5 -7q-20 0 -39 7t-33.5 19.5t-24 28.5t-10.5 34zM290 -1q44 0 83.5 20t69.5 54.5t47.5 80t17.5 96.5t-17.5 96.5t-47.5 80
t-69.5 54.5t-83.5 20t-83.5 -20t-69.5 -54.5t-47.5 -80t-17.5 -96.5t17.5 -96.5t47.5 -80t69.5 -54.5t83.5 -20zM50 250q0 52 19 98t52 81t76.5 55.5t92.5 20.5t92.5 -20.5t76.5 -55.5t52.5 -81t19.5 -98t-19.5 -98t-52.5 -81t-76.5 -55.5t-92.5 -20.5t-92.5 20.5
t-76.5 55.5t-52 81t-19 98z" />
    <glyph glyph-name="Racute" unicode="&#x154;" horiz-adv-x="596" 
d="M223 692l-2 1l99 138q17 23 30 40.5t14 17.5q2 0 7 -3t4 -5q1 -1 -12.5 -18t-32.5 -40zM60 647v13h60h11h11h159q37 0 70.5 -14t58.5 -38t39.5 -55.5t14.5 -67.5q0 -34 -16 -64.5t-43.5 -54t-64 -38.5t-77.5 -18l205 -208q31 -32 50 -51t30 -29.5t16 -14t8 -3.5h5v-4h-12
q-8 0 -16 3.5t-21.5 15t-35 32.5t-54.5 55l-200 204h-116v-214q0 -34 15 -58.5t36 -24.5h9q2 0 0 -7q2 -6 0 -6h-60h-11h-11h-60v13h9q20 0 35.5 24.5t15.5 58.5v468q0 34 -15.5 58.5t-35.5 24.5h-9zM269 315q39 0 74 13.5t61 37t41.5 54.5t15.5 65t-13 64.5t-34.5 54
t-50.5 37t-62 13.5h-159v-339h111h16z" />
    <glyph glyph-name="Rcaron" unicode="&#x158;" horiz-adv-x="521" 
d="M60 647v13h60h11h11h159q37 0 70.5 -14t58.5 -38t39.5 -55.5t14.5 -67.5q0 -33 -15 -63t-41.5 -53.5t-61.5 -39t-75 -18.5h1q19 -53 47.5 -107.5t60 -102.5t64 -85t59.5 -55l-2 -3q-33 21 -69.5 60t-71 87t-64 101.5t-47.5 103.5h-127v-214q0 -34 15 -58.5t36 -24.5h9
q2 0 0 -7q2 -6 0 -6h-60h-11h-11h-60v13h9q20 0 35.5 24.5t15.5 58.5v468q0 34 -15.5 58.5t-35.5 24.5h-9zM302 737l-114 189l-2 -2l110 -203q1 -2 2.5 -4t3.5 -2t3.5 2t2.5 4l110 203l-2 2zM142 315h127q39 0 74 13.5t61 37t41.5 54.5t15.5 65t-13 64.5t-34.5 54t-50.5 37
t-62 13.5h-159v-339z" />
    <glyph glyph-name="rcaron" unicode="&#x159;" horiz-adv-x="389" 
d="M186 13v-13h-60h-10h-10h-61v13h9q21 0 36.5 24.5t15.5 58.5v277q0 26 -3 43.5t-10 28t-19 16.5t-29 10v7l74 22h4l2 -80q15 17 35 32.5t42 27t44 18.5t40 7q46 0 70 -10.5t24 -24.5q0 -10 -10 -10q-11 0 -24 4.5t-26.5 10.5t-26 10.5t-23.5 4.5q-17 0 -37 -6t-39.5 -16
t-37.5 -23t-31 -28l1 -18v0v-20v-283v-5q1 -32 16 -55t35 -23h9zM196 578l-115 188l-2 -2l110 -203q1 -2 3 -4t4 -2t3.5 2t2.5 4l110 203l-2 2z" />
    <glyph glyph-name="Sacute" unicode="&#x15a;" horiz-adv-x="499" 
d="M182 692l-2 1l99 138q9 12 16.5 22.5t13.5 18.5l13 17q3 0 7.5 -3t4.5 -5q0 -1 -13.5 -18t-31.5 -40zM44 163h11q2 -6 5.5 -15.5t5.5 -15.5q8 -23 25.5 -45t40.5 -39.5t49.5 -29.5t52.5 -15v0q24 -3 47 -3q32 0 61 12t50.5 32.5t34 48t12.5 57.5q0 24 -15.5 49.5t-42 49
t-62 43t-74.5 30.5q-38 11 -72.5 30t-60 42t-40.5 48.5t-15 48.5q0 35 14 66.5t38 55.5t55.5 38t66.5 14q20 0 45.5 -4t52 -11.5t52 -16.5t44.5 -20v-107h-11q-3 9 -8 22t-8 23q-6 18 -18.5 35t-28 31t-33 24t-34.5 13v0q-30 6 -54 6q-32 0 -60.5 -13t-50.5 -35t-34.5 -51
t-12.5 -61q0 -22 15 -45.5t41 -46t60.5 -41t73.5 -29.5t74 -31t61.5 -44.5t42 -51.5t15.5 -52q0 -33 -14 -63t-38 -52.5t-55.5 -35.5t-66.5 -13q-31 0 -65.5 5t-67 13t-60 19.5t-44.5 23.5v107z" />
    <glyph glyph-name="sacute" unicode="&#x15b;" horiz-adv-x="423" 
d="M126 532l-2 1l99 138q17 23 30 40.5t14 17.5q2 0 6.5 -3t4.5 -5q0 -1 -13.5 -18t-31.5 -40zM49 117h9q2 -5 4.5 -11t4.5 -11q7 -16 21.5 -32t32.5 -28.5t39 -21.5t42 -11v0q8 -1 16.5 -1.5t16.5 -0.5q25 0 47 9.5t38.5 26t26.5 38.5t10 46q0 15 -11 32.5t-29.5 34
t-43 31.5t-51.5 25q-30 11 -57.5 28.5t-48 37t-32.5 39.5t-12 37q0 24 10.5 46t29 38.5t42.5 26t51 9.5q12 0 30 -3.5t37.5 -10t39.5 -14.5t37 -17v-67h-10q-2 4 -3 9.5t-3 9.5q-9 27 -38.5 52t-61.5 33q-8 2 -15.5 3t-12.5 1q-24 0 -45 -8.5t-37 -23.5t-25.5 -35t-9.5 -42
q0 -16 12 -35t32 -37.5t47 -35t57 -27.5q28 -10 53 -26t43.5 -33.5t29.5 -35.5t11 -34q0 -27 -11 -51t-30 -42.5t-44.5 -29t-53.5 -10.5q-24 0 -51 4t-52.5 10.5t-47 15t-34.5 18.5v74z" />
    <glyph glyph-name="Scircumflex" unicode="&#x15c;" horiz-adv-x="499" 
d="M44 163h11q2 -6 5.5 -15.5t5.5 -15.5q8 -23 25.5 -45t40.5 -39.5t49.5 -29.5t52.5 -15v0q24 -3 47 -3q32 0 61 12t50.5 32.5t34 48t12.5 57.5q0 24 -15.5 49.5t-42 49t-62 43t-74.5 30.5q-38 11 -72.5 30t-60 42t-40.5 48.5t-15 48.5q0 35 14 66.5t38 55.5t55.5 38
t66.5 14q20 0 45.5 -4t52 -11.5t52 -16.5t44.5 -20v-107h-11q-3 9 -8 22t-8 23q-6 18 -18.5 35t-28 31t-33 24t-34.5 13v0q-30 6 -54 6q-32 0 -60.5 -13t-50.5 -35t-34.5 -51t-12.5 -61q0 -22 15 -45.5t41 -46t60.5 -41t73.5 -29.5t74 -31t61.5 -44.5t42 -51.5t15.5 -52
q0 -33 -14 -63t-38 -52.5t-55.5 -35.5t-66.5 -13q-31 0 -65.5 5t-67 13t-60 19.5t-44.5 23.5v107zM230 883l-114 -189l-2 2l110 203q1 2 2.5 4t3.5 2t3.5 -2t2.5 -4l110 -203l-2 -2z" />
    <glyph glyph-name="Scedilla" unicode="&#x15e;" horiz-adv-x="499" 
d="M44 163h11q2 -6 5.5 -15.5t5.5 -15.5q8 -23 25.5 -45t40.5 -39.5t49.5 -29.5t52.5 -15v0q24 -3 47 -3q32 0 61 12t50.5 32.5t34 48t12.5 57.5q0 24 -15.5 49.5t-42 49t-62 43t-74.5 30.5q-38 11 -72.5 30t-60 42t-40.5 48.5t-15 48.5q0 35 14 66.5t38 55.5t55.5 38
t66.5 14q20 0 45.5 -4t52 -11.5t52 -16.5t44.5 -20v-107h-11q-3 9 -8 22t-8 23q-6 18 -18.5 35t-28 31t-33 24t-34.5 13v0q-30 6 -54 6q-32 0 -60.5 -13t-50.5 -35t-34.5 -51t-12.5 -61q0 -22 15 -45.5t41 -46t60.5 -41t73.5 -29.5t74 -31t61.5 -44.5t42 -51.5t15.5 -52
q0 -33 -14 -63t-38 -52.5t-55.5 -35.5t-66.5 -13q-31 0 -65.5 5t-67 13t-60 19.5t-44.5 23.5v107z" />
    <glyph glyph-name="scedilla" unicode="&#x15f;" horiz-adv-x="423" 
d="M49 117h9q2 -5 4.5 -11t4.5 -11q7 -16 21.5 -32t32.5 -28.5t39 -21.5t42 -11v0q8 -1 16.5 -1.5t16.5 -0.5q25 0 47 9.5t38.5 26t26.5 38.5t10 46q0 15 -11 32.5t-29.5 34t-43 31.5t-51.5 25q-30 11 -57.5 28.5t-48 37t-32.5 39.5t-12 37q0 24 10.5 46t29 38.5t42.5 26
t51 9.5q12 0 30 -3.5t37.5 -10t39.5 -14.5t37 -17v-67h-10q-2 4 -3 9.5t-3 9.5q-9 27 -38.5 52t-61.5 33q-8 2 -15.5 3t-12.5 1q-24 0 -45 -8.5t-37 -23.5t-25.5 -35t-9.5 -42q0 -16 12 -35t32 -37.5t47 -35t57 -27.5q28 -10 53 -26t43.5 -33.5t29.5 -35.5t11 -34
q0 -27 -11 -51t-30 -42.5t-44.5 -29t-53.5 -10.5q-24 0 -51 4t-52.5 10.5t-47 15t-34.5 18.5v74z" />
    <glyph glyph-name="Scaron" unicode="&#x160;" horiz-adv-x="499" 
d="M44 163h11q2 -6 5.5 -15.5t5.5 -15.5q8 -23 25.5 -45t40.5 -39.5t49.5 -29.5t52.5 -15v0q24 -3 47 -3q32 0 61 12t50.5 32.5t34 48t12.5 57.5q0 24 -15.5 49.5t-42 49t-62 43t-74.5 30.5q-38 11 -72.5 30t-60 42t-40.5 48.5t-15 48.5q0 35 14 66.5t38 55.5t55.5 38
t66.5 14q20 0 45.5 -4t52 -11.5t52 -16.5t44.5 -20v-107h-11q-3 9 -8 22t-8 23q-6 18 -18.5 35t-28 31t-33 24t-34.5 13v0q-30 6 -54 6q-32 0 -60.5 -13t-50.5 -35t-34.5 -51t-12.5 -61q0 -22 15 -45.5t41 -46t60.5 -41t73.5 -29.5t74 -31t61.5 -44.5t42 -51.5t15.5 -52
q0 -33 -14 -63t-38 -52.5t-55.5 -35.5t-66.5 -13q-31 0 -65.5 5t-67 13t-60 19.5t-44.5 23.5v107zM230 737l-114 189l-2 -2l110 -203q1 -2 2.5 -4t3.5 -2t3.5 2t2.5 4l110 203l-2 2z" />
    <glyph glyph-name="scaron" unicode="&#x161;" horiz-adv-x="423" 
d="M49 117h9q2 -5 4.5 -11t4.5 -11q7 -16 21.5 -32t32.5 -28.5t39 -21.5t42 -11v0q8 -1 16.5 -1.5t16.5 -0.5q25 0 47 9.5t38.5 26t26.5 38.5t10 46q0 15 -11 32.5t-29.5 34t-43 31.5t-51.5 25q-30 11 -57.5 28.5t-48 37t-32.5 39.5t-12 37q0 24 10.5 46t29 38.5t42.5 26
t51 9.5q12 0 30 -3.5t37.5 -10t39.5 -14.5t37 -17v-67h-10q-2 4 -3 9.5t-3 9.5q-9 27 -38.5 52t-61.5 33q-8 2 -15.5 3t-12.5 1q-24 0 -45 -8.5t-37 -23.5t-25.5 -35t-9.5 -42q0 -16 12 -35t32 -37.5t47 -35t57 -27.5q28 -10 53 -26t43.5 -33.5t29.5 -35.5t11 -34
q0 -27 -11 -51t-30 -42.5t-44.5 -29t-53.5 -10.5q-24 0 -51 4t-52.5 10.5t-47 15t-34.5 18.5v74zM205 578l-114 188l-2 -2l109 -203q1 -2 3 -4t4 -2t3.5 2t2.5 4l110 203l-2 2z" />
    <glyph glyph-name="Tcaron" unicode="&#x164;" horiz-adv-x="620" 
d="M596 533h-10l-9 23q-8 20 -23.5 38t-35 31.5t-40.5 21.5t-41 8h-116v-559q0 -34 15 -58.5t36 -24.5h9q2 0 0 -7q2 -6 0 -6h-60h-11h-11h-60v13h9q20 0 35.5 24.5t15.5 58.5v559h-116q-20 0 -41 -8t-40.5 -21.5t-35 -31.5t-23.5 -38l-9 -23h-10q2 26 5 62.5t5 61.5
q0 1 0.5 1.5t0.5 1.5h5h91h358h91h5q0 -1 0.5 -1.5t0.5 -1.5q2 -25 5 -61.5t5 -62.5zM310 737l-114 189l-2 -2l110 -203q1 -2 2.5 -4t3.5 -2t3.5 2t2.5 4l110 203l-2 2z" />
    <glyph glyph-name="tcaron" unicode="&#x165;" horiz-adv-x="350" 
d="M320 500v-8h-188v-386q0 -54 18 -78t58 -24q37 0 68.5 12.5t52.5 29.5l1 -1q-24 -20 -59 -35t-73 -15q-45 0 -65.5 27t-20.5 88v382h-87v2q35 2 61 10.5t30 18.5l13 117h3v-140h188zM419 614l-47 -157l-3 1l38 161q3 15 7.5 33.5t9 34.5t8 26.5t4.5 10.5q3 0 8 -1t5 -3
q0 -1 -2.5 -10.5t-6.5 -24.5t-9.5 -33.5t-11.5 -37.5z" />
    <glyph glyph-name="Utilde" unicode="&#x168;" horiz-adv-x="662" 
d="M199 755h-3q0 35 16 60t39 25q21 0 44.5 -10t48 -21.5t48 -21.5t44.5 -10q20 0 34.5 18t14.5 42h4q0 -29 -17 -51t-40 -22q-21 0 -44.5 10t-48 21.5t-48 21.5t-44.5 10q-20 0 -34 -21.5t-14 -50.5zM643 660v-13h-11q-23 0 -40.5 -27.5t-17.5 -65.5v-381q0 -36 -15 -68.5
t-43.5 -56.5t-71 -38.5t-97.5 -14.5q-58 0 -102 17t-74 45.5t-45.5 66t-15.5 79.5v361q0 34 -15.5 58.5t-35.5 24.5h-9v13h60h11h11h60q2 0 0 -6q2 -7 0 -7h-9q-21 0 -36 -24.5t-15 -58.5v-365q0 -40 14 -75.5t42 -62.5t68.5 -42.5t93.5 -15.5t93.5 14t68 37.5t41.5 55
t14 66.5v378q0 38 -18 65.5t-44 27.5h-11v13h73h4h3h69z" />
    <glyph glyph-name="utilde" unicode="&#x169;" 
d="M121 595h-3q0 35 16.5 60t39.5 25q21 0 44.5 -10t48 -21.5t48 -21.5t44.5 -10q20 0 34.5 18t14.5 42h3q0 -29 -17 -51t-40 -22q-21 0 -44.5 10t-48 21.5t-48 21.5t-44.5 10q-20 0 -34 -21.5t-14 -50.5zM514 29v-7l-76 -22h-4v5v58q-24 -28 -76.5 -48t-120.5 -20
q-36 0 -65.5 13t-51 35t-33 51t-11.5 62v248q0 34 -15.5 58.5t-36.5 24.5h-9v13h61h10h10l-1 -341q0 -31 11.5 -58.5t32.5 -48t50 -32.5t64 -12q66 0 114 17.5t67 40.5v55v283q0 34 -15.5 58.5t-36.5 24.5h-9v13h61h10h10v-373v-13q1 -45 14.5 -61.5t45.5 -23.5z" />
    <glyph glyph-name="Umacron" unicode="&#x16a;" horiz-adv-x="662" 
d="M192 774v11h300v-11h-300zM643 660v-13h-11q-23 0 -40.5 -27.5t-17.5 -65.5v-381q0 -36 -15 -68.5t-43.5 -56.5t-71 -38.5t-97.5 -14.5q-58 0 -102 17t-74 45.5t-45.5 66t-15.5 79.5v361q0 34 -15.5 58.5t-35.5 24.5h-9v13h60h11h11h60q2 0 0 -6q2 -7 0 -7h-9
q-21 0 -36 -24.5t-15 -58.5v-365q0 -40 14 -75.5t42 -62.5t68.5 -42.5t93.5 -15.5t93.5 14t68 37.5t41.5 55t14 66.5v378q0 38 -18 65.5t-44 27.5h-11v13h73h4h3h69z" />
    <glyph glyph-name="umacron" unicode="&#x16b;" 
d="M115 614v11h300v-11h-300zM514 29v-7l-76 -22h-4v5v58q-24 -28 -76.5 -48t-120.5 -20q-36 0 -65.5 13t-51 35t-33 51t-11.5 62v248q0 34 -15.5 58.5t-36.5 24.5h-9v13h61h10h10l-1 -341q0 -31 11.5 -58.5t32.5 -48t50 -32.5t64 -12q66 0 114 17.5t67 40.5v55v283
q0 34 -15.5 58.5t-36.5 24.5h-9v13h61h10h10v-373v-13q1 -45 14.5 -61.5t45.5 -23.5z" />
    <glyph glyph-name="Ubreve" unicode="&#x16c;" horiz-adv-x="662" 
d="M235 872h3q1 -15 10 -29t23.5 -24.5t32.5 -16.5t38 -6t38.5 6t32.5 16.5t23 24.5t10 29h3q-1 -18 -10 -34t-24 -28.5t-33.5 -19.5t-39.5 -7t-39.5 7t-33.5 19.5t-24 28.5t-10 34zM643 660v-13h-11q-23 0 -40.5 -27.5t-17.5 -65.5v-381q0 -36 -15 -68.5t-43.5 -56.5
t-71 -38.5t-97.5 -14.5q-58 0 -102 17t-74 45.5t-45.5 66t-15.5 79.5v361q0 34 -15.5 58.5t-35.5 24.5h-9v13h60h11h11h60q2 0 0 -6q2 -7 0 -7h-9q-21 0 -36 -24.5t-15 -58.5v-365q0 -40 14 -75.5t42 -62.5t68.5 -42.5t93.5 -15.5t93.5 14t68 37.5t41.5 55t14 66.5v378
q0 38 -18 65.5t-44 27.5h-11v13h73h4h3h69z" />
    <glyph glyph-name="ubreve" unicode="&#x16d;" 
d="M157 712h4q1 -15 10 -29t23 -24.5t32.5 -16.5t38.5 -6t38 6t32 16.5t23 24.5t10 29h4q-1 -18 -10.5 -34t-24 -28.5t-33.5 -19.5t-39 -7q-21 0 -40 7t-33.5 19.5t-24 28.5t-10.5 34zM514 29v-7l-76 -22h-4v5v58q-24 -28 -76.5 -48t-120.5 -20q-36 0 -65.5 13t-51 35
t-33 51t-11.5 62v248q0 34 -15.5 58.5t-36.5 24.5h-9v13h61h10h10l-1 -341q0 -31 11.5 -58.5t32.5 -48t50 -32.5t64 -12q66 0 114 17.5t67 40.5v55v283q0 34 -15.5 58.5t-36.5 24.5h-9v13h61h10h10v-373v-13q1 -45 14.5 -61.5t45.5 -23.5z" />
    <glyph glyph-name="Uring" unicode="&#x16e;" horiz-adv-x="662" 
d="M342 699q16 0 32 7.5t28.5 20.5t20 29t7.5 32q0 18 -7 34t-19 28t-28 19t-34 7t-33.5 -7t-27.5 -19t-19 -28t-7 -34q0 -16 7.5 -32t20 -29t28 -20.5t31.5 -7.5zM249 788q0 18 7.5 35t20.5 29.5t29.5 20t35.5 7.5t36 -7.5t29.5 -20t20 -29.5t7.5 -35q0 -17 -8 -33.5
t-21.5 -30t-30 -21.5t-33.5 -8t-33.5 8t-30 21.5t-21.5 30t-8 33.5zM643 660v-13h-11q-23 0 -40.5 -27.5t-17.5 -65.5v-381q0 -36 -15 -68.5t-43.5 -56.5t-71 -38.5t-97.5 -14.5q-58 0 -102 17t-74 45.5t-45.5 66t-15.5 79.5v361q0 34 -15.5 58.5t-35.5 24.5h-9v13h60h11h11
h60q2 0 0 -6q2 -7 0 -7h-9q-21 0 -36 -24.5t-15 -58.5v-365q0 -40 14 -75.5t42 -62.5t68.5 -42.5t93.5 -15.5t93.5 14t68 37.5t41.5 55t14 66.5v378q0 38 -18 65.5t-44 27.5h-11v13h73h4h3h69z" />
    <glyph glyph-name="uring" unicode="&#x16f;" 
d="M265 539q16 0 31.5 7.5t28 20.5t20 29t7.5 32q0 18 -7 34t-19 28t-27.5 19t-33.5 7t-34 -7t-28 -19t-19 -28t-7 -34q0 -16 7.5 -32t20 -29t28.5 -20.5t32 -7.5zM171 628q0 18 7.5 35t20.5 29.5t30 20t36 7.5t36 -7.5t29.5 -20t20 -29.5t7.5 -35q0 -17 -8 -33.5t-21.5 -30
t-30 -21.5t-33.5 -8t-34 8t-30.5 21.5t-21.5 30t-8 33.5zM514 29v-7l-76 -22h-4v5v58q-24 -28 -76.5 -48t-120.5 -20q-36 0 -65.5 13t-51 35t-33 51t-11.5 62v248q0 34 -15.5 58.5t-36.5 24.5h-9v13h61h10h10l-1 -341q0 -31 11.5 -58.5t32.5 -48t50 -32.5t64 -12
q66 0 114 17.5t67 40.5v55v283q0 34 -15.5 58.5t-36.5 24.5h-9v13h61h10h10v-373v-13q1 -45 14.5 -61.5t45.5 -23.5z" />
    <glyph glyph-name="Wcircumflex" unicode="&#x174;" horiz-adv-x="859" 
d="M765 564v0q10 34 -4 58.5t-42 24.5h-12q-2 0 0 7q-2 6 0 6h85h3h3h57q2 0 0 -6q2 -7 0 -7h-9q-20 0 -41 -22t-32 -54l-163 -586h-5l-186 647l-168 -647h-5l-176 592q-11 29 -29 49.5t-33 20.5h-7v13h44h12h12h73v-13h-10q-24 0 -34.5 -24.5t-0.5 -58.5v0l158 -545
l168 651h6l186 -649l150 543v0zM426 882l-114 -188l-2 2l110 203q0 2 2 4t4 2t3.5 -2t2.5 -4l110 -203l-2 -2z" />
    <glyph glyph-name="Ycircumflex" unicode="&#x176;" 
d="M359 13v-13h-61h-11h-11h-60v13h9q20 0 35.5 24.5t15.5 58.5v151l-160 322q-17 32 -40 55t-38 23h-6v13h38h13h13h73v-13h-10q-22 0 -27.5 -21.5t7.5 -52.5l155 -314l-2 -3h1l146 288v0q21 42 16 72.5t-34 30.5h-12v13h89h3h3h47v-13h-8q-9 0 -20.5 -6.5t-23.5 -18
t-23.5 -26.5t-20.5 -32v0l-157 -308v0v-160q0 -34 15.5 -58.5t36.5 -24.5h9zM287 882l-114 -188l-2 2l110 203q1 2 2.5 4t3.5 2t4 -2t3 -4l109 -203l-2 -2z" />
    <glyph glyph-name="Ydieresis" unicode="&#x178;" 
d="M371 730q-8 0 -14 6t-6 14t6 14t14 6t14 -6t6 -14t-6 -14t-14 -6zM204 730q-8 0 -14 6t-6 14t6 14t14 6t14 -6t6 -14t-6 -14t-14 -6zM359 13v-13h-61h-11h-11h-60v13h9q20 0 35.5 24.5t15.5 58.5v151l-160 322q-17 32 -40 55t-38 23h-6v13h38h13h13h73v-13h-10
q-22 0 -27.5 -21.5t7.5 -52.5l155 -314l-2 -3h1l146 288v0q21 42 16 72.5t-34 30.5h-12v13h89h3h3h47v-13h-8q-9 0 -20.5 -6.5t-23.5 -18t-23.5 -26.5t-20.5 -32v0l-157 -308v0v-160q0 -34 15.5 -58.5t36.5 -24.5h9z" />
    <glyph glyph-name="Zacute" unicode="&#x179;" horiz-adv-x="587" 
d="M333 692l-2 1l99 138q17 23 30 40.5t14 17.5q2 0 6.5 -3t4.5 -5q0 -1 -13.5 -18t-31.5 -40zM524 3v-3h-1h-96h-341h-12h-12l439 655h-217q-20 0 -42.5 -6.5t-43.5 -18t-39.5 -26.5t-29.5 -32l-10 -14h-10q5 20 13.5 49.5t13.5 49.5q0 2 1 3h5h91h271h13h12l-439 -654h280
h4q22 0 44.5 8.5t42.5 22.5t36 32.5t25 39.5l8 18q2 -1 4 -1l8 -4h2l1 -1q-5 -24 -10.5 -59t-10.5 -59z" />
    <glyph glyph-name="zacute" unicode="&#x17a;" horiz-adv-x="483" 
d="M177 532l-3 1l99 138q17 23 30 40.5t14 17.5q2 0 7 -3t5 -5q0 -1 -13.5 -18t-31.5 -40zM435 126l15 -6q-4 -24 -10 -59t-11 -59v-2h-1h-95h-244h-12h-12l343 496l-189 -1v0q-20 0 -42.5 -5t-43 -13.5t-37.5 -19.5t-27 -24l-9 -10h-10q5 15 10.5 37l9.5 38q1 0 1 2h5h91
h244h11h12l-342 -496l183 1v0q22 0 45.5 8t44 22t37 33t25.5 40z" />
    <glyph glyph-name="Zdotaccent" unicode="&#x17b;" horiz-adv-x="587" 
d="M336 730q-8 0 -14 6t-6 14t6 14t14 6t14 -6t6 -14t-6 -14t-14 -6zM524 3v-3h-1h-96h-341h-12h-12l439 655h-217q-20 0 -42.5 -6.5t-43.5 -18t-39.5 -26.5t-29.5 -32l-10 -14h-10q5 20 13.5 49.5t13.5 49.5q0 2 1 3h5h91h271h13h12l-439 -654h280h4q22 0 44.5 8.5
t42.5 22.5t36 32.5t25 39.5l8 18q2 -1 4 -1l8 -4h2l1 -1q-5 -24 -10.5 -59t-10.5 -59z" />
    <glyph glyph-name="zdotaccent" unicode="&#x17c;" horiz-adv-x="483" 
d="M255 570q-8 0 -14 6t-6 14t6 14t14 6t14 -6t6 -14t-6 -14t-14 -6zM435 126l15 -6q-4 -24 -10 -59t-11 -59v-2h-1h-95h-244h-12h-12l343 496l-189 -1v0q-20 0 -42.5 -5t-43 -13.5t-37.5 -19.5t-27 -24l-9 -10h-10q5 15 10.5 37l9.5 38q1 0 1 2h5h91h244h11h12l-342 -496
l183 1v0q22 0 45.5 8t44 22t37 33t25.5 40z" />
    <glyph glyph-name="Zcaron" unicode="&#x17d;" horiz-adv-x="587" 
d="M336 738l-115 188l-2 -2l110 -203q1 -2 3 -4t4 -2t3.5 2t2.5 4l110 203l-2 2zM524 3v-3h-1h-96h-341h-12h-12l439 655h-217q-20 0 -42.5 -6.5t-43.5 -18t-39.5 -26.5t-29.5 -32l-10 -14h-10q5 20 13.5 49.5t13.5 49.5q0 2 1 3h5h91h271h13h12l-439 -654h280h4
q22 0 44.5 8.5t42.5 22.5t36 32.5t25 39.5l8 18q2 -1 4 -1l8 -4h2l1 -1q-5 -24 -10.5 -59t-10.5 -59z" />
    <glyph glyph-name="zcaron" unicode="&#x17e;" horiz-adv-x="483" 
d="M435 126l15 -6q-4 -24 -10 -59t-11 -59v-2h-1h-95h-244h-12h-12l343 496l-189 -1v0q-20 0 -42.5 -5t-43 -13.5t-37.5 -19.5t-27 -24l-9 -10h-10q5 15 10.5 37l9.5 38q1 0 1 2h5h91h244h11h12l-342 -496l183 1v0q22 0 45.5 8t44 22t37 33t25.5 40zM255 577l-114 189l-2 -2
l110 -203q1 -2 2.5 -4t3.5 -2t4 2t2 4l110 203l-2 2z" />
    <glyph glyph-name="SmallLetterOwithogon" unicode="&#x1eb;" horiz-adv-x="699" 
d="M713 -50q-12 -15 -29 -28t-36 -22.5t-38 -15.5t-34 -6q-25 0 -53.5 9.5t-57.5 25.5t-57.5 37t-52.5 45q-63 1 -115 26t-89.5 65t-58 90t-20.5 101t21 101.5t59 90t91 64.5t117 25q65 0 118 -25t91 -64.5t59 -90t21 -101.5t-21 -101.5t-58.5 -90.5t-90.5 -65t-117 -25
q22 -21 48.5 -40t55 -33t57 -22.5t55.5 -8.5q17 0 35.5 5t37 13t34.5 19t26 23zM360 0q60 0 109 24.5t84.5 63.5t55 88.5t19.5 100.5q0 50 -19.5 99.5t-55 88.5t-84.5 63.5t-109 24.5t-109 -24.5t-84 -63.5t-54.5 -88.5t-19.5 -99.5q0 -51 19.5 -100.5t54.5 -88.5t84 -63.5
t109 -24.5z" />
    <glyph glyph-name="CapitalLetterAwithdo" unicode="&#x226;" horiz-adv-x="573" 
d="M286 730q-8 0 -14 6t-6 14t6 14t14 6t14 -6t6 -14t-6 -14t-14 -6zM566 13v-13h-48h-12h-12h-85v13h13q28 0 39.5 24.5t0.5 58.5l-45 136h-272l-39 -122q-13 -40 -1 -68.5t41 -28.5h13v-13h-89h-3h-4h-57v13h10q20 0 43.5 24.5t34.5 58.5v0l190 579h5l200 -591
q13 -30 32.5 -50.5t36.5 -20.5h8zM415 238l-136 407l-132 -407h268z" />
    <glyph glyph-name="LETTERSMALLCAPITALG" unicode="&#x262;" horiz-adv-x="747" 
d="M653 260v-13h-9q-21 1 -36 -24t-16 -59v-105q-22 -13 -51.5 -24.5t-61 -20.5t-62.5 -14t-55 -5q-58 0 -111 22.5t-92.5 61.5t-63 90t-23.5 108t23.5 108t63 89.5t92.5 61t111 22.5q23 0 52 -5t60 -13.5t60.5 -19.5t52.5 -24v-105h-11q-2 6 -5.5 15t-5.5 16
q-7 22 -24.5 43.5t-40 39t-49 29.5t-52.5 16q-21 3 -37 3q-54 0 -103 -22t-86 -60t-58.5 -88t-21.5 -106t21.5 -106.5t58.5 -88.5t86 -60t103 -22q22 0 49.5 4.5t56.5 12t57 17.5t50 21v109q0 34 -15.5 59t-36.5 24h-9v13h61h9h8h61z" />
    <glyph glyph-name="LETTERSMALLCAPITALI" unicode="&#x26a;" horiz-adv-x="222" 
d="M182 553v-12h-9q-21 0 -36 -25t-16 -59v-361q1 -34 16 -58.5t36 -24.5h9v-13h-61h-9h-10h-61v13h9q21 0 36.5 24.5t15.5 58.5v361q0 34 -15.5 59t-36.5 25h-9v12q15 1 36 0t35 0t35 1t35 -1z" />
    <glyph glyph-name="LETTERSMALLCAPITALN" unicode="&#x274;" horiz-adv-x="600" 
d="M562 553v-12h-9q-21 0 -36 -25t-16 -59v-442v-19h-5l-9 12l-375 528v-440q0 -34 15.5 -58.5t36.5 -24.5h9v-13h-61h-3h-3h-60v13h9q20 0 35.5 24.5t15.5 58.5v361q0 34 -15.5 59t-35.5 25h-9v12q13 1 31.5 1t31.5 -1h3h11l-11 -8v0l11 8l373 -524v428q0 34 -15.5 59
t-36.5 25h-9v12q13 1 32 1t32 -1q12 1 31 1t32 -1z" />
    <glyph glyph-name="LETTERSMALLCAPITALR" unicode="&#x280;" horiz-adv-x="554" 
d="M60 541v12q14 1 35 1t35 -1h10h110q35 0 66 -11.5t54.5 -31t37.5 -46t14 -55.5t-14.5 -55t-39 -46.5t-57.5 -33t-70 -14.5l185 -158q37 -32 60 -51t36 -29.5t18.5 -14t8.5 -3.5h5v-4h-11q-6 0 -14.5 3.5t-24 15t-40.5 32.5t-65 55l-181 154h-78v-164q0 -34 15.5 -58.5
t36.5 -24.5h9v-13h-61h-10h-9h-61v13h9q21 0 36.5 24.5t15.5 58.5v361q0 34 -15.5 59t-36.5 25h-9zM228 265q35 0 66.5 11.5t55.5 31t38 46t14 55.5q0 28 -12 53.5t-33 44.5t-48.5 30t-58.5 11h-110v-283h72h16z" />
    <glyph glyph-name="LETTERSMALLCAPITALY" unicode="&#x28f;" horiz-adv-x="487" 
d="M327 13v-13h-61h-10h-9h-61v13h9q21 0 36.5 24.5t15.5 58.5v111l-127 250h-1q-8 17 -18.5 32t-21.5 26.5t-21.5 18.5t-18.5 7h-7v12q11 1 25.5 1t24.5 -1q17 1 42.5 1t42.5 -1v-12h-10q-23 0 -27.5 -25t12.5 -59v0l120 -241l114 221v0q22 42 17.5 73t-33.5 31h-13
q2 0 0 6q1 3 1 6q19 1 46 1t45 -1q11 1 25 1t24 -1q2 2 0 -6q2 -6 0 -6h-8q-17 0 -42.5 -24t-43.5 -56l-128 -247v-118q0 -34 15.5 -58.5t36.5 -24.5h9zM348 553v0h-1h1z" />
    <glyph glyph-name="LETTERSMALLCAPITALB" unicode="&#x299;" horiz-adv-x="491" 
d="M60 541v12q14 1 35 1t35 -1h10h109q35 0 66 -10t54 -27.5t37 -40t14 -48.5q0 -25 -11.5 -47.5t-32 -41t-48 -31.5t-59.5 -18q42 -5 79 -18t64.5 -32.5t43.5 -43t16 -49.5q0 -30 -16 -56.5t-44 -46.5t-64.5 -31.5t-77.5 -11.5h-130h-10h-9h-61v13h9q21 0 36.5 24.5
t15.5 58.5v361q0 34 -15.5 59t-36.5 25h-9zM254 290v0q31 4 57.5 16.5t46.5 30.5t31.5 41.5t11.5 48.5t-12 47t-33 38.5t-48.5 26t-58.5 9.5h-109v-258l84 1h15t15 -1zM247 286q-5 -1 -10 -1h-10h-87v-280h128q38 0 71 11.5t58.5 30.5t40 45t14.5 54q0 26 -16 50t-43.5 43
t-65 31.5t-80.5 15.5z" />
    <glyph glyph-name="LETTERSMALLCAPITALH" unicode="&#x29c;" horiz-adv-x="671" 
d="M632 553v-12h-9q-21 0 -36.5 -25t-15.5 -59v-361q0 -34 15.5 -58.5t36.5 -24.5h9v-13h-61h-10h-9h-61v13h9q21 0 36.5 24.5t15.5 58.5v187h-431v-187q0 -34 15 -58.5t36 -24.5h9v-13h-60h-10h-10h-60v13h9q20 0 35.5 24.5t15.5 58.5v361q0 34 -15.5 59t-35.5 25h-9v12
q14 1 35 0t35 0t35 1t35 -1v-12h-9q-21 0 -36 -25t-15 -59v-169h431v169q0 34 -15.5 59t-36.5 25h-9v12q14 1 35 0t35 0t35.5 1t35.5 -1z" />
    <glyph glyph-name="LETTERSMALLCAPITALL" unicode="&#x29f;" horiz-adv-x="471" 
d="M378 126q3 -1 5 -2q6 -3 10 -4q-5 -23 -10.5 -58.5t-10.5 -59.5q0 -1 -1 -2h-96h-154h-10h-10h-60v13h9q20 0 35.5 24.5t15.5 58.5v361q0 34 -15.5 59t-35.5 25h-9v12q14 1 35 0t35 0t35 1t35 -1v-12h-9q-21 0 -36 -25t-15 -59v-452h96q22 0 45.5 8t44.5 22.5t37.5 33
t25.5 39.5z" />
    <glyph glyph-name="LETTERSMALLCAPITALA" unicode="&#x1d00;" horiz-adv-x="510" 
d="M504 13v-13h-49h-10h-11h-84v13h12q28 0 39.5 24.5t-0.5 58.5v0l-33 98h-234l-27 -83v0q-14 -40 -2 -69t41 -29h12v-13h-88h-4h-3h-56v13h9q20 0 44 24.5t35 58.5v0l158 470h5l164 -470v0q12 -34 34 -58.5t40 -24.5h8zM366 199l-117 341l-113 -341h230z" />
    <glyph glyph-name="LETTERSMALLCAPITALC" unicode="&#x1d04;" horiz-adv-x="667" 
d="M607 391h-11q-2 6 -5.5 15t-5.5 16q-7 21 -22.5 41t-36.5 37t-46 29.5t-50 18.5q-16 2 -30 3.5t-26 1.5q-57 0 -108 -22t-89.5 -60t-61 -88t-22.5 -106t22.5 -106.5t61 -88.5t89.5 -60t108 -22h12q32 2 64 14t59 31t47.5 43.5t29.5 51.5q2 6 5.5 15.5t5.5 16.5h10v-105
l-1 2v0l1 -2q-19 -15 -48 -28t-61 -22.5t-64.5 -15.5t-59.5 -6q-61 0 -116 22.5t-96 61.5t-65.5 90t-24.5 108t24.5 108t65.5 89.5t96 61t116 22.5q24 0 55 -5t63 -13.5t62 -19.5t53 -24v-105z" />
    <glyph glyph-name="LETTERSMALLCAPITALD" unicode="&#x1d05;" horiz-adv-x="590" 
d="M60 541v12q14 1 35 1t35 -1h10h96q62 0 117 -22t96.5 -60t66 -88t24.5 -106t-22 -106.5t-59 -88.5t-86.5 -60t-104.5 -22h-128h-10h-9h-61v13h9q21 0 36.5 24.5t15.5 58.5v361q0 34 -15.5 59t-36.5 25h-9zM140 5h128q51 0 97 22t80.5 59t55 86.5t20.5 104.5t-23 104
t-62 86t-90.5 59t-109.5 22h-96v-543z" />
    <glyph glyph-name="LETTERSMALLCAPITALE" unicode="&#x1d07;" horiz-adv-x="471" 
d="M306 216h-11l-2 10q-3 12 -15 22.5t-29 19t-38.5 13t-43.5 4.5h-46v-280h86q24 0 49.5 7.5t48.5 20t41 29.5t28 36l8 16h10q-5 -23 -10.5 -56t-9.5 -56q0 -1 -1 -2h-96h-154h-10h-10h-60v13h9q20 0 35.5 24.5t15.5 58.5v361q0 34 -15.5 59t-35.5 25h-9v12q14 1 35 1
t35 -1h10h146q17 1 42 1t42 -1q2 2 6 0q6 2 6 0v-2v-112h-9l-6 17q-6 19 -21 35.5t-35.5 29t-45 20t-48.5 7.5h-77v-259h46q22 0 43.5 4.5t38.5 11.5t29 16.5t15 19.5l2 9h11v-61v-2v-2v-69z" />
    <glyph glyph-name="LETTERSMALLCAPITALJ" unicode="&#x1d0a;" horiz-adv-x="269" 
d="M230 553v-12h-9q-21 0 -36.5 -25t-15.5 -59v-273q0 -95 -27 -144.5t-78 -49.5q-20 0 -39 18t-25 42q-2 8 8 8q7 0 9 -8q6 -23 21 -39.5t31 -16.5q39 0 60 44.5t21 129.5v289q0 34 -15.5 59t-36.5 25h-9v12q14 1 35 0t35 0t35 1t36 -1z" />
    <glyph glyph-name="LETTERSMALLCAPITALK" unicode="&#x1d0b;" 
d="M328 457v0q41 34 58.5 59t1.5 25h-6q-2 0 0 6q-2 8 0 6q13 1 31.5 1t31.5 -1q10 1 24 1t25 -1v-12h-9q-10 0 -27.5 -7t-38 -18.5t-42.5 -26.5t-42 -32v0l-176 -149l109 -98q116 -103 184 -157t82 -54h5v-4h-11q-24 0 -94.5 51.5t-180.5 150.5l-109 98l-1 -1l-3 4v-202
q0 -34 15.5 -58.5t36.5 -24.5h9v-13h-61h-10h-9h-61v13h9q21 0 36.5 24.5t15.5 58.5v361q0 34 -15.5 59t-36.5 25h-9v12q14 1 35 0t35 0t35.5 1t35.5 -1v-12h-9q-21 0 -36.5 -25t-15.5 -59v-159l15 13v0l173 146v0z" />
    <glyph glyph-name="LETTERSMALLCAPITALM" unicode="&#x1d0d;" horiz-adv-x="699" 
d="M691 13v-13h-60h-10h-10h-60v13h9q20 0 34 24.5t12 58.5v0l-22 442l-221 -543h-5l-5 13l-223 521l-19 -419q-1 -40 19.5 -68.5t51.5 -28.5h13v-13h-89h-3h-3h-60v13h9q19 0 34.5 20.5t20.5 49.5l17 383q-1 31 -14.5 53t-32.5 22h-9v12q13 1 31.5 1t31.5 -1h3h9l226 -530
l2 -4l215 534h7h2q14 1 34 1t34 -1q0 -3 1 -6q-2 -6 0 -6h-9q-20 0 -33 -22t-13 -53l20 -383q5 -29 21 -49.5t34 -20.5h10zM660 553v0h1h-1z" />
    <glyph glyph-name="LETTERSMALLCAPITALO" unicode="&#x1d0f;" horiz-adv-x="699" 
d="M360 0q60 0 109 24.5t84.5 63.5t55 88.5t19.5 100.5q0 50 -19.5 99.5t-55 88.5t-84.5 63.5t-109 24.5t-109 -24.5t-84 -63.5t-54.5 -88.5t-19.5 -99.5q0 -51 19.5 -100.5t54.5 -88.5t84 -63.5t109 -24.5zM72 277q0 51 21 101.5t59 90t91 64.5t117 25q65 0 118 -25
t91 -64.5t59 -90t21 -101.5t-21 -101.5t-59 -90.5t-91 -65t-118 -25q-64 0 -117 25t-91 65t-59 90.5t-21 101.5z" />
    <glyph glyph-name="LETTERSMALLCAPITALP" unicode="&#x1d18;" horiz-adv-x="476" 
d="M60 541v12q14 1 35 1t35 -1h10h124q39 0 74 -12.5t61 -34t41.5 -49.5t15.5 -60q0 -31 -17.5 -58.5t-47 -48.5t-69 -33t-83.5 -12h-99v-149q0 -34 15.5 -58.5t36.5 -24.5h9v-13h-61h-10h-9h-61v13h9q21 0 36.5 24.5t15.5 58.5v361q0 34 -15.5 59t-36.5 25h-9zM140 250h99
q40 0 75.5 12t62.5 32t43 46.5t16 56.5q0 31 -14 58.5t-37.5 48t-54.5 32.5t-66 12h-124v-298z" />
    <glyph glyph-name="LETTERSMALLCAPITALT" unicode="&#x1d1b;" horiz-adv-x="560" 
d="M536 427h-10l-10 23q-8 20 -23.5 37.5t-34.5 31t-40.5 21.5t-41.5 8h-86v-452q0 -34 15 -58.5t36 -24.5h9v-13h-60h-10h-10h-60v13h9q20 0 35.5 24.5t15.5 58.5v452h-86q-20 0 -41.5 -8t-40.5 -21.5t-34.5 -31t-23.5 -37.5l-10 -23h-10q2 26 5.5 62t5.5 62v2q0 2 6 0
q4 2 7 0q17 1 41.5 1t41.5 -1h298q17 1 41.5 1t41.5 -1q4 2 7 0q6 2 6 0v-2q2 -26 5.5 -62t5.5 -62z" />
    <glyph glyph-name="LETTERSMALLCAPITALU" unicode="&#x1d1c;" horiz-adv-x="602" 
d="M583 553v-12h-10q-24 0 -41.5 -28t-17.5 -66v-303q0 -30 -13 -57t-37.5 -47.5t-61.5 -32.5t-85 -12q-50 0 -88.5 14t-64.5 38t-39.5 55.5t-13.5 66.5v288q0 34 -15.5 59t-36.5 25h-9v12q14 1 35 0t35 0t35.5 1t35.5 -1v-12h-9q-21 0 -36.5 -25t-15.5 -59v-291
q0 -33 12.5 -63t36.5 -52.5t59 -35.5t81 -13t81.5 11.5t59.5 31t36 46t12 55.5v301q0 38 -18 66t-44 28h-10v12q15 1 37.5 0t37.5 0t36.5 1t35.5 -1z" />
    <glyph glyph-name="LETTERSMALLCAPITALV" unicode="&#x1d20;" horiz-adv-x="516" 
d="M516 553v-12h-9q-21 0 -44 -25t-33 -59v0l-143 -472h-5l-179 472v0q-12 34 -33.5 59t-38.5 25h-8v12q11 1 27.5 1t27.5 -1q19 1 46 1t45 -1v-12h-11q-26 0 -36.5 -25t2.5 -59v0l166 -446l125 416v0q7 23 6.5 43.5t-6.5 36.5t-17.5 25t-27.5 9h-14v12q20 1 50 1t50 -1
q12 1 30 1t30 -1z" />
    <glyph glyph-name="LETTERSMALLCAPITALW" unicode="&#x1d21;" horiz-adv-x="737" 
d="M733 553v-12h-9q-20 0 -40.5 -21.5t-31.5 -52.5l-134 -482h-5l130 472v0q10 34 -4 59t-42 25h-12v12q17 1 43.5 1t44.5 -1q12 1 29.5 1t30.5 -1zM140 553v-12h-11q-22 0 -32.5 -22t-4.5 -53l130 -453l-7 -28l146 578h5l155 -549l-8 -29l-155 547l-138 -547h-5l-145 483
q-11 30 -29 51.5t-33 21.5h-7v12q11 1 27.5 1t27.5 -1q17 1 42 1t42 -1z" />
    <glyph glyph-name="LETTERSMALLCAPITALZ" unicode="&#x1d22;" horiz-adv-x="527" 
d="M465 3q0 -2 -1 -3h-96h-284h-11h-10l381 548h-159q-20 0 -42.5 -6.5t-43.5 -18t-39 -26t-30 -31.5l-9 -15h-11q5 20 13.5 50t13.5 50q0 1 1 2q0 2 6 0q4 2 6 0q17 1 42 1t42 -1h213h11h11l-382 -548h223q22 0 45.5 8t44.5 22.5t37.5 33t25.5 39.5l7 18q2 -1 4 -1
q5 -2 9 -4l2 -1q-4 -24 -9.5 -59t-10.5 -58z" />
    <glyph glyph-name="Wgrave" unicode="&#x1e80;" horiz-adv-x="859" 
d="M765 564v0q10 34 -4 58.5t-42 24.5h-12q-2 0 0 7q-2 6 0 6h85h3h3h57q2 0 0 -6q2 -7 0 -7h-9q-20 0 -41 -22t-32 -54l-163 -586h-5l-186 647l-168 -647h-5l-176 592q-11 29 -29 49.5t-33 20.5h-7v13h44h12h12h73v-13h-10q-24 0 -34.5 -24.5t-0.5 -58.5v0l158 -545
l168 651h6l186 -649l150 543v0zM401 831l102 -138l-3 -1l-110 131q-19 22 -32.5 39t-13.5 19t4.5 5t7.5 3q1 0 14.5 -17.5t30.5 -40.5z" />
    <glyph glyph-name="Wacute" unicode="&#x1e82;" horiz-adv-x="859" 
d="M363 692l-3 1l99 138q9 12 17 22.5t14 18.5q7 9 13 17q2 0 6.5 -3t5.5 -5q-1 -1 -14 -18t-31 -40zM765 564v0q10 34 -4 58.5t-42 24.5h-12q-2 0 0 7q-2 6 0 6h85h3h3h57q2 0 0 -6q2 -7 0 -7h-9q-20 0 -41 -22t-32 -54l-163 -586h-5l-186 647l-168 -647h-5l-176 592
q-11 29 -29 49.5t-33 20.5h-7v13h44h12h12h73v-13h-10q-24 0 -34.5 -24.5t-0.5 -58.5v0l158 -545l168 651h6l186 -649l150 543v0z" />
    <glyph glyph-name="Wdieresis" unicode="&#x1e84;" horiz-adv-x="859" 
d="M509 730q-8 0 -14 6t-6 14t6 14t14 6t14 -6t6 -14t-6 -14t-14 -6zM342 730q-8 0 -14 6t-6 14t6 14t14 6t14 -6t6 -14t-6 -14t-14 -6zM765 564v0q10 34 -4 58.5t-42 24.5h-12q-2 0 0 7q-2 6 0 6h85h3h3h57q2 0 0 -6q2 -7 0 -7h-9q-20 0 -41 -22t-32 -54l-163 -586h-5
l-186 647l-168 -647h-5l-176 592q-11 29 -29 49.5t-33 20.5h-7v13h44h12h12h73v-13h-10q-24 0 -34.5 -24.5t-0.5 -58.5v0l158 -545l168 651h6l186 -649l150 543v0z" />
    <glyph glyph-name="CapitalLetterEWITHTI" unicode="&#x1ebc;" horiz-adv-x="518" 
d="M111 755h-3q0 35 16 60t39 25q21 0 44.5 -10t48 -21.5t48 -21.5t44.5 -10q20 0 34.5 18t14.5 42h4q0 -29 -17 -51t-40 -22q-21 0 -44.5 10t-48 21.5t-48 21.5t-44.5 10q-20 0 -34 -21.5t-14 -50.5zM352 271h-10l-3 10q-3 12 -15 22.5t-29 19t-38 13t-43 4.5h-92v-335h132
q24 0 49.5 7.5t48.5 20.5t41 29.5t28 35.5l8 17h9q-4 -23 -9.5 -56t-9.5 -56q-1 -1 -1 -3h-1h-95h-200h-10h-11h-61v13h9q21 0 36.5 24.5t15.5 58.5v468q0 34 -15.5 58.5t-36.5 24.5h-9v13h61h11h10h192h93h3v-3v-112h-9l-6 17q-6 19 -21.5 36t-36 29.5t-44.5 20t-48 7.5
h-123v-310h92q22 0 43 4t38 11.5t29 17t15 19.5l3 9h10v-61v-3v-2v-69z" />
    <glyph glyph-name="Ygrave" unicode="&#x1ef2;" 
d="M359 13v-13h-61h-11h-11h-60v13h9q20 0 35.5 24.5t15.5 58.5v151l-160 322q-17 32 -40 55t-38 23h-6v13h38h13h13h73v-13h-10q-22 0 -27.5 -21.5t7.5 -52.5l155 -314l-2 -3h1l146 288v0q21 42 16 72.5t-34 30.5h-12v13h89h3h3h47v-13h-8q-9 0 -20.5 -6.5t-23.5 -18
t-23.5 -26.5t-20.5 -32v0l-157 -308v0v-160q0 -34 15.5 -58.5t36.5 -24.5h9zM262 831l102 -138l-2 -1l-110 131q-19 22 -33 39t-14 19t5 5t7 3t15 -17.5t30 -40.5z" />
    <glyph glyph-name="quoteleft" unicode="&#x2018;" horiz-adv-x="150" 
d="M-14 586q21 -22 38 -24t26 15q-20 -6 -49 23zM79 603q8 0 13.5 -5.5t5.5 -13.5t-5.5 -13t-13.5 -5q-17 0 -19 17q-5 -5 -10 -6q7 11 7 34q0 16 10 32t24 23l1 -4q-8 -4 -14 -15.5t-6 -22.5q0 -14 -3 -23q6 2 10 2z" />
    <glyph glyph-name="quoteright" unicode="&#x2019;" horiz-adv-x="150" 
d="M171 645q-20 21 -37.5 23t-25.5 -14q20 6 49 -23zM79 627q-8 0 -13.5 5.5t-5.5 13.5t5.5 13.5t13.5 5.5q15 0 19 -16q6 4 10 5q-7 -11 -7 -34q0 -16 -10 -32t-24 -23l-2 4q8 4 14 15t6 23q0 6 0.5 11.5t1.5 10.5q-4 -2 -8 -2z" />
    <glyph glyph-name="quotedblleft" unicode="&#x201c;" horiz-adv-x="206" 
d="M-94 586l14 14q52 -54 96.5 -71t73.5 0q-26 -32 -75 -18.5t-109 75.5zM-14 586l15 14q29 -29 49 -23q-9 -17 -26 -15t-38 24zM134 603q-4 0 -8 -2q1 5 1 11v12q0 11 6.5 22.5t14.5 15.5l-2 4q-14 -7 -24 -23t-10 -32q0 -55 -22 -82q21 13 30 43q6 -6 14 -6t13.5 5t5.5 13
t-5.5 13.5t-13.5 5.5zM79 603q-4 0 -10 -2q3 9 3 23q0 11 6 22.5t14 15.5l-1 4q-14 -7 -24 -23t-10 -32q0 -23 -7 -34q5 1 10 6q2 -17 19 -17q8 0 13.5 5t5.5 13t-5.5 13.5t-13.5 5.5z" />
    <glyph glyph-name="quotedblright" unicode="&#x201d;" horiz-adv-x="206" 
d="M362 645l-14 -14q-52 54 -96.5 71t-73.5 0q26 32 75 18.5t109 -75.5zM134 627q4 0 8 2q-1 -5 -1 -10.5v-11.5q0 -12 -6 -23t-15 -15l2 -4q14 7 24 23t10 32v12q-2 2 -3 2.5t-2 2.5q2 6 2 9q0 6 -5 13q-2 -4 -2.5 -8t-1.5 -8q-15 11 -27 12q-2 -6 -2 -9q0 -8 5.5 -13.5
t13.5 -5.5zM79 627q4 0 8 2q-1 -5 -1.5 -10.5t-0.5 -11.5q0 -12 -6 -23t-14 -15l2 -4q14 7 24 23t10 32q0 23 7 34q-4 -1 -10 -5q-4 16 -19 16q-8 0 -13.5 -5.5t-5.5 -13.5t5.5 -13.5t13.5 -5.5zM178 702q-20 -12 -29 -39q2 -2 5 -3.5t5 -3.5q4 28 19 46v0zM156 632l3 24
q4 -3 12 -11l-14 -14zM108 654q13 25 41 9q0 -2 -0.5 -2.5t-0.5 -1.5q-6 6 -14 6q-10 0 -17 -10q-6 0 -9 -1v0z" />
    <glyph glyph-name="ellipsis" unicode="&#x2026;" horiz-adv-x="420" 
d="M350 0q-8 0 -14 6t-6 14t6 14t14 6t14 -6t6 -14t-6 -14t-14 -6zM210 0q-8 0 -14 6t-6 14t6 14t14 6t14 -6t6 -14t-6 -14t-14 -6zM70 0q-8 0 -14 6t-6 14t6 14t14 6t14 -6t6 -14t-6 -14t-14 -6z" />
    <glyph glyph-name="guilsinglleft" unicode="&#x2039;" horiz-adv-x="289" 
d="M41 250l203 -211l-2 -2l-222 212v2l221 213l3 -3z" />
    <glyph glyph-name="guilsinglright" unicode="&#x203a;" horiz-adv-x="289" 
d="M248 251l-202 210l2 3l221 -213v-2l-222 -212l-2 2z" />
    <glyph glyph-name="Euro" unicode="&#x20ac;" horiz-adv-x="655" 
d="M596 488h-11q-2 7 -5.5 16t-5.5 16q-8 24 -26 47.5t-41.5 42.5t-50.5 32t-54 16v0q-6 1 -11.5 1.5t-10.5 0.5q-48 0 -91.5 -22.5t-77.5 -61.5t-56.5 -91.5t-28.5 -112.5h299l-2 -14h-298q-1 -6 -1 -12.5v-12.5v-12.5t1 -12.5h298l-2 -15h-295q6 -61 28.5 -114t56.5 -93
t77.5 -63t91.5 -23q9 0 20.5 2t25.5 5q48 14 89.5 52t58.5 86q2 7 5.5 16t5.5 16h11v-106q-21 -12 -45 -24q-25 -12 -51.5 -22t-52.5 -18q-20 -5 -37 -8.5t-30 -3.5q-52 0 -100 23.5t-85.5 64t-62 94.5t-30.5 116h-54l2 15h51q-1 6 -1 12.5v12.5v12.5t1 12.5h-51l2 14h50
q6 61 30.5 114.5t62 93t85.5 62.5t100 23q19 0 45.5 -5.5t56.5 -15.5t59.5 -23t54.5 -27v-106z" />
    <glyph glyph-name="LETTERSMALLCAPITALF" unicode="&#xa730;" horiz-adv-x="400" 
d="M296 212h-11l-2 10q-3 12 -15 22.5t-29 18.5t-38.5 12.5t-43.5 4.5h-36v-184q0 -34 17.5 -58.5t42.5 -24.5h10v-13h-70h-10h-10h-60v13h9q20 0 35.5 24.5t15.5 58.5v361q0 34 -15.5 59t-35.5 25h-9v12q14 1 35 1t35 -1h10h176q17 1 42 1t42 -1q2 2 6 0q6 2 6 0v-2v-112
h-9l-6 17q-6 19 -21 35.5t-35.5 29t-45 20t-48.5 7.5h-107v-263h36q22 0 43.5 4.5t38.5 11.5t29 16.5t15 19.5l2 9h11v-61v-2v-3v-68z" />
    <glyph glyph-name="LETTERSMALLCAPITALS" unicode="&#xa731;" horiz-adv-x="439" 
d="M44 163h11q2 -7 5.5 -16t5.5 -16q8 -24 24.5 -45.5t37.5 -39t45.5 -29.5t48.5 -16q7 -1 13 -1h11q27 0 51.5 10t43 27t29.5 40t11 48q0 20 -13.5 41t-36.5 41t-53.5 36.5t-64.5 26.5q-31 9 -59.5 25t-49.5 35.5t-33.5 40.5t-12.5 41q0 30 11.5 56.5t31.5 46.5t46.5 31.5
t55.5 11.5q14 0 33.5 -4t42 -11t45 -16.5t41.5 -19.5v-107h-11q-3 9 -8 23t-8 23q-6 18 -18.5 36t-28.5 32.5t-33 24t-34 12.5v1q-6 1 -11.5 1.5t-10.5 0.5q-27 0 -50.5 -11t-41.5 -29t-28.5 -42.5t-10.5 -51.5q0 -19 12.5 -39t34 -38.5t50 -34t60.5 -24.5q33 -10 63.5 -27
t53 -37.5t36 -43t13.5 -43.5q0 -28 -12 -53t-32 -44t-47 -30t-57 -11q-24 0 -52 5t-56 13t-52.5 19.5t-41.5 23.5v107z" />
    <glyph glyph-name="[namenotfound]001" unicode="&#xf078;" horiz-adv-x="548" 
d="M531 553v-12h-9q-10 0 -24.5 -7t-29.5 -18.5t-29.5 -26.5t-26.5 -32v0l-119 -169l138 -200q23 -31 49 -53t40 -22h7v-13h-36h-11h-11h-81v13h11q25 0 26 24.5t-22 58.5v0l-119 174l-96 -159h1q-24 -40 -21 -69t31 -29h12v-13h-89h-3h-3h-53v13h9q20 0 48.5 22t48.5 54
l112 185v0l-131 191q-23 31 -49 53.5t-40 22.5h-7v12q10 1 23.5 1t23.5 -1q19 1 46 1t46 -1v-12h-11q-25 0 -26 -25t22 -59v0l113 -166l120 173q19 32 15 54.5t-30 22.5h-12v12q19 1 46 1t46 -1q11 1 27.5 1t27.5 -1z" />
  </font>
</defs>
</svg>
