<svg width="12" height="12" viewBox="0 0 12 12" fill="none" xmlns="http://www.w3.org/2000/svg">
<path d="M1.96087 11.3667C1.59143 11.3667 1.27798 11.2379 1.02054 10.9805C0.762706 10.7227 0.633789 10.409 0.633789 10.0396V1.96041C0.633789 1.59097 0.762706 1.27733 1.02054 1.0195C1.27798 0.762054 1.59143 0.633331 1.96087 0.633331H6.00046V1.96041H1.96087V10.0396H10.04V6H11.3671V10.0396C11.3671 10.409 11.2384 10.7227 10.981 10.9805C10.7231 11.2379 10.4095 11.3667 10.04 11.3667H1.96087ZM4.76087 8.15833L3.84212 7.23958L9.12129 1.96041H7.16712V0.633331H11.3671V4.83333H10.04V2.87916L4.76087 8.15833Z" fill="white"/>
</svg>
